<svg width="636" height="595" viewBox="0 0 636 595" fill="none" xmlns="http://www.w3.org/2000/svg">
<path d="M532.975 233.87C535.522 233.87 537.587 231.782 537.587 229.208C537.587 226.633 535.522 224.546 532.975 224.546C530.428 224.546 528.363 226.633 528.363 229.208C528.363 231.782 530.428 233.87 532.975 233.87Z" fill="#F2F2F2"/>
<path opacity="0.2" d="M498.396 132.53C502.634 132.53 506.069 129.057 506.069 124.774C506.069 120.49 502.634 117.018 498.396 117.018C494.158 117.018 490.722 120.49 490.722 124.774C490.722 129.057 494.158 132.53 498.396 132.53Z" fill="black"/>
<path d="M570.021 525.592L568.931 535.504L578.738 534.402V522.288L570.021 525.592Z" fill="#FFB8B8"/>
<path d="M576.559 525.592C576.559 525.592 582.007 522.288 584.186 524.491C586.365 526.693 603.799 548.719 603.799 548.719C603.799 548.719 627.771 564.138 605.978 568.543C584.186 572.948 567.842 552.023 566.753 549.821C565.663 547.618 567.842 529.997 568.932 532.2C570.021 534.403 573.29 533.301 574.38 532.2C575.469 531.099 576.559 525.592 576.559 525.592Z" fill="#2F2E41"/>
<path d="M532.43 148.95C544.766 148.95 554.767 138.842 554.767 126.373C554.767 113.904 544.766 103.797 532.43 103.797C520.094 103.797 510.093 113.904 510.093 126.373C510.093 138.842 520.094 148.95 532.43 148.95Z" fill="#FFB8B8"/>
<path d="M517.72 139.038L514.451 173.178L540.602 178.685L547.14 137.937L517.72 139.038Z" fill="#FFB8B8"/>
<path d="M544.96 165.469C544.96 165.469 538.423 179.786 514.451 164.368L469.778 311.941C469.778 311.941 529.706 348.284 567.842 320.751L554.767 172.077L544.96 165.469Z" fill="#575A89"/>
<path d="M543.871 151.152L555.857 154.456L556.946 169.874C556.946 169.874 586.366 188.596 587.455 199.609C588.545 210.622 565.663 263.484 565.663 263.484C565.663 263.484 574.38 278.902 571.111 288.814C571.111 288.814 585.276 317.448 576.559 325.157C576.559 325.157 560.215 329.562 558.036 322.954C555.857 316.346 536.244 240.357 544.961 204.014C544.961 204.014 536.244 157.76 543.871 151.152Z" fill="#2F2E41"/>
<path d="M556.401 187.018H555.991V175.662C555.991 174.799 555.823 173.944 555.496 173.147C555.169 172.35 554.69 171.625 554.087 171.015C553.483 170.404 552.766 169.92 551.977 169.59C551.188 169.26 550.343 169.09 549.489 169.09H525.686C524.832 169.09 523.986 169.26 523.197 169.59C522.408 169.92 521.691 170.404 521.088 171.015C520.484 171.625 520.005 172.35 519.678 173.147C519.351 173.944 519.183 174.799 519.183 175.662V237.96C519.183 238.823 519.351 239.677 519.678 240.475C520.005 241.272 520.484 241.997 521.088 242.607C521.691 243.217 522.408 243.701 523.197 244.032C523.986 244.362 524.832 244.532 525.686 244.532H549.489C550.343 244.532 551.188 244.362 551.977 244.032C552.766 243.701 553.483 243.217 554.087 242.607C554.69 241.997 555.169 241.272 555.496 240.475C555.823 239.677 555.991 238.823 555.991 237.96V195.101H556.401V187.018Z" fill="white"/>
<path d="M566.753 231.547C566.753 231.547 558.036 202.913 544.96 211.723C531.885 220.534 553.677 244.762 553.677 244.762L566.753 231.547Z" fill="#FFB8B8"/>
<path d="M506.824 210.622C506.824 210.622 522.079 191.9 529.706 200.71C537.333 209.521 516.631 229.344 516.631 229.344L506.824 210.622Z" fill="#FFB8B8"/>
<path opacity="0.1" d="M472.306 201.729L476.86 225.489L510.638 205.667L479.039 217.781L472.073 200.311L472.306 201.729Z" fill="black"/>
<path opacity="0.1" d="M568.387 225.489L572.745 228.793L574.925 213.375L568.387 225.489Z" fill="black"/>
<ellipse cx="371.374" cy="572.5" rx="263.975" ry="21.5779" fill="#E4E4E4" fill-opacity="0.66"/>
<path d="M468.402 169.381C498.121 169.381 522.213 145.03 522.213 114.992C522.213 84.9546 498.121 60.6041 468.402 60.6041C438.683 60.6041 414.591 84.9546 414.591 114.992C414.591 145.03 438.683 169.381 468.402 169.381Z" fill="#F2F2F2"/>
<path d="M453.027 321.668C455.574 321.668 457.64 319.581 457.64 317.006C457.64 314.431 455.574 312.344 453.027 312.344C450.48 312.344 448.415 314.431 448.415 317.006C448.415 319.581 450.48 321.668 453.027 321.668Z" fill="#FFB606"/>
<path d="M468.402 9.3237C470.949 9.3237 473.014 7.23652 473.014 4.66185C473.014 2.08718 470.949 0 468.402 0C465.854 0 463.789 2.08718 463.789 4.66185C463.789 7.23652 465.854 9.3237 468.402 9.3237Z" fill="#F2F2F2"/>
<path opacity="0.2" d="M463.721 92.3074C466.655 92.3074 469.033 89.9034 469.033 86.9379C469.033 83.9725 466.655 81.5685 463.721 81.5685C460.787 81.5685 458.408 83.9725 458.408 86.9379C458.408 89.9034 460.787 92.3074 463.721 92.3074Z" fill="black"/>
<path opacity="0.2" d="M450.79 135.208C453.724 135.208 456.102 132.804 456.102 129.838C456.102 126.873 453.724 124.469 450.79 124.469C447.856 124.469 445.477 126.873 445.477 129.838C445.477 132.804 447.856 135.208 450.79 135.208Z" fill="black"/>
<path d="M467.598 525.592L468.688 535.504L458.882 534.402V522.288L467.598 525.592Z" fill="#FFB8B8"/>
<path d="M466.509 311.941L462.15 425.374C462.15 425.374 447.985 510.174 451.254 512.377C454.523 514.579 451.254 526.693 451.254 526.693L469.777 528.896C469.777 528.896 469.777 520.086 474.136 516.782C478.494 513.478 518.81 358.195 518.81 358.195L560.215 507.971C560.215 507.971 559.125 516.782 562.394 516.782C565.663 516.782 566.752 528.896 566.752 528.896H585.276V516.782C585.276 516.782 590.724 515.68 587.455 506.87C584.186 498.06 572.201 311.941 572.201 311.941L466.509 311.941Z" fill="#34334D"/>
<path d="M461.061 525.592C461.061 525.592 455.613 522.288 453.433 524.491C451.254 526.693 433.82 548.719 433.82 548.719C433.82 548.719 409.849 564.138 431.641 568.543C453.433 572.948 469.777 552.023 470.867 549.821C471.957 547.618 469.777 529.997 468.688 532.2C467.598 534.403 464.329 533.301 463.24 532.2C462.15 531.099 461.061 525.592 461.061 525.592Z" fill="#2F2E41"/>
<path d="M518.81 148.949L498.107 145.646L495.928 159.962C495.928 159.962 467.598 163.266 464.329 174.279L467.598 255.775C467.598 255.775 457.792 273.396 466.509 284.409C466.509 284.409 452.344 314.144 463.24 319.65C463.24 319.65 488.301 307.536 503.555 310.84C503.555 310.84 512.272 308.637 512.272 302.029C512.272 295.422 518.81 148.949 518.81 148.949Z" fill="#2F2E41"/>
<path d="M467.598 173.178C467.598 173.178 462.15 172.077 458.881 181.988C455.613 191.9 443.627 229.344 443.627 235.952C443.627 242.56 447.985 268.991 471.957 264.585C495.928 260.18 524.258 229.344 524.258 229.344L509.003 206.217L476.315 226.04L467.598 173.178Z" fill="#2F2E41"/>
<path opacity="0.1" d="M467.053 267.339C467.053 267.339 499.058 258.539 514.11 239.261C514.11 239.261 498.652 265.136 467.053 267.339Z" fill="black"/>
<path opacity="0.1" d="M547.684 247.515C547.684 247.515 554.424 280.852 571.756 281.804C571.756 281.804 550.953 288.263 547.684 247.515Z" fill="black"/>
<path d="M583.097 195.204C583.097 195.204 586.366 197.406 588.545 207.318C590.724 217.23 604.889 254.674 599.441 263.484C593.993 272.294 585.276 292.118 566.753 278.902L548.229 244.762L566.753 227.141L574.38 232.648L583.097 195.204Z" fill="#2F2E41"/>
<path d="M510.986 132.099C510.986 132.099 492.253 101.412 512.207 99.8161C518.865 99.3454 525.367 97.5547 531.342 94.5462C537.956 91.1444 546.282 88.5586 550.712 93.7953C552.646 96.1898 554.9 98.3004 557.41 100.066C561.302 102.675 565.805 106.904 563.311 111.44L559.223 118.877L553.5 133.752C554.833 127.336 554.866 121.949 551.456 119.291C551.456 119.291 532.43 127.474 522.841 112.68C512.108 104.54 508.693 130.161 510.986 132.099Z" fill="#2F2E41"/>
<path d="M537.878 196.856C540.887 196.856 543.326 194.39 543.326 191.349C543.326 188.308 540.887 185.843 537.878 185.843C534.869 185.843 532.43 188.308 532.43 191.349C532.43 194.39 534.869 196.856 537.878 196.856Z" fill="#F9A826"/>
<path d="M303.125 9.3237C305.672 9.3237 307.737 7.23652 307.737 4.66185C307.737 2.08718 305.672 0 303.125 0C300.577 0 298.512 2.08718 298.512 4.66185C298.512 7.23652 300.577 9.3237 303.125 9.3237Z" fill="#FFB606"/>
<path d="M349.249 135.194C351.796 135.194 353.861 133.107 353.861 130.532C353.861 127.957 351.796 125.87 349.249 125.87C346.701 125.87 344.636 127.957 344.636 130.532C344.636 133.107 346.701 135.194 349.249 135.194Z" fill="#F2F2F2"/>
<path d="M131.587 137.086C134.134 137.086 136.199 134.998 136.199 132.424C136.199 129.849 134.134 127.762 131.587 127.762C129.04 127.762 126.975 129.849 126.975 132.424C126.975 134.998 129.04 137.086 131.587 137.086Z" fill="#F2F2F2"/>
<path d="M192.428 451.423C279.038 451.423 349.249 380.458 349.249 292.92C349.249 205.381 279.038 134.417 192.428 134.417C105.818 134.417 35.6071 205.381 35.6071 292.92C35.6071 380.458 105.818 451.423 192.428 451.423Z" fill="#FFB606"/>
<path opacity="0.2" d="M185.509 251.74C198.246 251.74 208.571 241.304 208.571 228.431C208.571 215.557 198.246 205.121 185.509 205.121C172.772 205.121 162.447 215.557 162.447 228.431C162.447 241.304 172.772 251.74 185.509 251.74Z" fill="black"/>
<path opacity="0.2" d="M185.509 425.005C207.586 425.005 225.483 406.916 225.483 384.603C225.483 362.289 207.586 344.2 185.509 344.2C163.432 344.2 145.535 362.289 145.535 384.603C145.535 406.916 163.432 425.005 185.509 425.005Z" fill="black"/>
<path opacity="0.2" d="M138.846 168.716C144.366 168.716 148.84 164.194 148.84 158.616C148.84 153.037 144.366 148.515 138.846 148.515C133.327 148.515 128.853 153.037 128.853 158.616C128.853 164.194 133.327 168.716 138.846 168.716Z" fill="black"/>
<path opacity="0.2" d="M238.483 198.753C241.417 198.753 243.795 196.349 243.795 193.384C243.795 190.418 241.417 188.014 238.483 188.014C235.549 188.014 233.17 190.418 233.17 193.384C233.17 196.349 235.549 198.753 238.483 198.753Z" fill="black"/>
<path opacity="0.2" d="M178.591 306.905C182.412 306.905 185.509 303.774 185.509 299.912C185.509 296.05 182.412 292.92 178.591 292.92C174.77 292.92 171.672 296.05 171.672 299.912C171.672 303.774 174.77 306.905 178.591 306.905Z" fill="black"/>
<path opacity="0.2" d="M307.806 267.293C310.74 267.293 313.118 264.889 313.118 261.924C313.118 258.958 310.74 256.554 307.806 256.554C304.872 256.554 302.493 258.958 302.493 261.924C302.493 264.889 304.872 267.293 307.806 267.293Z" fill="black"/>
<path opacity="0.2" d="M263.933 324.443C268.171 324.443 271.607 320.97 271.607 316.687C271.607 312.403 268.171 308.931 263.933 308.931C259.695 308.931 256.26 312.403 256.26 316.687C256.26 320.97 259.695 324.443 263.933 324.443Z" fill="black"/>
<path opacity="0.2" d="M164.983 73.9253C170.502 73.9253 174.977 69.403 174.977 63.8246C174.977 58.2462 170.502 53.7239 164.983 53.7239C159.464 53.7239 154.99 58.2462 154.99 63.8246C154.99 69.403 159.464 73.9253 164.983 73.9253Z" fill="black"/>
<path d="M226.405 384.283C209.913 384.261 193.436 383.298 177.051 381.401C127.77 375.744 82.32 362.378 49.0725 343.764C15.4181 324.923 -1.80288 302.861 0.581044 281.643C2.23261 266.943 16.2904 253.785 43.5574 241.419C43.9294 241.251 44.3521 241.24 44.7327 241.386C45.1133 241.533 45.4207 241.827 45.5874 242.202C45.7542 242.578 45.7667 243.005 45.6221 243.39C45.4775 243.775 45.1878 244.086 44.8164 244.255C18.6252 256.132 5.15513 268.477 3.63644 281.993C1.40157 301.881 18.067 322.853 50.5627 341.046C83.4649 359.466 128.509 372.701 177.398 378.313C226.287 383.924 273.12 381.235 309.271 370.742C344.976 360.377 365.869 343.717 368.103 323.829C369.615 310.374 362.283 296.109 346.9 282.573C346.592 282.302 346.403 281.919 346.375 281.508C346.347 281.097 346.482 280.691 346.749 280.38C347.017 280.069 347.396 279.879 347.803 279.85C348.21 279.822 348.611 279.958 348.919 280.229C365.1 294.466 372.79 309.664 371.159 324.179C368.775 345.397 347.098 362.995 310.12 373.728C286.044 380.717 257.308 384.283 226.405 384.283Z" fill="white"/>
<path d="M244.644 71.1946C248.047 71.1946 250.806 68.4361 250.806 65.0332C250.806 61.6304 248.047 58.8718 244.644 58.8718C241.241 58.8718 238.483 61.6304 238.483 65.0332C238.483 68.4361 241.241 71.1946 244.644 71.1946Z" fill="#F2F2F2"/>
<path d="M297.845 560.452C301.247 560.452 304.006 557.693 304.006 554.291C304.006 550.888 301.247 548.129 297.845 548.129C294.442 548.129 291.683 550.888 291.683 554.291C291.683 557.693 294.442 560.452 297.845 560.452Z" fill="#FFB606"/>
</svg>
