<svg width="51" height="51" viewBox="0 0 51 51" fill="none" xmlns="http://www.w3.org/2000/svg">
<path fill-rule="evenodd" clip-rule="evenodd" d="M28.147 50.5547H0.224121V4.72135H6.47412C9.0387 4.72135 11.0179 2.46302 12.7241 0.554688H29.3908C31.1012 2.46302 33.0825 4.72135 35.6408 4.72135H41.8908V23.7839C40.8804 23.5797 39.8345 23.4714 38.7658 23.4714L37.7241 23.5047V8.88802H29.3908L25.2241 13.0547H17.1054L12.7241 8.88802H4.39079V46.388H24.945C25.772 47.9526 26.8595 49.3609 28.147 50.5547ZM38.7658 27.638C45.0887 27.638 50.2241 32.7714 50.2241 39.0964C50.2241 45.4214 45.0887 50.5547 38.7658 50.5547C32.4408 50.5547 27.3075 45.4214 27.3075 39.0964C27.3075 32.7714 32.4408 27.638 38.7658 27.638ZM38.7658 31.8047C42.7887 31.8047 46.0575 35.0714 46.0575 39.0964C46.0575 43.1214 42.7887 46.388 38.7658 46.388C34.7408 46.388 31.4741 43.1214 31.4741 39.0964C31.4741 35.0714 34.7408 31.8047 38.7658 31.8047ZM43.9741 40.138H37.7241V33.888H39.8075V38.0547H43.9741V40.138ZM12.4095 31.6964L10.2241 29.6464L8.55745 31.3609L12.4408 35.0609L18.9741 28.4109L17.2762 26.7276L12.4095 31.6964ZM25.2241 33.888H21.0575V31.8047H25.2241V33.888ZM29.3908 29.7214H21.0575V27.638H29.3908V29.7214ZM12.4095 21.3359L10.2241 19.288L8.55745 21.0026L12.4408 24.7026L18.9741 18.0526L17.2762 16.3693L12.4095 21.3359ZM29.3908 23.4714H21.0575V21.388H29.3908V23.4714ZM29.3908 19.3047H21.0575V17.2214H29.3908V19.3047ZM18.9741 6.80469C18.9741 7.95469 19.9095 8.88802 21.0575 8.88802C22.2095 8.88802 23.1408 7.95469 23.1408 6.80469C23.1408 5.65469 22.2095 4.72135 21.0575 4.72135C19.9095 4.72135 18.9741 5.65469 18.9741 6.80469Z" fill="#FFB606"/>
</svg>
