<svg width="25" height="25" viewBox="0 0 25 25" fill="none" xmlns="http://www.w3.org/2000/svg">
<path d="M11.5049 6.07812V14.0781H18.5049V12.0781H13.5049V6.07812H11.5049ZM22.3589 13.7611L24.3569 13.9201C24.2249 14.7741 24.0059 15.5961 23.7049 16.3801L21.9049 15.4751C22.1049 14.9241 22.2579 14.3521 22.3589 13.7611ZM19.8109 21.5871L18.3979 20.1441C17.9119 20.5001 17.3919 20.8121 16.8429 21.0771L17.5119 22.9761C18.3329 22.5991 19.1029 22.1321 19.8109 21.5871ZM21.0369 17.2781C20.7019 17.8241 20.3179 18.3351 19.8879 18.8061L21.2919 20.2391C21.8749 19.6121 22.3909 18.9231 22.8309 18.1811L21.0369 17.2781ZM0.504883 12.0781C0.504883 18.7051 5.87988 24.0781 12.5089 24.0781C13.5899 24.0781 14.6329 23.9221 15.6289 23.6541L14.9639 21.7601C14.1769 21.9601 13.3569 22.0781 12.5089 22.0781C6.99288 22.0781 2.50588 17.5921 2.50588 12.0781C2.50588 6.56413 6.99288 2.07812 12.5089 2.07812C14.7439 2.07812 16.8019 2.82212 18.4679 4.06713L16.4179 6.11613L23.4329 7.47013L22.0779 0.457125L19.8939 2.64013C17.8579 1.04212 15.2989 0.078125 12.5089 0.078125C5.87988 0.078125 0.504883 5.45113 0.504883 12.0781H0.504883ZM24.2779 9.71912H22.2019C22.3649 10.3801 22.4629 11.0631 22.4899 11.7661L24.5049 11.9271C24.4949 11.1721 24.4199 10.4331 24.2779 9.71912Z" fill="#FFB606"/>
</svg>
