<svg width="50" height="37" viewBox="0 0 50 37" fill="none" xmlns="http://www.w3.org/2000/svg">
<path d="M33.0768 26.6774H26.9518V36.8857H22.8685V26.6774H16.7435L24.9102 18.5107L33.0768 26.6774ZM40.1798 14.6152C39.7469 6.54862 33.0891 0.135742 24.9102 0.135742C16.7312 0.135742 10.0734 6.54862 9.64053 14.6152C4.39345 15.5605 0.410156 20.14 0.410156 25.6566C0.410156 31.8571 5.43878 36.8857 11.6393 36.8857H18.7852V32.8024H11.6393C7.69891 32.8024 4.49349 29.597 4.49349 25.6566C4.49349 19.946 9.55478 17.8309 13.5442 18.0616C13.2032 9.44983 18.0522 4.21908 24.9102 4.21908C31.96 4.21908 36.9376 9.92962 36.2761 18.0616C39.8388 17.9677 45.3268 19.5949 45.3268 25.6566C45.3268 29.597 42.1214 32.8024 38.181 32.8024H31.0352V36.8857H38.181C44.3815 36.8857 49.4102 31.8571 49.4102 25.6566C49.4102 20.14 45.4269 15.5605 40.1798 14.6152Z" fill="#FFB606"/>
</svg>
