<svg width="80" height="70" viewBox="0 0 80 70" fill="none" xmlns="http://www.w3.org/2000/svg">
<rect width="80" height="70" rx="35" fill="white"/>
<g clip-path="url(#clip0)">
<path d="M38.1376 42.8746L29.8387 60L27.7032 54.3517L21.8335 56.4087L29.6002 40.3841C31.0975 40.8431 32.1111 40.7284 33.6834 40.7284C35.3264 41.8185 36.0507 42.5219 38.1376 42.8746ZM45.3191 40.7305C43.6894 41.8058 43.0026 42.4964 40.9157 42.864L49.2168 60L51.3523 54.3517L57.1668 56.4087L49.4487 40.3671C47.9338 40.8389 46.918 40.7305 45.3191 40.7305ZM39.5002 15.375C34.6308 15.375 30.6668 19.1894 30.6668 23.875C30.6668 28.5606 34.6308 32.375 39.5002 32.375C44.3717 32.375 48.3335 28.5627 48.3335 23.875C48.3335 19.1873 44.3717 15.375 39.5002 15.375ZM54.7951 26.5907C54.9077 26.901 54.9585 27.2197 54.9585 27.5364C54.9585 28.4905 54.4682 29.4128 53.6004 29.9929C50.8267 31.8416 51.1933 31.3762 50.1509 34.3853C49.7137 35.6411 48.4505 36.489 47.0284 36.489H47.0195C43.5988 36.4784 44.1951 36.302 41.4369 38.1656C40.8583 38.5545 40.1803 38.75 39.5002 38.75C38.82 38.75 38.142 38.5545 37.5657 38.1656C34.8075 36.2999 35.4015 36.4784 31.983 36.489H31.9742C30.5498 36.489 29.2888 35.6411 28.8538 34.3853C27.8092 31.3741 28.167 31.8395 25.4044 29.9929C24.5321 29.4106 24.0418 28.4884 24.0418 27.5343C24.0418 27.2197 24.0948 26.901 24.2052 26.5907C25.2719 23.5924 25.2741 24.1704 24.2052 21.1614C24.0948 20.849 24.0418 20.5302 24.0418 20.2157C24.0418 19.2595 24.5321 18.3394 25.4022 17.7571C28.1648 15.9126 27.807 16.3801 28.8516 13.3647C29.2866 12.1089 30.5498 11.261 31.972 11.261H31.9808C35.3927 11.2716 34.7876 11.4629 37.5635 9.58225C38.142 9.1955 38.82 9 39.5002 9C40.1803 9 40.8583 9.19337 41.4347 9.58225C44.1929 11.448 43.5988 11.2716 47.0173 11.261H47.0262C48.4505 11.261 49.7115 12.1089 50.1487 13.3647C51.1933 16.3737 50.8267 15.9084 53.5982 17.7571C54.4682 18.3394 54.9585 19.2595 54.9585 20.2136C54.9585 20.5281 54.9077 20.849 54.7951 21.1593C53.7285 24.1576 53.724 23.5796 54.7951 26.5907ZM50.5418 23.875C50.5418 18.0079 45.5996 13.25 39.5002 13.25C33.403 13.25 28.4585 18.0079 28.4585 23.875C28.4585 29.7421 33.403 34.5 39.5002 34.5C45.5996 34.5 50.5418 29.7442 50.5418 23.875Z" fill="url(#paint0_linear)"/>
<g clip-path="url(#clip1)">
<path d="M39.5 17.6699C36.0608 17.6699 33.2725 20.3531 33.2725 23.6624C33.2725 26.9718 36.0608 29.6549 39.5 29.6549C42.9391 29.6549 45.7275 26.9718 45.7275 23.6624C45.7275 20.3531 42.9391 17.6699 39.5 17.6699ZM38.4833 26.1593L36.148 24.0025L36.872 23.2859L38.4703 24.7526L42.114 21.1655L42.8519 21.8692L38.4833 26.1593Z" fill="white"/>
</g>
</g>
<defs>
<linearGradient id="paint0_linear" x1="39.5002" y1="9" x2="39.5002" y2="60" gradientUnits="userSpaceOnUse">
<stop stop-color="#FBD11B"/>
<stop offset="1" stop-color="#FFB606"/>
</linearGradient>
<clipPath id="clip0">
<rect width="53" height="51" fill="white" transform="translate(13 9)"/>
</clipPath>
<clipPath id="clip1">
<rect width="12.455" height="11.985" fill="white" transform="translate(33.2725 17.6699)"/>
</clipPath>
</defs>
</svg>
