<svg width="347" height="328" viewBox="0 0 347 328" fill="none" xmlns="http://www.w3.org/2000/svg">
<g clip-path="url(#clip0)">
<path d="M85.9969 83.5375C80.0475 64.8812 61.675 54.5123 49.5885 58.7539C37.502 62.9955 28.7754 82.8743 34.7249 101.531C40.2318 118.799 56.9186 128.768 68.3979 126.989C68.3151 127.14 68.2607 127.307 68.2374 127.479L67.8864 130.55C67.8596 130.784 67.8904 131.022 67.9757 131.24C68.061 131.458 68.198 131.65 68.3738 131.797C68.5496 131.944 68.7582 132.041 68.98 132.08C69.2017 132.118 69.4292 132.097 69.6408 132.017L75.5539 129.793C75.7655 129.713 75.9542 129.578 76.1021 129.401C76.2499 129.223 76.3521 129.009 76.3988 128.778C76.4455 128.548 76.4352 128.308 76.369 128.083C76.3027 127.858 76.1826 127.654 76.0202 127.491L73.8887 125.353C73.8129 125.281 73.7292 125.218 73.6393 125.165C83.8778 119.377 91.5159 100.844 85.9969 83.5375Z" fill="#F2F2F2"/>
<path d="M64.458 69.8118C69.3988 72.4867 73.172 77.0494 74.9988 82.5582C76.8256 88.0669 76.5665 94.1011 74.2751 99.4153C73.7634 100.637 75.645 101.28 76.1534 100.066C78.5592 94.3159 78.804 87.8244 76.8384 81.8931C74.8729 75.9618 70.8424 71.0293 65.5554 68.0848C64.4394 67.4644 63.3338 69.1869 64.458 69.8118Z" fill="white"/>
<path d="M326.868 56.3431C320.919 37.6869 302.546 27.318 290.46 31.5596C278.373 35.8011 269.647 55.68 275.596 74.3363C281.103 91.6049 297.79 101.574 309.269 99.7951C309.186 99.9461 309.132 100.112 309.109 100.285L308.757 103.356C308.731 103.59 308.761 103.827 308.847 104.046C308.932 104.264 309.069 104.455 309.245 104.602C309.421 104.749 309.629 104.847 309.851 104.885C310.073 104.924 310.3 104.902 310.512 104.823L316.425 102.599C316.637 102.519 316.825 102.384 316.973 102.206C317.121 102.029 317.223 101.814 317.27 101.584C317.317 101.353 317.306 101.114 317.24 100.889C317.174 100.663 317.054 100.459 316.891 100.296L314.76 98.1591C314.684 98.0864 314.6 98.0232 314.51 97.9711C324.749 92.183 332.387 73.6494 326.868 56.3431Z" fill="#F2F2F2"/>
<path d="M305.33 42.6175C310.271 45.2924 314.044 49.8551 315.871 55.3638C317.698 60.8726 317.439 66.9068 315.147 72.221C314.635 73.4429 316.517 74.0854 317.025 72.8715C319.431 67.1216 319.676 60.6301 317.71 54.6988C315.745 48.7675 311.715 43.835 306.427 40.8905C305.311 40.2701 304.206 41.9925 305.33 42.6175Z" fill="white"/>
<path d="M186.99 26.316C181.041 7.65977 162.668 -2.7091 150.582 1.53246C138.495 5.77403 129.769 25.6529 135.718 44.3092C141.225 61.5779 157.912 71.547 169.391 69.768C169.308 69.919 169.254 70.0853 169.231 70.2578L168.88 73.3289C168.853 73.563 168.884 73.8004 168.969 74.0185C169.054 74.2367 169.191 74.4284 169.367 74.5753C169.543 74.7223 169.751 74.8197 169.973 74.8582C170.195 74.8968 170.422 74.8753 170.634 74.7957L176.547 72.5715C176.759 72.4919 176.947 72.3569 177.095 72.1793C177.243 72.0017 177.345 71.7874 177.392 71.5568C177.439 71.3261 177.428 71.0867 177.362 70.8614C177.296 70.6361 177.176 70.4323 177.013 70.2694L174.882 68.132C174.806 68.0593 174.722 67.9961 174.632 67.944C184.871 62.1559 192.509 43.6223 186.99 26.316Z" fill="#F2F2F2"/>
<path d="M165.451 12.5904C170.392 15.2653 174.165 19.828 175.992 25.3367C177.819 30.8455 177.56 36.8797 175.268 42.1939C174.757 43.4158 176.638 44.0583 177.146 42.8444C179.552 37.0945 179.797 30.603 177.832 24.6717C175.866 18.7404 171.836 13.8079 166.549 10.8634C165.433 10.243 164.327 11.9654 165.451 12.5904Z" fill="white"/>
<path d="M157.15 116.087C157.933 116.087 158.567 115.421 158.567 114.6C158.567 113.778 157.933 113.113 157.15 113.113C156.367 113.113 155.732 113.778 155.732 114.6C155.732 115.421 156.367 116.087 157.15 116.087Z" fill="#CCCCCC"/>
<path d="M154.13 175.732C155.676 175.732 156.93 174.417 156.93 172.795C156.93 171.173 155.676 169.858 154.13 169.858C152.584 169.858 151.33 171.173 151.33 172.795C151.33 174.417 152.584 175.732 154.13 175.732Z" fill="#CCCCCC"/>
<path d="M107.254 164.422C108.147 164.422 108.872 163.662 108.872 162.725C108.872 161.787 108.147 161.028 107.254 161.028C106.36 161.028 105.636 161.787 105.636 162.725C105.636 163.662 106.36 164.422 107.254 164.422Z" fill="#CCCCCC"/>
<path d="M131.834 136.631C132.802 136.631 133.586 135.808 133.586 134.793C133.586 133.778 132.802 132.955 131.834 132.955C130.867 132.955 130.082 133.778 130.082 134.793C130.082 135.808 130.867 136.631 131.834 136.631Z" fill="#CCCCCC"/>
<path d="M218.053 244.245C218.836 244.245 219.471 243.579 219.471 242.758C219.471 241.937 218.836 241.271 218.053 241.271C217.27 241.271 216.636 241.937 216.636 242.758C216.636 243.579 217.27 244.245 218.053 244.245Z" fill="#CCCCCC"/>
<path d="M171.634 213.671C173.18 213.671 174.434 212.356 174.434 210.734C174.434 209.112 173.18 207.797 171.634 207.797C170.088 207.797 168.834 209.112 168.834 210.734C168.834 212.356 170.088 213.671 171.634 213.671Z" fill="#CCCCCC"/>
<path d="M203.519 175.005C204.413 175.005 205.137 174.245 205.137 173.308C205.137 172.37 204.413 171.61 203.519 171.61C202.626 171.61 201.901 172.37 201.901 173.308C201.901 174.245 202.626 175.005 203.519 175.005Z" fill="#CCCCCC"/>
<path d="M214.159 211.484C215.127 211.484 215.912 210.661 215.912 209.646C215.912 208.631 215.127 207.808 214.159 207.808C213.192 207.808 212.407 208.631 212.407 209.646C212.407 210.661 213.192 211.484 214.159 211.484Z" fill="#CCCCCC"/>
<path d="M308.535 306.152C310.081 304.794 307.991 299.505 303.868 294.339C299.745 289.173 295.149 286.086 293.603 287.444C292.057 288.802 294.146 294.09 298.27 299.256C302.393 304.423 306.989 307.51 308.535 306.152Z" fill="#2F2E41"/>
<path d="M276.33 316.961C289.175 316.961 299.589 306.037 299.589 292.561C299.589 279.086 289.175 268.162 276.33 268.162C263.484 268.162 253.07 279.086 253.07 292.561C253.07 306.037 263.484 316.961 276.33 316.961Z" fill="#2F2E41"/>
<path d="M286.175 311.71H279.108V324.991H286.175V311.71Z" fill="#2F2E41"/>
<path d="M272.043 311.71H264.977V324.991H272.043V311.71Z" fill="#2F2E41"/>
<path d="M280.286 327.462C283.538 327.462 286.174 326.425 286.174 325.146C286.174 323.866 283.538 322.829 280.286 322.829C277.034 322.829 274.397 323.866 274.397 325.146C274.397 326.425 277.034 327.462 280.286 327.462Z" fill="#2F2E41"/>
<path d="M266.154 327.153C269.406 327.153 272.043 326.116 272.043 324.837C272.043 323.558 269.406 322.521 266.154 322.521C262.902 322.521 260.266 323.558 260.266 324.837C260.266 326.116 262.902 327.153 266.154 327.153Z" fill="#2F2E41"/>
<path d="M269.026 261.89C271.103 253.116 280.271 247.953 289.503 250.357C298.735 252.762 304.535 261.824 302.458 270.599C300.382 279.373 293.491 279.401 284.259 276.996C275.027 274.591 266.949 270.664 269.026 261.89Z" fill="#E6E6E6"/>
<path d="M260.64 286.468C261.504 284.557 257.5 280.667 251.696 277.779C245.893 274.892 240.488 274.101 239.624 276.012C238.76 277.923 242.764 281.813 248.567 284.7C254.371 287.588 259.776 288.379 260.64 286.468Z" fill="#2F2E41"/>
<path d="M272.852 295.548C277.135 295.548 280.607 291.905 280.607 287.413C280.607 282.92 277.135 279.278 272.852 279.278C268.57 279.278 265.098 282.92 265.098 287.413C265.098 291.905 268.57 295.548 272.852 295.548Z" fill="white"/>
<path d="M269.666 287.208C271.094 287.208 272.251 285.994 272.251 284.497C272.251 282.999 271.094 281.785 269.666 281.785C268.238 281.785 267.081 282.999 267.081 284.497C267.081 285.994 268.238 287.208 269.666 287.208Z" fill="#3F3D56"/>
<path d="M277.717 304.361C277.839 305.062 277.828 305.781 277.684 306.477C277.541 307.173 277.269 307.833 276.882 308.419C276.496 309.004 276.003 309.504 275.433 309.89C274.862 310.276 274.225 310.541 273.557 310.668C272.889 310.796 272.204 310.784 271.54 310.634C270.876 310.483 270.247 310.198 269.689 309.792C269.131 309.387 268.654 308.87 268.286 308.272C267.918 307.673 267.666 307.005 267.545 306.304L267.543 306.293C267.034 303.346 269.207 302.303 272.016 301.77C274.826 301.236 277.209 301.414 277.717 304.361Z" fill="white"/>
<path d="M85.1046 275.503C87.3977 269.209 87.7299 263.495 85.8464 262.74C83.963 261.985 80.5771 266.475 78.284 272.768C75.9908 279.062 75.6587 284.777 77.5421 285.532C79.4256 286.287 82.8114 281.797 85.1046 275.503Z" fill="#2F2E41"/>
<path d="M60.195 316.961C73.0408 316.961 83.4544 306.037 83.4544 292.561C83.4544 279.086 73.0408 268.162 60.195 268.162C47.3491 268.162 36.9355 279.086 36.9355 292.561C36.9355 306.037 47.3491 316.961 60.195 316.961Z" fill="#2F2E41"/>
<path d="M56.6618 311.71H49.5957V324.991H56.6618V311.71Z" fill="#2F2E41"/>
<path d="M70.7947 311.71H63.7285V324.991H70.7947V311.71Z" fill="#2F2E41"/>
<path d="M55.4842 327.462C58.7363 327.462 61.3726 326.425 61.3726 325.146C61.3726 323.866 58.7363 322.829 55.4842 322.829C52.2321 322.829 49.5957 323.866 49.5957 325.146C49.5957 326.425 52.2321 327.462 55.4842 327.462Z" fill="#2F2E41"/>
<path d="M69.617 327.153C72.8691 327.153 75.5054 326.116 75.5054 324.837C75.5054 323.558 72.8691 322.521 69.617 322.521C66.3649 322.521 63.7285 323.558 63.7285 324.837C63.7285 326.116 66.3649 327.153 69.617 327.153Z" fill="#2F2E41"/>
<path d="M60.7844 294.723C65.1747 294.723 68.7338 290.99 68.7338 286.384C68.7338 281.778 65.1747 278.045 60.7844 278.045C56.394 278.045 52.835 281.778 52.835 286.384C52.835 290.99 56.394 294.723 60.7844 294.723Z" fill="white"/>
<path d="M60.7846 289.164C62.248 289.164 63.4344 287.919 63.4344 286.384C63.4344 284.849 62.248 283.604 60.7846 283.604C59.3211 283.604 58.1348 284.849 58.1348 286.384C58.1348 287.919 59.3211 289.164 60.7846 289.164Z" fill="#3F3D56"/>
<path d="M37.6329 269.87C35.7548 261.047 41.7583 252.131 51.0421 249.957C60.3259 247.782 69.3744 253.172 71.2525 261.995C73.1306 270.818 66.9779 274.073 57.6941 276.247C48.4103 278.422 39.511 278.693 37.6329 269.87Z" fill="#E6E6E6"/>
<path d="M44.5049 286.468C45.3689 284.557 41.3649 280.667 35.5616 277.779C29.7583 274.892 24.3534 274.101 23.4893 276.012C22.6253 277.923 26.6293 281.813 32.4326 284.7C38.2358 287.588 43.6408 288.379 44.5049 286.468Z" fill="#2F2E41"/>
<path d="M48.7705 301.364C48.7705 303.752 54.632 308.467 61.1363 308.467C67.6405 308.467 73.7389 301.744 73.7389 299.356C73.7389 296.968 67.6405 299.819 61.1363 299.819C54.6321 299.819 48.7705 298.976 48.7705 301.364Z" fill="white"/>
<path d="M171.298 293.732C184.144 293.732 194.558 282.808 194.558 269.333C194.558 255.857 184.144 244.933 171.298 244.933C158.453 244.933 148.039 255.857 148.039 269.333C148.039 282.808 158.453 293.732 171.298 293.732Z" fill="#2F2E41"/>
<path d="M167.765 288.482H160.699V301.763H167.765V288.482Z" fill="#2F2E41"/>
<path d="M181.897 288.482H174.831V301.763H181.897V288.482Z" fill="#2F2E41"/>
<path d="M166.588 304.234C169.84 304.234 172.476 303.197 172.476 301.917C172.476 300.638 169.84 299.601 166.588 299.601C163.336 299.601 160.699 300.638 160.699 301.917C160.699 303.197 163.336 304.234 166.588 304.234Z" fill="#2F2E41"/>
<path d="M180.72 303.925C183.972 303.925 186.608 302.888 186.608 301.608C186.608 300.329 183.972 299.292 180.72 299.292C177.467 299.292 174.831 300.329 174.831 301.608C174.831 302.888 177.467 303.925 180.72 303.925Z" fill="#2F2E41"/>
<path d="M148.735 246.642C146.857 237.818 152.861 228.903 162.145 226.728C171.429 224.554 180.477 229.943 182.355 238.767C184.233 247.59 178.08 250.844 168.797 253.019C159.513 255.193 150.614 255.465 148.735 246.642Z" fill="#F9A826"/>
<path d="M196.362 258.671C201.4 253.382 204.2 247.751 202.618 246.092C201.035 244.433 195.669 247.375 190.631 252.663C185.594 257.952 182.794 263.583 184.376 265.242C185.959 266.901 191.325 263.959 196.362 258.671Z" fill="#2F2E41"/>
<path d="M152.55 266.942C154.133 265.283 151.332 259.651 146.295 254.363C141.258 249.075 135.891 246.132 134.309 247.791C132.726 249.45 135.527 255.082 140.564 260.37C145.601 265.658 150.968 268.601 152.55 266.942Z" fill="#2F2E41"/>
<path d="M312.704 114.477C311.932 89.4582 295.598 69.7102 276.22 70.3683C233.094 71.7088 232.041 154.671 273.678 160.631L272.796 167.982L285.656 167.545L284.323 160.269C301.072 156.386 313.404 137.159 312.704 114.477Z" fill="#FF6584"/>
<path d="M254.774 128.348L249.916 128.513C248.012 119.016 247.71 109.241 249.025 99.6342L253.883 99.4692C252.088 109.526 252.386 119.152 254.774 128.348Z" fill="white"/>
<path d="M286.285 160.155L271.711 160.65L271.816 164.047L286.39 163.552L286.285 160.155Z" fill="#3F3D56"/>
<path d="M243.954 290.25L242.486 289.529L278.569 161.165L280.037 161.886L243.954 290.25Z" fill="#3F3D56"/>
<path d="M342.569 135.633C351.381 112.371 343.918 87.4242 325.901 79.9135C285.85 63.0839 253.316 138.709 289.224 161.609L285.618 167.98L297.575 172.964L299.122 165.735C315.957 169.187 334.58 156.723 342.569 135.633Z" fill="#F9A826"/>
<path d="M284.175 124.094L279.658 122.211C281.526 112.705 284.969 103.617 289.83 95.3591L294.347 97.2421C288.875 105.711 285.485 114.662 284.175 124.094Z" fill="white"/>
<path d="M287.413 160.803L286.217 163.962L299.768 169.611L300.965 166.452L287.413 160.803Z" fill="#3F3D56"/>
<path d="M243.669 286.871L242.261 286.03L292.637 165.43L294.045 166.27L243.669 286.871Z" fill="#3F3D56"/>
<path d="M68.7462 116.093C59.2124 93.1465 37.0758 81.1318 19.3028 89.2578C-20.2961 107.228 7.96088 184.722 48.7486 174.112L50.52 181.285L62.3146 175.892L58.5121 169.648C72.7066 159.544 77.3898 136.897 68.7462 116.093Z" fill="#F9A826"/>
<path d="M19.8074 151.447L15.3516 153.484C10.2352 145.398 6.51043 136.433 4.34668 126.997L8.80249 124.959C10.6791 134.999 14.3474 143.828 19.8074 151.447Z" fill="white"/>
<path d="M60.2961 168.781L46.9287 174.892L48.2234 178.009L61.5908 171.897L60.2961 168.781Z" fill="#3F3D56"/>
<path d="M91.2232 290.578C91.0147 290.632 90.7942 290.598 90.6101 290.481C90.4261 290.365 90.2937 290.177 90.242 289.958L55.0254 172.9L56.5979 172.491L91.8144 289.549C91.84 289.657 91.8451 289.77 91.8292 289.88C91.8134 289.99 91.777 290.096 91.722 290.192C91.6671 290.288 91.5948 290.371 91.5092 290.437C91.4236 290.503 91.3264 290.551 91.2232 290.578Z" fill="#3F3D56"/>
<path d="M100.636 327.589H15.8448C15.7015 327.589 15.5642 327.529 15.4629 327.423C15.3616 327.316 15.3047 327.172 15.3047 327.022C15.3047 326.872 15.3616 326.728 15.4629 326.622C15.5642 326.515 15.7015 326.456 15.8448 326.456H100.636C100.779 326.456 100.916 326.515 101.018 326.622C101.119 326.728 101.176 326.872 101.176 327.022C101.176 327.172 101.119 327.316 101.018 327.423C100.916 327.529 100.779 327.589 100.636 327.589Z" fill="#CCCCCC"/>
<path d="M316.123 327.589H231.332C231.189 327.589 231.051 327.529 230.95 327.423C230.849 327.316 230.792 327.172 230.792 327.022C230.792 326.872 230.849 326.728 230.95 326.622C231.051 326.515 231.189 326.456 231.332 326.456H316.123C316.266 326.456 316.404 326.515 316.505 326.622C316.606 326.728 316.663 326.872 316.663 327.022C316.663 327.172 316.606 327.316 316.505 327.423C316.404 327.529 316.266 327.589 316.123 327.589Z" fill="#CCCCCC"/>
<path d="M215.131 304.36H130.34C130.197 304.36 130.059 304.3 129.958 304.194C129.857 304.088 129.8 303.944 129.8 303.794C129.8 303.643 129.857 303.499 129.958 303.393C130.059 303.287 130.197 303.227 130.34 303.227H215.131C215.274 303.227 215.412 303.287 215.513 303.393C215.614 303.499 215.671 303.643 215.671 303.794C215.671 303.944 215.614 304.088 215.513 304.194C215.412 304.3 215.274 304.36 215.131 304.36Z" fill="#CCCCCC"/>
<path d="M170.32 274.214C174.71 274.214 178.269 270.48 178.269 265.875C178.269 261.269 174.71 257.536 170.32 257.536C165.929 257.536 162.37 261.269 162.37 265.875C162.37 270.48 165.929 274.214 170.32 274.214Z" fill="white"/>
<path d="M170.32 268.655C171.783 268.655 172.97 267.41 172.97 265.875C172.97 264.34 171.783 263.095 170.32 263.095C168.856 263.095 167.67 264.34 167.67 265.875C167.67 267.41 168.856 268.655 170.32 268.655Z" fill="#3F3D56"/>
<path d="M176.63 281.298C176.876 282.713 176.575 284.172 175.795 285.355C175.015 286.538 173.819 287.347 172.47 287.605C171.121 287.862 169.73 287.547 168.602 286.729C167.475 285.91 166.703 284.656 166.458 283.24L166.456 283.23C165.947 280.283 168.12 279.24 170.929 278.706C173.739 278.173 176.122 278.351 176.63 281.298Z" fill="white"/>
</g>
<defs>
<clipPath id="clip0">
<rect width="346" height="327" fill="white" transform="translate(0.269531 0.588623)"/>
</clipPath>
</defs>
</svg>
