<svg width="53" height="49" viewBox="0 0 53 49" fill="none" xmlns="http://www.w3.org/2000/svg">
<path fill-rule="evenodd" clip-rule="evenodd" d="M43.63 42.6045C41.8832 43.7617 39.7897 44.4352 37.5417 44.4352C31.4467 44.4352 26.5 39.4886 26.5 33.3936C26.5 27.2986 31.4467 22.3519 37.5417 22.3519C43.6367 22.3519 48.5833 27.2986 48.5833 33.3936C48.5833 35.6416 47.9098 37.7351 46.7526 39.4819L53 45.7293L49.8774 48.8519L43.63 42.6045ZM26.7275 44.4352H0V0.268555H48.5833V22.5793C47.3158 21.2853 45.8229 20.212 44.1667 19.4258V4.68522H28.7083V17.9352H19.875V4.68522H4.41667V40.0186H23.574C24.3601 41.6748 25.4334 43.1676 26.7275 44.4352ZM37.5417 26.7686C41.1987 26.7686 44.1667 29.7366 44.1667 33.3936C44.1667 37.0506 41.1987 40.0186 37.5417 40.0186C33.8847 40.0186 30.9167 37.0506 30.9167 33.3936C30.9167 29.7366 33.8847 26.7686 37.5417 26.7686ZM34.7636 35.6019H33.6594V31.1852H34.7636V35.6019ZM36.9719 35.6019H35.8677V31.1852H36.9719V35.6019ZM39.1802 35.6019H38.0761V31.1852H39.1802V35.6019ZM41.3709 35.6019H40.2844V31.1852H41.3709V35.6019ZM19.875 31.1852V35.6019H8.83333V31.1852H19.875Z" fill="#FFB606"/>
</svg>
