<svg width="80" height="70" viewBox="0 0 80 70" fill="none" xmlns="http://www.w3.org/2000/svg">
<rect width="80" height="70" rx="35" fill="white"/>
<path d="M54.0665 24.144C56.1954 21.9215 57.371 19.1332 57.371 16.2962V10.3015H21.8154V16.2962C21.8154 19.1332 22.9888 21.9196 25.1199 24.1421L31.9799 31.2976C33.2377 32.614 33.2465 34.4573 31.9999 35.7815L25.0443 43.1587C22.9621 45.3676 21.8154 48.1268 21.8154 50.9268V56.9682H57.371V50.9268C57.371 48.1268 56.2221 45.3696 54.1421 43.1607L47.1865 35.7835C45.9377 34.4593 45.9465 32.616 47.2065 31.2996L54.0665 24.144ZM52.9265 16.1329C52.9265 18.2737 52.1199 20.119 50.6599 21.6435L48.4865 23.9126H30.6999L28.5265 21.6435C27.0599 20.1171 26.2599 18.2679 26.2599 16.1329H52.9265ZM50.7132 45.634C52.1621 47.1721 52.9265 48.9882 52.9265 51.1348H50.5688C46.2599 47.246 39.5932 47.246 39.5932 47.246C39.5932 47.246 32.9265 47.246 28.6177 51.1348H26.2599C26.2599 48.9882 27.0243 47.1701 28.4732 45.634L35.4265 38.2587C36.1865 37.4518 36.6954 36.536 37.0065 35.5812H37.371V37.5257H41.8154V35.5812H42.1777C42.491 36.536 42.9977 37.4518 43.7577 38.2568L50.7132 45.634ZM37.371 43.3571H41.8154V45.3015H37.371V43.3571ZM37.371 39.4682H41.8154V41.4126H37.371V39.4682Z" fill="url(#paint0_linear)"/>
<defs>
<linearGradient id="paint0_linear" x1="39.5932" y1="10.3015" x2="39.5932" y2="56.9682" gradientUnits="userSpaceOnUse">
<stop stop-color="#FBD11B"/>
<stop offset="1" stop-color="#FFB606"/>
</linearGradient>
</defs>
</svg>
