<svg width="30" height="30" viewBox="0 0 30 30" fill="none" xmlns="http://www.w3.org/2000/svg">
<path d="M15 2.70375C19.005 2.70375 19.48 2.71875 21.0625 2.79125C25.1275 2.97625 27.0262 4.905 27.2112 8.94C27.2837 10.5212 27.2975 10.9963 27.2975 15.0013C27.2975 19.0075 27.2825 19.4813 27.2112 21.0625C27.025 25.0938 25.1313 27.0262 21.0625 27.2112C19.48 27.2837 19.0075 27.2988 15 27.2988C10.995 27.2988 10.52 27.2837 8.93875 27.2112C4.86375 27.025 2.975 25.0875 2.79 21.0613C2.7175 19.48 2.7025 19.0063 2.7025 15C2.7025 10.995 2.71875 10.5212 2.79 8.93875C2.97625 4.905 4.87 2.975 8.93875 2.79C10.5212 2.71875 10.995 2.70375 15 2.70375ZM15 0C10.9262 0 10.4163 0.0175 8.81625 0.09C3.36875 0.34 0.34125 3.3625 0.09125 8.815C0.0175 10.4163 0 10.9262 0 15C0 19.0737 0.0175 19.585 0.09 21.185C0.34 26.6325 3.3625 29.66 8.815 29.91C10.4163 29.9825 10.9262 30 15 30C19.0737 30 19.585 29.9825 21.185 29.91C26.6275 29.66 29.6625 26.6375 29.9088 21.185C29.9825 19.585 30 19.0737 30 15C30 10.9262 29.9825 10.4163 29.91 8.81625C29.665 3.37375 26.6388 0.34125 21.1862 0.09125C19.585 0.0175 19.0737 0 15 0V0ZM15 7.2975C10.7463 7.2975 7.2975 10.7463 7.2975 15C7.2975 19.2537 10.7463 22.7038 15 22.7038C19.2537 22.7038 22.7025 19.255 22.7025 15C22.7025 10.7463 19.2537 7.2975 15 7.2975ZM15 20C12.2387 20 10 17.7625 10 15C10 12.2387 12.2387 10 15 10C17.7612 10 20 12.2387 20 15C20 17.7625 17.7612 20 15 20ZM23.0075 5.19375C22.0125 5.19375 21.2062 6 21.2062 6.99375C21.2062 7.9875 22.0125 8.79375 23.0075 8.79375C24.0012 8.79375 24.8062 7.9875 24.8062 6.99375C24.8062 6 24.0012 5.19375 23.0075 5.19375Z" fill="white"/>
</svg>
