<svg width="926" height="725" viewBox="0 0 926 725" fill="none" xmlns="http://www.w3.org/2000/svg">
<path d="M188.75 429.45V439.95C188.75 441 189.008 441.808 189.525 442.375C190.042 442.942 190.8 443.225 191.8 443.225C192.8 443.225 193.567 442.942 194.1 442.375C194.633 441.808 194.9 441 194.9 439.95V429.45H199.175V439.925C199.175 441.492 198.842 442.817 198.175 443.9C197.508 444.983 196.608 445.8 195.475 446.35C194.358 446.9 193.108 447.175 191.725 447.175C190.342 447.175 189.1 446.908 188 446.375C186.917 445.825 186.058 445.008 185.425 443.925C184.792 442.825 184.475 441.492 184.475 439.925V429.45H188.75ZM206.452 429.45V447H202.177V429.45H206.452ZM226.721 429.45C228.571 429.45 230.187 429.817 231.571 430.55C232.954 431.283 234.021 432.317 234.771 433.65C235.537 434.967 235.921 436.492 235.921 438.225C235.921 439.942 235.537 441.467 234.771 442.8C234.021 444.133 232.946 445.167 231.546 445.9C230.162 446.633 228.554 447 226.721 447H220.146V429.45H226.721ZM226.446 443.3C228.062 443.3 229.321 442.858 230.221 441.975C231.121 441.092 231.571 439.842 231.571 438.225C231.571 436.608 231.121 435.35 230.221 434.45C229.321 433.55 228.062 433.1 226.446 433.1H224.421V443.3H226.446ZM251.46 439.8C251.46 440.2 251.435 440.617 251.385 441.05H241.71C241.776 441.917 242.051 442.583 242.535 443.05C243.035 443.5 243.643 443.725 244.36 443.725C245.426 443.725 246.168 443.275 246.585 442.375H251.135C250.901 443.292 250.476 444.117 249.86 444.85C249.26 445.583 248.501 446.158 247.585 446.575C246.668 446.992 245.643 447.2 244.51 447.2C243.143 447.2 241.926 446.908 240.86 446.325C239.793 445.742 238.96 444.908 238.36 443.825C237.76 442.742 237.46 441.475 237.46 440.025C237.46 438.575 237.751 437.308 238.335 436.225C238.935 435.142 239.768 434.308 240.835 433.725C241.901 433.142 243.126 432.85 244.51 432.85C245.86 432.85 247.06 433.133 248.11 433.7C249.16 434.267 249.976 435.075 250.56 436.125C251.16 437.175 251.46 438.4 251.46 439.8ZM247.085 438.675C247.085 437.942 246.835 437.358 246.335 436.925C245.835 436.492 245.21 436.275 244.46 436.275C243.743 436.275 243.135 436.483 242.635 436.9C242.151 437.317 241.851 437.908 241.735 438.675H247.085ZM259.39 447.2C258.173 447.2 257.09 446.992 256.14 446.575C255.19 446.158 254.44 445.592 253.89 444.875C253.34 444.142 253.032 443.325 252.965 442.425H257.19C257.24 442.908 257.465 443.3 257.865 443.6C258.265 443.9 258.757 444.05 259.34 444.05C259.873 444.05 260.282 443.95 260.565 443.75C260.865 443.533 261.015 443.258 261.015 442.925C261.015 442.525 260.807 442.233 260.39 442.05C259.973 441.85 259.298 441.633 258.365 441.4C257.365 441.167 256.532 440.925 255.865 440.675C255.198 440.408 254.623 440 254.14 439.45C253.657 438.883 253.415 438.125 253.415 437.175C253.415 436.375 253.632 435.65 254.065 435C254.515 434.333 255.165 433.808 256.015 433.425C256.882 433.042 257.907 432.85 259.09 432.85C260.84 432.85 262.215 433.283 263.215 434.15C264.232 435.017 264.815 436.167 264.965 437.6H261.015C260.948 437.117 260.732 436.733 260.365 436.45C260.015 436.167 259.548 436.025 258.965 436.025C258.465 436.025 258.082 436.125 257.815 436.325C257.548 436.508 257.415 436.767 257.415 437.1C257.415 437.5 257.623 437.8 258.04 438C258.473 438.2 259.14 438.4 260.04 438.6C261.073 438.867 261.915 439.133 262.565 439.4C263.215 439.65 263.782 440.067 264.265 440.65C264.765 441.217 265.023 441.983 265.04 442.95C265.04 443.767 264.807 444.5 264.34 445.15C263.89 445.783 263.232 446.283 262.365 446.65C261.515 447.017 260.523 447.2 259.39 447.2ZM269.805 431.6C269.055 431.6 268.439 431.383 267.955 430.95C267.489 430.5 267.255 429.95 267.255 429.3C267.255 428.633 267.489 428.083 267.955 427.65C268.439 427.2 269.055 426.975 269.805 426.975C270.539 426.975 271.139 427.2 271.605 427.65C272.089 428.083 272.33 428.633 272.33 429.3C272.33 429.95 272.089 430.5 271.605 430.95C271.139 431.383 270.539 431.6 269.805 431.6ZM271.93 433.05V447H267.655V433.05H271.93ZM280.329 432.85C281.312 432.85 282.17 433.05 282.904 433.45C283.654 433.85 284.229 434.375 284.629 435.025V433.05H288.904V446.975C288.904 448.258 288.645 449.417 288.129 450.45C287.629 451.5 286.854 452.333 285.804 452.95C284.77 453.567 283.479 453.875 281.929 453.875C279.862 453.875 278.187 453.383 276.904 452.4C275.62 451.433 274.887 450.117 274.704 448.45H278.929C279.062 448.983 279.379 449.4 279.879 449.7C280.379 450.017 280.995 450.175 281.729 450.175C282.612 450.175 283.312 449.917 283.829 449.4C284.362 448.9 284.629 448.092 284.629 446.975V445C284.212 445.65 283.637 446.183 282.904 446.6C282.17 447 281.312 447.2 280.329 447.2C279.179 447.2 278.137 446.908 277.204 446.325C276.27 445.725 275.529 444.883 274.979 443.8C274.445 442.7 274.179 441.433 274.179 440C274.179 438.567 274.445 437.308 274.979 436.225C275.529 435.142 276.27 434.308 277.204 433.725C278.137 433.142 279.179 432.85 280.329 432.85ZM284.629 440.025C284.629 438.958 284.329 438.117 283.729 437.5C283.145 436.883 282.429 436.575 281.579 436.575C280.729 436.575 280.004 436.883 279.404 437.5C278.82 438.1 278.529 438.933 278.529 440C278.529 441.067 278.82 441.917 279.404 442.55C280.004 443.167 280.729 443.475 281.579 443.475C282.429 443.475 283.145 443.167 283.729 442.55C284.329 441.933 284.629 441.092 284.629 440.025ZM300.496 432.9C302.13 432.9 303.43 433.433 304.396 434.5C305.38 435.55 305.871 437 305.871 438.85V447H301.621V439.425C301.621 438.492 301.38 437.767 300.896 437.25C300.413 436.733 299.763 436.475 298.946 436.475C298.13 436.475 297.48 436.733 296.996 437.25C296.513 437.767 296.271 438.492 296.271 439.425V447H291.996V433.05H296.271V434.9C296.705 434.283 297.288 433.8 298.021 433.45C298.755 433.083 299.58 432.9 300.496 432.9ZM321.992 439.8C321.992 440.2 321.967 440.617 321.917 441.05H312.242C312.309 441.917 312.584 442.583 313.067 443.05C313.567 443.5 314.175 443.725 314.892 443.725C315.959 443.725 316.7 443.275 317.117 442.375H321.667C321.434 443.292 321.009 444.117 320.392 444.85C319.792 445.583 319.034 446.158 318.117 446.575C317.2 446.992 316.175 447.2 315.042 447.2C313.675 447.2 312.459 446.908 311.392 446.325C310.325 445.742 309.492 444.908 308.892 443.825C308.292 442.742 307.992 441.475 307.992 440.025C307.992 438.575 308.284 437.308 308.867 436.225C309.467 435.142 310.3 434.308 311.367 433.725C312.434 433.142 313.659 432.85 315.042 432.85C316.392 432.85 317.592 433.133 318.642 433.7C319.692 434.267 320.509 435.075 321.092 436.125C321.692 437.175 321.992 438.4 321.992 439.8ZM317.617 438.675C317.617 437.942 317.367 437.358 316.867 436.925C316.367 436.492 315.742 436.275 314.992 436.275C314.275 436.275 313.667 436.483 313.167 436.9C312.684 437.317 312.384 437.908 312.267 438.675H317.617ZM328.522 435.375C329.022 434.608 329.647 434.008 330.397 433.575C331.147 433.125 331.981 432.9 332.897 432.9V437.425H331.722C330.656 437.425 329.856 437.658 329.322 438.125C328.789 438.575 328.522 439.375 328.522 440.525V447H324.247V433.05H328.522V435.375Z" fill="white"/>
<rect x="535" y="415" width="308" height="289" rx="10" fill="#FFBC0A"/>
<path d="M861.87 518.13C841.827 439.846 772.575 383.336 691.288 381.069C648.314 379.871 603.093 394.028 570.169 443.57C511.314 532.131 573.786 593.329 617.34 622.41C638.382 636.487 657.341 653.415 673.67 672.701C703.089 707.378 759.685 750.47 827.088 682.952C875.942 634.015 875.22 570.275 861.87 518.13Z" fill="#F2F2F2"/>
<path opacity="0.1" d="M771.597 592.237L812.838 551.396L771.597 510.555L784.171 498.107L837.985 551.396L784.171 604.685L771.597 592.237Z" fill="black"/>
<path opacity="0.1" d="M653.825 554.31H670.589V537.657H653.825V554.31ZM737.984 537.657H721.219V554.31H737.984V537.657ZM687.522 554.31H704.286V537.657H687.522V554.31Z" fill="black"/>
<path opacity="0.1" d="M631.109 591.82L589.826 550.98L631.067 510.139L618.493 497.691L564.721 550.98L618.535 604.268L631.109 591.82Z" fill="black"/>
<path d="M926 694.193C926 701.09 823.921 725 698 725C572.079 725 470 701.09 470 694.193C470 687.295 572.079 700.021 698 700.021C823.921 700.021 926 687.295 926 694.193Z" fill="#3F3D56"/>
<path opacity="0.1" d="M926 694.193C926 701.09 823.921 725 698 725C572.079 725 470 701.09 470 694.193C470 687.295 572.079 700.021 698 700.021C823.921 700.021 926 687.295 926 694.193Z" fill="black"/>
<path d="M698 706.682C823.921 706.682 926 701.09 926 694.193C926 687.295 823.921 681.703 698 681.703C572.079 681.703 470 687.295 470 694.193C470 701.09 572.079 706.682 698 706.682Z" fill="#3F3D56"/>
<path d="M735.174 634.101C735.174 660.752 752.006 682.318 772.807 682.318L735.174 634.101Z" fill="#3F3D56"/>
<path d="M772.807 682.318C772.807 655.367 791.591 633.559 814.803 633.559L772.807 682.318Z" fill="#FFB606"/>
<path d="M748.809 636.517C748.809 661.833 759.542 682.318 772.807 682.318L748.809 636.517Z" fill="#FFB606"/>
<path d="M772.807 682.318C772.807 647.881 794.518 620.015 821.348 620.015L772.807 682.318Z" fill="#3F3D56"/>
<path d="M764.89 682.658C764.89 682.658 770.227 682.494 771.836 681.357C773.444 680.219 780.045 678.861 780.444 680.685C780.843 682.51 788.465 689.76 782.439 689.808C776.414 689.856 768.439 688.876 766.833 687.905C765.228 686.933 764.89 682.658 764.89 682.658Z" fill="#A8A8A8"/>
<path opacity="0.2" d="M782.547 689.173C776.521 689.221 768.546 688.241 766.941 687.27C765.718 686.53 765.231 683.875 765.068 682.651C764.955 682.656 764.89 682.658 764.89 682.658C764.89 682.658 765.228 686.933 766.833 687.905C768.439 688.876 776.414 689.857 782.439 689.808C784.179 689.794 784.779 689.18 784.746 688.269C784.505 688.819 783.841 689.163 782.547 689.173Z" fill="black"/>
<path d="M832.76 540.388C832.76 540.388 819.856 530.656 818.877 534.223C817.897 537.791 828.345 545.898 828.345 545.898L832.76 540.388Z" fill="#FFB9B9"/>
<path opacity="0.1" d="M832.76 540.388C832.76 540.388 819.856 530.656 818.877 534.223C817.897 537.791 828.345 545.898 828.345 545.898L832.76 540.388Z" fill="black"/>
<path d="M875.359 509.576C875.359 509.576 860.014 536.818 859.688 540.71C859.362 544.601 859.362 544.926 858.056 544.601C856.75 544.277 838.793 542.331 837.16 542.98C835.528 543.628 832.263 539.088 832.263 539.088C832.263 539.088 826.06 545.25 827.366 546.547C828.672 547.844 832.589 548.493 833.242 550.114C833.895 551.736 834.875 553.358 837.813 553.033C840.752 552.709 860.667 558.222 863.279 557.249C865.891 556.276 866.544 554.655 867.85 554.655C869.156 554.655 871.768 553.358 871.768 553.033C871.768 552.709 880.91 535.521 880.91 535.521C880.91 535.521 891.684 512.171 875.359 509.576Z" fill="#D0CDE1"/>
<path opacity="0.1" d="M875.359 509.576C875.359 509.576 860.014 536.818 859.688 540.71C859.362 544.601 859.362 544.926 858.056 544.601C856.75 544.277 838.793 542.331 837.16 542.98C835.528 543.628 832.263 539.088 832.263 539.088C832.263 539.088 826.06 545.25 827.366 546.547C828.672 547.844 832.589 548.493 833.242 550.114C833.895 551.736 834.875 553.358 837.813 553.033C840.752 552.709 860.667 558.222 863.279 557.249C865.891 556.276 866.544 554.655 867.85 554.655C869.156 554.655 871.768 553.358 871.768 553.033C871.768 552.709 880.91 535.521 880.91 535.521C880.91 535.521 891.684 512.171 875.359 509.576Z" fill="black"/>
<path d="M853.096 491.617C852.957 493.339 852.985 495.071 853.179 496.788C853.675 500.514 855.402 504.398 853.771 507.876C853.179 509.138 852.176 510.238 851.63 511.515C850.473 514.22 851.522 517.22 851.364 520.098C851.161 523.817 848.78 527.4 845.159 529.437C851.346 529.628 857.231 526.589 861.124 522.448C865.018 518.307 867.186 513.171 868.811 508.032C869.647 505.619 870.182 503.113 870.406 500.571C870.536 499.11 870.363 497.639 869.899 496.247C869.328 494.887 868.575 493.61 867.661 492.449C866.686 491.087 865.684 489.699 864.246 488.686C862.474 487.438 859.058 486.185 856.708 486.367C853.825 486.59 853.217 489.63 853.096 491.617Z" fill="#2F2E41"/>
<path d="M862.626 501.793C862.626 501.793 866.217 514.441 863.279 518.008C860.341 521.576 880.909 516.387 880.909 516.387C880.909 516.387 870.788 506.333 875.686 499.847L862.626 501.793Z" fill="#FFB9B9"/>
<path opacity="0.1" d="M862.626 501.793C862.626 501.793 866.217 514.441 863.279 518.008C860.341 521.576 880.909 516.387 880.909 516.387C880.909 516.387 870.788 506.333 875.686 499.847L862.626 501.793Z" fill="black"/>
<path d="M771.597 584.327L812.838 543.486L771.597 502.645L784.171 490.197L837.985 543.486L784.171 596.775L771.597 584.327Z" fill="#FFB606"/>
<path d="M850.872 670.432V679.837L855.769 685.674L860.014 683.729L858.708 670.108L850.872 670.432Z" fill="#FFB9B9"/>
<path d="M852.831 679.188C852.831 679.188 851.525 674.648 849.24 677.891C846.955 681.134 844.669 688.269 843.363 688.593C842.057 688.918 832.916 698.971 842.057 698.971C851.199 698.971 854.137 694.755 854.137 694.755C854.137 694.755 863.279 691.188 863.279 690.539C863.279 689.891 861.973 677.891 861.32 677.891C860.667 677.891 860.341 680.161 858.708 680.161C857.076 680.161 852.831 679.188 852.831 679.188Z" fill="#2F2E41"/>
<path d="M872.747 672.054L872.421 680.81L880.256 684.053V671.405L872.747 672.054Z" fill="#FFB9B9"/>
<path d="M881.236 680.81C881.236 680.81 876.992 676.27 874.706 677.243C873.575 677.695 872.484 678.237 871.441 678.864C871.441 678.864 870.135 683.08 869.482 686.648C868.829 690.215 868.503 691.836 867.85 693.134C867.197 694.431 866.544 699.295 873.074 699.944C879.603 700.593 881.562 697.025 881.562 697.025L883.195 688.593C883.195 688.593 882.542 680.81 881.236 680.81Z" fill="#2F2E41"/>
<path d="M855.117 578.653C855.117 578.653 845.649 599.733 846.955 618.867C846.955 618.867 843.69 626.326 845.649 638.002C847.608 649.677 850.22 673.027 850.22 673.027C850.22 673.027 859.035 674 859.688 672.378C859.688 672.378 860.341 656.163 860.994 655.514C861.647 654.865 860.667 639.947 859.688 637.029C858.708 634.11 868.83 605.247 868.83 605.247L866.218 569.249L855.117 578.653Z" fill="#2F2E41"/>
<path opacity="0.1" d="M855.117 578.653C855.117 578.653 845.649 599.733 846.955 618.867C846.955 618.867 843.69 626.326 845.649 638.002C847.608 649.677 850.22 673.027 850.22 673.027C850.22 673.027 859.035 674 859.688 672.378C859.688 672.378 860.341 656.163 860.994 655.514C861.647 654.865 860.667 639.947 859.688 637.029C858.708 634.11 868.83 605.247 868.83 605.247L866.218 569.249L855.117 578.653Z" fill="black"/>
<path d="M852.505 577.356L858.708 590.653C858.708 590.653 861.647 620.813 863.279 624.705C863.279 624.705 863.932 635.731 866.87 639.299C869.809 642.866 872.094 674.324 872.094 674.324C872.094 674.324 880.256 676.594 880.909 674.324C881.562 672.054 883.521 656.487 883.521 656.487C883.521 656.487 884.174 643.19 880.583 634.434C876.991 625.678 884.827 594.22 884.827 594.22C884.827 594.22 892.989 578.978 881.236 566.654L852.505 577.356Z" fill="#2F2E41"/>
<path d="M869.809 505.685C877.202 505.685 883.195 499.731 883.195 492.388C883.195 485.045 877.202 479.091 869.809 479.091C862.416 479.091 856.423 485.045 856.423 492.388C856.423 499.731 862.416 505.685 869.809 505.685Z" fill="#FFB9B9"/>
<path d="M882.215 512.495C882.215 512.495 868.176 512.495 866.217 514.117C865.733 514.574 865.09 514.83 864.422 514.83C863.753 514.83 863.11 514.574 862.626 514.117C862.626 514.117 857.729 514.441 856.423 518.333C855.117 522.224 851.199 527.413 851.199 527.413C851.199 527.413 845.322 531.629 848.587 542.655C851.852 553.682 849.24 571.519 849.24 571.519C849.24 571.519 846.628 575.41 849.24 577.032C851.852 578.653 852.831 579.302 852.505 580.599C852.178 581.897 882.215 569.897 882.215 567.627C882.215 565.357 881.562 563.411 882.215 562.438C882.868 561.465 883.521 559.844 882.868 558.222C882.215 556.601 883.521 556.276 883.195 554.655C882.868 553.033 884.827 541.034 886.133 535.845C887.439 530.656 887.113 512.819 882.215 512.495Z" fill="#D0CDE1"/>
<path d="M832.76 544.28C832.76 544.28 819.856 534.548 818.877 538.115C817.897 541.683 828.345 549.79 828.345 549.79L832.76 544.28Z" fill="#FFB9B9"/>
<path d="M875.359 514.116C875.359 514.116 860.014 541.358 859.688 545.25C859.362 549.142 859.362 549.466 858.056 549.142C856.75 548.817 838.793 546.871 837.16 547.52C835.528 548.169 832.263 543.628 832.263 543.628C832.263 543.628 826.06 549.79 827.366 551.087C828.672 552.385 832.589 553.033 833.242 554.655C833.895 556.276 834.875 557.898 837.813 557.574C840.752 557.249 860.667 562.762 863.279 561.79C865.891 560.817 866.544 559.195 867.85 559.195C869.156 559.195 871.768 557.898 871.768 557.574C871.768 557.249 880.91 540.061 880.91 540.061C880.91 540.061 891.684 516.711 875.359 514.116Z" fill="#D0CDE1"/>
<path d="M863.18 500.883C862.995 499.566 862.316 498.371 861.967 497.088C861.695 496.06 861.634 494.988 861.789 493.937C861.945 492.885 862.312 491.876 862.87 490.969C864.79 487.889 868.56 486.525 871.189 484.013C871.244 485.293 872.137 486.386 873.125 487.209C874.113 488.031 875.245 488.699 876.082 489.673C876.885 490.701 877.471 491.879 877.804 493.138C878.319 494.596 878.55 496.139 878.484 497.683C878.447 498.455 878.251 499.211 877.911 499.905C877.57 500.599 877.09 501.217 876.501 501.722C875.522 502.491 874.154 502.93 873.681 504.077C873.495 504.65 873.441 505.258 873.524 505.855C873.748 509.423 873.957 513.054 873.111 516.529C872.266 520.004 870.193 523.361 866.946 524.901C869.614 525.09 872.34 525.273 874.929 524.604C877.519 523.934 879.995 522.249 880.888 519.744C881.328 518.508 881.37 517.133 881.996 515.979C883.58 513.057 887.953 512.924 890.101 510.382C890.961 509.365 891.377 508.055 891.685 506.763C893.499 499.159 892.225 491.085 889.463 483.767C888.512 481.245 887.326 478.706 885.285 476.933C883.548 475.425 881.329 474.594 879.135 473.884C875.933 472.848 872.635 472 869.269 471.89C867.807 471.805 866.341 471.975 864.938 472.392C863.553 472.89 862.264 473.619 861.128 474.549C855.855 478.624 852.266 485.136 852.742 491.755C853.03 495.76 854.739 499.55 856.933 502.922C857.701 504.101 859.514 506.616 861.2 505.874C862.729 505.202 863.381 502.305 863.18 500.883Z" fill="#2F2E41"/>
<path d="M653.825 546.4H670.589V529.747H653.825V546.4ZM737.984 529.747H721.219V546.4H737.984V529.747ZM687.522 546.4H704.286V529.747H687.522V546.4Z" fill="#FFB606"/>
<path d="M556.425 480.121C564.215 480.121 570.531 475.228 570.531 469.192C570.531 463.156 564.215 458.263 556.425 458.263C548.634 458.263 542.318 463.156 542.318 469.192C542.318 475.228 548.634 480.121 556.425 480.121Z" fill="#2F2E41"/>
<path d="M558.823 544.436C558.823 544.436 571.518 545.277 573.775 543.595C576.032 541.914 585.625 545.837 586.471 548.079C587.317 550.321 572.929 550.601 570.672 550.601C568.415 550.601 557.694 553.964 557.694 553.964L558.823 544.436Z" fill="#A0616A"/>
<path d="M532.68 674.977C532.68 674.977 526.763 689.798 529.85 691.587C532.937 693.375 565.35 692.098 565.35 692.098C565.35 692.098 570.753 688.776 564.579 686.476C564.579 686.476 559.434 686.22 556.09 684.176C552.745 682.132 548.887 678.299 548.887 678.299C548.887 678.299 548.629 672.678 546.571 673.955C545.956 674.358 545.432 674.885 545.033 675.501C544.634 676.117 544.37 676.809 544.256 677.533L532.68 674.977Z" fill="#2F2E41"/>
<path opacity="0.1" d="M532.68 674.977C532.68 674.977 526.763 689.798 529.85 691.587C532.937 693.375 565.35 692.098 565.35 692.098C565.35 692.098 570.753 688.776 564.579 686.476C564.579 686.476 559.434 686.22 556.09 684.176C552.745 682.132 548.887 678.299 548.887 678.299C548.887 678.299 548.629 672.678 546.571 673.955C545.956 674.358 545.432 674.885 545.033 675.501C544.634 676.117 544.37 676.809 544.256 677.533L532.68 674.977Z" fill="black"/>
<path d="M631.109 583.91L589.826 543.07L631.067 502.229L618.493 489.781L564.721 543.07L618.535 596.358L631.109 583.91Z" fill="#FFB606"/>
<path d="M523.557 679.511C523.557 679.511 517.068 695.765 520.454 697.727C523.839 699.688 559.387 698.287 559.387 698.287C559.387 698.287 565.311 694.644 558.541 692.122C558.541 692.122 552.898 691.842 549.23 689.6C545.563 687.358 541.331 683.154 541.331 683.154C541.331 683.154 541.049 676.989 538.792 678.39C538.117 678.832 537.542 679.409 537.105 680.085C536.667 680.761 536.377 681.52 536.253 682.314L523.557 679.511Z" fill="#2F2E41"/>
<path d="M556.848 576.383L552.898 611.693C552.898 611.693 551.488 628.508 547.256 632.151C547.256 632.151 547.256 637.475 545.845 639.157L543.87 661.296C543.87 661.296 546.692 669.423 546.409 670.824C546.127 672.225 547.538 676.709 547.256 677.269C546.974 677.83 533.714 677.269 533.714 677.269L536.535 632.151L545.281 569.377L556.848 576.383Z" fill="#2F2E41"/>
<path opacity="0.1" d="M556.848 576.383L552.898 611.693C552.898 611.693 551.488 628.508 547.256 632.151C547.256 632.151 547.256 637.475 545.845 639.157L543.87 661.296C543.87 661.296 546.692 669.423 546.409 670.824C546.127 672.225 547.538 676.709 547.256 677.269C546.974 677.83 533.714 677.269 533.714 677.269L536.535 632.151L545.281 569.377L556.848 576.383Z" fill="black"/>
<path d="M549.794 575.262C549.794 575.262 546.691 604.127 545.28 610.292C544.394 614.352 543.828 618.475 543.588 622.623C543.588 622.623 543.306 631.59 540.767 634.113C540.024 634.843 539.44 635.718 539.052 636.682C538.663 637.646 538.479 638.679 538.51 639.717C538.51 639.717 535.97 668.021 537.381 671.384C538.792 674.747 540.202 677.549 538.792 679.791C537.381 682.033 521.864 682.033 521.864 680.352C521.864 678.67 521.864 677.269 521.018 676.429C520.171 675.588 521.018 670.263 521.018 670.263C521.018 670.263 517.632 645.322 520.736 638.036C523.839 630.75 525.25 610.853 525.25 610.853C525.25 610.853 522.993 588.153 520.171 584.51C517.35 580.867 520.736 567.976 520.736 567.976L549.794 575.262Z" fill="#2F2E41"/>
<path d="M541.852 485.625C542.18 486.368 542.965 486.781 543.679 487.172C547.821 489.439 551.289 492.725 554.705 495.974C553.852 493.104 554.034 490.03 555.218 487.279C555.626 486.341 556.161 485.332 555.869 484.352C555.655 483.632 555.037 483.112 554.438 482.652C553.045 481.581 551.588 480.594 550.076 479.695C549.019 479.068 546.847 477.397 545.635 477.578C545.572 479.205 545.538 480.66 544.821 482.18C544.651 482.541 541.977 485.909 541.852 485.625Z" fill="#A0616A"/>
<path d="M556.283 489.229C562.672 489.229 567.85 484.085 567.85 477.739C567.85 471.394 562.672 466.25 556.283 466.25C549.895 466.25 544.716 471.394 544.716 477.739C544.716 484.085 549.895 489.229 556.283 489.229Z" fill="#A0616A"/>
<path d="M556.848 504.922C556.848 504.922 558.823 495.114 553.18 491.751C547.538 488.388 541.049 484.465 541.049 484.465C541.049 484.465 539.074 484.185 538.228 488.388C538.228 488.388 522.147 491.471 520.454 506.604C518.761 521.737 521.582 543.876 521.582 543.876C521.582 543.876 519.043 563.212 515.94 573.581C515.94 573.581 513.401 575.823 524.686 572.46C535.971 569.097 555.719 581.988 555.719 581.988C555.719 581.988 557.694 580.026 557.694 578.625C557.694 577.224 559.951 569.097 559.951 569.097C559.951 569.097 561.926 534.628 562.772 530.704C563.619 526.781 559.387 505.483 556.848 504.922Z" fill="#FF6584"/>
<path d="M553.557 478.923C554.252 478.54 555.031 478.334 555.826 478.323C556.621 478.311 557.398 478.081 558.07 477.659C559.163 476.825 559.243 475.215 560.042 474.101C561.199 472.487 563.508 472.293 565.501 472.374C566.719 472.423 568.032 472.496 569.058 471.841C570.112 471.169 570.59 469.902 570.945 468.709C571.365 467.299 571.637 465.574 570.596 464.528C569.873 463.801 568.732 463.658 567.928 463.02C567.096 462.358 566.753 461.282 566.3 460.323C565.785 459.154 564.971 458.141 563.938 457.383C562.423 456.337 560.488 456.103 558.643 456.123C556.798 456.142 554.946 456.383 553.115 456.158C551.615 455.974 550.12 455.478 548.624 455.698C546.719 455.978 545.143 457.406 544.204 459.076C543.266 460.747 542.863 462.653 542.472 464.527L541.41 469.622C541.08 471.202 540.749 472.824 541.004 474.418C541.531 477.722 544.473 480.348 544.675 483.688C544.869 482.766 545.289 481.906 545.9 481.185C546.51 480.464 547.291 479.905 548.172 479.558C548.393 479.45 548.644 479.42 548.885 479.472C549.177 479.564 549.348 479.855 549.532 480.098C550.015 480.736 551.534 481.705 552.394 481.252C553.164 480.847 552.589 479.575 553.557 478.923Z" fill="#2F2E41"/>
<path d="M524.404 531.265C524.404 531.265 522.429 543.596 530.61 542.475C530.61 542.475 534.842 541.914 535.407 542.475C535.971 543.035 556.848 539.392 559.669 536.309C559.669 536.309 563.055 535.188 564.747 536.87C566.44 538.551 583.368 540.233 578.289 535.188C573.211 530.144 565.312 529.023 565.312 529.023L554.591 529.584C554.591 529.584 548.948 531.265 545.563 529.584C542.177 527.902 532.585 528.463 532.585 528.463L524.404 531.265Z" fill="#A0616A"/>
<path d="M535.97 492.312C535.97 492.312 523.275 493.713 523.275 511.928V535.188C523.275 535.188 530.328 532.106 531.739 532.386C533.149 532.666 538.792 528.743 538.792 528.743C538.792 528.743 545.281 513.61 544.716 509.406C544.152 505.203 544.434 492.872 535.97 492.312Z" fill="#FF6584"/>
<path d="M556.283 476.198C562.282 476.198 567.145 473.689 567.145 470.593C567.145 467.498 562.282 464.988 556.283 464.988C550.284 464.988 545.421 467.498 545.421 470.593C545.421 473.689 550.284 476.198 556.283 476.198Z" fill="#2F2E41"/>
<path d="M546.127 480.962C548.231 480.962 549.936 476.759 549.936 471.574C549.936 466.389 548.231 462.186 546.127 462.186C544.024 462.186 542.318 466.389 542.318 471.574C542.318 476.759 544.024 480.962 546.127 480.962Z" fill="#2F2E41"/>
<rect x="103" y="73" width="308" height="289" rx="10" fill="#FFBC0A"/>
<g clip-path="url(#clip0)">
<path d="M423.919 368.37C423.919 371.895 346.287 391 250.523 391C154.759 391 77.1274 371.895 77.1274 368.37C77.1274 364.845 154.759 370.691 250.523 370.691C346.287 370.691 423.919 364.845 423.919 368.37Z" fill="#3F3D56"/>
<path opacity="0.1" d="M423.919 368.37C423.919 371.895 346.287 391 250.523 391C154.759 391 77.1274 371.895 77.1274 368.37C77.1274 364.845 154.759 370.691 250.523 370.691C346.287 370.691 423.919 364.845 423.919 368.37Z" fill="black"/>
<path d="M250.523 374.753C346.287 374.753 423.919 371.896 423.919 368.37C423.919 364.845 346.287 361.988 250.523 361.988C154.759 361.988 77.1274 364.845 77.1274 368.37C77.1274 371.896 154.759 374.753 250.523 374.753Z" fill="#3F3D56"/>
<path d="M341.162 365.469V250.581" stroke="#3F3D56" stroke-width="2" stroke-miterlimit="10"/>
<path d="M135.677 367.21V309.766" stroke="#3F3D56" stroke-width="2" stroke-miterlimit="10"/>
<path d="M135.677 317.889C140.029 317.889 143.558 314.252 143.558 309.766C143.558 305.279 140.029 301.642 135.677 301.642C131.324 301.642 127.795 305.279 127.795 309.766C127.795 314.252 131.324 317.889 135.677 317.889Z" fill="#3F3D56"/>
<path d="M135.677 345.17C135.677 345.17 136.803 320.21 159.885 323.111L135.677 345.17Z" fill="#3F3D56"/>
<path d="M304.006 366.63V309.185" stroke="#3F3D56" stroke-width="2" stroke-miterlimit="10"/>
<path d="M304.006 317.309C308.359 317.309 311.887 313.672 311.887 309.185C311.887 304.699 308.359 301.062 304.006 301.062C299.653 301.062 296.124 304.699 296.124 309.185C296.124 313.672 299.653 317.309 304.006 317.309Z" fill="#3F3D56"/>
<path d="M304.006 344.59C304.006 344.59 302.88 319.63 279.798 322.531L304.006 344.59Z" fill="#3F3D56"/>
<path d="M413.786 366.63V309.185" stroke="#3F3D56" stroke-width="2" stroke-miterlimit="10"/>
<path d="M413.786 317.309C418.139 317.309 421.668 313.672 421.668 309.185C421.668 304.699 418.139 301.062 413.786 301.062C409.433 301.062 405.904 304.699 405.904 309.185C405.904 313.672 409.433 317.309 413.786 317.309Z" fill="#3F3D56"/>
<path d="M413.785 344.59C413.785 344.59 412.66 319.63 389.578 322.531L413.785 344.59Z" fill="#3F3D56"/>
<path d="M109.217 365.469V250.581" stroke="#3F3D56" stroke-width="2" stroke-miterlimit="10"/>
<path d="M109.217 258.704C113.57 258.704 117.099 255.067 117.099 250.581C117.099 246.094 113.57 242.457 109.217 242.457C104.864 242.457 101.335 246.094 101.335 250.581C101.335 255.067 104.864 258.704 109.217 258.704Z" fill="#3F3D56"/>
<path d="M85.0091 323.111C89.362 323.111 92.8907 319.474 92.8907 314.988C92.8907 310.501 89.362 306.864 85.0091 306.864C80.6562 306.864 77.1274 310.501 77.1274 314.988C77.1274 319.474 80.6562 323.111 85.0091 323.111Z" fill="#3F3D56"/>
<path d="M109.217 283.664C109.217 283.664 108.091 258.704 85.0088 261.605L109.217 283.664Z" fill="#3F3D56"/>
<path d="M109.217 363.236C109.217 363.236 114.283 317.309 85.0088 314.988" stroke="#3F3D56" stroke-width="2" stroke-miterlimit="10"/>
<path d="M341.162 258.704C345.515 258.704 349.044 255.067 349.044 250.581C349.044 246.094 345.515 242.457 341.162 242.457C336.809 242.457 333.28 246.094 333.28 250.581C333.28 255.067 336.809 258.704 341.162 258.704Z" fill="#3F3D56"/>
<path d="M341.162 283.664C341.162 283.664 342.288 258.704 365.37 261.605L341.162 283.664Z" fill="#3F3D56"/>
<path d="M341.162 363.236C341.162 363.236 336.095 317.309 365.37 314.988" stroke="#3F3D56" stroke-width="2" stroke-miterlimit="10"/>
<path d="M365.37 323.111C369.723 323.111 373.252 319.474 373.252 314.988C373.252 310.501 369.723 306.864 365.37 306.864C361.017 306.864 357.488 310.501 357.488 314.988C357.488 319.474 361.017 323.111 365.37 323.111Z" fill="#3F3D56"/>
<path d="M332.774 237.105L290.932 227.893L281.994 271.019L323.836 280.231L332.774 237.105Z" fill="#FFB606"/>
<path d="M283.158 216.37C283.158 216.37 298.526 227.685 293.403 232.211C288.28 236.736 278.035 218.633 278.035 218.633L283.158 216.37Z" fill="#FFB9B9"/>
<path d="M212.169 233.719C212.169 233.719 215.096 271.434 215.828 276.714C216.56 281.994 217.292 329.515 218.756 334.795C220.219 340.075 221.683 352.898 221.683 352.898H230.465C230.465 352.898 229.733 329.515 231.929 320.463C234.124 311.412 233.392 286.52 233.392 286.52C233.392 286.52 237.783 242.016 235.588 235.982C233.392 229.948 212.169 233.719 212.169 233.719Z" fill="#FFB9B9"/>
<path d="M223.878 350.635C223.878 350.635 220.219 352.898 220.219 354.406C220.219 355.915 220.951 359.686 220.219 361.195C219.487 362.704 214.364 368.738 217.292 370.247C220.219 371.755 233.392 370.247 233.392 370.247C233.392 370.247 232.66 359.686 231.928 358.932C231.197 358.178 232.66 350.635 232.66 350.635H223.878Z" fill="#2F2E41"/>
<path d="M268.114 232.795C268.114 232.795 269.043 270.618 268.853 275.948C268.663 281.278 272.775 328.615 271.857 334.025C270.939 339.434 270.79 352.344 270.79 352.344L262.056 353.294C262.056 353.294 260.402 329.961 257.297 321.197C254.192 312.433 252.385 287.6 252.385 287.6C252.385 287.6 243.486 243.817 245.055 237.579C246.623 231.34 268.114 232.795 268.114 232.795Z" fill="#FFB9B9"/>
<path d="M268.376 350.332C268.376 350.332 272.246 352.186 272.399 353.686C272.553 355.187 272.209 359.016 273.091 360.437C273.972 361.859 279.681 367.305 276.924 369.122C274.166 370.939 260.912 370.864 260.912 370.864C260.912 370.864 260.564 360.283 261.215 359.454C261.866 358.625 259.643 351.282 259.643 351.282L268.376 350.332Z" fill="#2F2E41"/>
<path d="M222.414 177.147C222.414 177.147 216.56 177.901 214.364 190.724C212.169 203.547 204.118 235.982 210.705 238.245C217.292 240.508 237.051 245.034 237.783 243.525C238.515 242.017 239.979 238.245 239.979 238.245C239.979 238.245 237.783 245.034 240.711 245.034C243.638 245.034 272.18 240.508 271.448 238.245C270.716 235.982 269.252 219.388 269.252 219.388C269.252 219.388 264.861 191.479 260.47 186.953C259.199 185.696 258.213 184.165 257.58 182.47C256.948 180.776 256.685 178.958 256.811 177.147H222.414Z" fill="#2F2E41"/>
<path d="M211.437 171.113C211.437 171.113 220.951 168.85 222.415 171.867C223.878 174.884 218.755 179.41 216.56 179.41C214.364 179.41 210.705 177.147 210.705 177.147L211.437 171.113Z" fill="#FFB9B9"/>
<path d="M231.197 106.998C238.472 106.998 244.37 100.919 244.37 93.4205C244.37 85.9219 238.472 79.8432 231.197 79.8432C223.922 79.8432 218.024 85.9219 218.024 93.4205C218.024 100.919 223.922 106.998 231.197 106.998Z" fill="#FFB9B9"/>
<path d="M233.393 103.226C233.393 103.226 235.588 113.786 234.124 113.786C232.661 113.786 245.102 120.575 245.102 120.575L254.616 119.067L257.543 114.541C257.543 114.541 242.175 103.981 242.175 97.9463C242.175 91.912 233.393 103.226 233.393 103.226Z" fill="#FFB9B9"/>
<path d="M239.979 113.786C239.979 113.786 237.783 112.278 237.051 112.278H231.197C230.465 112.278 220.951 114.541 220.951 114.541L215.096 148.484C215.096 148.484 225.342 165.833 218.024 179.41C218.024 179.41 220.219 177.901 230.465 178.656C240.711 179.41 259.007 181.673 259.739 181.673C260.47 181.673 260.47 175.639 259.739 174.13C259.007 172.621 260.47 173.376 260.47 169.604C260.47 165.833 262.666 159.044 262.666 159.044L272.912 120.575C272.912 120.575 259.739 113.032 257.543 113.786C255.347 114.541 248.761 116.804 247.297 116.049C245.834 115.295 239.979 113.786 239.979 113.786Z" fill="#FF6584"/>
<path d="M223.146 115.295L220.951 114.541C220.951 114.541 216.56 113.786 211.437 118.312C206.314 122.838 187.286 136.415 187.286 136.415C187.286 136.415 179.968 142.45 182.163 149.238C184.359 156.027 188.018 172.621 198.996 171.867C198.996 171.867 205.582 180.919 209.241 179.41C212.901 177.901 215.828 171.867 213.633 171.113C211.437 170.359 205.582 162.816 205.582 162.816L212.901 148.484H215.096L223.146 143.958V115.295Z" fill="#FF6584"/>
<path d="M267.057 119.821L272.912 120.575C272.912 120.575 278.035 122.838 277.303 132.644C276.571 142.45 281.694 186.953 279.499 192.233C279.499 192.233 286.817 217.879 285.353 218.633C283.89 219.388 275.107 223.913 275.839 220.896C276.571 217.879 267.789 196.759 267.789 196.759C267.789 196.759 257.543 185.444 261.934 169.604V156.781L267.057 119.821Z" fill="#FF6584"/>
<path d="M222.781 111.146L232.295 110.746V105.866L233.047 110.714L248.395 110.069V107.375L248.811 110.051L258.641 109.638L252.786 89.8093C252.786 85.6657 251.189 81.6919 248.346 78.7619C245.504 75.832 241.648 74.186 237.628 74.186H233.914C227.765 74.186 217.658 78.4088 217.658 84.7461C222.907 94.3831 230.261 104.518 222.781 111.146Z" fill="#2F2E41"/>
<path d="M157.07 10.359H114.284V54.4576H157.07V10.359Z" stroke="#3F3D56" stroke-width="2" stroke-miterlimit="10"/>
<path d="M458.824 9.77875H309.636V82.8897H458.824V9.77875Z" fill="#FFB606"/>
<path d="M469.52 0.494812H320.332V73.6057H469.52V0.494812Z" stroke="#3F3D56" stroke-width="2" stroke-miterlimit="10"/>
<path d="M149.188 133.951H0V207.062H149.188V133.951Z" fill="#FAF9F7"/>
<path d="M159.884 124.667H10.6963V197.778H159.884V124.667Z" stroke="#3F3D56" stroke-width="2" stroke-miterlimit="10"/>
</g>
<defs>
<clipPath id="clip0">
<rect width="470" height="391" fill="white"/>
</clipPath>
</defs>
</svg>
