<svg width="164" height="20" viewBox="0 0 164 20" fill="none" xmlns="http://www.w3.org/2000/svg">
<path d="M1.47 19C1.29667 19 1.14067 18.9393 1.002 18.818C0.880667 18.6793 0.82 18.5233 0.82 18.35V1.45C0.82 1.25933 0.880667 1.10333 1.002 0.982C1.14067 0.860666 1.29667 0.799999 1.47 0.799999H8.75C10.9687 0.799999 12.7107 1.31133 13.976 2.334C15.2587 3.35667 15.9 4.84733 15.9 6.806C15.9 8.74733 15.2673 10.212 14.002 11.2C12.7367 12.1707 10.986 12.656 8.75 12.656H5.656V18.35C5.656 18.5407 5.58667 18.6967 5.448 18.818C5.32667 18.9393 5.17067 19 4.98 19H1.47ZM8.62 9.068C9.38267 9.068 9.98067 8.87733 10.414 8.496C10.8473 8.09733 11.064 7.51667 11.064 6.754C11.064 6.04333 10.856 5.48 10.44 5.064C10.0413 4.63067 9.43467 4.414 8.62 4.414H5.578V9.068H8.62ZM18.7543 19C18.5636 19 18.4076 18.9393 18.2863 18.818C18.165 18.6967 18.1043 18.5407 18.1043 18.35V6.13C18.1043 5.93933 18.165 5.78333 18.2863 5.662C18.4076 5.54067 18.5636 5.48 18.7543 5.48H21.7443C21.935 5.48 22.091 5.54933 22.2123 5.688C22.351 5.80933 22.4203 5.95667 22.4203 6.13V7.17C23.3736 6.04333 24.6563 5.48 26.2683 5.48H27.4123C27.603 5.48 27.759 5.54067 27.8803 5.662C28.0016 5.78333 28.0623 5.93933 28.0623 6.13V8.808C28.0623 8.98133 28.0016 9.13733 27.8803 9.276C27.759 9.39733 27.603 9.458 27.4123 9.458H24.8903C24.1796 9.458 23.625 9.65733 23.2263 10.056C22.845 10.4373 22.6543 10.9833 22.6543 11.694V18.35C22.6543 18.5407 22.585 18.6967 22.4463 18.818C22.325 18.9393 22.169 19 21.9783 19H18.7543ZM36.18 19.26C34.0307 19.26 32.3753 18.7487 31.214 17.726C30.0527 16.7033 29.42 15.2647 29.316 13.41C29.2987 13.1847 29.29 12.7947 29.29 12.24C29.29 11.6853 29.2987 11.2953 29.316 11.07C29.42 9.23267 30.07 7.80267 31.266 6.78C32.462 5.74 34.1 5.22 36.18 5.22C38.2773 5.22 39.924 5.74 41.12 6.78C42.316 7.80267 42.966 9.23267 43.07 11.07C43.0873 11.2953 43.096 11.6853 43.096 12.24C43.096 12.7947 43.0873 13.1847 43.07 13.41C42.966 15.2647 42.3333 16.7033 41.172 17.726C40.0107 18.7487 38.3467 19.26 36.18 19.26ZM36.18 16.088C36.9427 16.088 37.506 15.8627 37.87 15.412C38.234 14.944 38.442 14.2333 38.494 13.28C38.5113 13.1067 38.52 12.76 38.52 12.24C38.52 11.72 38.5113 11.3733 38.494 11.2C38.442 10.264 38.2253 9.562 37.844 9.094C37.48 8.626 36.9253 8.392 36.18 8.392C34.7413 8.392 33.9787 9.328 33.892 11.2L33.866 12.24L33.892 13.28C33.9267 14.2333 34.126 14.944 34.49 15.412C34.8713 15.8627 35.4347 16.088 36.18 16.088ZM52.5438 19C48.9558 19 47.1618 17.2927 47.1618 13.878V8.886H45.1338C44.9431 8.886 44.7784 8.82533 44.6398 8.704C44.5184 8.58267 44.4578 8.42667 44.4578 8.236V6.13C44.4578 5.93933 44.5184 5.78333 44.6398 5.662C44.7784 5.54067 44.9431 5.48 45.1338 5.48H47.1618V1.19C47.1618 0.999332 47.2224 0.843333 47.3438 0.722C47.4824 0.600666 47.6384 0.539999 47.8118 0.539999H50.8278C51.0184 0.539999 51.1744 0.600666 51.2958 0.722C51.4171 0.843333 51.4778 0.999332 51.4778 1.19V5.48H54.7278C54.9184 5.48 55.0744 5.54067 55.1958 5.662C55.3344 5.78333 55.4038 5.93933 55.4038 6.13V8.236C55.4038 8.42667 55.3344 8.58267 55.1958 8.704C55.0744 8.82533 54.9184 8.886 54.7278 8.886H51.4778V13.514C51.4778 14.7967 51.9718 15.438 52.9598 15.438H54.9618C55.1524 15.438 55.3084 15.4987 55.4298 15.62C55.5511 15.7413 55.6118 15.8973 55.6118 16.088V18.35C55.6118 18.5233 55.5511 18.6793 55.4298 18.818C55.3084 18.9393 55.1524 19 54.9618 19H52.5438ZM64.1605 19.26C62.0111 19.26 60.3558 18.7487 59.1945 17.726C58.0331 16.7033 57.4005 15.2647 57.2965 13.41C57.2791 13.1847 57.2705 12.7947 57.2705 12.24C57.2705 11.6853 57.2791 11.2953 57.2965 11.07C57.4005 9.23267 58.0505 7.80267 59.2465 6.78C60.4425 5.74 62.0805 5.22 64.1605 5.22C66.2578 5.22 67.9045 5.74 69.1005 6.78C70.2965 7.80267 70.9465 9.23267 71.0505 11.07C71.0678 11.2953 71.0765 11.6853 71.0765 12.24C71.0765 12.7947 71.0678 13.1847 71.0505 13.41C70.9465 15.2647 70.3138 16.7033 69.1525 17.726C67.9911 18.7487 66.3271 19.26 64.1605 19.26ZM64.1605 16.088C64.9231 16.088 65.4865 15.8627 65.8505 15.412C66.2145 14.944 66.4225 14.2333 66.4745 13.28C66.4918 13.1067 66.5005 12.76 66.5005 12.24C66.5005 11.72 66.4918 11.3733 66.4745 11.2C66.4225 10.264 66.2058 9.562 65.8245 9.094C65.4605 8.626 64.9058 8.392 64.1605 8.392C62.7218 8.392 61.9591 9.328 61.8725 11.2L61.8465 12.24L61.8725 13.28C61.9071 14.2333 62.1065 14.944 62.4705 15.412C62.8518 15.8627 63.4151 16.088 64.1605 16.088ZM79.223 19.26C77.819 19.26 76.6403 19.0607 75.687 18.662C74.751 18.2633 74.0577 17.7867 73.607 17.232C73.1563 16.6773 72.931 16.1833 72.931 15.75C72.931 15.5767 72.9917 15.438 73.113 15.334C73.2517 15.2127 73.399 15.152 73.555 15.152H76.519C76.623 15.152 76.7183 15.1953 76.805 15.282C77.013 15.4207 77.169 15.5333 77.273 15.62C77.6543 15.8973 77.9837 16.1053 78.261 16.244C78.5557 16.3653 78.911 16.426 79.327 16.426C79.8297 16.426 80.237 16.3307 80.549 16.14C80.8783 15.932 81.043 15.646 81.043 15.282C81.043 14.9873 80.9563 14.7533 80.783 14.58C80.627 14.4067 80.315 14.242 79.847 14.086C79.379 13.9127 78.6683 13.7307 77.715 13.54C76.2763 13.2453 75.167 12.7687 74.387 12.11C73.6243 11.434 73.243 10.5327 73.243 9.406C73.243 8.69533 73.4683 8.01933 73.919 7.378C74.3697 6.73667 75.037 6.21667 75.921 5.818C76.8223 5.41933 77.8883 5.22 79.119 5.22C80.3497 5.22 81.4243 5.41067 82.343 5.792C83.2617 6.17333 83.955 6.64133 84.423 7.196C84.9083 7.73333 85.151 8.22733 85.151 8.678C85.151 8.834 85.0903 8.97267 84.969 9.094C84.865 9.21533 84.735 9.276 84.579 9.276H81.875C81.7363 9.276 81.6063 9.23267 81.485 9.146C81.2597 9.02467 81.0603 8.89467 80.887 8.756C80.5923 8.53067 80.315 8.35733 80.055 8.236C79.795 8.11467 79.4743 8.054 79.093 8.054C78.6423 8.054 78.2783 8.158 78.001 8.366C77.741 8.574 77.611 8.84267 77.611 9.172C77.611 9.432 77.6803 9.64867 77.819 9.822C77.975 9.99533 78.287 10.1687 78.755 10.342C79.2403 10.498 79.951 10.6627 80.887 10.836C82.5683 11.1307 83.7903 11.6507 84.553 12.396C85.333 13.1413 85.723 14.0167 85.723 15.022C85.723 16.3047 85.151 17.336 84.007 18.116C82.863 18.8787 81.2683 19.26 79.223 19.26ZM94.8699 19C91.2819 19 89.4879 17.2927 89.4879 13.878V8.886H87.4599C87.2693 8.886 87.1046 8.82533 86.9659 8.704C86.8446 8.58267 86.7839 8.42667 86.7839 8.236V6.13C86.7839 5.93933 86.8446 5.78333 86.9659 5.662C87.1046 5.54067 87.2693 5.48 87.4599 5.48H89.4879V1.19C89.4879 0.999332 89.5486 0.843333 89.6699 0.722C89.8086 0.600666 89.9646 0.539999 90.1379 0.539999H93.1539C93.3446 0.539999 93.5006 0.600666 93.6219 0.722C93.7433 0.843333 93.8039 0.999332 93.8039 1.19V5.48H97.0539C97.2446 5.48 97.4006 5.54067 97.5219 5.662C97.6606 5.78333 97.7299 5.93933 97.7299 6.13V8.236C97.7299 8.42667 97.6606 8.58267 97.5219 8.704C97.4006 8.82533 97.2446 8.886 97.0539 8.886H93.8039V13.514C93.8039 14.7967 94.2979 15.438 95.2859 15.438H97.2879C97.4786 15.438 97.6346 15.4987 97.7559 15.62C97.8773 15.7413 97.9379 15.8973 97.9379 16.088V18.35C97.9379 18.5233 97.8773 18.6793 97.7559 18.818C97.6346 18.9393 97.4786 19 97.2879 19H94.8699ZM100.741 19C100.55 19 100.394 18.9393 100.273 18.818C100.151 18.6967 100.091 18.5407 100.091 18.35V6.13C100.091 5.93933 100.151 5.78333 100.273 5.662C100.394 5.54067 100.55 5.48 100.741 5.48H103.731C103.921 5.48 104.077 5.54933 104.199 5.688C104.337 5.80933 104.407 5.95667 104.407 6.13V7.17C105.36 6.04333 106.643 5.48 108.255 5.48H109.399C109.589 5.48 109.745 5.54067 109.867 5.662C109.988 5.78333 110.049 5.93933 110.049 6.13V8.808C110.049 8.98133 109.988 9.13733 109.867 9.276C109.745 9.39733 109.589 9.458 109.399 9.458H106.877C106.166 9.458 105.611 9.65733 105.213 10.056C104.831 10.4373 104.641 10.9833 104.641 11.694V18.35C104.641 18.5407 104.571 18.6967 104.433 18.818C104.311 18.9393 104.155 19 103.965 19H100.741ZM118.01 19.26C115.93 19.26 114.292 18.6967 113.096 17.57C111.9 16.4433 111.276 14.8053 111.224 12.656V11.746C111.294 9.70067 111.926 8.106 113.122 6.962C114.336 5.80067 115.956 5.22 117.984 5.22C119.458 5.22 120.697 5.52333 121.702 6.13C122.725 6.71933 123.488 7.534 123.99 8.574C124.51 9.614 124.77 10.81 124.77 12.162V12.786C124.77 12.9593 124.71 13.1153 124.588 13.254C124.467 13.3753 124.311 13.436 124.12 13.436H115.8V13.618C115.835 14.4327 116.034 15.0913 116.398 15.594C116.762 16.0967 117.291 16.348 117.984 16.348C118.418 16.348 118.773 16.2613 119.05 16.088C119.328 15.8973 119.579 15.672 119.804 15.412C119.96 15.2213 120.082 15.1087 120.168 15.074C120.272 15.022 120.428 14.996 120.636 14.996H123.86C124.016 14.996 124.146 15.048 124.25 15.152C124.372 15.2387 124.432 15.36 124.432 15.516C124.432 15.9667 124.172 16.4867 123.652 17.076C123.15 17.6653 122.413 18.1767 121.442 18.61C120.472 19.0433 119.328 19.26 118.01 19.26ZM120.194 10.862V10.81C120.194 9.96067 119.995 9.29333 119.596 8.808C119.215 8.30533 118.678 8.054 117.984 8.054C117.308 8.054 116.771 8.30533 116.372 8.808C115.991 9.29333 115.8 9.96067 115.8 10.81V10.862H120.194ZM131.264 19.26C130.345 19.26 129.504 19.0867 128.742 18.74C127.996 18.376 127.407 17.8907 126.974 17.284C126.558 16.66 126.35 15.9753 126.35 15.23C126.35 14.034 126.835 13.072 127.806 12.344C128.794 11.616 130.146 11.1133 131.862 10.836L135.112 10.342V9.978C135.112 9.31933 134.973 8.834 134.696 8.522C134.418 8.21 133.95 8.054 133.292 8.054C132.893 8.054 132.564 8.12333 132.304 8.262C132.044 8.40067 131.775 8.59133 131.498 8.834C131.255 9.042 131.073 9.18067 130.952 9.25C130.9 9.38867 130.804 9.458 130.666 9.458H127.832C127.658 9.458 127.511 9.406 127.39 9.302C127.286 9.18067 127.242 9.042 127.26 8.886C127.277 8.418 127.502 7.898 127.936 7.326C128.386 6.754 129.062 6.26 129.964 5.844C130.882 5.428 132.009 5.22 133.344 5.22C135.476 5.22 137.053 5.69667 138.076 6.65C139.098 7.586 139.61 8.85133 139.61 10.446V18.35C139.61 18.5233 139.549 18.6793 139.428 18.818C139.306 18.9393 139.15 19 138.96 19H135.944C135.77 19 135.614 18.9393 135.476 18.818C135.354 18.6793 135.294 18.5233 135.294 18.35V17.44C134.912 17.9773 134.375 18.4193 133.682 18.766C133.006 19.0953 132.2 19.26 131.264 19.26ZM132.486 16.296C133.283 16.296 133.924 16.036 134.41 15.516C134.912 14.996 135.164 14.2333 135.164 13.228V12.864L132.954 13.254C131.394 13.5313 130.614 14.0773 130.614 14.892C130.614 15.3253 130.796 15.672 131.16 15.932C131.524 16.1747 131.966 16.296 132.486 16.296ZM143.194 19C143.003 19 142.847 18.9393 142.726 18.818C142.604 18.6967 142.544 18.5407 142.544 18.35V6.13C142.544 5.93933 142.604 5.78333 142.726 5.662C142.847 5.54067 143.003 5.48 143.194 5.48H146.028C146.218 5.48 146.374 5.54067 146.496 5.662C146.617 5.78333 146.678 5.93933 146.678 6.13V7.014C147.076 6.494 147.605 6.06933 148.264 5.74C148.94 5.39333 149.694 5.22 150.526 5.22C152.432 5.22 153.75 5.96533 154.478 7.456C154.894 6.79733 155.474 6.26 156.22 5.844C156.965 5.428 157.762 5.22 158.612 5.22C160.033 5.22 161.186 5.70533 162.07 6.676C162.971 7.62933 163.422 9.05933 163.422 10.966V18.35C163.422 18.5233 163.361 18.6793 163.24 18.818C163.118 18.9393 162.962 19 162.772 19H159.756C159.565 19 159.4 18.9393 159.262 18.818C159.14 18.6967 159.08 18.5407 159.08 18.35V11.148C159.08 10.2813 158.898 9.65733 158.534 9.276C158.187 8.89467 157.71 8.704 157.104 8.704C156.549 8.704 156.09 8.90333 155.726 9.302C155.362 9.68333 155.18 10.2987 155.18 11.148V18.35C155.18 18.5233 155.119 18.6793 154.998 18.818C154.876 18.9393 154.72 19 154.53 19H151.514C151.323 19 151.167 18.9393 151.046 18.818C150.924 18.6967 150.864 18.5407 150.864 18.35V11.148C150.864 10.2987 150.673 9.68333 150.292 9.302C149.928 8.90333 149.46 8.704 148.888 8.704C148.333 8.704 147.865 8.90333 147.484 9.302C147.12 9.68333 146.938 10.29 146.938 11.122V18.35C146.938 18.5233 146.877 18.6793 146.756 18.818C146.634 18.9393 146.478 19 146.288 19H143.194Z" fill="#FFB606"/>
</svg>
