<svg width="19" height="28" viewBox="0 0 19 28" fill="none" xmlns="http://www.w3.org/2000/svg">
<path d="M15.5103 3.15161C15.8208 3.15161 16.0728 3.40361 16.0728 3.71411V25.0891C16.0728 25.3996 15.8208 25.6516 15.5103 25.6516H3.13525C2.82475 25.6516 2.57275 25.3996 2.57275 25.0891V3.71411C2.57275 3.40361 2.82475 3.15161 3.13525 3.15161H15.5103ZM18.3228 3.15161C18.3228 1.90961 17.3148 0.901611 16.0728 0.901611H2.57275C1.33075 0.901611 0.322754 1.90961 0.322754 3.15161V25.6516C0.322754 26.8936 1.33075 27.9016 2.57275 27.9016H16.0728C17.3148 27.9016 18.3228 26.8936 18.3228 25.6516V3.15161ZM7.63525 4.27661H11.0103C11.3208 4.27661 11.5728 4.52861 11.5728 4.84024C11.5728 5.14961 11.3208 5.40161 11.0103 5.40161H7.63525C7.32588 5.40161 7.07275 5.14961 7.07275 4.84024C7.07275 4.52861 7.32588 4.27661 7.63525 4.27661ZM9.32275 24.5266C8.70063 24.5266 8.19775 24.0226 8.19775 23.4016C8.19775 22.7806 8.70063 22.2766 9.32275 22.2766C9.94375 22.2766 10.4466 22.7806 10.4466 23.4016C10.4466 24.0226 9.94375 24.5266 9.32275 24.5266ZM14.9478 21.1516H3.69775V6.52661H14.9478V21.1516Z" fill="white"/>
</svg>
