<svg width="1920" height="471" viewBox="0 0 1920 471" fill="none" xmlns="http://www.w3.org/2000/svg">
<path fill-rule="evenodd" clip-rule="evenodd" d="M0 188.4L64 226.08C128 263.76 256 339.12 384 320.28C512 301.44 640 188.4 768 113.04C896 37.68 1024 0 1152 0C1280 0 1408 37.68 1536 103.62C1664 169.56 1792 263.76 1856 310.86L1920 357.96V471H1856C1792 471 1664 471 1536 471C1408 471 1280 471 1152 471C1024 471 896 471 768 471C640 471 512 471 384 471C256 471 128 471 64 471H0V188.4Z" fill="url(#paint0_linear)" fill-opacity="0.54"/>
<defs>
<linearGradient id="paint0_linear" x1="1474.14" y1="281.679" x2="568.454" y2="376.944" gradientUnits="userSpaceOnUse">
<stop stop-color="#F7AF02"/>
<stop offset="1" stop-color="#FBD11B"/>
</linearGradient>
</defs>
</svg>
