<svg width="47" height="51" viewBox="0 0 47 51" fill="none" xmlns="http://www.w3.org/2000/svg">
<path d="M32.7115 42.2214L39.824 50.5547H34.3511L27.2261 42.2214H32.7115ZM35.8615 13.0547H27.5282V15.138H35.8615V13.0547ZM21.2782 50.5547H25.4448V42.2214H21.2782V50.5547ZM6.86566 50.5547H12.3407L19.4657 42.2214H13.9802L6.86566 50.5547ZM35.8615 17.2214H27.5282V19.3047H35.8615V17.2214ZM35.8615 21.388H27.5282V23.4714H35.8615V21.388ZM18.1532 27.638C21.824 27.638 24.8302 24.9172 25.3407 21.388H17.1115V13.1589C13.5823 13.6693 10.8615 16.6755 10.8615 20.3464C10.8615 24.3734 14.1261 27.638 18.1532 27.638ZM19.1948 13.1589V19.3047H25.3407C24.8802 16.1193 22.3802 13.6193 19.1948 13.1589ZM35.8615 25.5547H27.5282V27.638H35.8615V25.5547ZM46.2782 6.80469H44.1948V38.0547H2.52816V6.80469H0.444824V0.554688H46.2782V6.80469ZM40.0282 6.80469H6.69482V33.888H40.0282V6.80469Z" fill="#FFB606"/>
</svg>
