<svg width="108" height="108" viewBox="0 0 108 108" fill="none" xmlns="http://www.w3.org/2000/svg">
<circle cx="54" cy="54" r="54" fill="#FAFAFA"/>
<path d="M66.75 58.2692C66.75 60.6258 65.1633 62.5385 63.2083 62.5385C61.2533 62.5385 59.6667 60.6258 59.6667 58.2692C59.6667 55.9126 61.2533 54 63.2083 54C65.1633 54 66.75 55.9126 66.75 58.2692ZM44.7917 54C42.8367 54 41.25 55.9126 41.25 58.2692C41.25 60.6258 42.8367 62.5385 44.7917 62.5385C46.7467 62.5385 48.3333 60.6258 48.3333 58.2692C48.3333 55.9126 46.7467 54 44.7917 54ZM54 77.7768C60.3325 77.7768 62.5 71.0769 62.5 71.0769H45.5C45.5 71.0769 47.8998 77.7768 54 77.7768ZM88 60.5832C88 65.6066 85.2092 71.9422 79.109 74.5464C73.3715 83.748 65.441 91 54 91C43.1597 91 34.6285 83.748 28.891 74.5464C22.7908 71.9393 20 65.6038 20 60.5832C20 54.74 22.4423 49.7678 27.6783 49.301C30.0923 23.4038 51.96 25.3705 55.5498 18.4231C56.465 20.0141 56.9013 22.8944 55.4932 24.9294C57.9667 24.8013 62.1345 21.218 63.299 17.666C65.4353 18.7077 66.2258 22.1544 65.1577 24.3658C66.6933 24.0727 71.3542 21.0928 73.8333 17C75.7827 21.4485 73.907 27.1408 71.8273 30.579L71.7933 30.5818C76.882 35.4402 79.6728 42.3336 80.3217 49.2982C85.5888 49.7678 88 54.7542 88 60.5832ZM80.69 55.2722C80.0242 54.8396 79.1855 54.9449 78.786 55.1214C77.1993 55.8329 75.3463 54.9449 74.8987 53.2429L74.8958 53.2885C73.9523 45.8771 71.7083 39.4732 67.498 37.4496C49.2882 57.3983 36.8413 34.8482 33.668 47.4937C33.3818 49.1502 33.1977 50.8294 33.1977 52.52C33.1977 54.5664 31.0925 55.961 29.214 55.1214C28.8173 54.9449 27.9758 54.8368 27.31 55.2722C24.4767 57.1251 24.777 67.1805 31.713 69.5372C32.3477 69.7535 32.8832 70.1861 33.2288 70.761C40.162 82.2965 48.033 85.3077 54 85.3077C63.316 85.3077 69.9092 78.8498 74.774 70.761C75.1197 70.1861 75.658 69.7535 76.2898 69.5372C83.223 67.1805 83.5233 57.1251 80.69 55.2722Z" fill="black" fill-opacity="0.8"/>
</svg>
