<svg width="61" height="60" viewBox="0 0 61 60" fill="none" xmlns="http://www.w3.org/2000/svg">
<path fill-rule="evenodd" clip-rule="evenodd" d="M17.7541 51.23C21.5841 53.62 26.1091 55 30.9541 55C35.7891 55 40.3066 53.625 44.1341 51.2425L47.2341 55.1975C42.5441 58.235 36.9541 60 30.9541 60C24.9466 60 19.3491 58.23 14.6541 55.185L17.7541 51.23ZM31.4966 50H30.3791C30.0866 50 29.8041 49.9 29.6091 49.7275L28.1266 48.75H33.7516L32.2666 49.7275C32.0741 49.9 31.7916 50 31.4966 50ZM4.4616 47.905H0.954102C0.954102 45.145 3.1916 42.905 5.9541 42.905H10.9541C12.2791 42.905 13.5516 43.4325 14.4891 44.37C15.4266 45.3075 15.9541 46.58 15.9541 47.905H12.4466C11.9566 46.39 10.5591 46.09 8.4541 46.09C6.3491 46.09 4.9541 46.3775 4.4616 47.905ZM33.8041 47.5H28.1066C27.7616 47.5 27.4816 47.22 27.4816 46.875C27.4816 46.53 27.7616 46.25 28.1066 46.25H33.8041C34.1491 46.25 34.4291 46.53 34.4291 46.875C34.4291 47.22 34.1491 47.5 33.8041 47.5ZM49.4616 47.5H45.9541C45.9541 44.7375 48.1916 42.5 50.9541 42.5H55.9541C57.2791 42.5 58.5516 43.0275 59.4891 43.965C60.4266 44.9025 60.9541 46.1725 60.9541 47.5H57.4466C56.9566 45.985 55.5591 45.685 53.4541 45.685C51.3491 45.685 49.9541 45.9725 49.4616 47.5ZM30.4966 45.035H26.9616C26.9291 38.61 23.4541 37.84 23.4541 33.4175C23.4541 29.18 26.7716 26.2875 30.9541 26.2875H31.0041C35.1616 26.31 38.4541 29.195 38.4541 33.4175C38.4541 37.84 34.9766 38.61 34.9441 45.035H31.4091C31.4091 38.1975 34.7041 36 34.7041 33.4075C34.7041 31.2675 32.9691 30.075 30.9541 30.0375H30.9066C28.9116 30.0925 27.2041 31.285 27.2041 33.4075C27.2041 36 30.4966 38.1975 30.4966 45.035ZM8.4541 30.405C11.5591 30.405 14.0791 32.925 14.0791 36.03C14.0791 39.135 11.5591 41.655 8.4541 41.655C5.3491 41.655 2.8291 39.135 2.8291 36.03C2.8291 32.925 5.3491 30.405 8.4541 30.405ZM53.4541 30C56.5591 30 59.0791 32.52 59.0791 35.625C59.0791 38.73 56.5591 41.25 53.4541 41.25C50.3491 41.25 47.8291 38.73 47.8291 35.625C47.8291 32.52 50.3491 30 53.4541 30ZM40.6291 35.965L44.0016 37.495L42.9691 39.77L39.7241 38.3C40.0991 37.55 40.4116 36.78 40.6291 35.965ZM21.2816 35.9625C21.4991 36.7925 21.8016 37.54 22.1816 38.3L18.9416 39.77L17.9066 37.495L21.2816 35.9625ZM8.4541 33.78C9.6966 33.78 10.7041 34.7875 10.7041 36.03C10.7041 37.2725 9.6966 38.28 8.4541 38.28C7.2116 38.28 6.2041 37.2725 6.2041 36.03C6.2041 34.7875 7.2116 33.78 8.4541 33.78ZM53.4541 33.375C54.6966 33.375 55.7041 34.3825 55.7041 35.625C55.7041 36.8675 54.6966 37.875 53.4541 37.875C52.2116 37.875 51.2041 36.8675 51.2041 35.625C51.2041 34.3825 52.2116 33.375 53.4541 33.375ZM44.7041 33.75H40.9516C40.9766 32.9125 40.9016 32.0675 40.7191 31.25H44.7041V33.75ZM20.9591 33.75H17.2041V31.25H21.1891C21.0091 32.0675 20.9341 32.9075 20.9591 33.745V33.75ZM38.5091 26.965L41.6141 24.76L43.0616 26.8L39.9316 29.02C39.5666 28.2925 39.0941 27.605 38.5091 26.965ZM23.3991 26.9625C22.8241 27.5925 22.3541 28.275 21.9766 29.02L18.8491 26.8L20.2941 24.76L23.3991 26.9625ZM34.4866 24.3475L36.1441 20.985L38.3866 22.0925L36.7266 25.455C36.0316 24.995 35.2766 24.625 34.4866 24.3475ZM27.4216 24.345C26.6341 24.62 25.8766 24.99 25.1791 25.45L23.5216 22.0925L25.7641 20.985L27.4216 24.345ZM20.9541 1.71V7.0825C13.6091 10.295 8.1016 16.9375 6.4591 24.9775L1.3741 24.97C3.2041 14.15 10.8366 5.29 20.9541 1.71ZM40.9541 1.71C51.0716 5.29 58.7041 14.15 60.5341 24.97L55.4491 24.9775C53.8066 16.9375 48.2991 10.295 40.9541 7.0825V1.71ZM32.2041 23.8275C31.3691 23.7275 30.5691 23.7225 29.7041 23.8225V20H32.2041V23.8275ZM26.9616 17.5H23.4541C23.4541 14.7375 25.6916 12.5 28.4541 12.5H33.4541C34.7791 12.5 36.0516 13.0275 36.9891 13.965C37.9266 14.9025 38.4541 16.1725 38.4541 17.5H34.9466C34.4566 15.985 33.0591 15.685 30.9541 15.685C28.8491 15.685 27.4541 15.9725 26.9616 17.5ZM30.9541 0C34.0591 0 36.5791 2.52 36.5791 5.625C36.5791 8.73 34.0591 11.25 30.9541 11.25C27.8491 11.25 25.3291 8.73 25.3291 5.625C25.3291 2.52 27.8491 0 30.9541 0ZM30.9541 3.375C32.1966 3.375 33.2041 4.3825 33.2041 5.625C33.2041 6.8675 32.1966 7.875 30.9541 7.875C29.7116 7.875 28.7041 6.8675 28.7041 5.625C28.7041 4.3825 29.7116 3.375 30.9541 3.375Z" fill="#FFB606"/>
</svg>
