<svg width="888" height="686" viewBox="0 0 888 686" fill="none" xmlns="http://www.w3.org/2000/svg">
<g clip-path="url(#clip0)">
<path opacity="0.1" d="M277.269 686C382.16 686 467.19 673.109 467.19 657.206C467.19 641.304 382.16 628.412 277.269 628.412C172.378 628.412 87.3477 641.304 87.3477 657.206C87.3477 673.109 172.378 686 277.269 686Z" fill="#FFB606"/>
<path opacity="0.1" d="M274.197 30.265C304.321 3.71055 351.613 -1.7283 394.668 0.415246C529.875 7.06985 651.913 71.5923 757.509 144.593C795.733 171.027 833.366 199.501 858.172 235.902C908.679 309.982 893.693 412.617 823.466 473.644C799.572 494.44 770.608 510.332 740.876 524.441C688.002 549.532 630.954 569.672 570.946 575.406C528.156 579.494 484.838 576.166 442.296 570.464C323.433 554.531 206.761 519.274 108.978 458.991C66.0917 432.581 25.6685 399.675 7.9878 356.892C-9.69288 314.109 1.59045 259.897 45.4203 234.582C63.5328 224.104 85.1878 219.385 106.387 214.93C137.574 208.396 169.305 201.949 197.469 188.664C226.553 174.931 260.995 148.384 255.237 118.007C249.056 85.3974 244.082 56.7714 274.197 30.265Z" fill="white"/>
<path d="M736.359 70.7532C741.764 106.394 726.723 138.235 726.723 138.235C726.723 138.235 702.917 112.296 697.495 76.6559C694.464 56.6601 697.863 37.8801 701.429 25.2267C701.879 23.5835 702.796 22.1062 704.069 20.9743C705.343 19.8425 706.917 19.1047 708.601 18.8506C710.286 18.5965 712.008 18.837 713.558 19.5429C715.108 20.2488 716.42 21.3898 717.335 22.8272C724.508 33.8329 733.328 50.7653 736.359 70.7532Z" fill="#FFB606"/>
<path d="M836.877 127.557C842.233 127.532 847.57 128.207 852.751 129.565C861.475 131.804 861.611 144.162 852.935 146.593C847.784 148.061 842.464 148.851 837.109 148.945C817.493 149.161 801.476 138.635 801.476 138.635C801.476 138.635 817.262 127.773 836.877 127.557Z" fill="#FFB606"/>
<path d="M781.716 73.3766C763.46 93.4444 759.597 119.671 759.597 119.671C759.597 119.671 785.331 113.352 803.579 93.2764C812.04 83.9744 817.413 73.3526 820.74 64.6344C821.37 62.9841 821.489 61.1822 821.081 59.4634C820.673 57.7446 819.757 56.1885 818.452 54.9976C817.148 53.8067 815.515 53.0362 813.766 52.7863C812.018 52.5365 810.235 52.8189 808.649 53.5967C800.236 57.7319 790.177 64.0745 781.716 73.3766Z" fill="#FFB606"/>
<path d="M804.195 69.5934H424.832C416.087 69.5934 408.999 76.6837 408.999 85.4301V548.829C408.999 557.575 416.087 564.665 424.832 564.665H804.195C812.939 564.665 820.028 557.575 820.028 548.829V85.4301C820.028 76.6837 812.939 69.5934 804.195 69.5934Z" fill="#464353"/>
<path opacity="0.1" d="M784.571 119.535H444.456V514.724H784.571V119.535Z" fill="#FFB606"/>
<path d="M614.514 555.26C622.507 555.26 628.988 548.778 628.988 540.783C628.988 532.787 622.507 526.306 614.514 526.306C606.52 526.306 600.04 532.787 600.04 540.783C600.04 548.778 606.52 555.26 614.514 555.26Z" fill="white"/>
<path d="M614.513 105.386C613.161 105.386 611.839 104.985 610.715 104.233C609.591 103.482 608.714 102.414 608.197 101.164C607.679 99.9147 607.544 98.5397 607.808 97.2132C608.071 95.8866 608.723 94.6681 609.679 93.7117C610.635 92.7553 611.853 92.104 613.18 91.8401C614.506 91.5763 615.881 91.7117 617.13 92.2293C618.379 92.7469 619.447 93.6234 620.198 94.748C620.95 95.8726 621.351 97.1948 621.351 98.5473C621.346 100.36 620.625 102.097 619.343 103.378C618.062 104.66 616.326 105.382 614.513 105.386Z" fill="white"/>
<path d="M614.513 92.1087C615.786 92.1087 617.031 92.4863 618.09 93.1938C619.148 93.9012 619.973 94.9068 620.461 96.0833C620.948 97.2598 621.075 98.5544 620.827 99.8034C620.579 101.052 619.965 102.2 619.065 103.1C618.165 104.001 617.018 104.614 615.769 104.862C614.52 105.111 613.226 104.983 612.05 104.496C610.874 104.009 609.868 103.183 609.161 102.124C608.454 101.066 608.076 99.8207 608.076 98.5473C608.078 96.8403 608.757 95.2038 609.964 93.9968C611.171 92.7898 612.807 92.1108 614.513 92.1087ZM614.513 91.3088C613.08 91.3009 611.677 91.7187 610.482 92.5092C609.286 93.2998 608.353 94.4275 607.799 95.7494C607.245 97.0714 607.096 98.528 607.371 99.9348C607.645 101.342 608.331 102.635 609.342 103.651C610.352 104.668 611.642 105.361 613.047 105.644C614.452 105.926 615.909 105.785 617.233 105.239C618.558 104.692 619.691 103.764 620.488 102.573C621.285 101.382 621.71 99.9806 621.71 98.5473C621.716 97.5986 621.533 96.6583 621.174 95.7803C620.815 94.9023 620.285 94.104 619.617 93.4313C618.948 92.7586 618.153 92.2248 617.277 91.8606C616.401 91.4963 615.462 91.3088 614.513 91.3088Z" fill="white"/>
<path d="M527.357 241.957H463.696C461.797 241.957 460.257 243.497 460.257 245.397V334.434C460.257 336.333 461.797 337.873 463.696 337.873H527.357C529.257 337.873 530.796 336.333 530.796 334.434V245.397C530.796 243.497 529.257 241.957 527.357 241.957Z" fill="white" stroke="white" stroke-miterlimit="10"/>
<path opacity="0.5" d="M518.473 266.128H472.58C469.427 266.128 466.871 268.685 466.871 271.839V290.851C466.871 294.005 469.427 296.562 472.58 296.562H518.473C521.627 296.562 524.183 294.005 524.183 290.851V271.839C524.183 268.685 521.627 266.128 518.473 266.128Z" fill="#FFB606"/>
<path d="M510.868 308.975H480.185C479.439 308.975 478.833 309.58 478.833 310.327V312.35C478.833 313.097 479.439 313.702 480.185 313.702H510.868C511.615 313.702 512.22 313.097 512.22 312.35V310.327C512.22 309.58 511.615 308.975 510.868 308.975Z" fill="#FFB606"/>
<path d="M646.612 241.957H582.95C581.051 241.957 579.512 243.497 579.512 245.397V334.434C579.512 336.333 581.051 337.873 582.95 337.873H646.612C648.511 337.873 650.051 336.333 650.051 334.434V245.397C650.051 243.497 648.511 241.957 646.612 241.957Z" fill="white" stroke="white" stroke-miterlimit="10"/>
<path opacity="0.5" d="M630.699 256.938H599.232C598.587 256.938 598.064 257.461 598.064 258.106V273.719C598.064 274.363 598.587 274.886 599.232 274.886H630.699C631.344 274.886 631.866 274.363 631.866 273.719V258.106C631.866 257.461 631.344 256.938 630.699 256.938Z" fill="#FFB606"/>
<path d="M634.921 291.707H594.474C593.727 291.707 593.122 292.312 593.122 293.058V295.082C593.122 295.829 593.727 296.434 594.474 296.434H634.921C635.667 296.434 636.272 295.829 636.272 295.082V293.058C636.272 292.312 635.667 291.707 634.921 291.707Z" fill="#FFB606"/>
<path d="M634.921 300.521H594.474C593.727 300.521 593.122 301.126 593.122 301.873V303.896C593.122 304.643 593.727 305.248 594.474 305.248H634.921C635.667 305.248 636.272 304.643 636.272 303.896V301.873C636.272 301.126 635.667 300.521 634.921 300.521Z" fill="#FFB606"/>
<path d="M765.331 173.82H701.669C699.77 173.82 698.23 175.359 698.23 177.259V266.296C698.23 268.196 699.77 269.735 701.669 269.735H765.331C767.23 269.735 768.769 268.196 768.769 266.296V177.259C768.769 175.359 767.23 173.82 765.331 173.82Z" fill="white" stroke="white" stroke-miterlimit="10"/>
<path opacity="0.5" d="M755.295 188.704H711.705C711.06 188.704 710.538 189.227 710.538 189.872V208.972C710.538 209.617 711.06 210.14 711.705 210.14H755.295C755.94 210.14 756.463 209.617 756.463 208.972V189.872C756.463 189.227 755.94 188.704 755.295 188.704Z" fill="#FFB606"/>
<path opacity="0.5" d="M755.295 219.858H711.705C711.06 219.858 710.538 220.381 710.538 221.026V240.126C710.538 240.771 711.06 241.293 711.705 241.293H755.295C755.94 241.293 756.463 240.771 756.463 240.126V221.026C756.463 220.381 755.94 219.858 755.295 219.858Z" fill="#FFB606"/>
<path d="M718.87 258.57H709.93C708.238 258.57 706.867 259.941 706.867 261.633V262.121C706.867 263.813 708.238 265.184 709.93 265.184H718.87C720.562 265.184 721.933 263.813 721.933 262.121V261.633C721.933 259.941 720.562 258.57 718.87 258.57Z" fill="#FFB606"/>
<path d="M737.974 258.57H729.034C727.342 258.57 725.971 259.941 725.971 261.633V262.121C725.971 263.813 727.342 265.184 729.034 265.184H737.974C739.666 265.184 741.037 263.813 741.037 262.121V261.633C741.037 259.941 739.666 258.57 737.974 258.57Z" fill="#FFB606"/>
<path d="M757.078 258.57H748.138C746.446 258.57 745.075 259.941 745.075 261.633V262.121C745.075 263.813 746.446 265.184 748.138 265.184H757.078C758.77 265.184 760.141 263.813 760.141 262.121V261.633C760.141 259.941 758.77 258.57 757.078 258.57Z" fill="#FFB606"/>
<path d="M765.163 310.095H701.501C699.602 310.095 698.062 311.635 698.062 313.534V402.572C698.062 404.471 699.602 406.011 701.501 406.011H765.163C767.062 406.011 768.601 404.471 768.601 402.572V313.534C768.601 311.635 767.062 310.095 765.163 310.095Z" fill="white" stroke="white" stroke-miterlimit="10"/>
<path opacity="0.5" d="M723.42 321.309H704.676C704.031 321.309 703.508 321.831 703.508 322.476V341.576C703.508 342.221 704.031 342.744 704.676 342.744H723.42C724.065 342.744 724.588 342.221 724.588 341.576V322.476C724.588 321.831 724.065 321.309 723.42 321.309Z" fill="#FFB606"/>
<path d="M753.56 355.797H713.113C712.366 355.797 711.761 356.403 711.761 357.149V359.173C711.761 359.919 712.366 360.524 713.113 360.524H753.56C754.306 360.524 754.911 359.919 754.911 359.173V357.149C754.911 356.403 754.306 355.797 753.56 355.797Z" fill="#FFB606"/>
<path d="M753.56 365.355H713.113C712.366 365.355 711.761 365.961 711.761 366.707V368.731C711.761 369.477 712.366 370.082 713.113 370.082H753.56C754.306 370.082 754.911 369.477 754.911 368.731V366.707C754.911 365.961 754.306 365.355 753.56 365.355Z" fill="#FFB606"/>
<path d="M753.56 374.913H713.113C712.366 374.913 711.761 375.519 711.761 376.265V378.289C711.761 379.035 712.366 379.64 713.113 379.64H753.56C754.306 379.64 754.911 379.035 754.911 378.289V376.265C754.911 375.519 754.306 374.913 753.56 374.913Z" fill="#FFB606"/>
<path d="M571.379 287.628L570.299 288.148L561.551 292.355L560.751 292.731C560.698 292.755 560.64 292.769 560.582 292.771C560.523 292.773 560.464 292.762 560.41 292.74C560.355 292.719 560.305 292.686 560.264 292.645C560.222 292.603 560.189 292.553 560.168 292.499C560.159 292.446 560.159 292.392 560.168 292.339V289.851C560.168 289.739 560.123 289.631 560.044 289.551C559.964 289.472 559.856 289.427 559.744 289.427H538.481C538.368 289.427 538.259 289.383 538.178 289.304C538.097 289.224 538.051 289.116 538.049 289.003V285.492C538.051 285.379 538.097 285.271 538.178 285.192C538.259 285.113 538.368 285.068 538.481 285.068H559.768C559.881 285.066 559.989 285.02 560.068 284.939C560.147 284.858 560.192 284.749 560.192 284.636V282.093C560.183 282.04 560.183 281.986 560.192 281.933C560.214 281.879 560.247 281.83 560.289 281.789C560.331 281.749 560.381 281.717 560.436 281.696C560.49 281.675 560.548 281.665 560.607 281.667C560.665 281.67 560.723 281.684 560.775 281.709L561.575 282.085L570.299 286.332L571.379 286.86C571.452 286.894 571.514 286.948 571.557 287.016C571.6 287.084 571.623 287.163 571.623 287.244C571.623 287.324 571.6 287.403 571.557 287.471C571.514 287.539 571.452 287.593 571.379 287.628Z" fill="white" stroke="white" stroke-miterlimit="10"/>
<path d="M689.754 266.056L689.05 267.024L683.325 274.83L682.821 275.526C682.785 275.572 682.74 275.611 682.689 275.64C682.638 275.668 682.582 275.686 682.524 275.693C682.466 275.7 682.407 275.695 682.351 275.679C682.295 275.662 682.243 275.635 682.197 275.598C682.157 275.563 682.124 275.519 682.101 275.47L680.934 273.279C680.879 273.178 680.788 273.103 680.679 273.068C680.57 273.034 680.452 273.044 680.35 273.095L661.558 283.101C661.508 283.127 661.454 283.144 661.399 283.149C661.343 283.155 661.287 283.149 661.233 283.133C661.18 283.116 661.13 283.089 661.087 283.054C661.044 283.018 661.008 282.974 660.982 282.925L659.335 279.813C659.308 279.764 659.292 279.71 659.286 279.654C659.281 279.598 659.286 279.542 659.303 279.489C659.319 279.435 659.346 279.385 659.382 279.342C659.417 279.299 659.461 279.263 659.511 279.237L678.303 269.248C678.352 269.221 678.396 269.186 678.432 269.143C678.468 269.1 678.494 269.05 678.511 268.996C678.527 268.943 678.533 268.886 678.527 268.831C678.522 268.775 678.505 268.721 678.479 268.672L677.287 266.424C677.257 266.379 677.24 266.326 677.239 266.272C677.231 266.214 677.236 266.154 677.253 266.098C677.27 266.041 677.298 265.989 677.337 265.944C677.375 265.9 677.423 265.864 677.476 265.839C677.53 265.814 677.588 265.801 677.647 265.8H678.503L688.195 265.448L689.394 265.408C689.47 265.408 689.544 265.429 689.609 265.467C689.674 265.505 689.728 265.56 689.765 265.626C689.801 265.692 689.82 265.767 689.818 265.843C689.816 265.918 689.794 265.992 689.754 266.056Z" fill="white" stroke="white" stroke-miterlimit="10"/>
<path d="M689.69 307.056H688.499H678.815H677.959C677.901 307.056 677.843 307.044 677.789 307.021C677.736 306.997 677.687 306.963 677.648 306.92C677.608 306.877 677.577 306.827 677.558 306.772C677.539 306.717 677.531 306.658 677.535 306.6C677.537 306.547 677.551 306.495 677.575 306.448L678.647 304.2C678.671 304.15 678.686 304.095 678.689 304.039C678.692 303.983 678.684 303.927 678.665 303.875C678.647 303.822 678.618 303.773 678.58 303.732C678.543 303.69 678.498 303.656 678.447 303.632L659.255 294.418C659.152 294.368 659.074 294.279 659.036 294.172C658.999 294.064 659.005 293.945 659.055 293.842L660.574 290.683C660.598 290.632 660.631 290.586 660.672 290.547C660.714 290.509 660.762 290.48 660.815 290.461C660.869 290.443 660.925 290.435 660.981 290.439C661.037 290.442 661.092 290.457 661.142 290.483L680.334 299.705C680.437 299.753 680.555 299.758 680.662 299.721C680.77 299.684 680.858 299.606 680.91 299.505L682.014 297.21C682.043 297.144 682.089 297.086 682.148 297.044C682.206 297.001 682.275 296.974 682.347 296.966C682.418 296.958 682.491 296.969 682.558 296.998C682.624 297.026 682.682 297.072 682.725 297.13L683.261 297.793L689.283 305.408L690.026 306.352C690.081 306.414 690.117 306.491 690.128 306.573C690.14 306.656 690.127 306.74 690.091 306.815C690.055 306.89 689.998 306.952 689.927 306.995C689.856 307.038 689.773 307.059 689.69 307.056Z" fill="white" stroke="white" stroke-miterlimit="10"/>
<path d="M339.211 485.218L339.147 487.562L335.069 631.587H328.208L331.575 487.562L331.639 484.858L339.211 485.218Z" fill="#504F60"/>
<path opacity="0.1" d="M339.211 485.218L339.147 487.562L335.069 631.587H328.208L331.575 487.562L331.639 484.858L339.211 485.218Z" fill="black"/>
<path d="M378.915 607.225L373.781 607.209L297.453 607.049L293.391 607.041L295.55 600.362H378.371L378.915 607.225Z" fill="#504F60"/>
<path opacity="0.1" d="M339.212 485.218L339.148 487.562H331.575L331.639 484.858L339.212 485.218Z" fill="black"/>
<path d="M342.106 481.699H329.384V486.482H342.106V481.699Z" fill="#504F60"/>
<path opacity="0.1" d="M298.133 600.362L297.453 607.049L293.391 607.041L295.55 600.362H298.133Z" fill="black"/>
<path d="M309.088 481.611L308.872 483.682L291.943 650.711L284.187 650.351L302.027 483.682L302.227 481.787L309.088 481.611Z" fill="#504F60"/>
<path opacity="0.1" d="M378.915 607.225L373.781 607.209L373.085 600.362H378.371L378.915 607.225Z" fill="black"/>
<path d="M387.039 650.351L379.275 650.711L362.346 483.682L362.138 481.611L368.991 481.787L369.191 483.682L387.039 650.351Z" fill="#504F60"/>
<path d="M420.058 316.917H249.001V480.971H420.058V316.917Z" fill="white"/>
<path d="M454.476 316.917H214.783C212.959 316.917 211.48 318.396 211.48 320.221V477.668C211.48 479.492 212.959 480.971 214.783 480.971H454.476C456.3 480.971 457.778 479.492 457.778 477.668V320.221C457.778 318.396 456.3 316.917 454.476 316.917Z" fill="white"/>
<path d="M337.86 262.057V301.673H331.191V262.057C331.191 261.172 331.542 260.324 332.168 259.699C332.793 259.073 333.641 258.722 334.526 258.722C335.41 258.722 336.258 259.073 336.883 259.699C337.509 260.324 337.86 261.172 337.86 262.057Z" fill="#504F60"/>
<path opacity="0.1" d="M337.868 298.065H331.191V301.673H337.868V298.065Z" fill="black"/>
<path d="M340.483 300.769V313.854H328.576V300.769C328.576 300.345 328.744 299.938 329.044 299.638C329.344 299.338 329.751 299.169 330.175 299.169H338.835C339.049 299.163 339.263 299.199 339.462 299.277C339.662 299.354 339.844 299.471 339.997 299.62C340.151 299.77 340.273 299.948 340.357 300.145C340.44 300.343 340.483 300.555 340.483 300.769Z" fill="#504F60"/>
<path opacity="0.1" d="M334.525 309.975C335.921 309.975 337.052 308.843 337.052 307.448C337.052 306.052 335.921 304.92 334.525 304.92C333.13 304.92 331.999 306.052 331.999 307.448C331.999 308.843 333.13 309.975 334.525 309.975Z" fill="black"/>
<path d="M334.525 309.431C335.921 309.431 337.052 308.299 337.052 306.904C337.052 305.508 335.921 304.376 334.525 304.376C333.13 304.376 331.999 305.508 331.999 306.904C331.999 308.299 333.13 309.431 334.525 309.431Z" fill="#3F3D56"/>
<path opacity="0.1" d="M340.483 312.23H328.576V313.854H340.483V312.23Z" fill="black"/>
<path opacity="0.1" d="M345.353 314.398H323.698V318.005H345.353V314.398Z" fill="black"/>
<path d="M345.353 313.31H323.698V316.918H345.353V313.31Z" fill="#504F60"/>
<path opacity="0.1" d="M291.583 476.7H380.81C382.083 476.7 383.303 477.206 384.203 478.106C385.103 479.006 385.608 480.226 385.608 481.499H286.801C286.801 480.229 287.305 479.011 288.201 478.111C289.097 477.212 290.314 476.704 291.583 476.7Z" fill="black"/>
<path opacity="0.1" d="M302.227 481.787L309.088 481.611L308.872 483.682H302.027L302.227 481.787Z" fill="black"/>
<path opacity="0.1" d="M342.106 481.699H329.384V483.682H342.106V481.699Z" fill="black"/>
<path opacity="0.1" d="M369.191 483.682H362.346L362.138 481.611L368.991 481.787L369.191 483.682Z" fill="black"/>
<path d="M291.583 477.82H380.81C382.083 477.82 383.303 478.325 384.203 479.225C385.103 480.125 385.608 481.346 385.608 482.619H286.801C286.801 481.346 287.307 480.125 288.207 479.225C289.106 478.325 290.327 477.82 291.599 477.82H291.583Z" fill="#504F60"/>
<path d="M414.084 336.185C414.265 336.157 414.451 336.171 414.625 336.226C414.8 336.281 414.96 336.376 415.092 336.503C415.225 336.63 415.326 336.785 415.388 336.958C415.451 337.13 415.472 337.315 415.452 337.497C414.292 348.695 415.036 360.164 416.291 371.338C416.875 376.449 417.667 381.856 419.93 385.647C420.074 385.877 420.137 386.149 420.108 386.419C420.079 386.688 419.96 386.941 419.77 387.135C419.138 387.626 418.345 387.863 417.547 387.799L381.858 387.998C381.677 388 381.498 387.96 381.334 387.882C381.171 387.804 381.027 387.689 380.915 387.548C380.802 387.406 380.724 387.24 380.685 387.063C380.646 386.886 380.648 386.703 380.69 386.527C383.561 374.289 382.945 360.932 381.794 348.239C381.226 341.992 380.898 338.641 385.56 338.201C390.358 337.769 395.156 337.569 399.954 337.169C401.106 337.073 410.334 336.801 414.084 336.185Z" fill="white" stroke="#33313F" stroke-width="3" stroke-miterlimit="10"/>
<path d="M386.776 409.522C386.595 409.494 386.41 409.508 386.235 409.563C386.06 409.618 385.9 409.713 385.768 409.839C385.635 409.966 385.534 410.122 385.472 410.295C385.41 410.467 385.388 410.652 385.409 410.834C386.568 422.031 385.824 433.501 384.561 444.675C383.985 449.786 383.193 455.192 380.93 458.992C380.785 459.22 380.722 459.491 380.751 459.76C380.78 460.028 380.9 460.279 381.09 460.471C381.722 460.963 382.515 461.2 383.313 461.135L419.003 461.343C419.184 461.342 419.362 461.3 419.524 461.22C419.687 461.141 419.829 461.026 419.942 460.884C420.054 460.742 420.132 460.576 420.172 460.4C420.211 460.223 420.211 460.04 420.17 459.863C417.299 447.626 417.915 434.269 419.067 421.576C419.634 415.329 419.962 411.978 415.3 411.538C410.638 411.098 405.704 410.906 400.906 410.506C399.755 410.41 390.526 410.138 386.776 409.522Z" fill="white" stroke="#33313F" stroke-width="3" stroke-miterlimit="10"/>
<path d="M397.26 430.126C401.407 429.932 405.561 429.983 409.702 430.278C409.971 430.304 410.222 430.421 410.415 430.61C410.607 430.8 410.728 431.049 410.758 431.317L411.15 434.589C411.17 434.662 411.171 434.739 411.155 434.813C411.138 434.887 411.103 434.955 411.054 435.013C410.966 435.076 410.858 435.104 410.75 435.093C409.007 435.141 407.263 434.941 405.528 435.093C404.449 435.181 403.377 435.389 402.33 435.509C400.559 435.664 398.779 435.697 397.004 435.605C394.502 435.648 392.007 435.341 389.591 434.693C389.591 434.693 389.735 431.981 389.735 431.725C389.735 430.462 389.695 430.35 390.998 430.318L397.26 430.126Z" stroke="#33313F" stroke-width="2" stroke-miterlimit="10" stroke-linecap="round"/>
<path d="M397.26 444.875C401.407 445.069 405.562 445.016 409.702 444.715C409.971 444.689 410.222 444.571 410.415 444.382C410.607 444.193 410.728 443.943 410.758 443.675L411.15 440.412C411.17 440.337 411.171 440.259 411.155 440.184C411.138 440.109 411.103 440.039 411.054 439.98C410.966 439.917 410.858 439.888 410.75 439.9C409.007 439.852 407.263 440.06 405.528 439.9C404.449 439.82 403.377 439.612 402.33 439.492C400.559 439.332 398.779 439.3 397.004 439.396C394.502 439.353 392.007 439.66 389.591 440.308C389.591 440.308 389.735 443.011 389.735 443.275C389.735 444.539 389.695 444.643 390.998 444.683L397.26 444.875Z" stroke="#33313F" stroke-width="2" stroke-miterlimit="10" stroke-linecap="round"/>
<path d="M397.26 450.649C401.407 450.455 405.562 450.508 409.702 450.809C409.971 450.835 410.222 450.953 410.415 451.142C410.607 451.331 410.728 451.581 410.758 451.849L411.15 455.112C411.17 455.187 411.171 455.265 411.155 455.34C411.138 455.415 411.103 455.485 411.054 455.544C410.966 455.608 410.858 455.636 410.75 455.624C409.007 455.672 407.263 455.464 405.528 455.624C404.449 455.704 403.377 455.92 402.33 456.04C400.558 456.194 398.779 456.223 397.004 456.128C394.503 456.174 392.008 455.87 389.591 455.224C389.591 455.224 389.735 452.513 389.735 452.249C389.735 450.985 389.695 450.881 390.998 450.849L397.26 450.649Z" stroke="#33313F" stroke-width="2" stroke-miterlimit="10" stroke-linecap="round"/>
<path d="M402.513 382.192C402.879 383.071 403.001 384.033 402.865 384.975C402.867 385.051 402.847 385.126 402.809 385.191C402.765 385.234 402.712 385.267 402.654 385.287C402.596 385.308 402.535 385.316 402.473 385.311L394.876 385.607C394.876 385.607 395.3 383.368 395.356 383.208C395.62 382.296 396.284 382.536 397.14 382.488L402.513 382.192Z" fill="white" stroke="#33313F" stroke-width="2" stroke-miterlimit="10" stroke-linecap="round"/>
<path d="M413.989 382.192C414.352 383.072 414.47 384.033 414.332 384.975C414.337 385.05 414.32 385.125 414.285 385.191C414.24 385.233 414.187 385.265 414.129 385.286C414.071 385.307 414.01 385.315 413.949 385.311L406.344 385.607C406.344 385.607 406.776 383.368 406.832 383.208C407.087 382.296 407.751 382.536 408.615 382.488L413.989 382.192Z" fill="white" stroke="#33313F" stroke-width="2" stroke-miterlimit="10" stroke-linecap="round"/>
<path d="M409.407 344.008L410.43 352.806C410.464 353.124 410.435 353.445 410.343 353.752C410.251 354.058 410.099 354.343 409.896 354.589C409.692 354.836 409.442 355.039 409.159 355.188C408.875 355.336 408.566 355.427 408.247 355.453C401.757 355.967 395.234 355.924 388.751 355.325C388.175 355.27 387.638 355.008 387.24 354.587C386.841 354.167 386.608 353.617 386.584 353.038C386.462 351.47 386.233 349.912 385.896 348.375C385.632 346.775 385.345 345.232 387.232 344.76C389.119 344.288 391.702 344.624 393.765 344.584C396.239 344.536 398.704 344.466 401.162 344.376C401.85 344.376 409.407 343.968 409.407 344.008Z" stroke="#33313F" stroke-width="3" stroke-miterlimit="10"/>
<path d="M409.406 375.793L410.414 366.995C410.448 366.677 410.419 366.356 410.327 366.049C410.235 365.743 410.083 365.458 409.88 365.212C409.676 364.965 409.426 364.762 409.142 364.613C408.859 364.465 408.549 364.374 408.231 364.348C401.741 363.836 395.219 363.876 388.735 364.468C388.157 364.523 387.619 364.786 387.221 365.209C386.822 365.631 386.59 366.183 386.568 366.763C386.446 368.331 386.217 369.889 385.88 371.426C385.616 373.026 385.328 374.569 387.216 375.041C389.103 375.513 391.686 375.177 393.749 375.217C396.22 375.265 398.683 375.329 401.146 375.425C401.85 375.449 409.406 375.857 409.406 375.793Z" stroke="#33313F" stroke-width="3" stroke-miterlimit="10"/>
<path d="M399.13 415.441C398.864 418.368 398.696 421.301 398.627 424.239C395.691 424.214 392.767 423.879 389.902 423.239C389.677 423.229 389.456 423.168 389.256 423.063C389.056 422.958 388.882 422.81 388.745 422.63C388.609 422.45 388.514 422.242 388.466 422.021C388.419 421.8 388.42 421.572 388.471 421.352C388.415 419.528 387.455 415.457 390.022 415.201C390.79 415.121 399.122 415.585 399.13 415.441Z" stroke="#33313F" stroke-width="2" stroke-miterlimit="10" stroke-linecap="round"/>
<path d="M257.933 375.481C258.309 375.44 258.69 375.484 259.047 375.608C259.404 375.733 259.73 375.935 259.999 376.201C260.268 376.466 260.475 376.789 260.605 377.144C260.734 377.5 260.783 377.88 260.748 378.257C259.828 388.902 260.556 399.804 261.755 410.418C262.291 415.137 263.003 420.104 264.89 423.823C265.054 424.142 265.134 424.498 265.122 424.856C265.109 425.215 265.005 425.564 264.818 425.871C264.632 426.177 264.371 426.431 264.058 426.607C263.746 426.784 263.394 426.877 263.035 426.878L227.626 427.086C227.414 427.088 227.205 427.042 227.014 426.951C226.823 426.861 226.655 426.728 226.522 426.564C226.389 426.399 226.295 426.207 226.246 426.001C226.198 425.795 226.197 425.581 226.242 425.375C229.049 413.201 228.433 399.908 227.29 387.319C226.714 381.072 226.394 377.721 231.048 377.281C235.846 376.857 240.644 376.657 245.402 376.249C246.418 376.169 253.679 375.945 257.933 375.481Z" fill="white" stroke="#33313F" stroke-width="3" stroke-miterlimit="10" stroke-linecap="round"/>
<path d="M307.193 375.281C306.999 375.251 306.801 375.267 306.614 375.326C306.427 375.386 306.257 375.488 306.116 375.624C305.975 375.76 305.867 375.927 305.802 376.112C305.736 376.297 305.714 376.494 305.737 376.689C306.881 387.831 306.137 399.284 304.882 410.418C304.306 415.529 303.514 420.912 301.259 424.711C301.101 424.98 301.048 425.297 301.11 425.603C301.172 425.909 301.345 426.181 301.595 426.366C302.2 426.75 302.912 426.929 303.626 426.878L339.219 427.086C339.415 427.086 339.607 427.042 339.783 426.956C339.958 426.87 340.112 426.745 340.231 426.591C340.351 426.436 340.434 426.256 340.473 426.065C340.512 425.874 340.508 425.676 340.459 425.487C337.62 413.273 338.228 399.932 339.379 387.295C339.947 381.048 340.275 377.697 335.621 377.257C330.823 376.833 326.025 376.633 321.227 376.225C320.051 376.153 311.015 375.889 307.193 375.281Z" fill="white" stroke="#33313F" stroke-width="3" stroke-miterlimit="10"/>
<path d="M236.734 382.552L254.838 406.707" stroke="#33313F" stroke-width="2" stroke-miterlimit="10" stroke-linecap="round"/>
<path d="M254.838 380.744L237.333 407.914" stroke="#33313F" stroke-width="2" stroke-miterlimit="10" stroke-linecap="round"/>
<path d="M317.524 383.688L327.384 396.845" stroke="#33313F" stroke-width="2" stroke-miterlimit="10" stroke-linecap="round"/>
<path d="M327.385 382.696L317.853 397.501" stroke="#33313F" stroke-width="2" stroke-miterlimit="10" stroke-linecap="round"/>
<path d="M242.715 414.425C246.865 414.232 251.023 414.282 255.166 414.577C255.434 414.606 255.684 414.724 255.875 414.913C256.067 415.102 256.189 415.35 256.222 415.617L256.606 418.888C256.625 418.962 256.627 419.039 256.611 419.114C256.596 419.189 256.564 419.259 256.518 419.32C256.426 419.375 256.321 419.403 256.214 419.4C254.471 419.448 252.719 419.24 250.984 419.4C249.904 419.48 248.841 419.688 247.785 419.808C246.014 419.964 244.235 419.996 242.46 419.904C239.961 419.947 237.468 419.641 235.055 418.992C235.007 418.992 235.199 416.289 235.199 416.025C235.199 414.761 235.151 414.657 236.454 414.617L242.715 414.425Z" stroke="#33313F" stroke-width="2" stroke-miterlimit="10" stroke-linecap="round"/>
<path d="M318.78 402.348C322.93 402.153 327.087 402.206 331.231 402.508C331.499 402.533 331.751 402.651 331.943 402.84C332.135 403.029 332.256 403.279 332.286 403.547L332.67 406.811C332.689 406.885 332.691 406.962 332.676 407.037C332.661 407.112 332.629 407.182 332.582 407.243C332.494 407.305 332.386 407.333 332.278 407.322C330.535 407.37 328.784 407.163 327.049 407.322C325.969 407.402 324.905 407.618 323.85 407.73C322.079 407.89 320.299 407.922 318.524 407.826C316.023 407.87 313.528 407.563 311.111 406.915C311.071 406.915 311.255 404.211 311.255 403.947C311.255 402.683 311.215 402.579 312.519 402.539L318.78 402.348Z" stroke="#33313F" stroke-width="2" stroke-miterlimit="10" stroke-linecap="round"/>
<path d="M325.121 411.41C320.974 411.216 316.82 411.267 312.679 411.562C312.41 411.588 312.159 411.705 311.966 411.894C311.774 412.084 311.653 412.333 311.623 412.601L311.255 415.865C311.232 415.938 311.228 416.017 311.244 416.092C311.259 416.168 311.293 416.238 311.343 416.297C311.431 416.36 311.539 416.388 311.647 416.377C313.39 416.425 315.134 416.225 316.877 416.377C317.956 416.457 319.02 416.673 320.076 416.793C321.847 416.945 323.626 416.977 325.401 416.889C327.903 416.933 330.398 416.626 332.814 415.977C332.854 415.977 332.67 413.265 332.67 413.009C332.67 411.738 332.718 411.634 331.415 411.602L325.121 411.41Z" stroke="#33313F" stroke-width="2" stroke-miterlimit="10" stroke-linecap="round"/>
<path d="M273.375 405.491C273.375 405.491 285.138 404.891 287.249 405.491" stroke="#33313F" stroke-width="3" stroke-miterlimit="10"/>
<path d="M287.265 399.156C287.265 399.156 292.391 404.283 292.391 405.491C292.391 406.699 285.753 410.922 285.753 410.922" stroke="#33313F" stroke-width="3" stroke-miterlimit="10"/>
<path d="M350.311 394.549C350.311 394.549 360.971 389.558 363.154 389.318" stroke="#33313F" stroke-width="3" stroke-miterlimit="10"/>
<path d="M360.771 383.456C360.771 383.456 367.448 386.271 367.904 387.383C368.359 388.495 363.809 394.917 363.809 394.917" stroke="#33313F" stroke-width="3" stroke-miterlimit="10"/>
<path d="M350.199 407.331C350.199 407.331 361.034 411.93 362.674 413.401" stroke="#33313F" stroke-width="3" stroke-miterlimit="10"/>
<path d="M365.441 407.698C365.441 407.698 367.84 414.553 367.28 415.641C366.72 416.729 358.939 417.624 358.939 417.624" stroke="#33313F" stroke-width="3" stroke-miterlimit="10"/>
<path d="M392.253 382.192C392.616 383.072 392.735 384.033 392.597 384.975C392.601 385.05 392.585 385.125 392.549 385.191C392.504 385.233 392.451 385.265 392.394 385.286C392.336 385.307 392.274 385.315 392.213 385.311L384.608 385.607C384.608 385.607 385.04 383.368 385.096 383.208C385.352 382.296 386.024 382.536 386.879 382.488L392.253 382.192Z" fill="white" stroke="#33313F" stroke-width="2" stroke-miterlimit="10" stroke-linecap="round"/>
<path d="M248.593 451.121L251.28 448.618L248.881 448.522L247.625 450.449L248.593 451.121Z" fill="#33313F"/>
<path d="M229.265 468.654L232.112 464.998L232.744 464.343L241.46 455.209L244.427 452.105L245.818 451.937L247.817 449.954L248.993 450.985L247.05 453.257L247.082 454.449L244.051 457.736L235.495 467.03L234.943 467.622L231.504 470.805L229.265 468.654Z" fill="#65617D"/>
<path d="M232.744 464.343L241.46 455.208L244.051 457.736L235.495 467.03L232.744 464.343Z" fill="#33313F"/>
<path d="M245.898 467.862C243.365 465.503 241.161 462.813 239.349 459.864C235.51 453.881 229.097 450.649 224.699 449.042V447.098L224.971 447.042L224.851 445.235H224.971L224.659 440.436V440.396L223.076 416.585C223.076 416.585 217.438 400.708 227.458 386.063C237.478 371.418 228.082 357.373 218.661 351.878C218.661 351.878 214.279 328.683 218.038 323.188C212.939 320.253 207.686 317.596 202.3 315.23C202.212 314.942 202.14 314.654 202.068 314.35C201.964 312.191 201.828 310.031 201.709 307.871C201.834 306.749 202.04 305.637 202.324 304.544C202.444 304.088 202.58 303.632 202.724 303.16C207.202 301.449 211.06 298.425 213.792 294.485C216.525 290.545 218.004 285.872 218.038 281.077C218.04 278.28 217.536 275.505 216.55 272.887C217.056 272.055 217.441 271.155 217.694 270.215C218.294 267.744 217.614 265.104 216.207 262.601C213.696 257.178 207.434 252.099 202.892 250.22C196.383 247.58 186.587 248.204 179.806 249.02C175.999 249.476 171.657 250.747 170.282 254.235C169.778 255.514 169.77 256.93 169.418 258.234C167.994 263.561 161.845 266.04 158.047 270.119C154.688 273.719 153.249 278.59 152.129 283.333C149.011 296.926 148.267 310.957 149.93 324.804C150.314 328.003 150.826 331.163 151.369 334.33C149.082 337.529 147.019 343.184 147.963 353.006L140.446 388.407L137.319 409.162C137.319 409.162 135.44 417.704 142.917 425.031C147.715 429.702 153.512 437.596 157.087 442.707C155.531 447.232 154.76 451.991 154.808 456.776C154.888 458.952 155.008 461.055 155.16 463.055C155.476 467.303 156.281 471.5 157.559 475.564C158.438 484.09 160.174 494.992 163.572 501.959L164.82 539.191C164.82 539.191 162.941 573.376 159.222 580.086C155.504 586.797 167.355 643.569 167.355 643.569V651.503L165.356 657.374L164.852 656.998C155.464 668.596 164.852 672.867 164.852 672.867C164.852 672.867 167.411 672.987 171.497 673.147C171.15 674.774 171.355 676.47 172.079 677.967C172.803 679.465 174.005 680.679 175.495 681.417C175.495 681.417 228.697 683.857 238.093 681.417C247.49 678.978 244.979 670.427 239.965 671.019C238.053 671.259 235.231 670.755 232.472 670.043C235.391 666.644 233.056 662.045 229.329 662.477C224.323 663.085 213.056 658.654 213.056 658.654L213 658.726C212.64 658.589 212.271 658.476 211.896 658.39C207.711 657.448 203.576 656.292 199.509 654.927C197.11 649.784 191.513 635.963 195.511 625.245C197.318 620.398 197.91 613.951 197.91 607.697C198.006 588.828 200.781 570.068 206.155 551.98L213.664 526.386C213.664 526.386 224.307 495.248 224.931 486.706L224.891 474.277C233.687 479.875 240.684 478.196 245.146 475.58C245.797 475.196 246.348 474.664 246.755 474.026C247.161 473.389 247.411 472.664 247.484 471.912C247.557 471.16 247.452 470.401 247.176 469.697C246.901 468.993 246.463 468.364 245.898 467.862ZM162.357 403.075C162.573 402.18 162.749 401.204 162.901 400.172C164.372 400.172 165.851 400.172 167.323 400.124C169.153 403.843 169.922 407.994 169.546 412.122C166.155 411.074 161.085 408.506 162.357 403.115V403.075Z" fill="url(#paint0_linear)"/>
<path d="M168.306 648.536L165.907 655.734L173.736 663.565L199.637 669.587L218.309 667.78L217.102 661.149C216.743 659.726 215.999 658.43 214.953 657.401C213.906 656.373 212.597 655.652 211.168 655.318C203.492 653.511 188.858 649.4 185.779 643.681L168.306 648.536Z" fill="#DB8B8B"/>
<path opacity="0.1" d="M168.306 648.536L165.907 655.734L173.736 663.565L199.637 669.587L218.309 667.78L217.102 661.149C216.743 659.726 215.999 658.43 214.953 657.401C213.906 656.373 212.597 655.652 211.168 655.318C203.492 653.511 188.858 649.4 185.779 643.681L168.306 648.536Z" fill="black"/>
<path d="M212.28 665.972L208.666 661.173L212.28 655.574C212.28 655.574 223.116 659.95 227.938 659.35C232.76 658.75 235.135 667.18 226.13 669.587C217.126 671.995 165.899 669.587 165.899 669.587C165.899 669.587 156.863 665.372 165.899 653.927L173.728 659.95C173.728 659.95 186.979 667.148 193.608 665.972H212.28Z" fill="#2E3037"/>
<path d="M228.537 676.218L209.865 678.026L183.964 671.995L176.111 664.165L176.751 662.253L177.646 659.566L178.526 656.934L195.991 652.135C196.877 653.578 198.091 654.792 199.533 655.679C205.203 659.558 215.399 662.365 221.38 663.765C221.628 663.829 221.884 663.901 222.124 663.989C223.39 664.41 224.529 665.144 225.436 666.123C226.343 667.101 226.989 668.293 227.314 669.588L228.537 676.218Z" fill="#DB8B8B"/>
<path opacity="0.1" d="M228.537 676.218L209.865 678.026L183.964 671.995L176.111 664.164L176.751 662.253L183.948 667.78C183.948 667.78 197.206 674.978 203.827 673.803H222.492L218.877 669.004L222.124 663.989C223.39 664.41 224.529 665.144 225.436 666.123C226.343 667.101 226.989 668.293 227.314 669.587L228.537 676.218Z" fill="black"/>
<path d="M222.492 674.41L218.877 669.611L222.492 664.013C222.492 664.013 233.335 668.388 238.149 667.788C242.963 667.188 245.346 675.618 236.35 678.034C227.354 680.449 176.111 678.034 176.111 678.034C176.111 678.034 167.075 673.811 176.111 662.365L183.94 668.388C183.94 668.388 197.198 675.586 203.819 674.418L222.492 674.41Z" fill="#2E3037"/>
<path d="M207.458 324.988C207.458 324.988 178.55 327.995 182.764 315.95C183.945 312.534 184.25 308.876 183.652 305.312C182.903 300.893 181.158 296.703 178.55 293.058L205.651 297.274C204.027 299.988 202.791 302.918 201.98 305.976C198.749 318.765 207.458 324.988 207.458 324.988Z" fill="#DB8B8B"/>
<path d="M158.07 462.343C158.07 462.343 158.67 488.25 164.692 500.903L165.899 537.647C165.899 537.647 164.092 571.392 160.477 578.015C156.863 584.637 168.306 640.674 168.306 640.674V650.311C168.306 650.311 187.578 657.51 193 649.104L187.578 577.415L189.977 478.012L158.07 462.343Z" fill="#35323E"/>
<path opacity="0.1" d="M158.062 462.343C158.062 462.343 158.662 488.25 164.684 500.903L165.891 537.647C165.891 537.647 164.084 571.392 160.47 578.015C156.855 584.637 168.298 640.674 168.298 640.674V650.311C168.298 650.311 187.57 657.51 192.992 649.104L187.57 577.415L189.969 478.012L158.062 462.343Z" fill="black"/>
<path d="M146.02 379.208L142.405 388.846L139.398 409.33C138.991 412.184 139.271 415.093 140.214 417.817C141.157 420.541 142.736 423 144.82 424.991C152.017 432.189 161.685 447.282 161.685 447.282L173.128 412.945C173.128 412.945 161.685 411.138 163.532 403.307C165.38 395.477 164.732 381.016 164.732 381.016L146.02 379.208Z" fill="#FFB606"/>
<path opacity="0.1" d="M199.557 655.662C191.825 667.828 179.806 660.933 177.67 659.566L178.55 656.934L196.015 652.135C196.904 653.572 198.117 654.78 199.557 655.662Z" fill="black"/>
<path d="M223.724 485.842C223.116 494.272 212.88 525.034 212.88 525.034L205.683 550.316C200.492 568.18 197.807 586.678 197.702 605.281C197.702 611.448 197.135 617.814 195.399 622.597C190.601 635.851 200.197 653.927 200.197 653.927C191.769 668.988 177.311 658.726 177.311 658.726V649.128C177.311 649.128 165.899 596.691 168.914 586.453C171.929 576.215 173.136 548.493 173.136 548.493V498.495C163.481 488.875 157.613 476.097 156.607 462.503C156.463 460.527 156.343 458.456 156.271 456.304C155.784 442.707 165.068 426.774 168.698 421.112C169.578 419.736 170.122 418.968 170.122 418.968L223.292 440.068L223.412 440.116V442.171V446.73L223.724 485.842Z" fill="#35323E"/>
<path opacity="0.1" d="M205.651 297.274C204.027 299.988 202.791 302.918 201.98 305.976C199.036 307.098 195.897 307.618 192.749 307.504C189.6 307.39 186.507 306.644 183.652 305.312C182.903 300.893 181.158 296.703 178.55 293.058L205.651 297.274Z" fill="black"/>
<path d="M193.608 306.312C206.583 306.312 217.102 295.791 217.102 282.813C217.102 269.834 206.583 259.313 193.608 259.313C180.632 259.313 170.113 269.834 170.113 282.813C170.113 295.791 180.632 306.312 193.608 306.312Z" fill="#DB8B8B"/>
<path opacity="0.1" d="M223.723 446.682L223.46 446.73C198.206 451.921 166.515 425.599 166.515 425.599C167.367 424.166 168.1 422.665 168.706 421.112C169.586 419.736 170.13 418.968 170.13 418.968L223.292 440.068L223.428 442.171L223.723 446.682Z" fill="black"/>
<path d="M217.094 324.388C217.094 324.388 183.364 303.904 172.521 312.334L157.463 331.61C157.463 331.61 147.827 334.626 149.634 353.902L142.437 388.846L164.116 394.269C164.116 394.269 176.767 406.315 166.515 423.791C166.515 423.791 198.438 450.298 223.739 444.875L221.916 416.585C221.916 416.585 216.494 400.916 226.13 386.463C235.766 372.01 226.73 358.149 217.702 352.726C217.694 352.702 213.48 329.803 217.094 324.388Z" fill="#FFB606"/>
<path d="M218.901 447.282C218.901 447.282 231.552 449.682 237.573 459.336C239.312 462.234 241.434 464.885 243.883 467.214C244.427 467.717 244.847 468.34 245.11 469.033C245.373 469.726 245.472 470.47 245.399 471.208C245.326 471.946 245.084 472.657 244.69 473.285C244.297 473.913 243.763 474.441 243.131 474.828C238.333 477.708 230.56 479.476 220.74 471.381C203.843 457.528 218.901 447.282 218.901 447.282Z" fill="#DB8B8B"/>
<path opacity="0.1" d="M200.229 335.802C200.229 335.802 188.186 334.594 185.171 365.923C182.157 397.253 177.343 404.475 177.343 404.475C177.343 404.475 174.328 420.744 181.557 430.382C188.786 440.02 202.636 460.575 202.636 460.575C202.636 460.575 217.702 464.798 220.709 449.73L202.037 414.793C202.037 414.793 199.03 402.74 206.251 394.309C213.472 385.879 218.902 329.803 200.229 335.802Z" fill="black"/>
<path d="M201.437 334.026C201.437 334.026 189.386 332.818 186.379 364.148C183.372 395.477 178.55 402.699 178.55 402.699C178.55 402.699 175.535 418.984 182.765 428.582C189.994 438.18 203.844 458.704 203.844 458.704C203.844 458.704 218.902 462.927 221.916 447.866L203.244 412.921C203.244 412.921 200.229 400.868 207.458 392.438C214.687 384.007 220.093 327.995 201.437 334.026Z" fill="#FFB606"/>
<path opacity="0.1" d="M211.376 356.597C211.376 356.597 212.576 375.273 207.154 385.519C201.732 395.765 201.732 409.01 207.154 416.241" fill="black"/>
<path opacity="0.1" d="M214.383 333.722C214.383 333.722 209.585 328.923 195.711 328.299C181.836 327.675 175.839 323.5 175.839 323.5" fill="black"/>
<path opacity="0.1" d="M180.909 252.451C177.246 252.899 173.064 254.155 171.745 257.602C171.257 258.866 171.249 260.257 170.905 261.601C169.538 266.864 163.62 269.312 159.966 273.335C156.767 276.886 155.319 281.693 154.272 286.372C151.264 299.789 150.537 313.617 152.121 327.275C153.296 337.265 155.695 347.095 156.375 357.133C157.055 367.171 155.815 377.729 150.33 386.159C147.931 389.79 144.86 392.974 143.188 396.965C146.643 399.764 151.409 400.164 155.855 400.316C161.037 400.492 166.219 400.492 171.401 400.316C174.12 400.22 176.958 400.044 179.302 398.668C181.037 397.559 182.464 396.029 183.452 394.221C186.411 389.19 187.162 383.144 187.034 377.305C186.906 371.466 185.987 365.667 185.875 359.829C185.819 356.629 186.067 353.27 187.898 350.662C189.217 348.783 191.225 347.519 192.944 345.991C199.397 340.281 201.604 331.115 201.82 322.5C202.036 313.886 200.621 305.256 201.348 296.674C201.628 293.306 202.884 289.275 206.194 288.619C207.234 288.412 208.345 288.619 209.337 288.22C211.992 287.204 211.736 283.461 212.488 280.725C213.343 277.646 215.966 275.27 216.702 272.167C218.437 264.88 209.161 256.17 203.108 253.643C196.83 251.019 187.402 251.651 180.909 252.451Z" fill="black"/>
<path d="M180.277 251.251C176.615 251.699 172.433 252.955 171.113 256.394C170.773 257.711 170.506 259.046 170.313 260.393C168.946 265.656 163.02 268.104 159.366 272.135C156.167 275.678 154.72 280.485 153.672 285.172C150.678 298.6 149.965 312.435 151.561 326.099C152.737 336.089 155.136 345.927 155.807 355.957C156.479 365.987 155.256 376.553 149.77 384.983C147.371 388.614 144.3 391.798 142.629 395.789C146.083 398.596 150.849 398.988 155.296 399.14C160.478 399.316 165.659 399.316 170.841 399.14C173.56 399.044 176.399 398.876 178.742 397.492C180.478 396.387 181.904 394.856 182.884 393.045C185.851 388.014 186.595 381.968 186.475 376.129C186.355 370.29 185.419 364.491 185.315 358.653C185.259 355.453 185.507 352.094 187.33 349.495C188.658 347.607 190.665 346.343 192.384 344.824C198.83 339.105 201.045 329.939 201.261 321.324C201.477 312.71 200.053 304.08 200.781 295.498C201.069 292.139 202.324 288.099 205.627 287.452C206.674 287.244 207.786 287.452 208.777 287.044C211.432 286.028 211.177 282.293 211.928 279.549C212.776 276.47 215.399 274.102 216.142 270.999C217.878 263.705 208.602 255.002 202.548 252.467C196.223 249.827 186.803 250.443 180.277 251.251Z" fill="#35323E"/>
</g>
<defs>
<linearGradient id="paint0_linear" x1="192.312" y1="682.537" x2="192.312" y2="248.348" gradientUnits="userSpaceOnUse">
<stop stop-color="#808080" stop-opacity="0.25"/>
<stop offset="0.54" stop-color="#808080" stop-opacity="0.12"/>
<stop offset="1" stop-color="#808080" stop-opacity="0.1"/>
</linearGradient>
<clipPath id="clip0">
<rect width="888" height="686" fill="white"/>
</clipPath>
</defs>
</svg>
