<svg width="193" height="193" viewBox="0 0 193 193" fill="none" xmlns="http://www.w3.org/2000/svg">
<path d="M174.818 115.038C163.986 111.274 159.659 109.846 146.254 106.15C146.254 106.15 127.123 83.3856 123.48 78.9756C118.912 73.4558 115.092 67.55 99.7649 67.55H36.284C32.1747 67.55 30.3734 72.8285 35.7291 77.2C29.7542 83.0093 22.7016 90.517 17.571 96.7606C6.02321 110.801 0 119.776 0 137.821C0 154.805 8.37942 173.7 25.5243 173.7H25.6047C28.9259 184.913 37.7637 193 48.25 193C58.7363 193 67.5741 184.913 70.8953 173.7H122.097C125.418 184.913 134.256 193 144.742 193C155.228 193 164.066 184.913 167.387 173.7H172.896C188.931 173.7 193 156.562 193 143.158C193 123.462 183.969 118.222 174.818 115.038ZM48.25 175.63C42.9264 175.63 38.6 170.438 38.6 164.05C38.6 157.662 42.9264 152.47 48.25 152.47C53.5736 152.47 57.9 157.662 57.9 164.05C57.9 170.438 53.5736 175.63 48.25 175.63ZM77.007 115.8C68.3944 115.8 48.8612 114.777 35.0375 108.562C39.6856 101.325 43.0631 96.7702 45.2505 93.7401C47.8077 90.1889 52.2708 86.85 57.8035 86.85H77.007V115.8ZM85.0487 86.85H99.8051C106.898 86.85 111.289 91.6074 116.065 97.5132C119.7 102.01 129.994 115.8 129.994 115.8H85.0567V86.85H85.0487ZM144.75 175.63C139.426 175.63 135.1 170.438 135.1 164.05C135.1 157.662 139.426 152.47 144.75 152.47C150.074 152.47 154.4 157.662 154.4 164.05C154.4 170.438 150.074 175.63 144.75 175.63ZM115.599 33.775C115.599 36.4384 113.798 38.6 111.578 38.6H96.5V48.25H81.3093C74.5302 48.25 68.5391 44.2259 64.8962 38.0499C61.5348 32.3564 56.0585 28.95 50.2443 28.95H50.0915C17.7882 28.95 7.83258 59.9747 21.9296 79.6511L16.019 86.1841C-2.80654 60.3318 10.6874 19.3 50.0915 19.3H50.2443C56.0665 19.3 61.5348 15.9032 64.8962 10.2C68.5391 4.02405 74.5302 0 81.3093 0H96.5V9.65H111.578C113.798 9.65 115.599 11.8116 115.599 14.475C115.599 17.1384 113.798 19.3 111.578 19.3H96.5V28.95H111.578C113.798 28.95 115.599 31.1116 115.599 33.775Z" fill="white"/>
</svg>
