<svg width="55" height="66" viewBox="0 0 55 66" fill="none" xmlns="http://www.w3.org/2000/svg">
<path d="M34.0928 1.02637C40.0565 4.20595 50.1749 14.2512 54.2211 19.6624C50.7382 17.2249 43.2686 15.1747 37.7247 16.4693C38.3259 12.4935 37.2236 4.1897 34.0928 1.02637ZM54.2211 30.6149V65.8232H0.0544434V0.823242H22.8288C35.9832 0.823242 31.8611 22.4899 31.8611 22.4899C40.0105 20.4722 54.2211 21.3551 54.2211 30.6149ZM10.8878 44.1566H24.4294V33.3232H10.8878V44.1566ZM43.3878 49.5732H10.8878V52.2816H43.3878V49.5732ZM43.3878 41.4482H29.8461V44.1566H43.3878V41.4482ZM43.3878 33.3232H29.8461V36.0316H43.3878V33.3232Z" fill="#FFB606"/>
</svg>
