<svg width="54" height="48" viewBox="0 0 54 48" fill="none" xmlns="http://www.w3.org/2000/svg">
<path fill-rule="evenodd" clip-rule="evenodd" d="M12.7395 47.8337L0.65925 36.2095C0.2205 35.787 0 35.2345 0 34.6777C0 34.123 0.2205 33.5683 0.65925 33.1458L34.2495 0.801825C34.6883 0.381492 35.2642 0.166992 35.8402 0.166992C36.414 0.166992 36.9922 0.381492 37.431 0.801825L53.3408 16.1267C53.7818 16.5492 54 17.1038 54 17.6607C54 18.2153 53.7818 18.7678 53.3408 19.1925L28.1047 43.5003H40.5112V47.8337H12.7395ZM20.9678 43.5003L8.62425 31.614L5.4315 34.6777L14.6025 43.5003H20.9678ZM35.829 5.40816L11.8058 28.5482L24.5362 40.8093L48.5572 17.665L35.829 5.40816Z" fill="#FFB606"/>
</svg>
