<svg width="969" height="460" viewBox="0 0 969 460" fill="none" xmlns="http://www.w3.org/2000/svg">
<g clip-path="url(#clip0)">
<path d="M159.324 307.225C194.789 307.225 223.539 278.488 223.539 243.04C223.539 207.591 194.789 178.854 159.324 178.854C123.86 178.854 95.1099 207.591 95.1099 243.04C95.1099 278.488 123.86 307.225 159.324 307.225Z" fill="#E6E6E6"/>
<path d="M141.975 336.767L157.771 346.551V280.417L140.066 269.451C138.602 268.544 137.532 267.121 137.069 265.463C138.76 265.14 140.511 265.464 141.975 266.371L157.771 276.154V250.509C157.771 245.548 158.38 240.606 159.584 235.793C160.787 240.606 161.396 245.548 161.396 250.509V292.367L184.699 277.933C186.56 276.78 188.713 276.187 190.902 276.223C189.96 278.198 188.47 279.86 186.609 281.013L161.396 296.629V453.032H157.771V350.814L140.066 339.847C138.602 338.941 137.532 337.518 137.069 335.86C138.76 335.537 140.511 335.861 141.975 336.767Z" fill="#CCCCCC"/>
<path d="M64.2144 312.675C99.679 312.675 128.429 283.938 128.429 248.489C128.429 213.041 99.679 184.304 64.2144 184.304C28.7498 184.304 0 213.041 0 248.489C0 283.938 28.7498 312.675 64.2144 312.675Z" fill="#E6E6E6"/>
<path d="M81.5639 342.217L65.768 352.001V285.867L83.4732 274.9C84.937 273.994 86.0066 272.57 86.4701 270.913C84.7787 270.59 83.0276 270.914 81.5638 271.82L65.7679 281.604V255.959C65.7679 250.998 65.1592 246.056 63.9554 241.243C62.7516 246.056 62.1429 250.998 62.1429 255.959V297.816L38.8397 283.383C36.9789 282.23 34.826 281.636 32.6372 281.672C33.5793 283.647 35.0695 285.31 36.9302 286.463L62.143 302.079V453.377H65.768V356.264L83.4732 345.297C84.937 344.391 86.0066 342.967 86.4701 341.31C84.7787 340.987 83.0276 341.311 81.5639 342.217Z" fill="#CCCCCC"/>
<path d="M110.861 225.022C171.922 225.022 221.422 175.545 221.422 114.511C221.422 53.4775 171.922 4 110.861 4C49.7996 4 0.299805 53.4775 0.299805 114.511C0.299805 175.545 49.7996 225.022 110.861 225.022Z" fill="#E6E6E6"/>
<path d="M140.732 275.886L113.535 292.732V178.865L144.019 159.984C146.54 158.423 148.381 155.972 149.179 153.118L149.179 153.118H149.179C146.267 152.562 143.252 153.12 140.732 154.681L113.535 171.526V127.372C113.535 118.83 112.487 110.321 110.415 102.034C108.342 110.321 107.294 118.83 107.294 127.372V199.44L67.1717 174.588C63.968 172.604 60.2612 171.582 56.4927 171.643C58.1148 175.044 60.6805 177.907 63.8842 179.891L107.294 206.779V453.619H113.535V300.071L144.019 281.189C146.54 279.628 148.381 277.178 149.179 274.324L149.179 274.324H149.179C146.267 273.768 143.252 274.325 140.732 275.886Z" fill="#CCCCCC"/>
<path d="M566 453.032H44.0952V454.352H566V453.032Z" fill="white"/>
<path d="M431.589 203.379L405.686 218.327L420.641 244.219L446.544 229.27L431.589 203.379Z" fill="#FF6584"/>
<path d="M431.918 249.615L416.302 222.58L443.349 206.971L458.965 234.007L431.918 249.615ZM418.107 223.063L432.402 247.81L457.16 233.523L442.865 208.775L418.107 223.063Z" fill="#2F2E41"/>
<path d="M407.686 322.263C414.618 322.263 420.238 316.646 420.238 309.717C420.238 302.788 414.618 297.17 407.686 297.17C400.754 297.17 395.134 302.788 395.134 309.717C395.134 316.646 400.754 322.263 407.686 322.263Z" fill="#D0CDE1"/>
<path d="M416.935 322.924C414.322 322.924 411.767 322.149 409.594 320.698C407.421 319.247 405.728 317.184 404.728 314.771C403.728 312.358 403.466 309.702 403.976 307.14C404.486 304.578 405.744 302.225 407.592 300.378C409.44 298.531 411.794 297.273 414.357 296.764C416.92 296.254 419.577 296.516 421.991 297.515C424.406 298.515 426.469 300.208 427.921 302.38C429.373 304.551 430.148 307.105 430.148 309.717C430.148 313.22 428.756 316.579 426.278 319.055C423.8 321.532 420.439 322.924 416.935 322.924ZM416.935 297.831C414.583 297.831 412.284 298.528 410.328 299.834C408.373 301.14 406.849 302.996 405.949 305.168C405.049 307.34 404.813 309.73 405.272 312.036C405.731 314.341 406.863 316.459 408.526 318.122C410.189 319.784 412.308 320.916 414.615 321.375C416.922 321.833 419.313 321.598 421.486 320.698C423.659 319.799 425.516 318.275 426.822 316.32C428.129 314.366 428.826 312.068 428.826 309.717C428.826 306.564 427.574 303.541 425.343 301.312C423.113 299.083 420.089 297.831 416.935 297.831Z" fill="#2F2E41"/>
<path d="M486.871 456.035H365.314C363.825 456.034 362.398 455.442 361.345 454.389C360.292 453.337 359.7 451.911 359.698 450.422V337.504C359.7 336.016 360.292 334.589 361.345 333.537C362.398 332.485 363.825 331.893 365.314 331.891H486.871C488.36 331.893 489.787 332.485 490.84 333.537C491.893 334.589 492.485 336.016 492.487 337.504V450.422C492.485 451.911 491.893 453.337 490.84 454.389C489.787 455.442 488.36 456.034 486.871 456.035Z" fill="#FFB606"/>
<path d="M434.68 460H417.503C416.014 459.998 414.587 459.406 413.534 458.354C412.482 457.302 411.889 455.875 411.888 454.387V334.15C411.889 332.662 412.482 331.235 413.534 330.183C414.587 329.13 416.014 328.539 417.503 328.537H434.68C436.169 328.539 437.596 329.13 438.649 330.183C439.701 331.235 440.293 332.662 440.295 334.15V454.387C440.293 455.875 439.701 457.302 438.649 458.354C437.596 459.406 436.169 459.998 434.68 460Z" fill="#3F3D56"/>
<path d="M519.168 320.714C518.458 332.362 502.715 340.882 502.715 340.882C502.715 340.882 488.124 330.515 488.835 318.866C489.545 307.217 505.287 298.698 505.287 298.698C505.287 298.698 519.878 309.065 519.168 320.714Z" fill="#3F3D56"/>
<path d="M519.881 357.058C508.225 356.385 499.652 340.676 499.652 340.676C499.652 340.676 509.978 326.06 521.634 326.733C533.291 327.407 541.863 343.115 541.863 343.115C541.863 343.115 531.537 357.732 519.881 357.058Z" fill="#3F3D56"/>
<path opacity="0.1" d="M492.156 345.706V388.813L449.261 332.222H481.936L492.156 345.706Z" fill="black"/>
<path d="M528.572 419.496C527.704 419.497 526.848 419.298 526.07 418.912C525.292 418.527 524.614 417.966 524.09 417.275L434.723 299.377C434.277 298.789 433.952 298.12 433.766 297.407C433.579 296.694 433.535 295.951 433.636 295.221C433.736 294.49 433.98 293.787 434.353 293.151C434.725 292.515 435.219 291.958 435.807 291.513L448.972 281.544C449.559 281.099 450.229 280.773 450.943 280.587C451.656 280.401 452.399 280.356 453.13 280.457C453.86 280.558 454.564 280.801 455.2 281.174C455.836 281.547 456.393 282.041 456.838 282.628L546.206 400.526C546.651 401.113 546.976 401.783 547.163 402.496C547.349 403.209 547.394 403.952 547.293 404.682C547.192 405.412 546.949 406.115 546.576 406.751C546.203 407.387 545.709 407.944 545.121 408.389L531.957 418.359C530.984 419.098 529.795 419.497 528.572 419.496Z" fill="#FFB606"/>
<path d="M492.801 327.884L470.158 345.032L487.314 367.664L509.956 350.516L492.801 327.884Z" fill="#3F3D56"/>
<path d="M376.324 241.639L368.583 270.517L397.474 278.255L405.215 249.377L376.324 241.639Z" fill="#D0CDE1"/>
<path d="M385.218 282.572L355.051 274.492L363.134 244.339L393.301 252.418L385.218 282.572ZM356.669 273.559L384.283 280.955L391.683 253.352L364.068 245.956L356.669 273.559Z" fill="#2F2E41"/>
<path d="M258.144 352.659C258.938 351.899 259.555 350.974 259.953 349.95C260.35 348.926 260.518 347.826 260.445 346.73C260.372 345.634 260.059 344.567 259.528 343.604C258.998 342.642 258.262 341.808 257.374 341.16L245.242 243.41L229.568 248.068L246.49 343.196C245.5 344.759 245.119 346.631 245.418 348.457C245.717 350.282 246.675 351.935 248.112 353.102C249.548 354.268 251.363 354.867 253.212 354.786C255.061 354.704 256.816 353.948 258.144 352.659Z" fill="#FFB8B8"/>
<path d="M272.673 446.091H281.841L286.205 410.746H272.673V446.091Z" fill="#FFB8B8"/>
<path d="M299.522 454.6H270.709V443.473H289.408C292.09 443.473 294.663 444.538 296.56 446.434C298.456 448.33 299.522 450.901 299.522 453.582V454.6Z" fill="#2F2E41"/>
<path d="M209.277 431.818L217.87 435.013L234.287 403.406L221.605 398.69L209.277 431.818Z" fill="#FFB8B8"/>
<path d="M231.473 449.149L204.468 439.108L208.349 428.679L225.874 435.195C228.388 436.13 230.428 438.025 231.545 440.463C232.661 442.901 232.763 445.682 231.828 448.195L231.473 449.149L231.473 449.149Z" fill="#2F2E41"/>
<path d="M256.227 218.034C265.801 218.034 273.562 210.277 273.562 200.707C273.562 191.138 265.801 183.381 256.227 183.381C246.654 183.381 238.893 191.138 238.893 200.707C238.893 210.277 246.654 218.034 256.227 218.034Z" fill="#FFB8B8"/>
<path d="M229.115 245.176C228.572 229.217 245.352 218.145 259.471 225.618C261.27 226.57 279.844 242.343 280.543 252.138C281.243 261.933 282.643 278.025 282.643 278.025L302.243 424.253L260.244 422.154L265.316 379.497L238.018 422.875L204.947 412.358L245.545 295.516C245.545 295.516 229.937 269.362 229.115 245.176Z" fill="#2F2E41"/>
<path d="M229.445 250.732L232.142 285.775C232.17 286.141 232.336 286.483 232.605 286.733C232.874 286.982 233.228 287.12 233.595 287.12H245.461C245.701 287.12 245.937 287.061 246.149 286.948C246.36 286.835 246.54 286.672 246.674 286.472C246.807 286.273 246.889 286.044 246.912 285.805C246.935 285.567 246.899 285.326 246.807 285.105L232.244 250.062C232.111 249.742 231.869 249.479 231.56 249.322C231.251 249.165 230.896 249.123 230.559 249.204C230.222 249.284 229.924 249.483 229.72 249.763C229.516 250.043 229.419 250.387 229.445 250.732Z" fill="#2F2E41"/>
<path d="M290.383 346.587C291.082 345.74 291.587 344.749 291.862 343.685C292.137 342.621 292.175 341.51 291.974 340.43C291.773 339.35 291.337 338.326 290.697 337.433C290.058 336.539 289.23 335.796 288.272 335.257L264.779 239.598L249.757 246.058L277.701 338.552C276.901 340.221 276.741 342.124 277.252 343.902C277.763 345.681 278.908 347.21 280.471 348.2C282.035 349.191 283.907 349.574 285.734 349.276C287.56 348.979 289.215 348.022 290.383 346.587Z" fill="#FFB8B8"/>
<path d="M251.845 231.148C251.845 231.148 246.945 240.943 251.845 258.435C256.744 275.926 260.244 290.619 260.244 290.619C260.244 290.619 271.444 283.622 276.344 285.721C281.243 287.82 268.593 239.094 268.593 239.094C268.593 239.094 260.944 222.752 251.845 231.148Z" fill="#2F2E41"/>
<path d="M260.295 203.411C260.53 199.816 265.067 199.693 268.671 199.659C272.276 199.625 276.585 199.753 278.624 196.783C279.972 194.819 279.715 192.094 278.601 189.989C277.488 187.884 275.656 186.265 273.854 184.708C269.203 180.687 264.408 176.699 258.823 174.125C253.238 171.552 246.694 170.512 240.902 172.578C233.787 175.115 224.168 188.179 223.338 195.684C222.507 203.189 225.508 210.84 230.566 216.449C235.625 222.057 247.202 219.795 254.488 221.79C250.059 215.523 252.979 204.137 260.075 201.211L260.295 203.411Z" fill="#2F2E41"/>
</g>
<g clip-path="url(#clip1)">
<g opacity="0.5">
<path opacity="0.5" d="M550.886 21.3567H549.023V32.0041H550.886V21.3567Z" fill="#47E6B1"/>
<path opacity="0.5" d="M555.232 27.6199V25.741H544.677V27.6199H555.232Z" fill="#47E6B1"/>
</g>
<g opacity="0.5">
<path opacity="0.5" d="M944.901 434.206H943.039V444.854H944.901V434.206Z" fill="#47E6B1"/>
<path opacity="0.5" d="M949.248 440.469V438.59H938.692V440.469H949.248Z" fill="#47E6B1"/>
</g>
<g opacity="0.5">
<path opacity="0.5" d="M945.64 121.505H943.777V132.153H945.64V121.505Z" fill="#47E6B1"/>
<path opacity="0.5" d="M949.986 127.768V125.889H939.431V127.768H949.986Z" fill="#47E6B1"/>
</g>
<g opacity="0.5">
<path opacity="0.5" d="M964.659 25.583H962.796V36.2304H964.659V25.583Z" fill="#47E6B1"/>
<path opacity="0.5" d="M969.005 31.8462V29.9673H958.449V31.8462H969.005Z" fill="#47E6B1"/>
</g>
<g opacity="0.5">
<path opacity="0.5" d="M640.266 20.4653H638.403V31.1127H640.266V20.4653Z" fill="#47E6B1"/>
<path opacity="0.5" d="M644.607 26.7286V24.8496H634.051V26.7286H644.607Z" fill="#47E6B1"/>
</g>
<path opacity="0.5" d="M523.241 179.544C522.728 179.318 522.315 178.91 522.081 178.397C521.847 177.884 521.807 177.302 521.971 176.762C521.997 176.68 522.014 176.594 522.021 176.508C522.059 176.252 522.008 175.991 521.877 175.768C521.747 175.545 521.544 175.375 521.303 175.285C521.063 175.195 520.799 175.191 520.556 175.274C520.313 175.357 520.105 175.522 519.968 175.741C519.917 175.811 519.874 175.886 519.84 175.966C519.616 176.484 519.211 176.9 518.702 177.137C518.194 177.373 517.617 177.412 517.082 177.247C517 177.221 516.916 177.204 516.83 177.197C516.576 177.159 516.317 177.21 516.096 177.342C515.875 177.474 515.706 177.678 515.617 177.921C515.528 178.163 515.524 178.43 515.606 178.675C515.689 178.92 515.852 179.129 516.069 179.267C516.139 179.319 516.214 179.363 516.293 179.397C516.806 179.623 517.219 180.031 517.453 180.544C517.687 181.057 517.726 181.639 517.563 182.179C517.536 182.261 517.52 182.346 517.512 182.433C517.475 182.689 517.526 182.95 517.656 183.173C517.787 183.396 517.99 183.566 518.23 183.656C518.471 183.746 518.735 183.75 518.978 183.667C519.221 183.584 519.429 183.419 519.565 183.2C519.617 183.13 519.66 183.054 519.694 182.974C519.918 182.457 520.323 182.041 520.831 181.804C521.34 181.568 521.917 181.529 522.452 181.694C522.534 181.72 522.618 181.737 522.704 181.744C522.958 181.782 523.217 181.731 523.437 181.599C523.658 181.467 523.827 181.263 523.917 181.02C524.006 180.777 524.01 180.511 523.927 180.266C523.845 180.021 523.682 179.812 523.464 179.674C523.395 179.622 523.32 179.578 523.241 179.544Z" fill="#4D8AF0"/>
<path opacity="0.5" d="M557.632 393.022C557.119 392.796 556.706 392.387 556.472 391.875C556.238 391.362 556.199 390.78 556.362 390.24C556.389 390.157 556.406 390.072 556.413 389.986C556.45 389.73 556.4 389.469 556.269 389.246C556.138 389.023 555.935 388.852 555.695 388.762C555.454 388.673 555.19 388.669 554.947 388.752C554.704 388.835 554.497 389 554.36 389.219C554.308 389.289 554.265 389.364 554.231 389.444C554.007 389.962 553.603 390.378 553.094 390.614C552.586 390.85 552.009 390.89 551.473 390.725C551.392 390.698 551.307 390.681 551.222 390.674C550.968 390.636 550.709 390.688 550.488 390.82C550.267 390.951 550.098 391.156 550.009 391.398C549.919 391.641 549.916 391.907 549.998 392.153C550.08 392.398 550.244 392.607 550.461 392.745C550.53 392.797 550.605 392.84 550.685 392.875C551.198 393.101 551.61 393.509 551.845 394.022C552.079 394.535 552.118 395.117 551.954 395.657C551.928 395.739 551.911 395.824 551.904 395.911C551.866 396.167 551.917 396.428 552.048 396.651C552.179 396.873 552.381 397.044 552.622 397.134C552.863 397.224 553.127 397.228 553.37 397.145C553.613 397.062 553.82 396.897 553.957 396.678C554.008 396.608 554.052 396.532 554.086 396.452C554.31 395.935 554.714 395.518 555.223 395.282C555.731 395.046 556.308 395.007 556.844 395.171C556.925 395.198 557.01 395.215 557.095 395.222C557.349 395.26 557.608 395.209 557.829 395.077C558.05 394.945 558.219 394.741 558.308 394.498C558.397 394.255 558.401 393.989 558.319 393.744C558.236 393.499 558.073 393.289 557.856 393.151C557.787 393.1 557.712 393.056 557.632 393.022Z" fill="#4D8AF0"/>
<path opacity="0.5" d="M870.334 110.333C869.821 110.107 869.408 109.699 869.174 109.186C868.94 108.673 868.901 108.091 869.064 107.551C869.091 107.469 869.107 107.384 869.114 107.297C869.152 107.041 869.101 106.78 868.971 106.557C868.84 106.335 868.637 106.164 868.397 106.074C868.156 105.984 867.892 105.98 867.649 106.063C867.406 106.146 867.198 106.311 867.061 106.53C867.01 106.6 866.967 106.676 866.933 106.756C866.709 107.273 866.304 107.69 865.796 107.926C865.287 108.162 864.71 108.201 864.175 108.037C864.093 108.01 864.009 107.993 863.923 107.986C863.669 107.948 863.41 107.999 863.19 108.131C862.969 108.263 862.8 108.467 862.71 108.71C862.621 108.953 862.617 109.219 862.7 109.464C862.782 109.709 862.945 109.919 863.162 110.057C863.232 110.108 863.307 110.152 863.386 110.186C863.899 110.412 864.312 110.821 864.546 111.333C864.78 111.846 864.819 112.428 864.656 112.968C864.63 113.051 864.613 113.136 864.606 113.222C864.568 113.478 864.619 113.739 864.75 113.962C864.88 114.185 865.083 114.356 865.324 114.446C865.564 114.535 865.828 114.539 866.071 114.456C866.314 114.373 866.522 114.208 866.659 113.989C866.71 113.919 866.753 113.844 866.787 113.764C867.011 113.246 867.416 112.83 867.925 112.594C868.433 112.358 869.01 112.318 869.545 112.483C869.627 112.509 869.711 112.527 869.797 112.534C870.051 112.572 870.31 112.52 870.531 112.388C870.752 112.257 870.921 112.052 871.01 111.809C871.099 111.567 871.103 111.3 871.02 111.055C870.938 110.81 870.775 110.601 870.558 110.463C870.488 110.411 870.413 110.368 870.334 110.333Z" fill="#4D8AF0"/>
<path opacity="0.5" d="M866.166 161.336C865.653 161.11 865.241 160.701 865.006 160.189C864.772 159.676 864.733 159.094 864.897 158.554C864.923 158.471 864.94 158.386 864.947 158.3C864.985 158.044 864.934 157.783 864.803 157.56C864.672 157.337 864.47 157.166 864.229 157.076C863.988 156.986 863.724 156.983 863.481 157.066C863.238 157.149 863.031 157.314 862.894 157.533C862.843 157.602 862.799 157.678 862.765 157.758C862.541 158.276 862.137 158.692 861.628 158.928C861.12 159.164 860.543 159.204 860.008 159.039C859.926 159.012 859.841 158.995 859.756 158.988C859.502 158.95 859.243 159.002 859.022 159.133C858.801 159.265 858.632 159.47 858.543 159.712C858.454 159.955 858.45 160.221 858.532 160.467C858.615 160.712 858.778 160.921 858.995 161.059C859.064 161.111 859.139 161.154 859.219 161.189C859.732 161.415 860.145 161.823 860.379 162.336C860.613 162.849 860.652 163.431 860.489 163.971C860.462 164.053 860.445 164.138 860.438 164.224C860.401 164.481 860.451 164.742 860.582 164.965C860.713 165.187 860.916 165.358 861.156 165.448C861.397 165.538 861.661 165.542 861.904 165.459C862.147 165.376 862.354 165.211 862.491 164.992C862.543 164.922 862.586 164.846 862.62 164.766C862.844 164.249 863.249 163.832 863.757 163.596C864.266 163.36 864.842 163.321 865.378 163.485C865.459 163.512 865.544 163.529 865.629 163.536C865.883 163.574 866.142 163.523 866.363 163.391C866.584 163.259 866.753 163.055 866.842 162.812C866.932 162.569 866.935 162.303 866.853 162.058C866.771 161.813 866.607 161.603 866.39 161.465C866.321 161.413 866.246 161.37 866.166 161.336Z" fill="#4D8AF0"/>
<path opacity="0.5" d="M866.463 4.26573C865.95 4.03983 865.537 3.63161 865.303 3.11873C865.069 2.60584 865.03 2.02405 865.193 1.48399C865.22 1.40158 865.237 1.31638 865.244 1.23008C865.281 0.974018 865.23 0.712706 865.1 0.489952C864.969 0.267199 864.766 0.0965447 864.526 0.00659899C864.285 -0.0833468 864.021 -0.087115 863.778 -0.00407495C863.535 0.0789651 863.328 0.243766 863.191 0.462698C863.139 0.532673 863.096 0.608411 863.062 0.688399C862.839 1.20567 862.436 1.62242 861.928 1.85956C861.421 2.0967 860.845 2.13774 860.31 1.97488C860.228 1.94827 860.144 1.93123 860.058 1.9241C859.804 1.88619 859.545 1.93745 859.324 2.0693C859.103 2.20115 858.934 2.40557 858.845 2.6483C858.756 2.89102 858.752 3.15728 858.835 3.40245C858.917 3.64762 859.08 3.85679 859.297 3.99489C859.367 4.04671 859.442 4.09027 859.521 4.12467C860.034 4.35058 860.447 4.75879 860.681 5.27168C860.915 5.78456 860.954 6.36635 860.791 6.90641C860.764 6.98882 860.748 7.07402 860.741 7.16033C860.703 7.41639 860.754 7.6777 860.884 7.90045C861.015 8.12321 861.218 8.29386 861.458 8.38381C861.699 8.47375 861.963 8.47752 862.206 8.39448C862.449 8.31144 862.657 8.14664 862.794 7.92771C862.845 7.85773 862.888 7.782 862.922 7.70201C863.14 7.18328 863.538 6.763 864.042 6.52072C864.546 6.27844 865.121 6.23097 865.658 6.38731C865.739 6.41392 865.824 6.43096 865.909 6.43809C866.163 6.47601 866.422 6.42474 866.643 6.29289C866.864 6.16104 867.033 5.95662 867.122 5.7139C867.211 5.47117 867.215 5.20491 867.133 4.95974C867.051 4.71457 866.887 4.5054 866.67 4.3673C866.605 4.32635 866.535 4.29232 866.463 4.26573Z" fill="#4D8AF0"/>
<path opacity="0.5" d="M960.531 262.15C960.018 261.924 959.605 261.516 959.371 261.003C959.137 260.49 959.098 259.908 959.261 259.368C959.287 259.286 959.304 259.2 959.311 259.114C959.349 258.858 959.298 258.597 959.167 258.374C959.037 258.151 958.834 257.981 958.593 257.891C958.353 257.801 958.089 257.797 957.846 257.88C957.603 257.963 957.395 258.128 957.258 258.347C957.207 258.417 957.164 258.492 957.13 258.572C956.906 259.09 956.501 259.506 955.992 259.742C955.484 259.979 954.907 260.018 954.372 259.853C954.29 259.827 954.206 259.81 954.12 259.802C953.866 259.765 953.607 259.816 953.386 259.948C953.165 260.08 952.996 260.284 952.907 260.527C952.818 260.769 952.814 261.036 952.897 261.281C952.979 261.526 953.142 261.735 953.359 261.873C953.429 261.925 953.504 261.969 953.583 262.003C954.101 262.23 954.517 262.644 954.751 263.163C954.985 263.682 955.019 264.27 954.847 264.813C954.821 264.895 954.804 264.981 954.797 265.067C954.759 265.323 954.81 265.584 954.941 265.807C955.072 266.03 955.274 266.2 955.515 266.29C955.756 266.38 956.02 266.384 956.263 266.301C956.506 266.218 956.713 266.053 956.85 265.834C956.901 265.764 956.944 265.689 956.979 265.609C957.203 265.091 957.607 264.675 958.116 264.439C958.624 264.202 959.201 264.163 959.736 264.328C959.818 264.354 959.903 264.371 959.988 264.379C960.242 264.416 960.501 264.365 960.722 264.233C960.943 264.101 961.112 263.897 961.201 263.654C961.29 263.412 961.294 263.145 961.212 262.9C961.129 262.655 960.966 262.446 960.749 262.308C960.683 262.246 960.609 262.193 960.531 262.15Z" fill="#4D8AF0"/>
<path opacity="0.5" d="M523.554 97.4909C525.611 97.4909 527.279 95.8084 527.279 93.733C527.279 91.6576 525.611 89.9751 523.554 89.9751C521.496 89.9751 519.828 91.6576 519.828 93.733C519.828 95.8084 521.496 97.4909 523.554 97.4909Z" fill="#F55F44"/>
<path opacity="0.5" d="M496.239 367.377C498.296 367.377 499.964 365.694 499.964 363.619C499.964 361.543 498.296 359.861 496.239 359.861C494.181 359.861 492.513 361.543 492.513 363.619C492.513 365.694 494.181 367.377 496.239 367.377Z" fill="#F55F44"/>
<path opacity="0.5" d="M734.943 29.5329C737.001 29.5329 738.669 27.8504 738.669 25.775C738.669 23.6996 737.001 22.0171 734.943 22.0171C732.886 22.0171 731.218 23.6996 731.218 25.775C731.218 27.8504 732.886 29.5329 734.943 29.5329Z" fill="#F55F44"/>
<path opacity="0.5" d="M772.423 101.192C774.48 101.192 776.148 99.5098 776.148 97.4344C776.148 95.359 774.48 93.6765 772.423 93.6765C770.365 93.6765 768.697 95.359 768.697 97.4344C768.697 99.5098 770.365 101.192 772.423 101.192Z" fill="#F55F44"/>
<path opacity="0.5" d="M492.726 273.852C494.783 273.852 496.451 272.17 496.451 270.095C496.451 268.019 494.783 266.337 492.726 266.337C490.668 266.337 489 268.019 489 270.095C489 272.17 490.668 273.852 492.726 273.852Z" fill="#F55F44"/>
<path opacity="0.5" d="M638.638 91.4084C640.696 91.4084 642.364 89.7259 642.364 87.6505C642.364 85.575 640.696 83.8926 638.638 83.8926C636.581 83.8926 634.913 85.575 634.913 87.6505C634.913 89.7259 636.581 91.4084 638.638 91.4084Z" fill="#47E6B1"/>
<path opacity="0.5" d="M894.897 341.037C896.955 341.037 898.623 339.355 898.623 337.28C898.623 335.204 896.955 333.522 894.897 333.522C892.839 333.522 891.171 335.204 891.171 337.28C891.171 339.355 892.839 341.037 894.897 341.037Z" fill="#F55F44"/>
<g opacity="0.5">
<path opacity="0.5" d="M793.613 120.789C786.397 113.487 775.875 110.581 763.965 112.607C752.839 114.503 741.707 120.58 732.639 129.721C730.008 132.391 727.797 135.45 726.083 138.794C724.413 135.339 722.22 132.168 719.583 129.393C710.632 120.1 699.629 113.831 688.536 111.738C676.683 109.481 666.116 112.223 658.776 119.401C651.437 126.578 648.4 137.146 650.246 149.142C651.969 160.427 657.809 171.712 666.759 181.017C685.543 200.562 723.028 192.928 724.617 192.589L725.087 192.493L726.53 192.826C728.113 193.187 765.459 201.471 784.568 182.258C793.658 173.123 799.716 161.911 801.635 150.694C803.676 138.715 800.829 128.09 793.613 120.789ZM718.268 181.304C709.211 182.534 686.634 184.205 675.424 172.542C668.219 165.043 663.503 156.071 662.161 147.291C660.93 139.279 662.72 132.469 667.162 128.107C668.904 126.419 670.988 125.131 673.27 124.332C677.007 122.995 681.454 122.747 686.315 123.666C694.975 125.297 703.713 130.33 710.929 137.829C722.139 149.52 719.767 172.231 718.268 181.304ZM789.747 148.617C788.254 157.375 783.387 166.256 776.054 173.631C764.642 185.102 742.098 183.037 733.07 181.649C731.721 172.53 729.747 149.785 741.153 138.314C748.487 130.939 757.308 126.064 765.996 124.58C770.874 123.751 775.315 124.073 779.03 125.472C781.297 126.311 783.358 127.635 785.071 129.354C789.451 133.806 791.112 140.645 789.747 148.629V148.617Z" fill="url(#paint0_linear)"/>
</g>
<path d="M728.242 190.135L724.673 190.897C723.157 191.218 687.289 198.52 669.293 179.82C660.745 170.928 655.135 160.1 653.484 149.351C651.722 137.852 654.603 127.735 661.64 120.868C668.678 114.001 678.78 111.4 690.119 113.533C700.748 115.536 711.287 121.534 719.829 130.426C737.796 149.131 729.439 185.062 729.07 186.58L728.242 190.135ZM675.541 125.591C673.357 126.355 671.363 127.587 669.696 129.202C665.433 133.366 663.733 139.883 664.907 147.551C666.194 155.953 670.703 164.535 677.6 171.712C688.324 182.873 709.927 181.304 718.592 180.097C720.03 171.402 722.29 149.667 711.566 138.506C704.669 131.329 696.306 126.516 688.021 124.964C683.378 124.073 679.122 124.315 675.541 125.591Z" fill="#FFB606"/>
<path d="M722.95 190.293L722.139 186.704C721.797 185.175 714.055 149.103 732.342 130.72C741.035 121.974 751.692 116.162 762.337 114.356C773.709 112.415 783.778 115.197 790.687 122.182C797.596 129.168 800.314 139.336 798.356 150.801C796.522 161.522 790.721 172.243 782.028 181.005C763.752 199.36 728.018 191.461 726.502 191.111L722.95 190.293ZM776.747 126.674C773.189 125.331 768.915 125.021 764.278 125.816C755.965 127.232 747.496 131.899 740.504 138.958C729.59 149.932 731.475 171.684 732.767 180.424C741.41 181.75 762.975 183.731 773.9 172.75C780.92 165.692 785.574 157.194 787.006 148.815C788.315 141.169 786.727 134.624 782.531 130.387C780.89 128.742 778.914 127.475 776.741 126.674H776.747Z" fill="#FFB606"/>
<g opacity="0.5">
<path opacity="0.5" d="M897.845 180.678H550.091V250.865H568.16V454H879.776V250.865H897.845V180.678Z" fill="url(#paint1_linear)"/>
</g>
<path d="M875.833 201.899H572.104V450.547H875.833V201.899Z" fill="#F5F5F5"/>
<path d="M752.581 246.3H695.355V450.547H752.581V246.3Z" fill="#FFB606"/>
<path opacity="0.1" d="M875.833 188.577H572.104V250.741H875.833V188.577Z" fill="black"/>
<path d="M893.437 184.137H554.494V246.3H893.437V184.137Z" fill="#F5F5F5"/>
<path d="M752.581 184.137H695.355V246.3H752.581V184.137Z" fill="#FFB606"/>
<path d="M926.833 189.723C925.759 186.591 914.011 195.41 914.011 195.41L911.304 195.247L906.096 190.383L909.732 186.715L879.195 160.314C878.38 159.61 877.428 159.084 876.4 158.772C875.372 158.461 874.291 158.369 873.226 158.503L847.846 161.702C847.74 160.235 846.839 158.492 845.575 156.714C842.974 152.409 837.492 147.54 835.461 145.807L832.368 124.755L834.997 120.777C834.511 120.643 834.033 120.481 833.565 120.292L834.124 119.451L833.917 119.395L834.18 119.09H834.146L840.731 111.428C841.216 110.86 841.465 110.124 841.424 109.375C841.384 108.626 841.057 107.921 840.512 107.41L825.851 96.193C826.296 95.1224 826.51 93.9682 826.477 92.8076C826.589 90.5506 825.605 88.2936 822.282 86.6347C820.227 85.6474 818.074 84.8815 815.86 84.3495C812.211 83.4016 808.376 83.4581 804.756 84.5131L804.566 84.2874C800.051 79.085 794.139 86.5444 793.909 86.8547L770.784 112.81C770.153 113.816 769.92 115.024 770.131 116.195C770.343 117.365 770.983 118.413 771.925 119.13L784.165 128.389L784.125 128.468L784.819 128.993C784.293 130.031 783.594 130.725 782.66 130.827L784.534 131.775C784.238 131.982 783.896 132.112 783.538 132.153L792.119 136.48C792.119 140.994 792.578 161.573 799.833 171.684C800.578 172.921 801.462 174.066 802.468 175.098C802.468 175.098 803.083 174.759 804.213 174.212L805.511 176.824C806.934 179.697 809.218 182.046 812.038 183.536C814.858 185.027 818.072 185.585 821.224 185.13L861.501 179.324L861.076 180.616L861.305 180.582L848.249 220.079L850.408 220.807L850.369 220.886L850.671 221.016L847.958 226.19L839.41 232.82C839.41 232.82 864.393 245.454 867.022 243.462C869.651 241.47 857.814 232.848 857.814 232.848L857.154 230.196L860.03 224.074L862.441 224.887L881.801 185.818L882.461 184.492L895.551 201.019L899.243 197.295L899.64 197.701L899.674 197.667L904.792 202.892L908.501 213.105C908.501 213.105 927.923 192.849 926.833 189.723ZM825.202 113.769L824.944 113.47C822.885 115.926 820.372 117.954 817.544 119.44V117.268L817.689 117.138V116.196C819.636 114.388 821.045 112.069 821.755 109.498C822.466 106.927 822.451 104.206 821.711 101.644L830.208 108.24L825.202 113.769ZM796.331 89.281L796.124 89.0722L796.331 89.2754V89.281ZM789.535 103.094C789.479 103.778 789.456 104.471 789.468 105.17C789.453 106.183 789.509 107.195 789.635 108.2C790.072 111.71 791.314 114.576 793.887 115.942C796.124 117.127 797.596 117.07 798.535 116.252L798.636 116.342C798.714 117.716 799.068 119.06 799.677 120.292C794.883 119.283 790.306 117.424 786.156 114.802C786.156 114.802 786.156 114.977 786.19 115.293L782.671 111.744L789.535 103.094Z" fill="url(#paint2_linear)"/>
<path d="M853.72 213.455L847.969 224.407L856.908 228.272L862.659 216.034L853.72 213.455Z" fill="#FDA57D"/>
<path d="M856.908 228.272L857.546 230.851C857.546 230.851 869.042 239.224 866.496 241.16C863.951 243.095 839.646 230.851 839.646 230.851L847.947 224.407L856.908 228.272Z" fill="#333333"/>
<path opacity="0.1" d="M862.044 217.168L853.004 214.127L850.313 219.25L859.253 223.121L862.044 217.168Z" fill="black"/>
<path d="M894.562 192.939L903.193 201.753L909.531 194.31L899.68 185.107L894.562 192.939Z" fill="#FDA57D"/>
<path opacity="0.1" d="M900.033 185.536L894.914 193.368L898.187 196.714L904.827 190.016L900.033 185.536Z" fill="black"/>
<path d="M909.536 194.31L912.166 194.468C912.166 194.468 923.533 185.92 924.595 188.956C925.658 191.991 906.807 211.678 906.807 211.678L903.204 201.758L909.536 194.31Z" fill="#333333"/>
<path d="M827.675 128.389L840.944 112.906C841.413 112.354 841.654 111.64 841.614 110.913C841.574 110.187 841.258 109.504 840.731 109.007L811.861 86.9224L808.348 92.4407L830.723 109.814L821.214 120.32L827.675 128.389Z" fill="#FDA57D"/>
<path opacity="0.1" d="M826.153 114.898L821.51 120.033L827.96 128.107L834.611 120.366C831.364 119.324 828.447 117.438 826.153 114.898Z" fill="black"/>
<path d="M789.143 131.752L774.124 120.366C773.208 119.671 772.585 118.655 772.378 117.519C772.171 116.383 772.395 115.21 773.005 114.232L795.481 89.0046L800.08 93.6428L784.556 113.188L793.742 122.481L789.143 131.752Z" fill="#FDA57D"/>
<path opacity="0.1" d="M785.977 129.467L788.433 131.329L793.031 122.058L787.258 116.235C787.381 118.21 787.728 125.872 785.977 129.467Z" fill="black"/>
<path d="M862.044 176.751L848.255 218.471L862.044 223.11L885.024 176.751L866.642 172.118L862.044 176.751Z" fill="#D6D6D6"/>
<path opacity="0.1" d="M861.406 178.037L860.718 180.125L875.195 178.037L880.85 185.169L884.386 178.037L865.998 173.405L861.406 178.037Z" fill="black"/>
<path d="M795.459 89.0553C795.459 89.0553 801.349 81.3984 805.819 86.55C810.289 91.7016 798.776 92.3448 798.776 92.3448L795.459 89.0553Z" fill="#FDA57D"/>
<path d="M802.295 167.48L806.737 176.446C808.12 179.235 810.338 181.515 813.077 182.962C815.815 184.409 818.936 184.95 821.997 184.509L875.827 176.751L894.215 199.924L908.004 186.016L878.356 160.371C877.565 159.686 876.641 159.176 875.643 158.873C874.645 158.57 873.595 158.48 872.561 158.61L802.295 167.48Z" fill="#D6D6D6"/>
<path opacity="0.1" d="M788.786 117.471C788.786 117.471 789.994 132.525 785.401 133.044L794.592 137.682C794.592 137.682 794.083 164.981 803.783 174.77C803.783 174.77 821.684 164.986 840.552 165.5C859.42 166.013 835.954 146.959 835.954 146.959L832.849 125.856L835.406 121.991C831.94 120.946 828.838 118.935 826.455 116.19C823.899 119.412 818.064 123.779 812.963 123.779H810.764C803.196 123.779 795.146 122.239 788.769 118.137L788.786 117.471Z" fill="black"/>
<path d="M787.935 116.184C787.935 116.184 789.143 131.239 784.551 131.758L793.742 136.39C793.742 136.39 793.233 163.689 802.932 173.478C802.932 173.478 820.833 163.694 839.701 164.208C858.57 164.721 835.103 145.666 835.103 145.666L831.999 124.564L834.555 120.698C831.09 119.654 827.987 117.643 825.605 114.898C823.048 118.12 817.214 122.487 812.112 122.487H809.914C802.144 122.489 794.527 120.306 787.918 116.184H787.935Z" fill="#F55F44"/>
<path d="M800.04 111.941V117.115C800.04 119.737 801.072 122.252 802.91 124.106L813.824 135.115L817.46 127.78C818.093 126.503 818.422 125.094 818.422 123.666V111.93L800.04 111.941Z" fill="#FDA57D"/>
<path opacity="0.1" d="M800.18 117.9C800.18 118.092 800.18 118.278 800.18 118.464C802.706 120.74 805.975 121.998 809.363 121.998C812.75 121.998 816.019 120.74 818.545 118.464V112.726H800.18V117.9Z" fill="black"/>
<path d="M809.231 121.212C816.847 121.212 823.02 114.985 823.02 107.303C823.02 99.6217 816.847 93.3945 809.231 93.3945C801.615 93.3945 795.442 99.6217 795.442 107.303C795.442 114.985 801.615 121.212 809.231 121.212Z" fill="#FDA57D"/>
<path opacity="0.1" d="M800.041 103.382H823.02C823.02 103.382 832.211 94.111 823.02 89.4728C821.025 88.5127 818.934 87.7676 816.783 87.2497C802.798 83.6724 789.518 95.3354 791.314 109.769C791.739 113.154 792.953 115.976 795.442 117.285C805.148 122.442 800.041 103.382 800.041 103.382Z" fill="black"/>
<path d="M800.041 102.738H823.02C823.02 102.738 832.211 93.4679 823.02 88.8298C821.025 87.8697 818.934 87.1245 816.783 86.6066C802.798 83.0293 789.518 94.6923 791.314 109.126C791.739 112.511 792.953 115.333 795.442 116.642C805.148 121.799 800.041 102.738 800.041 102.738Z" fill="#333333"/>
<path d="M800.711 109.741C801.416 109.741 801.987 108.73 801.987 107.484C801.987 106.237 801.416 105.227 800.711 105.227C800.007 105.227 799.436 106.237 799.436 107.484C799.436 108.73 800.007 109.741 800.711 109.741Z" fill="#FDA57D"/>
<path opacity="0.1" d="M793.686 136.153L794.323 134.218L796.236 135.51L793.686 136.153Z" fill="black"/>
<path opacity="0.1" d="M835.137 145.672C835.137 145.672 828.183 149.058 826.265 152.257L835.137 145.672Z" fill="black"/>
<path opacity="0.1" d="M832.004 124.558L831.366 126.488L830.085 124.558H832.004Z" fill="black"/>
<path d="M800.041 102.738H823.02C823.02 102.738 832.211 93.4679 823.02 88.8298C821.025 87.8697 818.934 87.1245 816.783 86.6066C802.798 83.0293 789.518 94.6923 791.314 109.126C791.739 112.511 792.953 115.333 795.442 116.642C805.148 121.799 800.041 102.738 800.041 102.738Z" fill="#333333"/>
</g>
<defs>
<linearGradient id="paint0_linear" x1="725.999" y1="194.908" x2="725.999" y2="110.971" gradientUnits="userSpaceOnUse">
<stop stop-color="#808080" stop-opacity="0.25"/>
<stop offset="0.54" stop-color="#808080" stop-opacity="0.12"/>
<stop offset="1" stop-color="#808080" stop-opacity="0.1"/>
</linearGradient>
<linearGradient id="paint1_linear" x1="146620" y1="220098" x2="146620" y2="87701.1" gradientUnits="userSpaceOnUse">
<stop stop-color="#808080" stop-opacity="0.25"/>
<stop offset="0.54" stop-color="#808080" stop-opacity="0.12"/>
<stop offset="1" stop-color="#808080" stop-opacity="0.1"/>
</linearGradient>
<linearGradient id="paint2_linear" x1="128083" y1="76106.9" x2="128083" y2="30039.8" gradientUnits="userSpaceOnUse">
<stop stop-color="#808080" stop-opacity="0.25"/>
<stop offset="0.54" stop-color="#808080" stop-opacity="0.12"/>
<stop offset="1" stop-color="#808080" stop-opacity="0.1"/>
</linearGradient>
<clipPath id="clip0">
<rect width="566" height="456" fill="white" transform="translate(0 4)"/>
</clipPath>
<clipPath id="clip1">
<rect width="480" height="454" fill="white" transform="translate(489)"/>
</clipPath>
</defs>
</svg>
