<svg width="174" height="231" viewBox="0 0 174 231" fill="none" xmlns="http://www.w3.org/2000/svg">
<path fill-rule="evenodd" clip-rule="evenodd" d="M83.5941 146.435H89.6244L89.663 115.664H83.623L83.5941 146.435ZM72.3923 128.205H78.4322L78.5287 111.477H72.4791L72.3923 128.205ZM95.1626 128.08H101.212L101.116 111.477H95.0757L95.1626 128.08ZM76.6762 40.1555C76.6762 45.6418 81.1241 50.0789 86.6237 50.0789C92.1233 50.0789 96.5713 45.6418 96.5809 40.1555C96.5713 34.6789 92.1233 30.2418 86.6237 30.2321C81.1241 30.2321 76.6762 34.6789 76.6762 40.1555ZM91.5927 64.9591C91.5927 62.216 89.3735 60.0023 86.6237 60.0023C83.8739 60.0023 81.6548 62.216 81.6548 64.9591C81.6548 67.7022 83.8739 69.916 86.6237 69.9256C89.3735 69.916 91.5927 67.7022 91.5927 64.9591ZM44.7012 115.664C41.4979 87.472 56.3372 76.2781 62.4254 70.3203L62.4061 70.2336C61.1615 62.0524 55.7294 26.9019 86.5562 0C117.904 27.0174 112.829 61.754 111.584 70.3203C117.672 76.2781 132.56 87.472 129.357 115.664C124.532 104.951 115.289 98.0306 104.647 95.7014C103.798 97.7804 101.781 102.506 100.855 104.431L73.7913 104.518C72.8264 102.564 70.4819 97.713 69.5846 95.5666C59.6949 97.405 51.1367 102.131 44.7012 115.664ZM91.7953 172.826V231L152.252 198.824V175.108L113.253 195.474L91.7953 172.826ZM21.7476 174.655V198.824L82.1468 230.971V173.24L61.2001 196.196L21.7476 174.655ZM37.3491 126.434C31.4925 114.104 33.6248 97.9151 37.05 87.9244L0 107.02L21.7476 127.435L0 151.324L59.1739 184.117L82.1468 158.947V158.553L29.5628 130.717L37.3491 126.434ZM152.252 127.435L174 152.373L115.251 183.558L91.7953 158.822V158.784L144.447 130.717L136.477 126.338C142.855 114.181 140.443 98.0691 136.68 88.0014L174 107.425L152.03 127.31L152.252 127.435Z" fill="#FDFDFD"/>
</svg>
