<svg width="767" height="418" viewBox="0 0 767 418" fill="none" xmlns="http://www.w3.org/2000/svg">
<path d="M751.732 224.453C750.505 223.744 749.448 222.774 748.636 221.612C747.823 220.45 747.276 219.123 747.032 217.727C746.787 216.33 746.852 214.897 747.222 213.528C747.591 212.159 748.256 210.888 749.17 209.804L739.058 135.885L760.124 136.919L763.431 209.02C765.151 210.676 766.204 212.905 766.39 215.285C766.575 217.666 765.881 220.032 764.439 221.934C762.997 223.837 760.906 225.144 758.564 225.609C756.222 226.073 753.791 225.662 751.732 224.453Z" fill="#FFB8B8"/>
<path d="M763.015 137.898C762.583 138.407 762.03 138.798 761.407 139.036L742.475 146.261C741.524 146.624 740.471 146.609 739.531 146.218C738.591 145.828 737.836 145.092 737.423 144.162L720.653 106.474C719.042 102.978 718.768 99.0137 719.882 95.3295C720.706 92.6999 722.223 90.3412 724.275 88.5019C726.327 86.6625 728.836 85.4107 731.54 84.8783C733.619 84.4503 735.767 84.4807 737.833 84.9673C740.309 85.5192 742.609 86.6799 744.523 88.3442C746.438 90.0085 747.907 92.1239 748.798 94.499L763.709 133.916C763.959 134.581 764.026 135.301 763.904 136.002C763.782 136.702 763.475 137.357 763.015 137.898Z" fill="#767D9F"/>
<path d="M664.362 404.874H651.264L646.513 354.114L664.362 354.353V404.874Z" fill="#FFB9B9"/>
<path d="M641.908 401.133H667.166V417.038H626C626 412.82 627.676 408.774 630.659 405.791C633.641 402.809 637.687 401.133 641.905 401.133H641.908Z" fill="#2F2E41"/>
<path d="M725.261 404.875H712.162L705.931 354.353H725.263L725.261 404.875Z" fill="#FFB9B9"/>
<path d="M702.807 401.133H728.064V417.038H686.899C686.899 412.82 688.574 408.774 691.557 405.791C694.54 402.809 698.586 401.133 702.804 401.133H702.807Z" fill="#2F2E41"/>
<path d="M726.909 386.9L706.339 385.377C705.168 385.29 704.069 384.779 703.249 383.939C702.429 383.098 701.944 381.988 701.886 380.815L697.299 286.016C697.255 285.106 696.881 284.244 696.246 283.591C695.612 282.938 694.761 282.539 693.853 282.468C692.945 282.398 692.043 282.661 691.315 283.208C690.588 283.756 690.085 284.55 689.901 285.442L670.767 378.828C670.53 379.977 669.881 381 668.943 381.704C668.006 382.409 666.843 382.747 665.673 382.655L647.076 381.167C646.447 381.117 645.834 380.943 645.272 380.656C644.71 380.368 644.209 379.973 643.8 379.493C643.391 379.012 643.08 378.456 642.885 377.855C642.691 377.254 642.617 376.621 642.667 375.992C642.67 375.96 642.672 375.929 642.676 375.897L659.928 203.377C659.996 202.703 660.205 202.05 660.542 201.462C660.879 200.875 661.337 200.365 661.885 199.967C662.434 199.568 663.06 199.29 663.723 199.151C664.386 199.011 665.071 199.014 665.733 199.158L731.339 213.42C732.425 213.658 733.395 214.264 734.085 215.136C734.775 216.008 735.142 217.091 735.125 218.203L732.07 382.195C732.046 383.453 731.531 384.651 730.634 385.533C729.738 386.415 728.532 386.91 727.274 386.914C727.153 386.913 727.031 386.908 726.909 386.9Z" fill="#2F2E41"/>
<path d="M708.911 59.1302C723.403 59.1302 735.151 47.3818 735.151 32.8895C735.151 18.3971 723.403 6.64868 708.911 6.64868C694.418 6.64868 682.67 18.3971 682.67 32.8895C682.67 47.3818 694.418 59.1302 708.911 59.1302Z" fill="#FFB8B8"/>
<path d="M668.197 216.683C665.673 214.42 663.67 211.638 662.325 208.527C660.98 205.417 660.325 202.051 660.404 198.663C660.404 160.948 693.05 76.6821 694.073 74.0578C694.169 73.4245 695.03 73.1508 699.553 70.0979C704.076 67.0451 710.595 66.5734 718.933 68.7031C719.781 68.92 720.553 69.3653 721.165 69.9904C721.777 70.6156 722.206 71.3966 722.405 72.2486L723.956 74.4893C724.091 75.0579 724.358 75.5868 724.735 76.0334C725.113 76.4799 725.59 76.8315 726.128 77.0599C732.851 79.8928 754.224 92.9558 746.941 142.117C740.176 187.783 737.43 214.636 736.564 224.068C736.462 225.187 735.971 226.234 735.176 227.028C734.381 227.821 733.333 228.311 732.214 228.411C728.917 228.706 723.259 229.099 716.524 229.099C700.896 229.094 679.469 226.99 668.197 216.683Z" fill="#767D9F"/>
<path d="M636.84 202.71C636.216 201.437 635.879 200.042 635.852 198.625C635.825 197.207 636.109 195.801 636.685 194.505C637.26 193.209 638.113 192.055 639.183 191.124C640.252 190.193 641.513 189.509 642.876 189.118L675.669 122.103L692.585 134.7L655.157 196.413C655.662 198.747 655.295 201.185 654.122 203.265C652.95 205.345 651.056 206.923 648.798 207.7C646.54 208.476 644.075 208.397 641.872 207.477C639.668 206.558 637.878 204.861 636.842 202.71H636.84Z" fill="#FFB8B8"/>
<path d="M694.437 137.128C693.795 137.31 693.118 137.327 692.468 137.177L672.721 132.628C671.729 132.4 670.863 131.8 670.3 130.952C669.737 130.104 669.52 129.073 669.695 128.07L676.775 87.4307C677.386 83.6306 679.367 80.1857 682.345 77.7469C684.494 76.0224 687.068 74.9095 689.796 74.5254C692.525 74.1413 695.307 74.5003 697.848 75.5646C699.813 76.3677 701.579 77.5894 703.024 79.1446C704.772 80.9826 706.035 83.2276 706.697 85.6763C707.36 88.1251 707.401 90.7004 706.817 93.1691L697.234 134.204C697.071 134.897 696.726 135.534 696.234 136.048C695.742 136.562 695.121 136.935 694.436 137.128H694.437Z" fill="#767D9F"/>
<path d="M702.767 56.5988C701.49 55.2959 700.547 53.7034 700.018 51.9571C699.49 50.2109 699.392 48.3628 699.733 46.5705C700.648 41.7869 701.185 38.6537 701.288 37.5142C701.636 33.6175 697.696 30.4623 693.798 29.9562C693.647 29.9361 693.521 29.9236 693.416 29.915C693.511 30.0107 693.621 30.1121 693.715 30.202C694.456 30.8976 695.377 31.7634 695.158 32.657C695.026 33.1946 694.534 33.5764 693.655 33.8223C687.559 35.5281 682.863 33.9619 678.878 28.8904C677.758 27.4492 676.988 25.7674 676.629 23.9777C675.202 16.9745 679.005 11.0046 682.447 7.23037C685.286 4.11818 689.886 0.342021 695.689 0.0167381C700.201 -0.234878 705.567 2.36164 707.169 7.04093C707.927 5.91961 708.935 4.99004 710.114 4.32582C711.293 3.6616 712.611 3.28097 713.962 3.21407C717.043 3.14728 720.075 3.99057 722.679 5.6384C735.403 12.9267 740.871 30.2891 734.62 43.553C730.687 51.8965 722.168 58.1075 712.386 59.7626C711.774 59.8666 711.154 59.9191 710.533 59.9195C709.081 59.917 707.645 59.622 706.309 59.0521C704.974 58.4822 703.767 57.6492 702.76 56.6026L702.767 56.5988Z" fill="#2F2E41"/>
<path d="M566.97 417.369H761.97C762.235 417.369 762.49 417.264 762.677 417.076C762.865 416.888 762.97 416.634 762.97 416.369C762.97 416.104 762.865 415.849 762.677 415.662C762.49 415.474 762.235 415.369 761.97 415.369H566.97C566.705 415.369 566.45 415.474 566.263 415.662C566.075 415.849 565.97 416.104 565.97 416.369C565.97 416.634 566.075 416.888 566.263 417.076C566.45 417.264 566.705 417.369 566.97 417.369Z" fill="#3F3D56"/>
<path d="M111.789 111.053H80.3326C79.6651 111.053 79.025 110.788 78.553 110.316C78.0811 109.844 77.8159 109.204 77.8159 108.536C77.8159 107.869 78.0811 107.229 78.553 106.757C79.025 106.285 79.6651 106.02 80.3326 106.02H111.788C112.456 106.02 113.096 106.285 113.568 106.757C114.04 107.229 114.305 107.869 114.305 108.536C114.305 109.204 114.04 109.844 113.568 110.316C113.096 110.788 112.456 111.053 111.788 111.053H111.789Z" fill="white"/>
<path d="M111.789 124.265H80.3326C79.6651 124.265 79.025 124 78.553 123.528C78.0811 123.056 77.8159 122.416 77.8159 121.748C77.8159 121.081 78.0811 120.441 78.553 119.969C79.025 119.497 79.6651 119.232 80.3326 119.232H111.788C112.456 119.232 113.096 119.497 113.568 119.969C114.04 120.441 114.305 121.081 114.305 121.748C114.305 122.416 114.04 123.056 113.568 123.528C113.096 124 112.456 124.265 111.788 124.265H111.789Z" fill="white"/>
<path d="M74.8106 55.2352C86.362 55.2352 95.7263 45.8709 95.7263 34.3195C95.7263 22.7681 86.362 13.4038 74.8106 13.4038C63.2592 13.4038 53.8949 22.7681 53.8949 34.3195C53.8949 45.8709 63.2592 55.2352 74.8106 55.2352Z" fill="white"/>
<path d="M72.7374 42.2977C72.2669 42.2985 71.8089 42.1464 71.4324 41.8643L71.4095 41.847L66.4939 38.0833C66.0474 37.7266 65.7586 37.209 65.6893 36.6417C65.6201 36.0744 65.7759 35.5026 66.1235 35.0489C66.471 34.5952 66.9825 34.2958 67.5483 34.2149C68.114 34.134 68.689 34.2781 69.1497 34.6162L72.3336 37.0578L79.8573 27.2457C80.2096 26.7862 80.73 26.4855 81.304 26.4097C81.8781 26.3339 82.4587 26.4892 82.9182 26.8415L82.9187 26.8419L82.8719 26.9051L82.9197 26.8429C83.3786 27.1958 83.6789 27.7163 83.7546 28.2902C83.8303 28.8641 83.6752 29.4446 83.3234 29.9044L74.4738 41.4462C74.2692 41.7122 74.006 41.9275 73.7047 42.0753C73.4034 42.2232 73.0721 42.2996 72.7364 42.2986L72.7374 42.2977Z" fill="white"/>
<path d="M133.586 83.3607C133.152 82.3298 132.425 81.4488 131.495 80.8266C130.565 80.2045 129.474 79.8684 128.355 79.8601H23.9192C22.4181 79.8609 20.9786 80.4575 19.9172 81.519C18.8557 82.5804 18.2591 84.0199 18.2583 85.521V217.637C18.2591 219.138 18.8557 220.577 19.9172 221.639C20.9786 222.7 22.4181 223.297 23.9192 223.297H128.355C129.856 223.295 131.295 222.698 132.356 221.637C133.417 220.576 134.014 219.137 134.016 217.637V85.521C134.018 84.7794 133.872 84.045 133.586 83.3607ZM132.759 217.638C132.757 218.804 132.292 219.922 131.467 220.747C130.643 221.572 129.524 222.036 128.358 222.038H23.9192C22.752 222.038 21.6326 221.575 20.8073 220.749C19.982 219.924 19.5183 218.805 19.5183 217.638V85.521C19.5206 84.3545 19.985 83.2364 20.8098 82.4116C21.6346 81.5868 22.7527 81.1224 23.9192 81.1201H128.355C129.235 81.1237 130.094 81.3896 130.822 81.8838C131.55 82.378 132.115 83.0781 132.443 83.8946C132.507 84.057 132.562 84.2228 132.609 84.3911C132.709 84.7617 132.76 85.1438 132.76 85.5277L132.759 217.638Z" fill="white"/>
<path d="M64.1919 131.788H41.204C40.4534 131.787 39.7338 131.488 39.203 130.958C38.6723 130.427 38.3738 129.707 38.373 128.957V101.829C38.3738 101.079 38.6723 100.359 39.203 99.8282C39.7338 99.2974 40.4534 98.9989 41.204 98.9982H64.1919C64.9424 98.9992 65.6619 99.2978 66.1925 99.8284C66.7232 100.359 67.0218 101.079 67.0228 101.829V128.957C67.0221 129.707 66.7236 130.427 66.1928 130.958C65.6621 131.488 64.9425 131.787 64.1919 131.788Z" fill="white"/>
<path d="M111.57 151.317H40.4798C39.8123 151.317 39.1722 151.052 38.7002 150.58C38.2283 150.108 37.9631 149.468 37.9631 148.8C37.9631 148.133 38.2283 147.493 38.7002 147.021C39.1722 146.549 39.8123 146.284 40.4798 146.284H111.57C112.238 146.284 112.878 146.549 113.35 147.021C113.822 147.493 114.087 148.133 114.087 148.8C114.087 149.468 113.822 150.108 113.35 150.58C112.878 151.052 112.238 151.317 111.57 151.317Z" fill="white"/>
<path d="M111.57 164.533H40.4798C39.8123 164.533 39.1722 164.268 38.7002 163.796C38.2283 163.324 37.9631 162.684 37.9631 162.017C37.9631 161.349 38.2283 160.709 38.7002 160.237C39.1722 159.765 39.8123 159.5 40.4798 159.5H111.57C112.238 159.5 112.878 159.765 113.35 160.237C113.822 160.709 114.087 161.349 114.087 162.017C114.087 162.684 113.822 163.324 113.35 163.796C112.878 164.268 112.238 164.533 111.57 164.533Z" fill="white"/>
<path d="M111.57 177.74H40.4798C39.8123 177.74 39.1722 177.475 38.7002 177.003C38.2283 176.531 37.9631 175.891 37.9631 175.224C37.9631 174.556 38.2283 173.916 38.7002 173.444C39.1722 172.972 39.8123 172.707 40.4798 172.707H111.57C112.238 172.707 112.878 172.972 113.35 173.444C113.822 173.916 114.087 174.556 114.087 175.224C114.087 175.891 113.822 176.531 113.35 177.003C112.878 177.475 112.238 177.74 111.57 177.74Z" fill="white"/>
<path d="M111.57 190.956H40.4798C39.8123 190.956 39.1722 190.69 38.7002 190.218C38.2283 189.746 37.9631 189.106 37.9631 188.439C37.9631 187.771 38.2283 187.131 38.7002 186.659C39.1722 186.187 39.8123 185.922 40.4798 185.922H111.57C112.238 185.922 112.878 186.187 113.35 186.659C113.822 187.131 114.087 187.771 114.087 188.439C114.087 189.106 113.822 189.746 113.35 190.218C112.878 190.69 112.238 190.956 111.57 190.956Z" fill="white"/>
<path d="M111.57 204.164H40.4798C39.8123 204.164 39.1722 203.899 38.7002 203.427C38.2283 202.955 37.9631 202.315 37.9631 201.647C37.9631 200.98 38.2283 200.34 38.7002 199.868C39.1722 199.396 39.8123 199.131 40.4798 199.131H111.57C112.238 199.131 112.878 199.396 113.35 199.868C113.822 200.34 114.087 200.98 114.087 201.647C114.087 202.315 113.822 202.955 113.35 203.427C112.878 203.899 112.238 204.164 111.57 204.164Z" fill="white"/>
<path d="M1.61709 223.85H148.41C148.609 223.85 148.801 223.77 148.942 223.629C149.083 223.488 149.163 223.296 149.163 223.097C149.163 222.897 149.083 222.705 148.942 222.564C148.801 222.423 148.609 222.344 148.41 222.344H1.61709C1.51821 222.343 1.42019 222.362 1.32863 222.399C1.23706 222.437 1.15375 222.492 1.08343 222.561C1.01312 222.631 0.957195 222.713 0.918838 222.805C0.880481 222.896 0.860437 222.994 0.859875 223.092C0.859314 223.191 0.878234 223.289 0.915553 223.381C0.952873 223.472 1.00787 223.556 1.07739 223.626C1.14691 223.696 1.22959 223.752 1.32073 223.791C1.41186 223.829 1.50966 223.849 1.60853 223.85H1.61709Z" fill="white"/>
<path d="M476.631 55.2352C488.182 55.2352 497.547 45.8709 497.547 34.3195C497.547 22.7681 488.182 13.4038 476.631 13.4038C465.079 13.4038 455.715 22.7681 455.715 34.3195C455.715 45.8709 465.079 55.2352 476.631 55.2352Z" fill="white"/>
<path d="M474.557 42.2977C474.087 42.2985 473.629 42.1464 473.252 41.8643L473.229 41.847L468.314 38.0833C467.867 37.7266 467.579 37.209 467.509 36.6417C467.44 36.0744 467.596 35.5026 467.943 35.0489C468.291 34.5952 468.802 34.2958 469.368 34.2149C469.934 34.134 470.509 34.2781 470.97 34.6162L474.154 37.0578L481.677 27.2457C482.03 26.7862 482.55 26.4855 483.124 26.4097C483.698 26.3339 484.279 26.4892 484.738 26.8415L484.739 26.8419L484.692 26.9051L484.74 26.8429C485.199 27.1958 485.499 27.7163 485.575 28.2902C485.65 28.8641 485.495 29.4446 485.143 29.9044L476.294 41.4462C476.089 41.7122 475.826 41.9275 475.525 42.0753C475.223 42.2232 474.892 42.2996 474.556 42.2986L474.557 42.2977Z" fill="white"/>
<path d="M535.407 83.3607C534.972 82.3298 534.245 81.4488 533.315 80.8266C532.386 80.2045 531.294 79.8684 530.175 79.8601H425.739C424.238 79.8609 422.799 80.4575 421.737 81.519C420.676 82.5804 420.079 84.0199 420.078 85.521V217.637C420.079 219.138 420.676 220.577 421.737 221.639C422.799 222.7 424.238 223.297 425.739 223.297H530.175C531.676 223.295 533.115 222.698 534.176 221.637C535.237 220.576 535.834 219.137 535.836 217.637V85.521C535.838 84.7794 535.692 84.045 535.407 83.3607ZM534.579 217.638C534.577 218.804 534.112 219.922 533.287 220.747C532.463 221.572 531.345 222.036 530.178 222.038H425.739C425.161 222.038 424.589 221.925 424.055 221.703C423.521 221.482 423.036 221.158 422.627 220.749C422.219 220.341 421.895 219.856 421.673 219.322C421.452 218.788 421.338 218.215 421.338 217.638V85.521C421.341 84.3545 421.805 83.2364 422.63 82.4116C423.455 81.5868 424.573 81.1224 425.739 81.1201H530.175C531.055 81.1237 531.914 81.3896 532.642 81.8838C533.371 82.378 533.935 83.0781 534.263 83.8946C534.327 84.057 534.383 84.2228 534.429 84.3911C534.529 84.7617 534.58 85.1438 534.58 85.5277L534.579 217.638Z" fill="white"/>
<path d="M513.61 111.053H482.153C481.485 111.053 480.845 110.788 480.373 110.316C479.901 109.844 479.636 109.204 479.636 108.536C479.636 107.869 479.901 107.229 480.373 106.757C480.845 106.285 481.485 106.02 482.153 106.02H513.609C514.276 106.02 514.916 106.285 515.388 106.757C515.86 107.229 516.125 107.869 516.125 108.536C516.125 109.204 515.86 109.844 515.388 110.316C514.916 110.788 514.276 111.053 513.609 111.053H513.61Z" fill="white"/>
<path d="M513.61 124.265H482.153C481.485 124.265 480.845 124 480.373 123.528C479.901 123.056 479.636 122.416 479.636 121.748C479.636 121.081 479.901 120.441 480.373 119.969C480.845 119.497 481.485 119.232 482.153 119.232H513.609C514.276 119.232 514.916 119.497 515.388 119.969C515.86 120.441 516.125 121.081 516.125 121.748C516.125 122.416 515.86 123.056 515.388 123.528C514.916 124 514.276 124.265 513.609 124.265H513.61Z" fill="white"/>
<path d="M466.012 131.788H443.024C442.274 131.787 441.554 131.488 441.023 130.958C440.493 130.427 440.194 129.707 440.193 128.957V101.829C440.194 101.079 440.493 100.359 441.023 99.8282C441.554 99.2974 442.274 98.9989 443.024 98.9982H466.012C466.763 98.9992 467.482 99.2978 468.013 99.8284C468.544 100.359 468.842 101.079 468.843 101.829V128.957C468.842 129.707 468.544 130.427 468.013 130.958C467.482 131.488 466.763 131.787 466.012 131.788Z" fill="white"/>
<path d="M513.39 151.317H442.3C441.632 151.317 440.992 151.052 440.52 150.58C440.048 150.108 439.783 149.468 439.783 148.8C439.783 148.133 440.048 147.493 440.52 147.021C440.992 146.549 441.632 146.284 442.3 146.284H513.39C514.058 146.284 514.698 146.549 515.17 147.021C515.642 147.493 515.907 148.133 515.907 148.8C515.907 149.468 515.642 150.108 515.17 150.58C514.698 151.052 514.058 151.317 513.39 151.317Z" fill="white"/>
<path d="M513.39 164.533H442.3C441.632 164.533 440.992 164.268 440.52 163.796C440.048 163.324 439.783 162.684 439.783 162.017C439.783 161.349 440.048 160.709 440.52 160.237C440.992 159.765 441.632 159.5 442.3 159.5H513.39C514.058 159.5 514.698 159.765 515.17 160.237C515.642 160.709 515.907 161.349 515.907 162.017C515.907 162.684 515.642 163.324 515.17 163.796C514.698 164.268 514.058 164.533 513.39 164.533Z" fill="white"/>
<path d="M513.39 177.74H442.3C441.632 177.74 440.992 177.475 440.52 177.003C440.048 176.531 439.783 175.891 439.783 175.224C439.783 174.556 440.048 173.916 440.52 173.444C440.992 172.972 441.632 172.707 442.3 172.707H513.39C514.058 172.707 514.698 172.972 515.17 173.444C515.642 173.916 515.907 174.556 515.907 175.224C515.907 175.891 515.642 176.531 515.17 177.003C514.698 177.475 514.058 177.74 513.39 177.74Z" fill="white"/>
<path d="M513.39 190.956H442.3C441.632 190.956 440.992 190.69 440.52 190.218C440.048 189.746 439.783 189.106 439.783 188.439C439.783 187.771 440.048 187.131 440.52 186.659C440.992 186.187 441.632 185.922 442.3 185.922H513.39C514.058 185.922 514.698 186.187 515.17 186.659C515.642 187.131 515.907 187.771 515.907 188.439C515.907 189.106 515.642 189.746 515.17 190.218C514.698 190.69 514.058 190.956 513.39 190.956Z" fill="white"/>
<path d="M513.39 204.164H442.3C441.632 204.164 440.992 203.899 440.52 203.427C440.048 202.955 439.783 202.315 439.783 201.647C439.783 200.98 440.048 200.34 440.52 199.868C440.992 199.396 441.632 199.131 442.3 199.131H513.39C514.058 199.131 514.698 199.396 515.17 199.868C515.642 200.34 515.907 200.98 515.907 201.647C515.907 202.315 515.642 202.955 515.17 203.427C514.698 203.899 514.058 204.164 513.39 204.164Z" fill="white"/>
<path d="M403.437 223.85H550.23C550.43 223.85 550.621 223.77 550.762 223.629C550.904 223.488 550.983 223.296 550.983 223.097C550.983 222.897 550.904 222.705 550.762 222.564C550.621 222.423 550.43 222.344 550.23 222.344H403.437C403.338 222.343 403.24 222.362 403.149 222.399C403.057 222.437 402.974 222.492 402.904 222.561C402.833 222.631 402.777 222.713 402.739 222.805C402.701 222.896 402.681 222.994 402.68 223.092C402.68 223.191 402.699 223.289 402.736 223.381C402.773 223.472 402.828 223.556 402.898 223.626C402.967 223.696 403.05 223.752 403.141 223.791C403.232 223.829 403.33 223.849 403.429 223.85H403.437Z" fill="white"/>
<path d="M348.778 145.104C348.226 143.794 347.302 142.674 346.121 141.883C344.939 141.092 343.551 140.666 342.129 140.655H209.409C207.501 140.656 205.672 141.415 204.323 142.764C202.974 144.113 202.215 145.942 202.214 147.85V315.753C202.215 317.661 202.974 319.49 204.323 320.839C205.672 322.188 207.501 322.947 209.409 322.948H342.134C344.041 322.945 345.87 322.186 347.218 320.838C348.567 319.489 349.326 317.661 349.328 315.753V147.85C349.332 146.907 349.146 145.974 348.783 145.104H348.778ZM347.726 315.753C347.724 317.237 347.134 318.66 346.085 319.709C345.035 320.758 343.613 321.348 342.129 321.35H209.409C207.925 321.35 206.501 320.76 205.452 319.711C204.402 318.662 203.813 317.238 203.812 315.754V147.851C203.814 146.367 204.404 144.945 205.454 143.896C206.503 142.846 207.925 142.256 209.409 142.254H342.134C343.252 142.258 344.343 142.595 345.268 143.223C346.193 143.85 346.911 144.738 347.329 145.775C347.41 145.981 347.48 146.192 347.539 146.406C347.666 146.877 347.731 147.363 347.731 147.851L347.726 315.753Z" fill="#3F3D56"/>
<path d="M321.081 180.297H281.104C280.256 180.297 279.442 179.96 278.843 179.36C278.243 178.76 277.906 177.947 277.906 177.099C277.906 176.25 278.243 175.437 278.843 174.837C279.442 174.237 280.256 173.9 281.104 173.9H321.081C321.93 173.9 322.743 174.237 323.343 174.837C323.943 175.437 324.28 176.25 324.28 177.099C324.28 177.947 323.943 178.76 323.343 179.36C322.743 179.96 321.93 180.297 321.081 180.297Z" fill="#3F3D56"/>
<path d="M321.081 197.087H281.104C280.256 197.087 279.442 196.75 278.843 196.151C278.243 195.551 277.906 194.737 277.906 193.889C277.906 193.041 278.243 192.227 278.843 191.628C279.442 191.028 280.256 190.691 281.104 190.691H321.081C321.93 190.691 322.743 191.028 323.343 191.628C323.943 192.227 324.28 193.041 324.28 193.889C324.28 194.737 323.943 195.551 323.343 196.151C322.743 196.75 321.93 197.087 321.081 197.087Z" fill="#3F3D56"/>
<path d="M260.592 206.648H231.377C230.423 206.647 229.508 206.267 228.834 205.593C228.159 204.918 227.78 204.004 227.779 203.05V168.573C227.78 167.619 228.159 166.705 228.834 166.03C229.508 165.356 230.423 164.976 231.377 164.975H260.592C261.546 164.976 262.461 165.356 263.135 166.03C263.81 166.705 264.189 167.619 264.19 168.573V203.05C264.189 204.004 263.81 204.918 263.135 205.593C262.461 206.267 261.546 206.647 260.592 206.648Z" fill="#F9A826"/>
<path d="M320.804 231.468H230.456C229.607 231.468 228.794 231.131 228.194 230.531C227.594 229.931 227.257 229.118 227.257 228.27C227.257 227.421 227.594 226.608 228.194 226.008C228.794 225.408 229.607 225.071 230.456 225.071H320.804C321.224 225.071 321.64 225.154 322.028 225.315C322.416 225.475 322.768 225.711 323.065 226.008C323.362 226.305 323.598 226.658 323.759 227.046C323.92 227.434 324.002 227.85 324.002 228.27C324.002 228.69 323.92 229.105 323.759 229.494C323.598 229.882 323.362 230.234 323.065 230.531C322.768 230.828 322.416 231.064 322.028 231.224C321.64 231.385 321.224 231.468 320.804 231.468Z" fill="white"/>
<path d="M320.804 248.258H230.456C229.607 248.258 228.794 247.921 228.194 247.322C227.594 246.722 227.257 245.908 227.257 245.06C227.257 244.212 227.594 243.398 228.194 242.799C228.794 242.199 229.607 241.862 230.456 241.862H320.804C321.652 241.862 322.466 242.199 323.065 242.799C323.665 243.398 324.002 244.212 324.002 245.06C324.002 245.908 323.665 246.722 323.065 247.322C322.466 247.921 321.652 248.258 320.804 248.258Z" fill="white"/>
<path d="M320.804 265.048H230.456C229.607 265.048 228.794 264.711 228.194 264.112C227.594 263.512 227.257 262.698 227.257 261.85C227.257 261.002 227.594 260.188 228.194 259.589C228.794 258.989 229.607 258.652 230.456 258.652H320.804C321.652 258.652 322.466 258.989 323.065 259.589C323.665 260.188 324.002 261.002 324.002 261.85C324.002 262.698 323.665 263.512 323.065 264.112C322.466 264.711 321.652 265.048 320.804 265.048Z" fill="white"/>
<path d="M320.804 281.839H230.456C229.607 281.839 228.794 281.502 228.194 280.902C227.594 280.302 227.257 279.489 227.257 278.641C227.257 277.792 227.594 276.979 228.194 276.379C228.794 275.779 229.607 275.442 230.456 275.442H320.804C321.652 275.442 322.466 275.779 323.065 276.379C323.665 276.979 324.002 277.792 324.002 278.641C324.002 279.489 323.665 280.302 323.065 280.902C322.466 281.502 321.652 281.839 320.804 281.839Z" fill="white"/>
<path d="M320.804 298.629H230.456C229.607 298.629 228.794 298.292 228.194 297.692C227.594 297.092 227.257 296.279 227.257 295.431C227.257 294.582 227.594 293.769 228.194 293.169C228.794 292.569 229.607 292.232 230.456 292.232H320.804C321.652 292.232 322.466 292.569 323.065 293.169C323.665 293.769 324.002 294.582 324.002 295.431C324.002 296.279 323.665 297.092 323.065 297.692C322.466 298.292 321.652 298.629 320.804 298.629Z" fill="white"/>
<path d="M278.017 100.201C295.063 100.201 308.882 86.3818 308.882 69.3353C308.882 52.2887 295.063 38.4697 278.017 38.4697C260.97 38.4697 247.151 52.2887 247.151 69.3353C247.151 86.3818 260.97 100.201 278.017 100.201Z" fill="#F9A826"/>
<path d="M274.958 81.1096C274.264 81.1108 273.588 80.8862 273.032 80.4696L272.998 80.4437L265.744 74.8948C265.408 74.6374 265.125 74.3163 264.913 73.9497C264.701 73.5831 264.563 73.1782 264.507 72.7583C264.451 72.3384 264.479 71.9116 264.588 71.5023C264.698 71.0931 264.887 70.7094 265.144 70.3732C265.402 70.037 265.723 69.7549 266.09 69.543C266.457 69.3312 266.862 69.1937 267.282 69.1384C267.702 69.0832 268.129 69.1113 268.538 69.2211C268.947 69.3309 269.331 69.5202 269.667 69.7783L274.365 73.3813L285.468 58.8966C285.988 58.2184 286.756 57.7746 287.603 57.6626C288.45 57.5507 289.307 57.78 289.985 58.2999L289.986 58.3006L289.917 58.3963L289.988 58.3006C290.666 58.8213 291.109 59.5895 291.221 60.4366C291.332 61.2838 291.103 62.1406 290.584 62.8192L277.525 79.8487C277.223 80.2411 276.834 80.5586 276.39 80.7766C275.945 80.9946 275.456 81.1073 274.961 81.1058L274.958 81.1096Z" fill="white"/>
<path d="M189.864 330.625H384.864C385.129 330.625 385.384 330.519 385.571 330.332C385.759 330.144 385.864 329.89 385.864 329.625C385.864 329.359 385.759 329.105 385.571 328.917C385.384 328.73 385.129 328.625 384.864 328.625H189.864C189.599 328.625 189.345 328.73 189.157 328.917C188.97 329.105 188.864 329.359 188.864 329.625C188.864 329.89 188.97 330.144 189.157 330.332C189.345 330.519 189.599 330.625 189.864 330.625Z" fill="#3F3D56"/>
</svg>
