<svg width="53" height="53" viewBox="0 0 53 53" fill="none" xmlns="http://www.w3.org/2000/svg">
<path d="M52.6069 46.11L38.5774 32.0782C40.6311 28.843 41.817 25.0116 41.817 20.9063C41.8192 9.381 32.4382 0 20.9085 0C9.37879 0 0 9.381 0 20.9085C0 32.4382 9.37879 41.8192 20.9085 41.8192C24.8128 41.8192 28.4632 40.7437 31.5946 38.8755L45.7191 53L52.6069 46.11ZM7.791 20.9085C7.791 13.6806 13.6762 7.79542 20.9063 7.79542C28.1386 7.79542 34.0238 13.6784 34.0238 20.9085C34.0238 28.1408 28.1386 34.0238 20.9063 34.0238C13.6762 34.0238 7.791 28.1408 7.791 20.9085Z" fill="#FFB606"/>
</svg>
