<svg width="203" height="203" viewBox="0 0 203 203" fill="none" xmlns="http://www.w3.org/2000/svg">
<path d="M101.479 135.333C126.405 135.333 146.585 115.329 146.585 90.6395C146.585 65.9665 128.933 40.5831 101.479 0C74.0243 40.5831 56.3809 65.9665 56.3809 90.6395C56.3809 115.329 76.5532 135.333 101.479 135.333ZM101.327 28.8683C103.957 32.9621 107.12 40.0756 107.12 47.5866C107.12 69.629 84.5629 73.2407 84.5629 59.8258C84.5629 50.6231 95.7782 37.0221 101.327 28.8683ZM101.479 169.167C81.4588 169.167 53.1753 163.973 39.8625 149.239C43.8631 146.752 49.5891 144.079 56.956 141.719C64.7628 146.701 79.8095 152.25 101.479 152.25C123.148 152.25 138.195 146.701 146.01 141.719C153.369 144.071 159.103 146.752 163.112 149.239C149.799 163.973 121.499 169.167 101.479 169.167ZM202.949 152.25C202.949 180.272 157.53 203 101.479 203C45.4447 203 0.00845798 180.272 0.00845798 152.25L0.0338319 151.184C0.397525 142.65 5.23549 134.936 12.7631 130.901C20.2907 126.867 29.383 127.112 36.6907 131.527L36.8853 131.645C24.0883 138.099 16.916 145.839 16.916 152.25C16.916 166.046 49.8598 186.083 101.479 186.083C153.098 186.083 186.042 166.046 186.042 152.25C186.042 145.847 178.878 138.116 166.098 131.645L166.275 131.544C173.693 127.07 182.929 126.909 190.499 131.104C198.069 135.299 202.831 143.233 202.949 151.895V152.25ZM160.668 118.154C172.957 106.262 186.583 116.615 197.9 105.661C201.435 102.253 203 98.0321 203 93.9552C203 83.137 190.474 74.8309 177.448 81.809C167.011 87.4 161.201 101.678 160.668 118.154ZM162.173 75.2961C167.502 66.5248 176.966 70.4748 181.872 62.4056C187.691 52.8223 175.706 43.036 166.402 51.672C161.201 56.4932 159.974 65.662 162.173 75.2961ZM25.5516 81.809C12.5347 74.8309 0 83.137 0 93.9552C0 98.0321 1.56473 102.244 5.0917 105.661C16.4085 116.615 30.0427 106.262 42.3237 118.154C41.7993 101.678 35.9972 87.4 25.5516 81.809ZM36.6061 51.672C27.3024 43.036 15.3089 52.8223 21.128 62.4056C26.0337 70.4748 35.4981 66.5248 40.8351 75.2961C43.0257 65.662 41.8078 56.4932 36.6061 51.672Z" fill="white"/>
</svg>
