<svg width="46" height="46" viewBox="0 0 46 46" fill="none" xmlns="http://www.w3.org/2000/svg">
<path fill-rule="evenodd" clip-rule="evenodd" d="M11.9969 40.5214C15.19 42.552 18.9794 43.7295 23.0425 43.7295C27.1037 43.7295 30.8931 42.552 34.0862 40.5214L35.245 42.0064C31.7275 44.2826 27.5387 45.6045 23.0425 45.6045C18.5425 45.6045 14.3481 44.2807 10.8306 42.0007L11.9969 40.5214ZM22.9712 15.6045C17.2769 15.6045 12.6587 20.2207 12.6587 25.917C12.6587 31.6114 17.2769 36.2295 22.9712 36.2295C28.6656 36.2295 33.2837 31.6114 33.2837 25.917C33.2837 20.2207 28.6656 15.6045 22.9712 15.6045ZM36.1675 36.2295H34.2925C34.2925 34.1595 35.9725 32.4795 38.0425 32.4795H41.7925C43.5981 32.4795 45.5425 33.9045 45.5425 36.2295H43.6675C43.6675 35.0689 42.6944 34.3545 41.7925 34.3545H38.0425C37.0075 34.3545 36.1675 35.1964 36.1675 36.2295ZM2.41748 36.2295H0.54248C0.54248 34.1595 2.22248 32.4795 4.29248 32.4795H8.04248C9.84811 32.4795 11.7925 33.9045 11.7925 36.2295H9.91748C9.91748 35.0689 8.94436 34.3545 8.04248 34.3545H4.29248C3.25748 34.3545 2.41748 35.1964 2.41748 36.2295ZM23.0425 17.4795C27.9906 17.4795 31.48 20.9689 31.48 25.917C31.48 30.8651 27.9906 34.3545 23.0425 34.3545C18.0944 34.3545 14.605 30.8651 14.605 25.917C14.605 20.9689 18.0944 17.4795 23.0425 17.4795ZM39.9175 23.1045C42.2462 23.1045 44.1362 24.9945 44.1362 27.3232C44.1362 29.652 42.2462 31.542 39.9175 31.542C37.5887 31.542 35.6987 29.652 35.6987 27.3232C35.6987 24.9945 37.5887 23.1045 39.9175 23.1045ZM6.16748 23.1045C8.49623 23.1045 10.3862 24.9945 10.3862 27.3232C10.3862 29.652 8.49623 31.542 6.16748 31.542C3.83873 31.542 1.94873 29.652 1.94873 27.3232C1.94873 24.9945 3.83873 23.1045 6.16748 23.1045ZM23.5112 31.542H22.5737V30.6064C21.6025 30.5895 20.5994 30.357 19.7612 29.9239L20.1869 28.3826C21.0831 28.7314 22.2756 29.1007 23.2112 28.8889C24.2875 28.6451 24.5087 27.537 23.3181 27.0045C22.4444 26.5976 19.7762 26.2489 19.7762 23.9651C19.7762 22.6864 20.7494 21.5426 22.5737 21.2932V20.292H23.5112V21.2464C24.19 21.2651 24.9512 21.3832 25.8006 21.6401L25.4612 23.1851C24.7412 22.932 23.9462 22.7032 23.1719 22.7501C21.775 22.8307 21.6531 24.0401 22.6262 24.5464C24.2312 25.3001 26.3237 25.8589 26.3237 27.8689C26.3256 29.4795 25.0637 30.3364 23.5112 30.5539V31.542ZM39.9175 25.2139C41.0819 25.2139 42.0269 26.1589 42.0269 27.3232C42.0269 28.4876 41.0819 29.4326 39.9175 29.4326C38.7531 29.4326 37.8081 28.4876 37.8081 27.3232C37.8081 26.1589 38.7531 25.2139 39.9175 25.2139ZM6.16748 25.2139C7.33186 25.2139 8.27686 26.1589 8.27686 27.3232C8.27686 28.4876 7.33186 29.4326 6.16748 29.4326C5.00311 29.4326 4.05811 28.4876 4.05811 27.3232C4.05811 26.1589 5.00311 25.2139 6.16748 25.2139ZM2.75873 19.3545H0.85373C2.22061 11.2282 7.94686 4.57574 15.5425 1.88699V3.88762C8.98748 6.45074 4.06186 12.2707 2.75873 19.3545ZM45.2312 19.3545H43.3262C42.0231 12.2707 37.0975 6.45074 30.5425 3.88762V1.88699C38.1381 4.57574 43.8644 11.2282 45.2312 19.3545ZM19.2925 13.7295H17.4175C17.4175 11.6595 19.0975 9.97949 21.1675 9.97949H24.9175C26.7231 9.97949 28.6675 11.4045 28.6675 13.7295H26.7925C26.7925 12.5689 25.8194 11.8545 24.9175 11.8545H21.1675C20.1325 11.8545 19.2925 12.6964 19.2925 13.7295ZM23.0425 0.604492C25.3712 0.604492 27.2612 2.49449 27.2612 4.82324C27.2612 7.15199 25.3712 9.04199 23.0425 9.04199C20.7137 9.04199 18.8237 7.15199 18.8237 4.82324C18.8237 2.49449 20.7137 0.604492 23.0425 0.604492ZM23.0425 2.71387C24.2069 2.71387 25.1519 3.65887 25.1519 4.82324C25.1519 5.98762 24.2069 6.93262 23.0425 6.93262C21.8781 6.93262 20.9331 5.98762 20.9331 4.82324C20.9331 3.65887 21.8781 2.71387 23.0425 2.71387Z" fill="#FFB606"/>
</svg>
