<svg width="30" height="30" viewBox="0 0 30 30" fill="none" xmlns="http://www.w3.org/2000/svg">
<path d="M23.75 0H6.25C2.79875 0 0 2.79875 0 6.25V23.75C0 27.2013 2.79875 30 6.25 30H23.75C27.2025 30 30 27.2013 30 23.75V6.25C30 2.79875 27.2025 0 23.75 0ZM23.5763 11.5463C23.8375 17.3175 19.5338 23.7525 11.9137 23.7525C9.59625 23.7525 7.44 23.0738 5.62375 21.9088C7.80125 22.165 9.97375 21.5612 11.6988 20.21C9.9025 20.1762 8.3875 18.99 7.86625 17.36C8.51 17.4825 9.1425 17.4462 9.71875 17.29C7.745 16.8937 6.38375 15.1162 6.4275 13.215C6.98 13.5225 7.61375 13.7075 8.285 13.7288C6.45875 12.5075 5.94125 10.095 7.015 8.25C9.03875 10.7325 12.0625 12.3663 15.4725 12.5375C14.8738 9.97125 16.8225 7.5 19.4712 7.5C20.65 7.5 21.7175 7.9975 22.465 8.79625C23.4 8.6125 24.2788 8.27125 25.0725 7.80125C24.765 8.76 24.115 9.56375 23.2687 10.0712C24.0987 9.97125 24.89 9.75125 25.625 9.425C25.0763 10.245 24.38 10.9675 23.5763 11.5463Z" fill="white"/>
</svg>
