<svg width="30" height="30" viewBox="0 0 30 30" fill="none" xmlns="http://www.w3.org/2000/svg">
<path d="M3.978 0H6.138L7.62 4.62755L8.994 0H11.175L8.6775 6.88132V11.5776H6.531V6.88132L3.978 0V0ZM13.869 2.96628C12.1905 2.96628 11.0775 3.89129 11.0775 5.26006V9.44635C11.0775 10.9514 12.021 11.7351 13.869 11.7351C15.402 11.7351 16.608 10.8814 16.608 9.44635V5.26006C16.608 3.92379 15.4125 2.96628 13.869 2.96628ZM14.6655 9.3751C14.6655 9.8401 14.3805 10.1826 13.8675 10.1826C13.341 10.1826 13.0365 9.82385 13.0365 9.3751V5.40131C13.0365 4.9338 13.2945 4.58755 13.83 4.58755C14.415 4.58755 14.6655 4.9238 14.6655 5.40131V9.3751ZM21.759 3.03753V9.5201C21.5265 9.7626 21.009 10.1601 20.6385 10.1601C20.232 10.1601 20.1315 9.9276 20.1315 9.5851V3.03753H18.2265V10.1751C18.2265 11.0189 18.5355 11.7001 19.557 11.7001C20.133 11.7001 20.934 11.4501 21.759 10.6339V11.5764H23.664V3.03753H21.759ZM25.0635 20.3602C24.3915 20.3602 24.252 20.754 24.252 21.314V22.1377H25.8555V21.3127C25.857 20.7627 25.7175 20.3602 25.0635 20.3602ZM18.009 20.4102C17.883 20.464 17.7585 20.5465 17.634 20.6577V25.7265C17.7825 25.859 17.925 25.954 18.0645 26.0128C18.36 26.1378 18.792 26.1465 18.993 25.929C19.098 25.814 19.1505 25.6278 19.1505 25.3678V21.169C19.1505 20.894 19.086 20.6865 18.957 20.544C18.7365 20.3027 18.327 20.2765 18.009 20.4102ZM25.2495 13.9164C21.3435 13.6951 8.6505 13.6951 4.7505 13.9164C0.5295 14.1564 0.0315 16.2814 0 21.8752C0.0315 27.459 0.525 29.5941 4.7505 29.8341C8.6505 30.0553 21.3435 30.0553 25.2495 29.8341C29.4705 29.5941 29.9685 27.4678 30 21.8752C29.9685 16.2914 29.475 14.1564 25.2495 13.9164ZM6.7635 27.274H4.719V17.8489H2.604V16.2489H8.877V17.8489H6.762V27.274H6.7635ZM14.0325 27.274H12.2175V26.3765C11.883 26.7078 11.535 26.9603 11.1735 27.1328C10.1955 27.6003 8.853 27.589 8.853 25.939V19.1414H10.6665V25.3765C10.6665 25.704 10.761 25.924 11.1495 25.924C11.5035 25.924 11.9955 25.5453 12.216 25.3153V19.1414H14.031V27.274H14.0325ZM21.018 25.589C21.018 26.5953 20.5665 27.3778 19.359 27.3778C18.6945 27.3778 18.141 27.1753 17.6355 26.649V27.274H15.804V16.2489H17.6355V19.799C18.045 19.3827 18.6015 19.0389 19.2495 19.0389C20.5785 19.0389 21.0195 19.9752 21.0195 21.0777V25.589H21.018ZM27.7245 23.399H24.2535V24.934C24.2535 25.544 24.3165 26.0715 25.0455 26.0715C25.812 26.0715 25.857 25.6415 25.857 24.934V24.369H27.7245V24.9803C27.7245 26.5465 26.9175 27.4965 25.005 27.4965C23.2725 27.4965 22.386 26.444 22.386 24.9803V21.329C22.386 19.9177 23.505 18.9364 25.1415 18.9364C26.883 18.9364 27.723 19.859 27.723 21.329V23.399H27.7245Z" fill="white"/>
</svg>
