<svg width="1083" height="631" viewBox="0 0 1083 631" fill="none" xmlns="http://www.w3.org/2000/svg">
<path d="M349.768 615.209C519.665 615.209 657.394 477.49 657.394 307.604C657.394 137.719 519.665 0 349.768 0C179.871 0 42.1416 137.719 42.1416 307.604C42.1416 477.49 179.871 615.209 349.768 615.209Z" fill="#F2F2F2"/>
<path d="M1083 545.672C1083 546.42 1082.94 547.167 1082.82 547.906C1075.3 594.004 835.817 631 541.5 631C247.183 631 7.7011 594.004 0.179093 547.906C0.0615058 547.167 0.00162829 546.42 0 545.672C0 545.462 -3.53607e-06 545.24 0.0210665 545.03C0.0210665 544.914 0.0316038 544.809 0.0316038 544.693C0.0403056 544.651 0.0438463 544.609 0.042141 544.566C0.0842811 544.092 0.147492 543.639 0.231772 543.176C3.66619 524.33 45.9011 507.012 114.79 493.138C171.131 481.793 245.308 472.744 330.684 467.055C395.474 462.736 466.712 460.345 541.5 460.345C601.676 460.345 659.555 461.893 713.621 464.738H713.642C724.957 465.338 736.103 465.995 747.08 466.707C822.227 471.574 888.913 479.022 942.642 488.345C975.69 494.086 1003.85 500.543 1026.07 507.538H1026.08C1060.28 518.315 1080.44 530.398 1082.77 543.176C1082.85 543.639 1082.92 544.092 1082.96 544.566C1082.96 544.609 1082.96 544.651 1082.97 544.693C1082.97 544.809 1082.98 544.914 1082.98 545.03C1083 545.24 1083 545.462 1083 545.672Z" fill="#3F3D56"/>
<path opacity="0.1" d="M527.804 627.839C623.807 627.839 701.632 616.52 701.632 602.557C701.632 588.594 623.807 577.275 527.804 577.275C431.802 577.275 353.977 588.594 353.977 602.557C353.977 616.52 431.802 627.839 527.804 627.839Z" fill="black"/>
<path opacity="0.1" d="M1026.07 507.538C1019.99 509.276 1013.14 510.888 1005.63 512.363C974.7 518.452 932.497 522.191 886.027 522.191C834.11 522.191 787.577 517.525 756.046 510.14C729.877 504.009 714.032 496.035 714.032 487.281C714.032 479.591 726.295 472.47 747.081 466.708C822.227 471.574 888.914 479.022 942.642 488.345C975.69 494.086 1003.85 500.543 1026.07 507.538Z" fill="black"/>
<path opacity="0.1" d="M560.463 495.898C560.463 511.836 460.465 524.762 337.121 524.762C213.777 524.762 113.778 511.836 113.778 495.898C113.805 494.892 114.16 493.923 114.79 493.138C171.131 481.793 245.308 472.744 330.684 467.055C332.822 467.045 334.968 467.041 337.121 467.045C460.465 467.045 560.463 479.96 560.463 495.898Z" fill="black"/>
<path d="M482.67 352.872H438.754V494.646H482.67V352.872Z" fill="#FFB606"/>
<path d="M338.375 286.375H294.459V494.646H338.375V286.375Z" fill="#FFB606"/>
<path d="M195.336 286.375H151.42V494.646H195.336V286.375Z" fill="#FFB606"/>
<path d="M266.856 286.375H222.94V428.15H266.856V286.375Z" fill="#FFB606"/>
<path d="M409.895 286.375H365.979V327.779H409.895V286.375Z" fill="#FFB606"/>
<path d="M409.895 352.872H365.979V494.646H409.895V352.872Z" fill="#8A8B8C"/>
<path d="M554.19 286.375H438.754V327.779H554.19V286.375Z" fill="#FFB606"/>
<path opacity="0.1" d="M793.726 537.601C793.726 588.943 722.157 573.062 634.528 573.062C546.9 573.062 476.394 588.943 476.394 537.601C476.394 486.26 547.953 475.094 635.582 475.094C723.211 475.094 793.726 486.26 793.726 537.601Z" fill="black"/>
<path d="M793.726 524.96C793.726 576.302 722.157 560.421 634.528 560.421C546.9 560.421 476.394 576.302 476.394 524.96C476.394 473.619 547.953 462.453 635.582 462.453C723.211 462.453 793.726 473.619 793.726 524.96Z" fill="#3F3D56"/>
<path d="M779.108 432.792L782.725 447.712C782.766 447.879 782.76 448.053 782.707 448.216L766.299 499.49C766.234 499.693 766.101 499.867 765.923 499.984C765.745 500.101 765.532 500.154 765.32 500.133C765.107 500.112 764.909 500.019 764.757 499.869C764.605 499.72 764.509 499.523 764.485 499.311L762.215 479.337C762.2 479.204 762.214 479.07 762.255 478.943L777.316 432.723C777.379 432.53 777.503 432.363 777.67 432.247C777.836 432.131 778.036 432.072 778.238 432.08C778.441 432.088 778.636 432.162 778.793 432.29C778.95 432.419 779.06 432.595 779.108 432.792Z" fill="#2F2E41"/>
<path d="M777.778 434.052L781.118 446.853L766.645 493.606L763.306 479.135L777.778 434.052Z" fill="#F2F2F2"/>
<path d="M704.86 503.625C705.417 505.294 762.749 503.068 763.306 502.512C763.791 501.815 764.202 501.068 764.53 500.285C765.054 499.172 765.532 498.059 765.532 498.059L763.306 480.037L706.53 478.022C706.53 478.022 705.111 493.295 704.821 500.285C704.723 501.397 704.736 502.516 704.86 503.625Z" fill="#2F2E41"/>
<path opacity="0.1" d="M756.07 482.475L757.182 498.059H732.134V482.475H756.07Z" fill="black"/>
<path opacity="0.1" d="M723.785 487.484L723.935 487.455L723.229 494.163H709.313V487.484H723.785Z" fill="black"/>
<path opacity="0.1" d="M704.86 503.625C705.417 505.294 762.749 503.068 763.306 502.511C763.791 501.814 764.202 501.068 764.53 500.285H704.821C704.723 501.397 704.736 502.516 704.86 503.625Z" fill="black"/>
<path d="M616.357 445.184H631.942L670.35 430.156C670.35 430.156 697.624 419.024 695.398 440.175C693.171 461.325 689.275 489.71 689.275 489.71C689.275 489.71 677.029 484.145 670.35 485.814C663.67 487.484 668.123 451.863 668.123 451.863C668.123 451.863 613.574 478.022 608.564 474.683C603.555 471.343 602.441 447.967 602.441 447.967L616.357 445.184Z" fill="#2F2E41"/>
<path opacity="0.1" d="M616.357 445.184H631.942L670.35 430.156C670.35 430.156 697.624 419.024 695.398 440.175C693.171 461.325 689.275 489.71 689.275 489.71C689.275 489.71 677.029 484.145 670.35 485.814C663.67 487.484 668.123 451.863 668.123 451.863C668.123 451.863 613.574 478.022 608.564 474.683C603.555 471.343 602.441 447.967 602.441 447.967L616.357 445.184Z" fill="black"/>
<path d="M640.912 396.379L659.773 423.477L703.747 460.211C703.747 460.211 744.38 469.673 738.814 476.352C733.248 483.031 699.294 469.673 699.294 469.673C699.294 469.673 648.641 432.939 646.971 430.156C645.301 427.373 626.933 401.213 626.933 401.213L640.912 396.379Z" fill="#A0616A"/>
<path opacity="0.1" d="M640.912 396.379L659.773 423.477L703.747 460.211C703.747 460.211 744.38 469.673 738.814 476.352C733.248 483.031 699.294 469.673 699.294 469.673C699.294 469.673 648.641 432.939 646.971 430.156C645.301 427.373 626.933 401.213 626.933 401.213L640.912 396.379Z" fill="black"/>
<path d="M638.065 366.705C651.899 366.705 663.113 355.492 663.113 341.659C663.113 327.826 651.899 316.613 638.065 316.613C624.232 316.613 613.017 327.826 613.017 341.659C613.017 355.492 624.232 366.705 638.065 366.705Z" fill="#A0616A"/>
<path d="M636.395 363.923C636.395 363.923 628.046 378.394 626.376 386.186C624.706 393.978 601.328 370.602 601.328 370.602L598.267 362.531C598.267 362.531 620.253 352.234 618.583 343.886C616.914 335.537 636.395 363.923 636.395 363.923Z" fill="#A0616A"/>
<path d="M629.716 374.498L641.961 398.431C641.961 398.431 639.178 410.119 634.725 411.232C630.272 412.345 611.347 396.761 611.347 396.761L629.716 374.498Z" fill="#D0CDE1"/>
<path d="M640.849 407.336L663.67 437.391L718.219 478.022C718.219 478.022 757.74 486.371 748.834 492.493C739.928 498.616 714.323 486.927 714.323 486.927C714.323 486.927 659.217 457.428 647.528 445.184C635.839 432.939 614.131 412.345 614.131 412.345L640.849 407.336Z" fill="#A0616A"/>
<path d="M610.234 454.089L616.914 464.664L656.778 452.124C661.096 450.728 665.666 450.287 670.172 450.83C674.677 451.374 679.011 452.889 682.874 455.272C689.832 459.655 694.284 466.612 684.265 476.909C664.227 497.503 650.868 486.371 650.868 486.371C650.868 486.371 583.516 518.096 572.384 502.512C561.251 486.927 560.695 479.135 560.695 479.135C560.695 479.135 603.555 452.419 610.234 454.089Z" fill="#2F2E41"/>
<path d="M693.728 490.823C693.728 490.823 711.54 502.511 690.388 508.077C669.236 513.643 653.651 505.851 653.651 505.851C653.651 505.851 635.282 505.851 635.282 496.389C635.282 486.927 641.405 485.814 641.405 485.814L660.33 488.597C660.33 488.597 683.152 482.474 693.728 490.823Z" fill="#D0CDE1"/>
<path d="M658.613 335.359C660.259 336.244 662.028 336.878 663.862 337.239C664.783 337.404 665.733 337.295 666.593 336.926C667.454 336.558 668.187 335.945 668.703 335.165C669.113 334.239 669.301 333.231 669.253 332.22C669.32 329.164 669.099 325.86 667.162 323.494C665.93 321.989 664.13 321.04 662.854 319.571C661.997 318.471 661.266 317.277 660.676 316.013C658.195 311.353 654.52 306.874 649.414 305.53C647.256 305.066 645.044 304.897 642.84 305.028L629.981 305.209C627.898 305.142 625.816 305.366 623.795 305.875C619.656 307.126 616.642 310.607 613.882 313.935C611.739 316.362 609.836 318.989 608.197 321.781C605.975 325.924 604.851 330.568 604.933 335.269C604.916 336.475 605.072 337.677 605.396 338.838C605.774 339.903 606.244 340.934 606.799 341.919C609.21 346.656 610.642 352.572 607.926 357.141C612.644 355.214 617.312 352.687 620.424 348.652C621.816 346.846 622.908 344.733 624.763 343.409C626.619 342.084 629.642 341.969 630.832 343.913C631.241 344.7 631.452 345.574 631.446 346.461C631.409 347.925 631.647 349.384 632.149 350.76C632.419 351.441 632.912 352.01 633.549 352.373C634.185 352.736 634.926 352.872 635.649 352.757C638.073 352.074 637.841 348.355 639.707 346.666C641.125 345.382 643.312 345.628 645.133 345.045C646.177 344.649 647.127 344.039 647.922 343.256C648.718 342.472 649.342 341.532 649.754 340.494C650.444 338.947 650.434 334.9 651.739 334.063C653.375 333.013 657.096 334.683 658.613 335.359Z" fill="#2F2E41"/>
<path d="M596.278 359.891C597.405 359.59 598.591 359.593 599.716 359.9C603.289 360.859 611.299 363.398 613.017 367.262C615.243 372.271 623.036 380.063 623.036 380.063C623.036 380.063 633.612 390.638 631.385 397.874C629.159 405.11 620.809 413.458 620.809 413.458C620.809 413.458 623.036 447.967 611.903 456.872C600.771 465.777 596.318 459.655 596.318 468.004C596.318 476.352 561.807 502.512 555.128 486.371C555.128 486.371 558.468 456.315 557.354 445.74C556.257 435.318 557.863 370.29 596.278 359.891Z" fill="#D0CDE1"/>
<path d="M614.131 373.941C614.131 373.941 648.085 398.987 641.962 409.562C641.962 409.562 621.367 419.581 616.914 419.024C612.461 418.467 595.206 398.987 590.753 397.317C586.3 395.648 584.073 365.592 614.131 373.941Z" fill="#D0CDE1"/>
<path d="M520.23 396.385C514.95 398.168 510.165 402.339 509.084 407.807C508.583 410.341 508.89 412.976 508.468 415.525C507.49 421.436 502.849 425.951 498.569 430.144C494.289 434.338 489.869 439.21 489.556 445.194C489.214 451.746 493.967 457.885 493.144 464.394C492.189 471.957 484.201 476.857 482.226 484.22C480.907 489.136 482.523 494.432 485.181 498.773C490.247 507.045 498.906 512.66 508.128 515.671C517.349 518.681 527.17 519.315 536.87 519.416C548.68 519.54 561.503 518.526 570.377 510.732C575.446 506.24 578.629 499.998 579.289 493.257C580.132 484.229 576.363 474.9 578.963 466.213C580.599 460.745 584.701 455.752 584.089 450.078C583.49 444.531 578.645 440.598 575.321 436.117C572.217 431.932 570.334 426.991 568.488 422.119L562.172 405.45C560.931 402.173 559.567 398.726 556.8 396.576C551.621 392.549 543.292 393.34 537.235 394.171C531.617 394.941 525.634 394.56 520.23 396.385Z" fill="#2F2E41"/>
<path d="M522.208 444.942C522.208 444.942 525.008 454.041 504.011 464.539C483.013 475.037 506.11 486.235 506.11 486.235L530.607 491.833C530.607 491.833 555.804 488.334 558.604 484.135C561.404 479.936 566.303 465.938 564.903 463.839C563.856 462.344 562.685 460.939 561.404 459.64C561.404 459.64 544.606 456.84 545.306 449.142C546.006 441.443 522.208 444.942 522.208 444.942Z" fill="#FFB9B9"/>
<path opacity="0.1" d="M522.208 444.942C522.208 444.942 525.008 454.041 504.011 464.539C483.013 475.037 506.11 486.235 506.11 486.235L530.607 491.833C530.607 491.833 555.804 488.334 558.604 484.135C561.404 479.936 566.303 465.938 564.903 463.839C563.856 462.344 562.685 460.939 561.404 459.64C561.404 459.64 544.606 456.84 545.306 449.142C546.006 441.443 522.208 444.942 522.208 444.942Z" fill="black"/>
<path d="M535.857 459.29C548.226 459.29 558.254 449.263 558.254 436.894C558.254 424.525 548.226 414.498 535.857 414.498C523.487 414.498 513.459 424.525 513.459 436.894C513.459 449.263 523.487 459.29 535.857 459.29Z" fill="#FFB9B9"/>
<path d="M533.407 484.134C533.407 484.134 506.433 482.162 505.922 463.552C505.922 463.552 496.312 462.439 493.512 465.238C490.712 468.038 481.613 470.137 481.613 477.136C481.613 484.134 497.011 505.13 497.011 505.13C497.011 505.13 505.41 533.125 501.911 538.024C498.411 542.923 497.711 555.521 497.711 555.521C497.711 555.521 532.707 552.721 538.306 555.521C543.906 558.32 566.303 558.32 567.703 555.521C569.103 552.721 566.303 517.728 566.303 517.728C566.303 517.728 572.602 509.329 571.202 499.531L588 479.935C588 479.935 581.701 461.039 571.902 461.039C571.902 461.039 558.604 457.54 558.254 459.289C557.904 461.039 564.903 480.635 533.407 484.134Z" fill="#FF6584"/>
<path d="M470.415 545.723C470.415 545.723 476.714 555.521 492.812 557.621C508.91 559.72 511.71 554.121 510.31 552.722C508.91 551.322 492.112 545.023 492.112 545.023L482.314 537.325L470.415 545.723Z" fill="#FFB9B9"/>
<path d="M585.201 537.325L567.003 547.823C567.003 547.823 543.206 546.423 552.305 553.422C561.404 560.42 578.202 557.621 578.202 557.621L594.3 549.922L585.201 537.325Z" fill="#FFB9B9"/>
<path d="M494.212 555.521C494.212 555.521 477.414 596.813 497.711 603.112C518.009 609.411 574.002 608.011 586.6 599.613C599.199 591.215 602.699 580.017 600.599 576.517C598.499 573.018 584.501 563.22 574.702 562.52C564.903 561.82 494.212 555.521 494.212 555.521Z" fill="#2F2E41"/>
<path opacity="0.05" d="M494.212 555.521C494.212 555.521 477.414 596.813 497.711 603.112C518.009 609.411 574.002 608.011 586.6 599.613C599.199 591.215 602.699 580.017 600.599 576.517C598.499 573.018 584.501 563.22 574.702 562.52C564.903 561.82 494.212 555.521 494.212 555.521Z" fill="black"/>
<path d="M573.503 558.087C573.503 558.087 632.795 536.625 632.095 562.52C631.395 588.415 594.3 595.414 594.3 595.414L583.101 596.813L521.509 598.913C521.509 598.913 523.608 587.715 518.709 586.315C518.709 586.315 534.807 582.116 535.507 581.416C536.207 580.716 576.102 566.719 578.902 566.019C581.701 565.319 590.1 559.72 596.4 560.42C596.4 560.42 603.399 554.821 611.098 556.221L589.4 557.621L573.503 558.087Z" fill="#2F2E41"/>
<path opacity="0.1" d="M573.503 558.087C573.503 558.087 632.795 536.625 632.095 562.52C631.395 588.415 594.3 595.414 594.3 595.414L583.101 596.813L521.509 598.913C521.509 598.913 523.608 587.715 518.709 586.315C518.709 586.315 534.807 582.116 535.507 581.416C536.207 580.716 576.102 566.719 578.902 566.019C581.701 565.319 590.1 559.72 596.4 560.42C596.4 560.42 603.399 554.821 611.098 556.221L589.4 557.621L573.503 558.087Z" fill="black"/>
<path d="M563.027 561.562L570.503 578.617L615.997 562.52L619.497 553.422L607.598 551.322L583.677 555.522L573.302 558.321L563.027 561.562Z" fill="#2F2E41"/>
<path opacity="0.1" d="M563.027 561.562L570.503 578.617L615.997 562.52L619.497 553.422L607.598 551.322L583.677 555.522L573.302 558.321L563.027 561.562Z" fill="black"/>
<path d="M466.215 582.116C466.215 582.116 479.514 598.913 494.912 603.112C510.31 607.311 518.709 601.712 518.709 601.712L513.809 582.116L511.71 569.518L502.611 563.219L484.413 554.821L462.716 547.822C462.716 547.822 453.617 546.423 453.617 547.822C453.617 549.222 462.016 570.218 462.016 570.218L466.215 582.116Z" fill="#2F2E41"/>
<path d="M482.313 591.214C482.313 591.214 485.113 611.51 488.613 612.91C492.112 614.31 502.611 611.51 505.411 610.111C508.21 608.711 517.727 602.253 517.727 602.253C517.727 602.253 484.413 589.815 482.313 591.214Z" fill="#F2F2F2"/>
<path d="M546.006 593.314L559.305 595.413L557.904 611.51L539.355 607.005L546.006 593.314Z" fill="#FFB9B9"/>
<path d="M554.338 597.793C554.338 597.793 548.105 605.211 554.404 609.411L558.604 612.91C558.604 612.91 572.602 615.709 574.002 617.109C575.402 618.509 581.001 615.009 581.001 615.009C581.001 615.009 581.701 594.014 581.001 592.614C580.301 591.214 571.902 589.814 571.202 591.214C570.503 592.614 562.104 594.713 557.204 593.314L554.338 597.793Z" fill="#F2F2F2"/>
<path d="M498.411 560.42C498.411 560.42 449.417 531.726 441.718 542.224C434.019 552.722 425.62 567.419 448.017 578.617C470.414 589.814 540.406 612.91 540.406 612.91C540.406 612.91 550.905 596.813 550.905 592.614C550.905 592.614 513.809 575.817 507.51 574.417C501.211 573.018 476.014 556.921 472.514 555.521C469.015 554.121 464.115 549.922 464.115 549.922L498.411 560.42Z" fill="#2F2E41"/>
<path d="M484.413 473.637L481.613 475.736C481.613 475.736 475.314 491.833 474.614 500.931C473.914 510.03 465.515 538.024 466.215 541.524C466.915 545.023 467.615 547.822 471.815 551.322C471.815 551.322 477.414 538.724 487.213 540.824L499.111 497.432L484.413 473.637Z" fill="#FF6584"/>
<path d="M582.401 473.637L588 479.935C588 479.935 591.5 488.334 591.5 490.433C591.5 492.533 598.499 523.327 599.199 524.727C599.899 526.127 602.698 543.623 599.199 547.822C595.699 552.022 589.4 554.821 589.4 554.821C589.4 554.821 593.599 540.124 580.301 539.424L581.701 533.825L569.103 491.833L582.401 473.637Z" fill="#FF6584"/>
<path d="M485.813 521.822V558.687C485.813 561.014 486.729 563.249 488.363 564.907C489.997 566.565 492.218 567.514 494.545 567.548L571.646 568.691C573.96 568.725 576.196 567.853 577.876 566.26C579.555 564.668 580.545 562.482 580.634 560.169L582.052 523.3C582.098 522.12 581.907 520.942 581.49 519.836C581.073 518.73 580.44 517.718 579.627 516.861C578.813 516.003 577.837 515.317 576.754 514.843C575.672 514.368 574.506 514.115 573.324 514.098L494.805 512.96C493.63 512.943 492.464 513.16 491.374 513.597C490.284 514.035 489.291 514.685 488.455 515.51C487.618 516.334 486.954 517.317 486.5 518.401C486.047 519.484 485.813 520.647 485.813 521.822Z" fill="#3F3D56"/>
<path d="M537.17 436.176C550.485 436.176 561.279 430.364 561.279 423.195C561.279 416.026 550.485 410.215 537.17 410.215C523.856 410.215 513.062 416.026 513.062 423.195C513.062 430.364 523.856 436.176 537.17 436.176Z" fill="#2F2E41"/>
<path d="M533.057 546.773C536.15 546.773 538.657 544.266 538.657 541.174C538.657 538.082 536.15 535.575 533.057 535.575C529.965 535.575 527.458 538.082 527.458 541.174C527.458 544.266 529.965 546.773 533.057 546.773Z" fill="#F2F2F2"/>
</svg>
