<svg width="257" height="236" viewBox="0 0 257 236" fill="none" xmlns="http://www.w3.org/2000/svg">
<path d="M203.426 6.96311C205.1 6.29508 205.913 4.37254 205.242 2.66898C204.572 0.965422 202.672 0.12595 200.999 0.793975C199.326 1.462 198.513 3.38455 199.183 5.08811C199.853 6.79167 201.753 7.63113 203.426 6.96311Z" fill="#F2F2F2"/>
<path d="M49.723 36.0813C51.3961 35.4132 52.2092 33.4907 51.5389 31.7871C50.8686 30.0836 48.9689 29.2441 47.2957 29.9121C45.6225 30.5802 44.8095 32.5027 45.4797 34.2063C46.15 35.9098 48.0498 36.7493 49.723 36.0813Z" fill="#F2F2F2"/>
<path d="M171.518 228.111C228.406 205.398 256.049 140.031 233.26 82.1104C210.471 24.1894 145.88 -4.35251 88.9909 18.3603C32.1022 41.0731 4.45909 106.44 27.2482 164.361C50.0373 222.282 114.629 250.824 171.518 228.111Z" fill="#EF950D"/>
<path opacity="0.2" d="M114.989 97.803C123.355 94.4629 127.42 84.8501 124.069 76.3323C120.717 67.8145 111.219 63.6172 102.853 66.9573C94.4866 70.2974 90.4214 79.9102 93.7727 88.428C97.1241 96.9458 106.623 101.143 114.989 97.803Z" fill="black"/>
<path opacity="0.2" d="M160.096 212.446C174.597 206.656 181.643 189.994 175.834 175.23C170.025 160.466 153.561 153.191 139.06 158.98C124.559 164.77 117.512 181.432 123.321 196.196C129.13 210.96 145.595 218.236 160.096 212.446Z" fill="black"/>
<path opacity="0.2" d="M135.991 48.8515C137.918 48.0821 138.854 45.8677 138.082 43.9056C137.31 41.9435 135.122 40.9766 133.195 41.746C131.268 42.5154 130.331 44.7298 131.103 46.6919C131.875 48.654 134.064 49.6209 135.991 48.8515Z" fill="black"/>
<path opacity="0.2" d="M124.806 136.118C127.316 135.116 128.536 132.232 127.53 129.677C126.525 127.121 123.675 125.862 121.165 126.864C118.656 127.866 117.436 130.75 118.442 133.305C119.447 135.861 122.297 137.12 124.806 136.118Z" fill="black"/>
<path opacity="0.2" d="M199.367 76.0224C201.294 75.253 202.231 73.0386 201.459 71.0765C200.687 69.1144 198.499 68.1475 196.571 68.9169C194.644 69.6863 193.708 71.9007 194.48 73.8628C195.252 75.825 197.44 76.7919 199.367 76.0224Z" fill="black"/>
<path opacity="0.2" d="M185.428 125.341C188.212 124.23 189.564 121.031 188.449 118.197C187.334 115.363 184.174 113.966 181.39 115.078C178.606 116.189 177.254 119.387 178.369 122.222C179.484 125.056 182.644 126.452 185.428 125.341Z" fill="black"/>
<path opacity="0.2" d="M54.4071 110.022C57.1453 108.937 58.4759 105.813 57.379 103.046C56.282 100.278 53.173 98.9142 50.4348 99.9994C47.6966 101.085 46.366 104.208 47.4629 106.976C48.5599 109.743 51.6688 111.107 54.4071 110.022Z" fill="black"/>
<path d="M176.356 174.777C165.518 179.087 154.445 182.771 143.188 185.813C109.346 194.993 76.0132 198.068 49.3292 194.472C22.3186 190.83 5.26382 180.749 1.30593 166.085C-1.43622 155.925 4.37214 143.532 19.063 128.2C19.2636 127.991 19.5382 127.873 19.8264 127.87C20.1146 127.867 20.3929 127.981 20.6003 128.186C20.8076 128.391 20.927 128.67 20.9322 128.963C20.9375 129.255 20.8282 129.537 20.6283 129.746C6.51683 144.473 0.882815 156.174 3.40409 165.515C7.11361 179.261 23.5197 188.766 49.6003 192.282C76.0072 195.842 109.039 192.786 142.612 183.678C176.185 174.571 206.247 160.51 227.261 144.086C248.015 127.865 257.401 111.362 253.691 97.6172C251.182 88.3184 242.652 80.8023 229.024 75.8805C228.751 75.7821 228.528 75.5781 228.402 75.3134C228.276 75.0487 228.259 74.7449 228.354 74.469C228.449 74.193 228.649 73.9675 228.908 73.842C229.168 73.7164 229.467 73.7012 229.74 73.7996C244.074 78.9767 253.082 87.0159 255.79 97.0478C259.747 111.712 250.09 129.04 228.596 145.839C214.601 156.778 196.655 166.673 176.356 174.777Z" fill="white"/>
</svg>
