<svg width="832" height="642" viewBox="0 0 832 642" fill="none" xmlns="http://www.w3.org/2000/svg">
<g clip-path="url(#clip0)">
<path d="M390.149 622.465C390.149 632.277 302.702 633.322 195.075 640.231C87.5477 647.133 0 632.277 0 622.465C0 612.653 87.951 592.911 195.075 604.699C302.702 616.543 390.149 612.653 390.149 622.465Z" fill="#E6E6E6"/>
<path d="M801.481 0.00107032H570.259C559.102 0.00105787 548.276 3.90002 539.562 11.057C530.848 18.2141 524.764 28.2032 522.31 39.3826L405.478 571.634C404.204 577.439 404.181 583.461 405.412 589.276C406.643 595.091 409.098 600.56 412.604 605.298C416.11 610.036 420.583 613.928 425.709 616.703C430.835 619.478 436.49 621.068 442.277 621.36L679.974 633.389C692.702 634.033 705.224 629.899 715.202 621.758C725.18 613.616 731.933 602.024 734.202 589.145L800.476 212.837L805.406 214.284L818.087 142.96L813.012 141.657L831.511 36.6158C832.304 32.1167 832.12 27.4934 830.973 23.0756C829.826 18.6578 827.745 14.5542 824.877 11.0575C822.009 7.56066 818.425 4.75677 814.381 2.84565C810.337 0.934534 805.933 -0.0367435 801.481 0.00106279L801.481 0.00107032Z" fill="#3F3D56"/>
<path d="M600.699 11.475H573.709C565.958 11.475 558.44 14.1977 552.403 19.1912C546.366 24.1846 542.173 31.1485 540.521 38.9266L428.379 566.835C427.733 569.875 427.734 573.021 428.381 576.06C429.028 579.1 430.305 581.96 432.127 584.445C433.949 586.93 436.271 588.983 438.936 590.462C441.6 591.941 444.544 592.812 447.567 593.016L684.495 608.964C691.179 609.414 697.791 607.321 703.068 603.083C708.345 598.846 711.918 592.761 713.105 585.99L808.797 40.3446C809.417 36.813 809.274 33.1847 808.379 29.716C807.484 26.2472 805.859 23.0225 803.618 20.2693C801.377 17.5161 798.575 15.3016 795.41 13.7821C792.245 12.2626 788.793 11.475 785.3 11.475H759.695C757.217 11.475 754.808 12.3141 752.841 13.8624C750.874 15.4106 749.459 17.5817 748.814 20.0395C748.246 22.2093 746.996 24.126 745.26 25.4929C743.523 26.8597 741.396 27.6005 739.209 27.6005H617.654C613.37 27.6005 609.243 25.9396 606.1 22.9499C602.957 19.9603 601.028 15.8621 600.699 11.475V11.475Z" fill="white"/>
<path d="M347.088 283.014L367.978 325.491L430.441 354.657C437.112 366.236 458.309 367.122 459.85 359.634C461.58 351.235 434.11 337.715 434.11 337.715L381.865 301.42L377.293 270.174L347.088 283.014Z" fill="#EA9B9B"/>
<path d="M349.552 568.071L345.699 599.726L368.044 601.31L370.356 568.071H349.552Z" fill="#EA9B9B"/>
<path d="M352.634 594.978C350.636 592.809 348.794 590.494 347.12 588.052C343.918 583.501 341.076 606.849 341.076 606.849C341.076 606.849 337.994 616.346 338.765 621.094C339.535 625.842 357.257 625.842 360.339 625.051C363.421 624.259 378.832 625.051 378.832 625.051H401.947C421.981 615.554 401.947 609.223 401.947 609.223C395.783 608.432 374.979 588.647 374.979 588.647L370.356 579.942C367.274 579.15 364.192 591.021 364.192 591.021L352.634 594.978Z" fill="#2F2E41"/>
<path d="M291.764 568.466L287.91 600.122L310.255 601.705L312.567 568.466H291.764Z" fill="#EA9B9B"/>
<path d="M294.845 595.374C292.848 593.204 291.005 590.89 289.332 588.448C286.129 583.897 283.288 607.245 283.288 607.245C283.288 607.245 280.206 615.95 280.976 620.698C281.747 625.447 299.469 625.447 302.551 624.655C305.633 623.864 321.043 625.447 321.043 625.447H344.159C364.192 615.95 344.159 609.619 344.159 609.619C337.995 608.827 317.191 589.043 317.191 589.043L312.567 580.337C309.485 579.546 306.403 591.417 306.403 591.417L294.845 595.374Z" fill="#2F2E41"/>
<path d="M317.19 364.288C314.108 368.245 315.649 381.699 315.649 381.699C315.649 381.699 310.256 425.225 312.567 429.182C314.879 433.139 311.026 436.305 308.715 441.845C306.403 447.384 304.092 460.838 304.092 460.838C290.993 471.917 291.763 522.566 291.763 522.566L287.14 567.675C288.681 572.424 310.256 573.215 313.338 572.424C316.42 571.632 325.666 500.407 325.666 500.407L346.47 460.046C346.47 460.046 344.929 567.675 344.929 572.424C344.929 577.172 365.733 574.798 370.356 574.798C374.979 574.798 374.979 495.659 374.979 495.659L379.602 475.083L404.259 380.907V369.828L400.406 364.288C400.406 364.288 320.272 360.331 317.19 364.288Z" fill="#2F2E41"/>
<path d="M351.093 184.643C364.285 184.643 374.979 173.659 374.979 160.11C374.979 146.56 364.285 135.577 351.093 135.577C337.901 135.577 327.207 146.56 327.207 160.11C327.207 173.659 337.901 184.643 351.093 184.643Z" fill="#EA9B9B"/>
<path d="M363.036 171.585C358.194 182.658 361.061 198.125 370.741 215.111L331.445 196.118L337.609 190.578L336.068 174.75L363.036 171.585Z" fill="#EA9B9B"/>
<path d="M363.036 196.909C368.182 200.052 371.261 205.825 373.028 211.7C376.299 222.576 378.268 233.821 378.892 245.187L380.758 279.214L403.874 369.432C383.84 386.843 372.283 382.886 345.315 368.641C318.346 354.396 315.264 373.389 315.264 373.389C315.264 373.389 312.953 372.598 315.264 370.224C317.576 367.849 315.264 370.224 312.953 367.849C310.641 365.475 312.953 367.849 313.723 365.475C314.494 363.101 313.723 364.684 312.953 363.892C312.182 363.101 316.035 355.979 316.035 355.979L309.871 296.624L302.166 212.737C311.412 200.866 337.609 190.578 337.609 190.578L361.495 207.989C369.201 211.154 363.036 198.492 363.036 198.492L363.036 196.909Z" fill="#FFB606"/>
<path d="M289.452 262.99L286.37 310.474L325.666 368.245C325.666 381.699 332.601 384.864 332.601 384.864C335.227 380.559 337.545 376.062 339.535 371.411C343.388 362.705 337.224 355.583 337.224 355.583L310.256 297.02L321.813 267.739L289.452 262.99Z" fill="#EA9B9B"/>
<path d="M302.55 213.133C289.452 217.881 287.14 269.321 287.14 269.321C302.551 260.616 321.043 274.861 321.043 274.861C321.043 274.861 324.895 261.408 329.519 243.997C330.915 239.1 331.081 233.919 330.004 228.938C328.926 223.956 326.638 219.336 323.354 215.507C323.354 215.507 315.649 208.384 302.55 213.133Z" fill="#FFB606"/>
<path d="M329.134 167.628C332.174 165.129 336.323 169.671 336.323 169.671L338.755 147.184C338.755 147.184 353.959 149.058 363.69 146.559C373.421 144.061 374.941 155.617 374.941 155.617C375.443 150.95 375.544 146.247 375.245 141.562C374.637 135.941 366.731 130.319 352.743 126.571C338.755 122.823 331.457 139.064 331.457 139.064C321.727 144.061 326.093 170.126 329.134 167.628Z" fill="#2F2E41"/>
<path d="M735.156 380.529C735.62 380.546 736.075 380.393 736.439 380.097C736.803 379.801 737.052 379.38 737.14 378.912L790.267 81.9107C790.318 81.628 790.307 81.3373 790.237 81.059C790.167 80.7808 790.038 80.5216 789.861 80.2996C789.683 80.0776 789.46 79.8983 789.207 79.774C788.955 79.6497 788.679 79.5835 788.399 79.5801L546.693 76.688H546.671C546.235 76.6897 545.812 76.843 545.471 77.123C545.131 77.4031 544.893 77.7933 544.795 78.2302L482.166 365.592C482.105 365.872 482.104 366.163 482.164 366.444C482.224 366.725 482.343 366.99 482.513 367.218C482.682 367.447 482.899 367.635 483.147 367.769C483.395 367.903 483.668 367.98 483.948 367.994L735.156 380.529Z" fill="#E6E6E6"/>
<path d="M524.809 399.5C524.592 399.5 524.382 399.576 524.212 399.714C524.042 399.853 523.923 400.046 523.874 400.263L521.642 410.09C521.611 410.229 521.609 410.373 521.637 410.513C521.665 410.653 521.722 410.785 521.805 410.9C521.887 411.015 521.993 411.11 522.115 411.179C522.236 411.248 522.371 411.289 522.51 411.299L648.617 420.504C648.85 420.52 649.082 420.447 649.268 420.301C649.454 420.155 649.582 419.944 649.628 419.708L651.775 408.34C651.801 408.202 651.798 408.059 651.766 407.923C651.735 407.786 651.675 407.658 651.591 407.547C651.507 407.436 651.401 407.344 651.28 407.279C651.159 407.213 651.026 407.175 650.889 407.167L524.867 399.502C524.848 399.501 524.828 399.5 524.809 399.5Z" fill="#E6E6E6"/>
<path d="M678.02 457.015C678.248 457.033 678.474 456.968 678.658 456.831C678.843 456.694 678.975 456.495 679.03 456.267L681.763 444.875C681.796 444.735 681.8 444.589 681.772 444.448C681.745 444.307 681.688 444.173 681.606 444.057C681.523 443.941 681.417 443.844 681.294 443.774C681.172 443.705 681.036 443.664 680.896 443.653L519.853 432.085C519.634 432.067 519.416 432.128 519.236 432.256C519.056 432.384 518.924 432.572 518.864 432.789L516.024 442.634C515.983 442.775 515.974 442.923 515.996 443.068C516.018 443.213 516.072 443.351 516.153 443.472C516.234 443.594 516.34 443.695 516.464 443.768C516.588 443.842 516.726 443.886 516.868 443.897L678.02 457.015Z" fill="#E6E6E6"/>
<path d="M669.372 493.534C669.599 493.553 669.826 493.488 670.011 493.351C670.196 493.214 670.327 493.014 670.382 492.786L673.114 481.393C673.148 481.253 673.151 481.108 673.124 480.967C673.097 480.825 673.04 480.692 672.957 480.576C672.875 480.459 672.768 480.363 672.646 480.293C672.523 480.223 672.387 480.182 672.247 480.172L511.204 468.604C510.986 468.586 510.768 468.646 510.588 468.775C510.407 468.903 510.276 469.091 510.215 469.307L507.376 479.152C507.335 479.293 507.325 479.441 507.348 479.587C507.37 479.732 507.423 479.87 507.504 479.991C507.585 480.112 507.691 480.213 507.815 480.287C507.939 480.36 508.077 480.404 508.22 480.416L669.372 493.534Z" fill="#E6E6E6"/>
<path d="M595.201 556.183C595.431 556.207 595.661 556.145 595.849 556.009C596.037 555.872 596.171 555.669 596.224 555.439L602.002 531.701C602.036 531.562 602.04 531.417 602.014 531.277C601.988 531.136 601.933 531.003 601.852 530.887C601.771 530.77 601.666 530.673 601.545 530.602C601.424 530.532 601.289 530.489 601.15 530.477L502.252 521.933C502.021 521.917 501.792 521.985 501.606 522.126C501.419 522.267 501.287 522.471 501.234 522.702L496.305 545.485C496.275 545.622 496.274 545.763 496.302 545.9C496.33 546.037 496.386 546.167 496.466 546.28C496.546 546.393 496.649 546.487 496.767 546.557C496.886 546.626 497.017 546.669 497.153 546.682L595.201 556.183Z" fill="#FFB606"/>
<g clip-path="url(#clip1)">
<path opacity="0.3" d="M755.209 186.328C763.93 186.328 771 179.263 771 170.548C771 161.833 763.93 154.768 755.209 154.768C746.488 154.768 739.418 161.833 739.418 170.548C739.418 179.263 746.488 186.328 755.209 186.328Z" fill="#CCCCCC"/>
<path d="M755.209 179.48C760.146 179.48 764.147 175.481 764.147 170.548C764.147 165.615 760.146 161.616 755.209 161.616C750.273 161.616 746.271 165.615 746.271 170.548C746.271 175.481 750.273 179.48 755.209 179.48Z" fill="#FFB606"/>
<path opacity="0.3" d="M744.781 142.56C753.502 142.56 760.572 135.495 760.572 126.78C760.572 118.065 753.502 111 744.781 111C736.06 111 728.991 118.065 728.991 126.78C728.991 135.495 736.06 142.56 744.781 142.56Z" fill="#CCCCCC"/>
<path d="M744.781 135.712C749.718 135.712 753.72 131.713 753.72 126.78C753.72 121.847 749.718 117.848 744.781 117.848C739.845 117.848 735.843 121.847 735.843 126.78C735.843 131.713 739.845 135.712 744.781 135.712Z" fill="#FFB606"/>
<path opacity="0.3" d="M497.791 202.108C506.512 202.108 513.581 195.043 513.581 186.328C513.581 177.613 506.512 170.548 497.791 170.548C489.07 170.548 482 177.613 482 186.328C482 195.043 489.07 202.108 497.791 202.108Z" fill="#CCCCCC"/>
<path d="M497.791 195.26C502.727 195.26 506.729 191.261 506.729 186.328C506.729 181.395 502.727 177.396 497.791 177.396C492.854 177.396 488.853 181.395 488.853 186.328C488.853 191.261 492.854 195.26 497.791 195.26Z" fill="#FFB606"/>
<path opacity="0.3" d="M511.794 324.776C520.515 324.776 527.585 317.711 527.585 308.996C527.585 300.281 520.515 293.216 511.794 293.216C503.073 293.216 496.003 300.281 496.003 308.996C496.003 317.711 503.073 324.776 511.794 324.776Z" fill="#CCCCCC"/>
<path d="M511.794 317.928C516.73 317.928 520.732 313.929 520.732 308.996C520.732 304.063 516.73 300.064 511.794 300.064C506.857 300.064 502.855 304.063 502.855 308.996C502.855 313.929 506.857 317.928 511.794 317.928Z" fill="#FFB606"/>
<path opacity="0.3" d="M533.245 156.554C541.966 156.554 549.036 149.489 549.036 140.774C549.036 132.059 541.966 124.994 533.245 124.994C524.524 124.994 517.455 132.059 517.455 140.774C517.455 149.489 524.524 156.554 533.245 156.554Z" fill="#CCCCCC"/>
<path d="M533.245 149.706C538.182 149.706 542.183 145.707 542.183 140.774C542.183 135.841 538.182 131.842 533.245 131.842C528.309 131.842 524.307 135.841 524.307 140.774C524.307 145.707 528.309 149.706 533.245 149.706Z" fill="#FFB606"/>
<path d="M740.611 239.325C740.611 292.424 702.501 336.629 652.123 346.115C651.926 346.154 651.727 346.19 651.527 346.225C648.396 346.8 645.218 347.236 641.993 347.533C641.793 347.553 641.597 347.571 641.397 347.586C638.257 347.86 635.079 347.998 631.863 348C631.664 348 631.467 348 631.267 347.997C628.055 347.982 624.877 347.827 621.733 347.533C621.534 347.518 621.337 347.497 621.137 347.476C617.917 347.163 614.739 346.71 611.603 346.115C611.404 346.08 611.204 346.041 611.007 346.002C560.924 336.281 523.116 292.216 523.116 239.325C523.116 179.307 571.805 130.651 631.863 130.651C691.922 130.651 740.611 179.307 740.611 239.325Z" fill="#3F3D56"/>
<path d="M652.421 192.729H651.825V281.009H652.421V192.729Z" fill="#FFB606"/>
<path d="M652.421 154.887H651.825V180.931H652.421V154.887Z" fill="#FFB606"/>
<path d="M611.603 152.17H611.007V281.009H611.603V152.17Z" fill="#FFB606"/>
<path d="M621.733 140.774H621.137V169.79H621.733V140.774Z" fill="#FFB606"/>
<path d="M621.733 183.648H621.137V271.969H621.733V183.648Z" fill="#FFB606"/>
<path d="M621.733 285.698V347.533C621.533 347.518 621.337 347.497 621.137 347.476V285.698H621.733Z" fill="#FFB606"/>
<path d="M631.863 131.246H631.267V213.228H631.863V131.246Z" fill="#FFB606"/>
<path d="M631.863 224.593V348C631.663 348 631.467 348 631.267 347.997V224.593H631.863Z" fill="#FFB606"/>
<path d="M641.993 140.774H641.397V254.51H641.993V140.774Z" fill="#FFB606"/>
<path d="M641.993 266.717H641.397V330.485H641.993V266.717Z" fill="#FFB606"/>
<path d="M641.993 343.989V347.533C641.793 347.553 641.597 347.571 641.397 347.586V343.989H641.993Z" fill="#FFB606"/>
<path d="M652.123 296.491V346.115C651.926 346.154 651.726 346.19 651.527 346.225V296.491H652.123Z" fill="#FFB606"/>
<path d="M611.603 296.491V346.115C611.404 346.08 611.204 346.041 611.007 346.002V296.491H611.603Z" fill="#FFB606"/>
<path d="M601.473 163.7H600.877V182.282H601.473V163.7Z" fill="#FFB606"/>
<path d="M601.473 196.235H600.877V281.009H601.473V196.235Z" fill="#FFB606"/>
<path d="M591.343 170.548H590.748V281.009H591.343V170.548Z" fill="#FFB606"/>
<path d="M581.214 179.48H580.618V215.478H581.214V179.48Z" fill="#FFB606"/>
<path d="M581.214 227.406H580.618V281.009H581.214V227.406Z" fill="#FFB606"/>
<path d="M571.084 189.008H570.488V249.012H571.084V189.008Z" fill="#FFB606"/>
<path d="M571.084 260.167H570.488V281.009H571.084V260.167Z" fill="#FFB606"/>
<path d="M560.954 197.94H560.358V218.066H560.954V197.94Z" fill="#FFB606"/>
<path d="M560.954 231.232H560.358V281.009H560.954V231.232Z" fill="#FFB606"/>
<path d="M550.824 202.704H550.228V281.009H550.824V202.704Z" fill="#FFB606"/>
<path d="M540.694 224.141H540.098V250.025H540.694V224.141Z" fill="#FFB606"/>
<path d="M540.694 261.841H540.098V281.009H540.694V261.841Z" fill="#FFB606"/>
<path d="M658.204 163.7H657.896V275.947H658.204V163.7Z" fill="#FFB606"/>
<path d="M672.382 170.548H671.787V188.246H672.382V170.548Z" fill="#FFB606"/>
<path d="M672.382 200.061H671.787V281.009H672.382V200.061Z" fill="#FFB606"/>
<path d="M682.512 187.519H681.917V197.94H682.512V187.519Z" fill="#FFB606"/>
<path d="M682.512 209.627H681.917V261.391H682.512V209.627Z" fill="#FFB606"/>
<path d="M682.512 271.969H681.917V281.009H682.512V271.969Z" fill="#FFB606"/>
<path d="M692.642 189.008H692.046V281.009H692.642V189.008Z" fill="#FFB606"/>
<path d="M702.772 197.94H702.176V227.406H702.772V197.94Z" fill="#FFB606"/>
<path d="M702.772 238.547H702.176V281.009H702.772V238.547Z" fill="#FFB606"/>
<path d="M712.902 202.704H712.306V281.009H712.902V202.704Z" fill="#FFB606"/>
<path d="M611.305 296.789C610.716 296.789 610.14 296.614 609.65 296.287C609.16 295.96 608.778 295.495 608.552 294.951C608.327 294.407 608.268 293.808 608.383 293.231C608.498 292.653 608.782 292.123 609.198 291.706C609.615 291.29 610.146 291.006 610.724 290.891C611.302 290.776 611.901 290.835 612.445 291.061C612.99 291.286 613.455 291.668 613.782 292.157C614.11 292.647 614.284 293.223 614.284 293.812C614.284 294.601 613.969 295.358 613.411 295.916C612.852 296.474 612.095 296.788 611.305 296.789ZM611.305 291.43C610.834 291.43 610.373 291.569 609.981 291.831C609.589 292.093 609.283 292.465 609.103 292.9C608.923 293.335 608.875 293.814 608.967 294.276C609.059 294.738 609.286 295.163 609.62 295.496C609.953 295.829 610.378 296.056 610.84 296.148C611.302 296.24 611.782 296.192 612.217 296.012C612.653 295.832 613.025 295.527 613.287 295.135C613.549 294.743 613.689 294.283 613.689 293.812C613.688 293.18 613.437 292.575 612.99 292.128C612.543 291.682 611.937 291.43 611.305 291.43Z" fill="#FFB606"/>
<path d="M621.435 281.307C620.846 281.307 620.27 281.132 619.78 280.805C619.29 280.478 618.908 280.013 618.682 279.469C618.457 278.924 618.398 278.326 618.513 277.748C618.628 277.171 618.912 276.64 619.328 276.224C619.745 275.807 620.276 275.524 620.854 275.409C621.432 275.294 622.031 275.353 622.575 275.578C623.12 275.804 623.585 276.185 623.912 276.675C624.24 277.165 624.414 277.74 624.414 278.329C624.413 279.118 624.099 279.875 623.541 280.433C622.982 280.992 622.225 281.306 621.435 281.307ZM621.435 275.947C620.964 275.947 620.503 276.087 620.111 276.349C619.719 276.61 619.413 276.982 619.233 277.418C619.052 277.853 619.005 278.332 619.097 278.794C619.189 279.256 619.416 279.68 619.75 280.013C620.083 280.347 620.508 280.573 620.97 280.665C621.432 280.757 621.912 280.71 622.347 280.53C622.783 280.349 623.155 280.044 623.417 279.652C623.679 279.261 623.818 278.8 623.818 278.329C623.818 277.698 623.566 277.092 623.12 276.646C622.673 276.199 622.067 275.948 621.435 275.947Z" fill="#FFB606"/>
<path d="M652.122 296.789C651.533 296.789 650.957 296.614 650.467 296.287C649.977 295.96 649.595 295.495 649.37 294.951C649.144 294.407 649.085 293.808 649.2 293.231C649.315 292.653 649.599 292.123 650.016 291.706C650.432 291.29 650.963 291.006 651.541 290.891C652.119 290.776 652.718 290.835 653.263 291.061C653.807 291.286 654.272 291.668 654.6 292.157C654.927 292.647 655.102 293.223 655.102 293.812C655.101 294.601 654.787 295.358 654.228 295.916C653.67 296.474 652.912 296.788 652.122 296.789ZM652.122 291.43C651.651 291.43 651.19 291.569 650.798 291.831C650.406 292.093 650.101 292.465 649.92 292.9C649.74 293.335 649.693 293.814 649.785 294.276C649.877 294.738 650.104 295.163 650.437 295.496C650.77 295.829 651.195 296.056 651.657 296.148C652.12 296.24 652.599 296.192 653.035 296.012C653.47 295.832 653.842 295.527 654.104 295.135C654.366 294.743 654.506 294.283 654.506 293.812C654.505 293.18 654.254 292.575 653.807 292.128C653.36 291.682 652.754 291.43 652.122 291.43Z" fill="#FFB606"/>
<path d="M641.695 334.006C641.105 334.006 640.529 334.181 640.039 334.508C639.549 334.835 639.168 335.3 638.942 335.844C638.717 336.388 638.658 336.987 638.773 337.565C638.888 338.142 639.171 338.673 639.588 339.089C640.005 339.505 640.536 339.789 641.113 339.904C641.691 340.019 642.29 339.96 642.835 339.734C643.379 339.509 643.845 339.127 644.172 338.638C644.499 338.148 644.674 337.573 644.674 336.984C644.673 336.194 644.358 335.438 643.8 334.88C643.242 334.322 642.484 334.008 641.695 334.006ZM641.695 339.366C641.223 339.366 640.762 339.226 640.37 338.964C639.979 338.702 639.673 338.33 639.493 337.895C639.312 337.46 639.265 336.981 639.357 336.519C639.449 336.057 639.676 335.633 640.009 335.299C640.343 334.966 640.767 334.739 641.23 334.648C641.692 334.556 642.171 334.603 642.607 334.783C643.042 334.963 643.415 335.269 643.676 335.66C643.938 336.052 644.078 336.513 644.078 336.984C644.077 337.615 643.826 338.221 643.379 338.667C642.932 339.114 642.327 339.365 641.695 339.366Z" fill="#FFB606"/>
<path d="M641.695 263.144C641.105 263.144 640.529 262.97 640.039 262.643C639.549 262.316 639.168 261.851 638.942 261.306C638.717 260.762 638.658 260.164 638.773 259.586C638.888 259.009 639.171 258.478 639.588 258.062C640.005 257.645 640.536 257.362 641.113 257.247C641.691 257.132 642.29 257.191 642.835 257.416C643.379 257.642 643.845 258.023 644.172 258.513C644.499 259.003 644.674 259.578 644.674 260.167C644.673 260.956 644.359 261.713 643.8 262.271C643.242 262.83 642.485 263.144 641.695 263.144ZM641.695 257.785C641.223 257.785 640.762 257.925 640.37 258.187C639.979 258.448 639.673 258.82 639.493 259.256C639.312 259.691 639.265 260.17 639.357 260.632C639.449 261.094 639.676 261.518 640.009 261.851C640.343 262.184 640.767 262.411 641.23 262.503C641.692 262.595 642.171 262.548 642.607 262.368C643.042 262.187 643.415 261.882 643.676 261.49C643.938 261.099 644.078 260.638 644.078 260.167C644.077 259.536 643.826 258.93 643.379 258.484C642.932 258.037 642.327 257.786 641.695 257.785Z" fill="#FFB606"/>
<path d="M631.565 221.759C630.976 221.759 630.4 221.584 629.91 221.257C629.42 220.93 629.038 220.465 628.812 219.921C628.587 219.377 628.528 218.778 628.643 218.201C628.758 217.623 629.041 217.092 629.458 216.676C629.875 216.26 630.406 215.976 630.984 215.861C631.562 215.746 632.161 215.805 632.705 216.031C633.249 216.256 633.715 216.638 634.042 217.127C634.369 217.617 634.544 218.193 634.544 218.781C634.543 219.571 634.229 220.328 633.671 220.886C633.112 221.444 632.355 221.758 631.565 221.759Z" fill="#FFB606"/>
<path d="M651.825 189.305C651.235 189.305 650.659 189.131 650.169 188.803C649.679 188.476 649.298 188.011 649.072 187.467C648.847 186.923 648.788 186.325 648.902 185.747C649.017 185.169 649.301 184.639 649.718 184.223C650.135 183.806 650.665 183.523 651.243 183.408C651.821 183.293 652.42 183.352 652.965 183.577C653.509 183.802 653.974 184.184 654.302 184.674C654.629 185.163 654.804 185.739 654.804 186.328C654.803 187.117 654.489 187.874 653.93 188.432C653.372 188.99 652.614 189.304 651.825 189.305ZM651.825 183.946C651.353 183.946 650.892 184.086 650.5 184.347C650.108 184.609 649.803 184.981 649.623 185.416C649.442 185.852 649.395 186.331 649.487 186.793C649.579 187.255 649.806 187.679 650.139 188.012C650.473 188.345 650.897 188.572 651.36 188.664C651.822 188.756 652.301 188.709 652.737 188.528C653.172 188.348 653.544 188.043 653.806 187.651C654.068 187.259 654.208 186.799 654.208 186.328C654.207 185.696 653.956 185.091 653.509 184.644C653.062 184.198 652.457 183.947 651.825 183.946Z" fill="#FFB606"/>
<path d="M580.915 224.438C580.326 224.438 579.75 224.264 579.26 223.937C578.77 223.609 578.388 223.144 578.163 222.6C577.937 222.056 577.878 221.458 577.993 220.88C578.108 220.303 578.392 219.772 578.809 219.356C579.225 218.939 579.756 218.656 580.334 218.541C580.912 218.426 581.511 218.485 582.056 218.71C582.6 218.936 583.065 219.317 583.393 219.807C583.72 220.297 583.895 220.872 583.895 221.461C583.894 222.25 583.58 223.007 583.021 223.565C582.463 224.124 581.705 224.438 580.915 224.438ZM580.915 219.079C580.444 219.079 579.983 219.219 579.591 219.481C579.199 219.742 578.894 220.114 578.713 220.55C578.533 220.985 578.486 221.464 578.578 221.926C578.67 222.388 578.897 222.812 579.23 223.145C579.563 223.478 579.988 223.705 580.45 223.797C580.913 223.889 581.392 223.842 581.828 223.662C582.263 223.481 582.635 223.176 582.897 222.784C583.159 222.393 583.299 221.932 583.299 221.461C583.298 220.83 583.047 220.224 582.6 219.778C582.153 219.331 581.547 219.08 580.915 219.079Z" fill="#FFB606"/>
<path d="M560.656 227.118C560.066 227.118 559.49 226.943 559 226.616C558.51 226.289 558.129 225.824 557.903 225.28C557.678 224.736 557.619 224.137 557.734 223.56C557.848 222.982 558.132 222.452 558.549 222.035C558.966 221.619 559.496 221.335 560.074 221.221C560.652 221.106 561.251 221.165 561.796 221.39C562.34 221.615 562.806 221.997 563.133 222.487C563.46 222.976 563.635 223.552 563.635 224.141C563.634 224.93 563.32 225.687 562.761 226.245C562.203 226.803 561.446 227.117 560.656 227.118ZM560.656 221.759C560.184 221.759 559.723 221.899 559.331 222.16C558.939 222.422 558.634 222.794 558.454 223.229C558.273 223.664 558.226 224.143 558.318 224.605C558.41 225.067 558.637 225.492 558.97 225.825C559.304 226.158 559.728 226.385 560.191 226.477C560.653 226.569 561.132 226.522 561.568 226.341C562.003 226.161 562.376 225.856 562.637 225.464C562.899 225.072 563.039 224.612 563.039 224.141C563.038 223.509 562.787 222.904 562.34 222.457C561.893 222.011 561.288 221.76 560.656 221.759Z" fill="#FFB606"/>
<path d="M570.786 257.487C570.196 257.487 569.62 257.313 569.13 256.986C568.64 256.658 568.258 256.193 568.033 255.649C567.807 255.105 567.748 254.507 567.863 253.929C567.978 253.352 568.262 252.821 568.679 252.405C569.095 251.988 569.626 251.705 570.204 251.59C570.782 251.475 571.381 251.534 571.926 251.759C572.47 251.985 572.935 252.366 573.263 252.856C573.59 253.346 573.765 253.921 573.765 254.51C573.764 255.299 573.45 256.056 572.891 256.614C572.333 257.173 571.575 257.487 570.786 257.487Z" fill="#FFB606"/>
<path d="M652.122 155.065C651.533 155.065 650.957 154.891 650.467 154.564C649.977 154.236 649.595 153.771 649.37 153.227C649.144 152.683 649.085 152.085 649.2 151.507C649.315 150.93 649.599 150.399 650.016 149.983C650.432 149.566 650.963 149.283 651.541 149.168C652.119 149.053 652.718 149.112 653.263 149.337C653.807 149.563 654.272 149.944 654.6 150.434C654.927 150.923 655.102 151.499 655.102 152.088C655.101 152.877 654.787 153.634 654.228 154.192C653.67 154.75 652.912 155.064 652.122 155.065ZM652.122 149.706C651.651 149.706 651.19 149.846 650.798 150.107C650.406 150.369 650.101 150.741 649.92 151.176C649.74 151.612 649.693 152.091 649.785 152.553C649.877 153.015 650.104 153.439 650.437 153.772C650.77 154.105 651.195 154.332 651.657 154.424C652.12 154.516 652.599 154.469 653.035 154.289C653.47 154.108 653.842 153.803 654.104 153.411C654.366 153.02 654.506 152.559 654.506 152.088C654.505 151.456 654.254 150.851 653.807 150.404C653.36 149.958 652.754 149.707 652.122 149.706Z" fill="#FFB606"/>
<path d="M601.175 191.985C600.586 191.985 600.01 191.81 599.52 191.483C599.03 191.156 598.648 190.691 598.423 190.147C598.197 189.603 598.138 189.004 598.253 188.427C598.368 187.849 598.652 187.319 599.068 186.902C599.485 186.486 600.016 186.202 600.594 186.087C601.172 185.972 601.771 186.031 602.315 186.257C602.86 186.482 603.325 186.864 603.652 187.353C603.98 187.843 604.155 188.419 604.155 189.008C604.154 189.797 603.839 190.554 603.281 191.112C602.722 191.67 601.965 191.984 601.175 191.985ZM601.175 186.626C600.704 186.626 600.243 186.765 599.851 187.027C599.459 187.289 599.154 187.661 598.973 188.096C598.793 188.531 598.746 189.01 598.837 189.472C598.929 189.934 599.156 190.359 599.49 190.692C599.823 191.025 600.248 191.252 600.71 191.344C601.173 191.436 601.652 191.388 602.087 191.208C602.523 191.028 602.895 190.723 603.157 190.331C603.419 189.939 603.559 189.479 603.559 189.008C603.558 188.376 603.307 187.771 602.86 187.324C602.413 186.878 601.807 186.626 601.175 186.626Z" fill="#FFB606"/>
<path d="M591.045 170.845C590.456 170.845 589.88 170.671 589.39 170.344C588.9 170.017 588.518 169.552 588.293 169.007C588.067 168.463 588.008 167.865 588.123 167.287C588.238 166.71 588.522 166.179 588.939 165.763C589.355 165.346 589.886 165.063 590.464 164.948C591.042 164.833 591.641 164.892 592.185 165.117C592.73 165.343 593.195 165.724 593.523 166.214C593.85 166.704 594.025 167.279 594.025 167.868C594.024 168.657 593.71 169.414 593.151 169.972C592.592 170.531 591.835 170.845 591.045 170.845ZM591.045 165.486C590.574 165.486 590.113 165.626 589.721 165.888C589.329 166.149 589.024 166.521 588.843 166.957C588.663 167.392 588.616 167.871 588.708 168.333C588.8 168.795 589.027 169.219 589.36 169.552C589.693 169.885 590.118 170.112 590.58 170.204C591.043 170.296 591.522 170.249 591.957 170.069C592.393 169.888 592.765 169.583 593.027 169.191C593.289 168.8 593.429 168.339 593.429 167.868C593.428 167.237 593.177 166.631 592.73 166.185C592.283 165.738 591.677 165.487 591.045 165.486Z" fill="#FFB606"/>
<path d="M540.396 258.976C539.807 258.976 539.231 258.802 538.741 258.474C538.251 258.147 537.869 257.682 537.643 257.138C537.418 256.594 537.359 255.995 537.474 255.418C537.589 254.84 537.872 254.31 538.289 253.893C538.706 253.477 539.237 253.193 539.815 253.079C540.393 252.964 540.992 253.023 541.536 253.248C542.08 253.473 542.546 253.855 542.873 254.345C543.201 254.834 543.375 255.41 543.375 255.999C543.374 256.788 543.06 257.545 542.502 258.103C541.943 258.661 541.186 258.975 540.396 258.976ZM540.396 253.617C539.924 253.617 539.464 253.757 539.072 254.018C538.68 254.28 538.374 254.652 538.194 255.087C538.013 255.522 537.966 256.001 538.058 256.463C538.15 256.925 538.377 257.35 538.71 257.683C539.044 258.016 539.469 258.243 539.931 258.335C540.393 258.427 540.872 258.38 541.308 258.199C541.744 258.019 542.116 257.714 542.378 257.322C542.64 256.93 542.779 256.47 542.779 255.999C542.779 255.367 542.527 254.762 542.08 254.315C541.634 253.869 541.028 253.618 540.396 253.617Z" fill="#FFB606"/>
<path d="M722.138 224.141H721.542V250.025H722.138V224.141Z" fill="#FFB606"/>
<path d="M722.138 261.841H721.542V281.009H722.138V261.841Z" fill="#FFB606"/>
<path d="M721.84 258.976C721.251 258.976 720.675 258.802 720.185 258.474C719.695 258.147 719.313 257.682 719.088 257.138C718.862 256.594 718.803 255.995 718.918 255.418C719.033 254.84 719.317 254.31 719.733 253.893C720.15 253.477 720.681 253.193 721.259 253.079C721.837 252.964 722.436 253.023 722.98 253.248C723.525 253.473 723.99 253.855 724.317 254.345C724.645 254.834 724.82 255.41 724.82 255.999C724.819 256.788 724.504 257.545 723.946 258.103C723.387 258.661 722.63 258.975 721.84 258.976ZM721.84 253.617C721.369 253.617 720.908 253.757 720.516 254.018C720.124 254.28 719.819 254.652 719.638 255.087C719.458 255.522 719.411 256.001 719.503 256.463C719.594 256.925 719.821 257.35 720.155 257.683C720.488 258.016 720.913 258.243 721.375 258.335C721.838 258.427 722.317 258.38 722.752 258.199C723.188 258.019 723.56 257.714 723.822 257.322C724.084 256.93 724.224 256.47 724.224 255.999C724.223 255.367 723.972 254.762 723.525 254.315C723.078 253.869 722.472 253.618 721.84 253.617Z" fill="#FFB606"/>
<path d="M702.474 235.455C701.885 235.455 701.309 235.28 700.819 234.953C700.329 234.626 699.947 234.161 699.721 233.617C699.496 233.073 699.437 232.474 699.552 231.897C699.667 231.319 699.951 230.788 700.367 230.372C700.784 229.956 701.315 229.672 701.893 229.557C702.471 229.442 703.07 229.501 703.614 229.727C704.159 229.952 704.624 230.334 704.951 230.823C705.279 231.313 705.453 231.889 705.453 232.477C705.452 233.267 705.138 234.024 704.58 234.582C704.021 235.14 703.264 235.454 702.474 235.455ZM702.474 230.095C702.003 230.095 701.542 230.235 701.15 230.497C700.758 230.759 700.452 231.131 700.272 231.566C700.092 232.001 700.044 232.48 700.136 232.942C700.228 233.404 700.455 233.829 700.789 234.162C701.122 234.495 701.547 234.722 702.009 234.814C702.471 234.905 702.951 234.858 703.386 234.678C703.822 234.498 704.194 234.192 704.456 233.801C704.718 233.409 704.858 232.948 704.858 232.477C704.857 231.846 704.605 231.24 704.159 230.794C703.712 230.347 703.106 230.096 702.474 230.095Z" fill="#FFB606"/>
<path d="M682.214 269.695C681.625 269.695 681.049 269.52 680.559 269.193C680.069 268.866 679.687 268.401 679.462 267.857C679.236 267.313 679.177 266.714 679.292 266.136C679.407 265.559 679.691 265.028 680.108 264.612C680.524 264.196 681.055 263.912 681.633 263.797C682.211 263.682 682.81 263.741 683.354 263.967C683.899 264.192 684.364 264.574 684.692 265.063C685.019 265.553 685.194 266.128 685.194 266.717C685.193 267.507 684.878 268.263 684.32 268.822C683.761 269.38 683.004 269.694 682.214 269.695ZM682.214 264.335C681.743 264.335 681.282 264.475 680.89 264.737C680.498 264.999 680.193 265.371 680.012 265.806C679.832 266.241 679.785 266.72 679.877 267.182C679.969 267.644 680.196 268.068 680.529 268.402C680.862 268.735 681.287 268.962 681.749 269.053C682.212 269.145 682.691 269.098 683.126 268.918C683.562 268.738 683.934 268.432 684.196 268.041C684.458 267.649 684.598 267.188 684.598 266.717C684.597 266.086 684.346 265.48 683.899 265.034C683.452 264.587 682.846 264.336 682.214 264.335Z" fill="#FFB606"/>
<path d="M621.435 179.778C620.846 179.778 620.27 179.603 619.78 179.276C619.29 178.949 618.908 178.484 618.682 177.94C618.457 177.396 618.398 176.797 618.513 176.219C618.628 175.642 618.912 175.111 619.328 174.695C619.745 174.279 620.276 173.995 620.854 173.88C621.432 173.765 622.031 173.824 622.575 174.049C623.12 174.275 623.585 174.656 623.912 175.146C624.24 175.636 624.414 176.211 624.414 176.8C624.413 177.59 624.099 178.346 623.541 178.905C622.982 179.463 622.225 179.777 621.435 179.778Z" fill="#FFB606"/>
<path d="M682.214 206.872C681.625 206.872 681.049 206.697 680.559 206.37C680.069 206.043 679.687 205.578 679.462 205.034C679.236 204.49 679.177 203.891 679.292 203.314C679.407 202.736 679.691 202.206 680.108 201.789C680.524 201.373 681.055 201.089 681.633 200.974C682.211 200.859 682.81 200.918 683.354 201.144C683.899 201.369 684.364 201.751 684.692 202.24C685.019 202.73 685.194 203.306 685.194 203.894C685.193 204.684 684.879 205.441 684.32 205.999C683.761 206.557 683.004 206.871 682.214 206.872ZM682.214 201.513C681.743 201.513 681.282 201.652 680.89 201.914C680.498 202.176 680.193 202.548 680.012 202.983C679.832 203.418 679.785 203.897 679.877 204.359C679.969 204.821 680.196 205.246 680.529 205.579C680.862 205.912 681.287 206.139 681.749 206.231C682.212 206.323 682.691 206.275 683.126 206.095C683.562 205.915 683.934 205.61 684.196 205.218C684.458 204.826 684.598 204.366 684.598 203.894C684.597 203.263 684.346 202.658 683.899 202.211C683.452 201.764 682.846 201.513 682.214 201.513Z" fill="#FFB606"/>
<path d="M702.474 198.237C701.885 198.237 701.309 198.063 700.819 197.736C700.329 197.408 699.947 196.943 699.721 196.399C699.496 195.855 699.437 195.257 699.552 194.679C699.667 194.102 699.951 193.571 700.367 193.155C700.784 192.738 701.315 192.455 701.893 192.34C702.471 192.225 703.07 192.284 703.614 192.509C704.159 192.735 704.624 193.116 704.951 193.606C705.279 194.096 705.453 194.671 705.453 195.26C705.452 196.049 705.138 196.806 704.58 197.364C704.021 197.923 703.264 198.237 702.474 198.237Z" fill="#FFB606"/>
<path d="M672.084 196.749C671.495 196.749 670.919 196.574 670.429 196.247C669.939 195.92 669.557 195.455 669.332 194.911C669.106 194.367 669.047 193.768 669.162 193.19C669.277 192.613 669.561 192.082 669.978 191.666C670.394 191.25 670.925 190.966 671.503 190.851C672.081 190.736 672.68 190.795 673.225 191.021C673.769 191.246 674.234 191.628 674.562 192.117C674.889 192.607 675.064 193.182 675.064 193.771C675.063 194.561 674.749 195.317 674.19 195.876C673.632 196.434 672.874 196.748 672.084 196.749Z" fill="#FFB606"/>
<path d="M755.507 196.754L702.171 195.856L702.182 195.26L754.912 196.148V170.548H755.507V196.754Z" fill="#2F2E41"/>
<path d="M672.36 193.886L671.81 193.656L699.892 126.482H744.781V127.078H700.289L672.36 193.886Z" fill="#2F2E41"/>
<path d="M631.863 219.079H497.493V186.626H498.089V218.484H631.863V219.079Z" fill="#2F2E41"/>
<path d="M621.435 177.098H532.352V140.774H532.947V176.503H621.435V177.098Z" fill="#2F2E41"/>
<path d="M571.084 309.294H511.794V308.698H570.488V254.212H571.084V309.294Z" fill="#2F2E41"/>
</g>
</g>
<defs>
<clipPath id="clip0">
<rect width="832" height="642" fill="white"/>
</clipPath>
<clipPath id="clip1">
<rect width="289" height="237" fill="white" transform="translate(482 111)"/>
</clipPath>
</defs>
</svg>
