<svg width="183" height="609" viewBox="0 0 183 609" fill="none" xmlns="http://www.w3.org/2000/svg">
<g filter="url(#filter0_d)">
<path d="M131.713 426.289V414.333H113.046V426.289C113.046 445.88 121.213 459.478 130.089 470.333H77.3464C86.2224 459.497 94.3797 445.908 94.3797 426.289V414.333H75.713V426.289C75.713 466.637 29.0464 470.165 29.0464 526.333C29.0464 567.568 62.4784 601 103.713 601C144.948 601 178.38 567.568 178.38 526.333C178.38 470.305 131.713 466.544 131.713 426.289ZM75.713 563.666C65.409 563.666 57.0464 555.304 57.0464 545C57.0464 534.696 65.409 526.333 75.713 526.333C86.017 526.333 94.3797 534.696 94.3797 545C94.3797 555.304 86.017 563.666 75.713 563.666ZM94.3797 507.666C89.2277 507.666 85.0464 503.485 85.0464 498.333C85.0464 493.181 89.2277 489 94.3797 489C99.5317 489 103.713 493.181 103.713 498.333C103.713 503.485 99.5317 507.666 94.3797 507.666ZM127.046 573C119.318 573 113.046 566.728 113.046 559C113.046 551.272 119.318 545 127.046 545C134.774 545 141.046 551.272 141.046 559C141.046 566.728 134.774 573 127.046 573ZM131.713 526.333C126.561 526.333 122.38 522.152 122.38 517C122.38 511.848 126.561 507.666 131.713 507.666C136.865 507.666 141.046 511.848 141.046 517C141.046 522.152 136.865 526.333 131.713 526.333Z" fill="white"/>
<ellipse cx="103.713" cy="520.101" rx="64.8818" ry="66.9242" fill="#FFB606"/>
<ellipse cx="103.008" cy="547.886" rx="50.0845" ry="38.469" fill="url(#paint0_linear)"/>
<ellipse cx="82.7306" cy="547.965" rx="10.9498" ry="11.5796" fill="#F3DF89"/>
<ellipse cx="116.796" cy="518.563" rx="4.46126" ry="5.09084" fill="#F3DF89"/>
<ellipse cx="80.6012" cy="502.763" rx="4.56265" ry="4.90332" fill="#F3DF89"/>
<path d="M75.6899 24.1C75.6899 21.2053 75.6899 19.758 76.2711 18.6604C76.7401 17.7746 77.4645 17.0502 78.3503 16.5812C79.4479 16 80.8953 16 83.7899 16H88.6692H98.5414H108.97H120.511H126.167C126.672 16 126.925 16 127.138 16.0183C129.562 16.226 131.485 18.1488 131.693 20.5732C131.711 20.7862 131.711 21.0388 131.711 21.5441V426.018C131.711 428.913 131.711 430.36 131.13 431.458C130.661 432.343 129.936 433.068 129.051 433.537C127.953 434.118 126.506 434.118 123.611 434.118H83.7899C80.8953 434.118 79.4479 434.118 78.3503 433.537C77.4645 433.068 76.7401 432.343 76.2711 431.458C75.6899 430.36 75.6899 428.913 75.6899 426.018V24.1Z" fill="#F7F7F7"/>
<path d="M85.2228 437.346C85.2228 434.669 85.2228 433.331 85.7117 432.308C86.2345 431.214 87.1368 430.348 88.2508 429.87C89.2925 429.423 90.6299 429.477 93.3046 429.585L100.294 430.194L107.689 430.428L114.723 430.194L117.324 430.043L119.869 429.579C121.04 429.41 122.087 430.323 122.079 431.506L121.921 453.493C121.92 453.685 121.936 453.877 121.969 454.066C122.052 454.542 122.241 454.992 122.523 455.384L122.6 455.492C122.673 455.593 122.755 455.687 122.844 455.774C123.316 456.228 123.544 456.878 123.461 457.527L123.001 461.115C122.673 463.671 122.51 464.949 121.891 465.903C121.391 466.675 120.687 467.294 119.858 467.692C118.832 468.185 117.544 468.185 114.967 468.185H89.5309C87.1946 468.185 85.3411 466.216 85.4814 463.884C85.5062 463.472 85.4679 463.058 85.3677 462.657L84.063 457.435C83.9069 456.81 84.1226 456.151 84.6179 455.739C85.0011 455.421 85.2228 454.948 85.2228 454.45V443.406V437.346Z" fill="#FFB606"/>
<path d="M122.05 431.9C122.05 436.674 113.84 442.686 103.714 442.686C93.5868 442.686 85.3774 438.816 85.3774 434.042C85.3774 429.268 93.5868 423.256 103.714 423.256C113.84 423.256 122.05 427.126 122.05 431.9Z" fill="url(#paint1_linear)"/>
<ellipse cx="108.685" cy="435.855" rx="9.98677" ry="2.88401" fill="#EDE5E5" fill-opacity="0.6"/>
</g>
<ellipse cx="103.695" cy="21.9927" rx="28.0105" ry="21.481" fill="#F2F2F2"/>
<ellipse cx="113.537" cy="15.2256" rx="12.4702" ry="9.79199" fill="white"/>
<defs>
<filter id="filter0_d" x="25.0464" y="16" width="157.333" height="593" filterUnits="userSpaceOnUse" color-interpolation-filters="sRGB">
<feFlood flood-opacity="0" result="BackgroundImageFix"/>
<feColorMatrix in="SourceAlpha" type="matrix" values="0 0 0 0 0 0 0 0 0 0 0 0 0 0 0 0 0 0 127 0"/>
<feOffset dy="4"/>
<feGaussianBlur stdDeviation="2"/>
<feColorMatrix type="matrix" values="0 0 0 0 0 0 0 0 0 0 0 0 0 0 0 0 0 0 0.25 0"/>
<feBlend mode="normal" in2="BackgroundImageFix" result="effect1_dropShadow"/>
<feBlend mode="normal" in="SourceGraphic" in2="effect1_dropShadow" result="shape"/>
</filter>
<linearGradient id="paint0_linear" x1="73.8088" y1="577.751" x2="166.678" y2="545.308" gradientUnits="userSpaceOnUse">
<stop stop-color="#F4CE72"/>
<stop offset="0.939305" stop-color="#FAC84F" stop-opacity="0.04"/>
</linearGradient>
<linearGradient id="paint1_linear" x1="100.586" y1="427.514" x2="103.664" y2="442.696" gradientUnits="userSpaceOnUse">
<stop stop-color="#FBD11B"/>
<stop offset="1" stop-color="#FFB606"/>
</linearGradient>
</defs>
</svg>
