<svg width="455" height="651" viewBox="0 0 455 651" fill="none" xmlns="http://www.w3.org/2000/svg">
<path d="M158.164 135.815C177.693 135.815 193.525 116.687 193.525 93.091C193.525 69.4953 177.693 50.3672 158.164 50.3672C138.635 50.3672 122.804 69.4953 122.804 93.091C122.804 116.687 138.635 135.815 158.164 135.815Z" fill="white"/>
<path d="M365.503 175.557C392.565 175.557 414.503 153.619 414.503 126.557C414.503 99.4947 392.565 77.5566 365.503 77.5566C338.441 77.5566 316.503 99.4947 316.503 126.557C316.503 153.619 338.441 175.557 365.503 175.557Z" fill="#FFC957"/>
<path fill-rule="evenodd" clip-rule="evenodd" d="M334.007 83.4961C335.414 89.7081 337.645 95.9271 342.874 94.9741C349.668 93.7351 335.793 91.2831 427.652 82.7691C428.702 82.6721 426.859 80.6321 425.943 80.1101C421.115 77.3551 416.024 75.0191 410.79 73.1471C402.298 70.1111 333.202 79.9401 334.007 83.4961Z" fill="white"/>
<path fill-rule="evenodd" clip-rule="evenodd" d="M153.733 102.625C153.968 103.667 154.031 104.748 153.918 105.81C154.798 105.944 155.632 106.359 156.269 106.98C156.044 104.634 155.445 102.324 154.501 100.165C153.983 98.9791 151.966 99.4341 151.503 100.643C151.039 101.851 151.616 103.195 152.274 104.31C152.308 103.509 152.945 102.773 153.733 102.625Z" fill="#FFB61D"/>
<path fill-rule="evenodd" clip-rule="evenodd" d="M35.0208 160.526C52.3478 145.409 75.5488 139.479 96.8648 130.855C158.533 105.904 206.961 56.7547 264.444 23.2706C292.891 6.70006 326.766 -6.24104 358.272 3.30676C380.199 9.95166 398.437 27.7155 405.657 49.4596C419.288 90.5117 394.623 133.07 380.785 174.053C354.378 252.26 367.775 339.024 396.858 416.277C403.218 433.17 410.353 449.957 413.323 467.762C420.226 509.145 403.121 552.317 374.136 582.651C345.151 612.984 305.515 631.508 264.715 641.287C214.709 653.273 161.789 652.903 111.956 640.217C86.7018 633.789 61.8698 624.033 41.3958 607.913C20.9208 591.793 5.08382 568.741 1.39982 542.944C-4.14718 504.097 17.6798 466.742 21.5288 427.69C23.2408 410.312 21.3588 392.801 19.3478 375.455C16.3648 349.72 13.0948 324.018 9.54081 298.355C6.19081 274.171 2.57881 249.729 5.00881 225.435C7.43781 201.14 16.6228 176.576 35.0208 160.526Z" fill="#FFB606"/>
<path d="M258.874 475.218C259.185 479.245 259.392 483.419 257.972 487.2C255.489 493.806 248.751 497.641 242.502 500.921C205.807 520.183 168.703 539.142 129.242 551.804C127.486 548.949 118.294 533.191 124.878 527.557C139.115 515.375 213.003 465.988 213.003 465.988C213.003 465.988 204.507 449.519 209.276 444.689C218.435 435.415 245.324 433.926 251.195 435.122C255.122 435.921 258.635 472.121 258.874 475.218Z" fill="white"/>
<path fill-rule="evenodd" clip-rule="evenodd" d="M145.436 522.769C145.436 522.769 146.762 525.675 150.936 525.675C155.11 525.675 162.944 509.599 167.177 501.058C171.456 492.428 171.204 492.328 178.75 474.107C186.295 455.887 171.385 428.565 171.385 428.565C171.385 428.565 147 425.316 142.854 428.565C136.357 433.656 140.504 466.166 140.504 466.166L145.436 522.769Z" fill="white"/>
<path d="M262.355 258.509C249.734 253.967 233.122 252.05 221.338 245.644C221.82 245.577 218.818 237.037 221.583 228.283C224.667 218.519 340.98 275.561 347.546 281.994C348.237 282.671 364.399 301.355 358.18 302.615C354.401 303.381 351.987 300.794 338.242 293.241C324.496 285.688 326.777 298.709 324.496 299.012C322.522 299.273 321.748 295.979 321.776 296.452C305.117 279.6 284.651 266.532 262.355 258.509Z" fill="white"/>
<path fill-rule="evenodd" clip-rule="evenodd" d="M325.73 86.6826C330.035 93.4876 331.037 97.7626 332.133 105.742C325.669 110.998 251.358 158.205 197.511 179.807L198.513 179.731C207.617 179.002 214.361 177.402 216.209 175.164C225.411 209.372 225.203 246.062 215.615 280.164C214.266 284.962 219.865 288.504 224.558 290.333L224.799 290.426C258.062 303.061 289.641 320.116 318.447 341.002C301.912 348.935 286.766 359.754 273.898 372.822L272.53 374.224C267.975 378.919 263.414 383.778 257.497 386.495C250.989 389.483 242.197 389.004 237.903 383.273L245.704 397.695C228.526 407.81 209.166 414.197 189.343 416.297L188.299 416.403C186.172 416.612 183.848 416.724 182.091 415.508C180.832 414.635 180.086 413.225 179.419 411.836L153.174 356.746C148.392 346.68 143.721 336.424 141.911 325.445C137.986 301.628 146.917 277.197 143.303 253.331C139.434 227.783 120.92 207.25 109.919 183.869C105.683 174.867 99.4409 161.722 104.68 147.429C109.919 133.136 169.334 134.878 215.615 122.681C275.377 106.932 324.965 85.4746 325.73 86.6826Z" fill="white"/>
<path d="M206.302 226.628C205.123 231.728 198.948 234.978 194.048 233.136C193.396 232.891 193.104 232.149 192.89 231.487C190.084 222.782 188.231 213.77 187.375 204.665C187.22 203.016 187.101 201.321 187.573 199.733C188.599 196.278 192.696 194.08 196.142 195.136C198.491 195.855 200.301 197.808 201.406 200.002C202.511 202.195 203.004 204.637 203.485 207.045C204.281 211.02 205.076 214.995 205.871 218.97C206.377 221.497 206.882 224.117 206.302 226.628Z" fill="white"/>
<path d="M183.143 445.853C182.371 445.389 176.342 431.164 179.04 429.534C190.349 422.703 278.691 389.886 289.039 383.815C299.387 377.743 286.857 370.561 287.522 365.882C288.574 358.481 311.357 353.016 311.407 349.261C326.241 358.917 340.332 367.952 350.5 382.44C354.289 387.838 358.16 398.43 354.482 403.905C352.303 407.146 346.725 408.772 343.001 409.949C313.118 419.395 177.273 455.269 183.143 445.853Z" fill="white"/>
<path d="M130.304 558.485C127.801 579.366 122.428 599.901 114.385 619.332C112.919 622.873 111.18 626.596 107.902 628.581C104.625 630.567 99.4088 629.723 98.2258 626.078C89.0528 597.815 84.5098 568.055 84.8308 538.343C84.8438 537.137 84.8808 535.87 85.4928 534.831C86.4238 533.249 88.3798 532.654 90.1608 532.215C99.2808 529.971 108.568 528.413 117.921 527.558C118.958 528.05 115.949 553.804 130.304 558.485Z" fill="white"/>
<path fill-rule="evenodd" clip-rule="evenodd" d="M321.776 296.452C305.116 279.6 284.651 266.532 262.354 258.509C249.734 253.967 236.451 250.979 224.667 244.573C225.678 244.434 226.598 243.749 227.021 242.82C259.583 254.004 293.304 265.887 317.899 289.982C319.738 291.784 321.626 293.881 321.776 296.452Z" fill="#00160A"/>
<path fill-rule="evenodd" clip-rule="evenodd" d="M224.513 207.683C229.477 209.52 233.341 213.408 237.407 216.796C259.72 235.388 290.694 240.398 314.013 257.709C311.89 257.15 309.872 256.257 307.865 255.367C286.597 245.936 265.289 236.485 245.062 224.991C237.186 220.515 229.187 215.443 224.513 207.683Z" fill="#00160A"/>
<path fill-rule="evenodd" clip-rule="evenodd" d="M120.434 82.2282C118.252 73.5732 116.361 64.4072 118.805 55.8232C121.249 47.2388 129.458 39.6402 138.285 40.9612C144.265 41.8561 150.114 39.1486 155.611 36.6039L155.837 36.4992C162.989 33.1893 170.557 30.0647 178.432 30.3625C186.307 30.6604 194.552 35.3246 196.549 42.948C197.408 46.2269 197.059 49.6857 196.704 53.0562L193.749 81.1192C192.571 92.3012 191.195 104.029 184.711 113.215C178.226 122.401 164.826 127.745 155.379 121.646C154.078 125.294 156.965 129.362 160.576 130.76C164.188 132.159 168.224 131.614 172.053 131.032C217.198 124.172 263.739 114.308 300.114 86.7052C299.407 81.9282 301.916 76.8382 306.135 74.4892C306.264 74.4172 306.397 74.3422 306.534 74.2662C309.322 72.7082 313.59 70.3222 316.503 70.9282C319.895 71.6342 322.282 74.9892 324.479 78.0782C325.027 78.8492 325.563 79.6022 326.1 80.2942C330.73 86.2612 332.269 93.9902 333.673 101.411C334.116 103.754 333.908 107.077 331.544 107.392C344.585 107.612 357.605 109.077 370.369 111.76L373.387 103.743C365.544 91.3812 343.772 92.5152 337.256 105.625C335.262 103.245 338.454 100.037 341.21 98.6072C341.026 98.7032 341.031 98.6942 341.205 98.5992C337.041 91.1262 333.974 83.0432 332.132 74.6892C333.802 78.3022 335.573 81.2572 337.344 84.2122C339.115 87.1672 340.886 90.1222 342.556 93.7342C355.874 87.5732 369.837 86.2462 384.433 84.8582L384.868 84.8172C379.12 86.9672 375.609 93.8352 377.232 99.7532C384.107 99.6092 390.926 97.4372 396.617 93.5802C393.017 91.8612 390.259 88.4712 389.309 84.5962C396.14 88.0462 400.937 91.8222 398.331 94.8632C394.689 99.1132 380.911 102.142 376.157 102.726L373.472 112.579C384.993 115.786 395.899 121.187 405.433 128.407C411.45 132.964 417 142.299 411.201 147.131L447.589 147.655C449.98 147.69 453.363 149.263 452.192 151.347L295.837 151.429C293.684 151.43 290.766 149.009 292.679 148.02C301.427 148.49 310.221 148.102 318.893 146.864C315.414 139.196 314.239 130.499 315.56 122.183C317.558 109.601 311.335 96.1012 300.47 89.4492C252.799 123.417 191.834 131.141 133.607 137.148C126.538 137.877 118.969 138.805 113.633 143.499C108.066 148.395 106.228 156.513 107.208 163.861C108.188 171.21 111.583 177.991 115.081 184.527C117.125 188.348 119.231 192.172 121.345 196.01C134.51 219.916 147.957 244.334 148.362 271.317C148.468 278.321 147.672 285.31 146.877 292.291C145.883 301.017 144.89 309.732 145.66 318.453C146.957 333.15 153.165 346.904 159.285 360.33L180.826 407.592C181.655 409.41 182.557 411.318 184.203 412.45C186.941 414.335 190.642 413.433 193.821 412.462L229.75 401.491C233.274 400.414 237.457 398.565 237.748 394.892C237.909 392.868 236.751 391.001 235.64 389.302L225.722 374.145L248.333 382.769C249.927 383.377 251.607 383.996 253.297 383.761C255.381 383.471 257.051 381.955 258.593 380.523C274.932 365.352 292.782 351.81 311.794 340.164C282.093 317.875 248.351 300.988 212.708 290.573C220.754 253.613 220.969 214.967 213.336 177.919L163.003 193.921C162.761 200.084 164.321 206.108 165.875 212.111H165.876C166.286 213.696 166.696 215.279 167.072 216.863C168.874 224.448 169.854 232.729 166.567 239.797C163.28 246.866 154.33 251.752 147.394 248.193C155.647 250.896 164.454 243.583 166.65 235.181C168.845 226.779 166.361 217.943 163.892 209.617L158.684 192.058C214.495 175.492 267.184 148.471 313.203 112.812C285.551 139.735 250.664 157.776 216.209 175.163C225.411 209.371 225.203 246.061 215.615 280.163C214.242 285.043 220.06 288.625 224.799 290.425C258.061 303.06 289.641 320.115 318.447 341.001C301.912 348.934 286.765 359.753 273.898 372.821C273.245 373.484 272.594 374.156 271.943 374.828C267.58 379.331 263.16 383.894 257.497 386.494C250.989 389.482 242.197 389.002 237.902 383.272L245.704 397.694C228.224 407.986 208.486 414.419 188.299 416.402C186.172 416.611 183.848 416.723 182.091 415.506C180.748 414.576 179.989 413.033 179.286 411.558L154.018 358.519C148.951 347.883 143.827 337.069 141.911 325.444C139.927 313.402 141.484 301.204 143.042 289.001C144.565 277.068 146.09 265.13 144.303 253.33C141.761 236.549 132.901 221.931 124.002 207.249C119.353 199.579 114.694 191.891 110.919 183.868C106.683 174.866 103.495 164.88 105.104 155.062C106.714 145.244 114.33 135.866 124.244 135.032C121.745 122.601 122.733 109.489 127.065 97.5732C127.204 110.327 126.571 123.089 125.17 135.766L157.899 132.841L148.606 118.028C160.378 126.571 178.241 119.22 185.673 106.716C193.104 94.2132 192.895 78.7452 191.955 64.2302C182.383 70.0932 169.902 70.9032 159.653 66.3262C154.895 64.2012 149.101 67.0632 146.191 71.3852C143.281 75.7082 142.547 81.0892 141.891 86.2582C139.624 85.3962 139.088 82.9702 138.531 80.4442C138.14 78.6712 137.738 76.8492 136.718 75.4862C133.079 70.6182 124.417 75.8862 124.635 81.9602C124.854 88.0342 130.034 92.6272 134.953 96.1972C127.817 98.9142 122.3 89.6332 120.434 82.2282ZM319.097 75.9712C318.164 74.8852 317.061 73.7672 315.639 73.6032C314.073 73.4232 312.652 74.4502 311.411 75.4222L306.817 79.0222C305.247 80.2522 303.632 81.5352 302.698 83.2972C301.764 85.0592 301.697 87.4452 303.084 88.8782C307.834 93.7882 312.656 98.7972 315.732 104.897C318.808 110.996 319.924 118.465 317.024 124.649C315.521 127.855 317.459 131.87 320.492 133.697C323.524 135.524 327.284 135.627 330.806 135.262C337.243 134.595 343.448 132.559 349.594 130.535L362.321 126.346C366.732 124.894 369.837 120.199 369.446 115.571C370.015 114.614 368.581 113.742 367.486 113.543C359.235 112.043 350.912 110.933 342.556 110.22C334.762 109.555 326.141 109.48 320.087 114.434C322.704 109.895 327.142 106.441 332.185 105.02C330.721 94.3532 326.118 84.1352 319.097 75.9712ZM368.032 126.638C372.214 128.07 375.119 131.89 377.12 135.832C377.837 137.245 378.474 138.702 379.111 140.158L379.112 140.159C380.25 142.763 381.387 145.365 382.981 147.709C389.667 147.962 396.365 147.914 403.047 147.565C404.824 147.473 406.642 147.349 408.274 146.642C409.907 145.934 411.344 144.521 411.591 142.759C411.648 142.351 411.642 141.933 411.635 141.517C411.625 140.904 411.615 140.295 411.809 139.719C411.871 139.535 411.951 139.344 412.033 139.15C412.326 138.449 412.633 137.717 412.134 137.224C401.787 126.995 388.81 119.449 374.802 115.516C374.007 115.293 373.069 115.108 372.428 115.628C372.068 115.92 371.889 116.376 371.726 116.81L368.032 126.638ZM323.708 147.419L352.536 147.509C354.381 147.515 355.609 145.67 356.486 144.048L365.137 128.034C360.164 128.992 355.41 130.754 350.652 132.518C347.752 133.593 344.849 134.669 341.894 135.564C334.092 137.927 325.341 138.936 318.02 135.35C318.131 138.769 319.496 142.134 321.8 144.663C321.177 144.902 320.828 145.688 321.069 146.311C321.436 147.26 322.69 147.416 323.708 147.419ZM356.951 147.404C362.387 146.881 367.863 147.056 373.321 147.231L379.437 147.428C377.682 141.77 374.972 136.41 371.456 131.643C370.785 130.732 370.033 129.803 368.98 129.39C367.926 128.976 366.501 129.298 366.072 130.345C363.622 136.322 360.56 142.047 356.951 147.404ZM372.034 99.3832C372.512 99.6232 373.054 99.8612 373.566 99.7042C374.318 99.4742 374.576 98.5602 374.715 97.7862L376.205 89.5342C376.287 89.0762 376.361 88.5662 376.106 88.1762C375.705 87.5612 374.767 87.6392 374.104 87.9562C373.935 88.0362 373.768 88.1282 373.601 88.2212C373.112 88.4902 372.623 88.7602 372.076 88.7512C368.113 88.6892 364.138 89.5772 360.579 91.3192C363.971 94.5532 367.845 97.2802 372.034 99.3832ZM189.057 77.6532L182.646 80.5782C182.131 80.8132 181.527 81.0482 181.022 80.7922C180.377 80.4652 180.334 79.4902 180.752 78.9012C181.171 78.3112 181.88 78.0142 182.552 77.7462L185.345 76.6292C186.064 76.3422 186.821 76.0492 187.589 76.1472C188.357 76.2442 189.115 76.8812 189.057 77.6532ZM166.692 84.0222C167.648 83.9532 168.613 83.0022 168.252 82.1142L164.395 81.3052C161.153 80.6242 157.353 80.0812 154.896 82.3032C154.099 83.0242 153.574 84.3922 154.378 85.1062C156.919 82.8342 160.742 82.1052 163.94 83.2842C164.124 83.3512 164.308 83.4252 164.492 83.4992C165.209 83.7872 165.932 84.0782 166.692 84.0222ZM177.576 86.5872L176.837 85.3002C176.505 85.1262 176.047 85.2592 175.86 85.5832C174.523 89.5882 175.146 94.1982 177.498 97.7042C178.078 98.5672 177.074 99.7862 176.034 99.7812C174.994 99.7762 174.124 99.0172 173.421 98.2502C172.605 99.6082 174.012 101.515 175.596 101.497C177.18 101.479 178.477 100.039 178.805 98.4882C179.133 96.9382 178.698 95.3302 178.125 93.8532C177.983 93.4852 177.831 93.1212 177.679 92.7562V92.7552C177.221 91.6522 176.762 90.5482 176.553 89.3772C176.364 88.3142 176.56 86.9512 177.576 86.5872ZM150.613 104.029C150.164 101.922 150.059 99.1042 152.049 98.2802C153.53 97.6672 155.247 98.7582 155.995 100.176C156.563 101.254 156.745 102.472 156.926 103.688C156.983 104.07 157.04 104.451 157.109 104.828C157.396 106.405 158.015 108.077 159.404 108.875C163.651 111.314 168.547 112.609 173.444 112.591C168.702 114.676 163.298 112.22 158.713 109.81L148.271 104.323C147.593 103.967 146.8 103.235 147.215 102.591C148.412 102.892 149.563 103.379 150.613 104.029ZM153.733 102.625C153.968 103.666 154.031 104.747 153.918 105.809C154.798 105.943 155.632 106.358 156.269 106.979C156.044 104.633 155.445 102.323 154.501 100.164C153.983 98.9782 151.966 99.4332 151.503 100.642C151.039 101.85 151.616 103.195 152.274 104.309C152.308 103.508 152.945 102.772 153.733 102.625ZM160.723 303.875C177.825 301.559 195.395 299.091 210.429 290.617C211.08 290.25 211.789 289.372 211.211 288.899C194.547 296.983 176.24 301.661 157.741 302.561C157.756 303.798 159.498 304.041 160.723 303.875ZM176.383 476.074C177.337 474.005 178.084 471.84 178.609 469.623L165.384 466.673C165.653 465.578 167.146 465.448 168.263 465.598C171.914 466.086 175.508 466.989 178.955 468.286L181.414 458.039C181.937 457.755 182.584 457.707 183.143 457.913C181.457 467.332 178.776 476.574 175.158 485.433C174.632 486.719 173.782 488.211 172.392 488.2C172.293 487.382 172.426 486.536 172.771 485.787C169.44 485.981 165.728 486.05 163.229 483.841C166.506 483.417 169.857 483.561 173.086 484.266C174.399 482.248 175.408 480.034 176.068 477.72C172.235 477.534 168.434 476.685 164.885 475.221C165.249 474.167 166.728 474.178 167.822 474.393L176.383 476.074ZM104.056 623.859C96.9588 597.143 92.6059 569.698 91.0869 542.097C90.9549 539.699 90.9368 537.025 92.5458 535.242C93.6558 562.797 97.5538 590.239 104.163 617.013C104.725 619.291 105.269 621.851 104.056 623.859ZM114.089 575.826C117.899 574.966 121.92 575.055 125.689 576.083L127.394 569.473C122.755 569.095 118.165 568.13 113.767 566.606C118.458 565.733 123.416 566.351 127.749 568.35C127.008 564.906 127.985 561.136 130.304 558.485C127.801 579.365 122.428 599.9 114.385 619.332C112.919 622.873 111.18 626.595 107.902 628.581C104.625 630.566 99.4088 629.723 98.2258 626.078C89.0528 597.814 84.5098 568.055 84.8308 538.342C84.8438 537.137 84.8808 535.869 85.4928 534.83C86.4238 533.249 88.3798 532.653 90.1608 532.215C99.2808 529.97 108.568 528.412 117.921 527.557C118.958 528.049 117.596 529.468 116.468 529.681L86.1698 535.381C86.4898 565.679 91.1038 595.928 99.8298 624.944C100.17 626.072 100.568 627.277 101.515 627.979C103.956 629.791 107.1 626.887 108.647 624.269C115.727 612.287 120.728 599.08 123.36 585.413C120.143 586.833 116.25 586.608 113.218 584.828C116.655 583.914 120.319 583.869 123.777 584.697L125.497 578.534L114.089 575.826ZM289.039 377.046C289.047 376.142 288.65 375.282 288.176 374.511C286.951 372.521 285.141 370.896 283.03 369.892C282.11 371.314 283.363 373.089 284.396 374.432C285.428 375.775 286.127 378.051 284.652 378.885L259.986 392.826C259.17 393.287 258.242 394.293 258.873 394.986C264.542 394.275 269.606 391.218 274.476 388.23L285.335 381.57C287.074 380.503 289.022 379.087 289.039 377.046ZM195.632 300.906C196.293 300.718 195.525 299.763 194.841 299.691C194.158 299.619 193.202 298.991 193.721 298.541L196.6 298.657C197.856 299.181 197.441 301.289 196.205 301.862C194.97 302.434 193.526 301.988 192.241 301.538C192.084 303.128 190.356 304.369 188.799 304.01C187.242 303.651 186.232 301.778 186.787 300.28C187.69 299.504 189.042 299.293 190.138 299.758C190.245 300.224 189.765 300.368 189.245 300.524C188.944 300.614 188.629 300.708 188.406 300.87C187.503 301.529 188.812 303.059 189.86 302.669C190.907 302.279 191.324 301.048 191.609 299.967C192.798 300.711 194.237 301.046 195.632 300.906ZM166.084 87.6872C167.812 87.4212 168.565 90.0742 167.627 91.5492C166.827 92.8052 165.124 93.5962 163.792 92.9282C163.408 91.4872 163.727 89.8762 164.63 88.6902C164.996 88.2092 165.488 87.7792 166.084 87.6872ZM185.146 89.8922C186.838 88.9592 186.227 86.4122 185.391 84.6702C183.049 84.9662 181.548 87.9932 182.728 90.0372C183.539 90.1842 184.424 90.2902 185.146 89.8922ZM179.04 429.533L190.017 424.537C190.913 421.887 189.868 418.706 187.575 417.103C187.509 418.979 187.918 420.869 188.752 422.55C184.017 424.839 179.147 426.848 174.175 428.564C176.932 435.21 178.953 442.162 180.189 449.25C186.825 449.47 193.484 448.962 200.009 447.738L207.675 464.362L176.472 487.566C166.046 495.319 161.06 508.216 156.582 520.412C160.551 516.768 162.689 511.657 164.818 506.569C167.159 500.973 169.488 495.405 174.228 491.849L205.985 468.025C207.134 467.163 208.358 466.192 208.706 464.798C209.032 463.492 208.504 462.14 207.986 460.896L202.238 447.11C218.87 444.577 235.275 440.559 251.195 435.121L255.348 473.961C255.889 479.016 256.331 484.52 253.588 488.8C251.616 491.876 248.309 493.792 245.116 495.569C208.011 516.226 169.311 534.017 129.475 548.731L122.07 529.528C129.17 524.272 136.547 519.391 144.161 514.911C144.109 517.598 144.094 520.438 145.436 522.768C146.777 525.098 149.994 526.569 152.247 525.103C154.762 523.467 154.419 519.75 153.828 516.807C148.207 488.785 147.307 460.06 146.425 431.493C144.19 461.517 146.385 491.867 152.918 521.257C153.361 523.25 150.279 524.442 148.623 523.25C146.966 522.058 146.548 519.811 146.273 517.788C142.552 490.459 140.89 462.851 141.305 435.273C141.333 433.411 141.504 431.275 142.999 430.163C143.984 429.431 145.293 429.355 146.519 429.307L172.423 428.293C163.49 426.996 154.399 426.798 145.418 427.704C143.961 427.851 142.406 428.071 141.318 429.05C139.895 430.331 139.725 432.465 139.667 434.378C138.924 458.606 140.26 482.896 143.655 506.896C144.272 511.264 140.947 515.265 137.211 517.611C135.641 518.597 133.965 519.408 132.291 520.218C129.982 521.337 127.676 522.453 125.657 524.023C122.175 526.732 119.672 531.566 121.558 535.554L129.242 551.804C168.703 539.142 205.807 520.182 242.502 500.92C248.75 497.64 255.489 493.806 257.971 487.2C259.392 483.419 259.185 479.244 258.874 475.217C257.821 461.558 255.803 447.973 252.842 434.597C283.058 426.279 313.118 417.394 343.001 407.948C346.725 406.771 350.728 405.381 352.906 402.14C356.585 396.665 353.163 389.32 349.374 383.922C339.205 369.434 326.241 356.916 311.407 347.26C311.358 351.015 314.785 353.75 317.785 356.009C328.279 363.908 337.543 373.439 345.141 384.154C348.368 388.705 351.24 395.164 347.671 399.452C346.07 401.376 343.562 402.244 341.183 403.021C288.843 420.117 235.713 434.791 182.018 446.98L179.04 429.533ZM419.82 297.896C420.988 300.163 422.806 302.918 425.298 302.377C420.024 291.514 412.581 281.709 403.534 273.709L429.521 250.283L427.139 290.46C426.969 293.333 426.827 296.356 428.094 298.94C430.523 298.136 430.949 294.942 430.967 292.384C431.283 246.134 439.161 199.945 454.193 156.205C452.623 153.982 449.478 153.728 446.755 153.715C434.351 153.656 421.954 154.222 409.558 154.787C395.712 155.419 381.867 156.051 368.013 155.812C361.395 155.698 354.76 155.386 348.126 155.074C330.317 154.237 312.507 153.399 294.991 156.384C294.726 156.429 294.452 156.479 294.231 156.632C293.559 157.095 293.759 158.12 294.03 158.889C304.843 189.504 312.298 221.303 316.219 253.533C316.787 258.205 320.918 261.505 324.722 264.275L339.851 275.29C342.001 276.855 345.702 278.057 346.724 275.603C347.452 273.853 349.658 273.107 351.519 273.464C353.38 273.821 354.957 275.017 356.409 276.235C364.89 283.347 371.685 292.458 376.084 302.615L400.996 275.613C408.841 281.497 415.329 289.178 419.82 297.896ZM363.304 176.401C376.215 176.672 389.173 172.146 399.107 163.895C400.597 162.657 402.029 161.332 403.211 159.797C404.243 158.457 406.019 156.797 407.279 157.925C406.07 162.889 405.882 168.099 406.73 173.136C407.374 176.958 403.973 180.139 400.911 182.515L391.644 189.705C389.33 191.5 386.954 193.329 384.164 194.219C381.375 195.109 378.043 194.885 375.888 192.903L359.809 178.114C358.595 176.997 357.349 175.837 356.681 174.329C356.141 173.109 356.021 171.751 355.933 170.42C355.656 166.24 355.626 162.044 355.842 157.861C360.765 158.789 365.82 158.641 370.827 158.489L383.745 158.098C384.617 158.072 385.506 158.048 386.344 158.292C387.119 158.519 387.809 158.965 388.487 159.404L396.244 164.439C394.224 164.292 392.671 165.706 391.103 167.133H391.102C390.411 167.763 389.716 168.395 388.977 168.897C387.45 169.935 385.63 170.439 383.836 170.881C380.981 171.586 378.098 172.179 375.197 172.66C369.661 173.576 363.952 174.075 358.467 172.892C357.882 175.123 360.997 176.352 363.304 176.401ZM345.607 225.607C346.449 224.957 347.348 224.283 348.404 224.156C349.478 224.026 350.529 224.485 351.495 224.973C361.82 230.186 369.267 239.603 376.369 248.732C369.016 252.709 362.363 257.976 356.804 264.22L356.671 264.371C355.77 265.384 354.844 266.428 353.607 266.972C352.31 267.544 350.557 267.37 349.776 266.186C343.358 256.445 335.271 247.807 325.974 240.762L345.607 225.607ZM352.834 220.452C360.407 214.511 368.233 208.894 376.285 203.62C377.108 203.081 377.978 202.53 378.958 202.443C380.027 202.349 381.058 202.822 382.009 203.318C391.061 208.039 398.329 216.09 402.104 225.576C393.795 230.562 386.339 236.966 380.157 244.427C379.455 245.276 378.102 246.158 377.435 245.281C370.359 235.984 362.066 227.614 352.834 220.452ZM413.33 234.819C418.134 239.101 423.312 242.962 428.785 246.346C418.358 253.066 409.119 261.623 401.621 271.504C396.288 263.306 389.754 255.889 382.293 249.565C381.924 249.252 381.527 248.897 381.461 248.417C381.387 247.882 381.751 247.394 382.098 246.979C389.322 238.341 398.225 231.113 408.162 225.816C407.875 229.398 410.647 232.429 413.33 234.819ZM321.767 157.973C323.758 157.897 326.027 157.96 327.344 159.454C334.285 167.328 343.784 172.912 354.04 175.146C347.171 182.02 339.388 187.979 330.96 192.818C329.594 193.602 327.933 192.56 326.724 191.55C315.748 182.378 305.977 171.763 297.743 160.067C305.711 158.977 313.731 158.277 321.767 157.973ZM356.262 271.98C360.841 263.773 368.34 257.235 377.093 253.815C380.024 252.67 383.092 254.972 385.32 257.193C390.145 262.002 394.563 267.218 398.513 272.768C398.733 273.077 398.959 273.409 398.981 273.787C399.029 274.624 398.127 275.147 397.382 275.531C392.956 277.81 389.985 281.856 386.992 285.932C384.683 289.076 382.361 292.238 379.349 294.619C379.049 294.857 378.721 295.095 378.34 295.13C377.7 295.191 377.166 294.678 376.731 294.205L356.262 271.98ZM408.895 181.141C415.922 188.718 424.122 195.204 433.114 200.296C423.998 206.114 415.648 213.129 408.346 221.105C407.294 222.254 405.48 220.928 404.518 219.702C398.228 211.689 390.701 204.649 382.286 198.909C391.885 195.227 400.401 188.767 406.532 180.514C407.091 179.761 408.258 180.454 408.895 181.141ZM378.88 199.132C368.222 203.081 358.616 209.83 351.289 218.519C345.674 210.071 337.722 203.494 329.889 197.048C339.318 192.26 348.078 186.156 355.835 178.97C362.991 186.262 370.702 193.009 378.88 199.132ZM433.133 162.402C436.417 160.1 439.867 157.731 443.84 157.188C445.978 156.896 448.148 157.155 450.289 157.426C445.178 171.202 441.033 185.336 437.894 199.69C428.445 193.939 419.628 187.151 411.651 179.489C411.423 179.27 411.186 179.034 411.111 178.728C410.951 178.074 411.573 177.516 412.124 177.13L433.133 162.402ZM324.975 238.294C323.358 235.975 321.175 234.054 318.668 232.747L318.587 232.705L318.5 232.66C317.948 232.375 317.381 232.083 317.01 231.591C316.691 231.169 316.55 230.643 316.416 230.132C315.267 225.76 314.109 221.223 314.876 216.767C315.892 210.871 320.088 206.092 324.216 201.76C324.724 201.227 325.277 200.67 325.997 200.509C326.761 200.338 327.543 200.654 328.252 200.988C336.762 205.003 343.081 212.504 348.467 220.22C339.408 224.372 331.31 230.602 324.975 238.294ZM410.781 226.265C411.287 222.409 413.921 219.191 416.695 216.466C422.498 210.766 429.411 206.199 436.932 203.097L430.511 243.831C422.749 239.523 415.958 233.477 410.781 226.265ZM322.77 240.055C322.929 240.726 322.362 241.33 321.846 241.787L319.352 243.994C319.449 244.598 320.319 244.683 320.867 244.413C321.032 244.331 321.192 244.231 321.351 244.132C321.722 243.9 322.091 243.669 322.518 243.673C322.915 243.675 323.278 243.886 323.617 244.092C333.475 250.098 341.836 258.54 347.746 268.455C348.117 269.079 348.491 269.748 348.482 270.474C348.47 271.519 347.685 272.374 346.949 273.116C345.289 274.792 342.574 276.527 340.854 274.913C335.275 269.678 329.046 265.137 322.355 261.427C320.906 260.623 320.522 258.75 320.29 257.108L317.22 235.367C319.023 236.444 320.696 237.737 322.192 239.21C322.439 239.452 322.691 239.718 322.77 240.055ZM303.939 173.537C311.124 181.158 318.562 188.54 326.237 195.667C321.061 200.616 315.722 205.807 313.234 212.521L302.69 173.085C303.146 173.03 303.624 173.203 303.939 173.537ZM409.248 170.119C408.91 165.876 408.653 161.288 410.945 157.701L435.831 158.328L409.764 176.604L409.248 170.119ZM353.346 173.077L348.457 170.921L348.574 169.598C347.841 170.256 346.994 169.653 346.094 169.011C345.291 168.439 344.445 167.837 343.598 168.07C343.396 168.126 343.169 168.214 342.939 168.303C342.217 168.582 341.469 168.871 341.384 168.218C341.35 167.954 341.533 167.715 341.705 167.512L347.887 160.201C348.615 159.34 349.403 158.439 350.481 158.11C351.558 157.781 352.978 158.322 353.146 159.437C353.827 163.947 353.894 168.549 353.346 173.077ZM344.105 158.565C344.537 158.08 345.44 158.167 345.771 158.725C344.634 161.637 342.593 164.189 340.002 165.938C339.258 166.439 337.934 166.672 337.737 165.797C337.502 164.756 336.287 164.537 335.16 164.334C334.921 164.291 334.687 164.249 334.466 164.2C331.989 163.647 330.247 160.876 330.823 158.405C333.445 157.124 336.486 157.13 339.404 157.162C341.092 157.181 342.995 157.294 344.105 158.565ZM401.063 158.851C400.141 159.442 399.494 160.447 399.338 161.532C396.243 161.56 393.16 160.223 391.066 157.944C393.236 157.525 395.557 157.939 397.449 159.084C398.283 158.003 400.097 157.886 401.063 158.851ZM427.721 83.2892C425.067 78.6422 410.337 71.5362 399.64 69.3492C377.083 64.7382 353.316 66.1872 331.486 73.5052C349.492 64.9682 371.163 63.8472 391.734 65.8882C410.167 67.7162 435.536 83.5402 429.285 84.9472C424.05 86.1252 402.537 84.9472 391.066 82.1812C397.187 80.3812 409.93 81.8612 418.661 82.8752C424.191 83.5172 428.111 83.9722 427.721 83.2892Z" fill="#00160A"/>
<path fill-rule="evenodd" clip-rule="evenodd" d="M107.072 567.569C107.774 569.06 108.069 570.74 107.917 572.381C106.304 571.182 104.822 569.807 103.507 568.287C102.226 569.357 100.652 570.072 99.0037 570.334C98.8367 568.64 99.8487 566.894 101.401 566.196C99.4137 565.525 96.9827 564.122 97.4487 562.078C99.3647 562.098 101.277 562.441 103.08 563.089C103.063 561.31 103.971 559.548 105.431 558.531C105.851 560.416 106.27 562.302 106.69 564.187C107.793 564.661 108.951 565.005 110.134 565.21C109.494 566.371 108.358 567.247 107.072 567.569Z" fill="#FFB61D"/>
<path fill-rule="evenodd" clip-rule="evenodd" d="M159.187 468.576C157.41 468.091 155.804 467 154.698 465.527C153.523 466.411 152.063 466.908 150.593 466.923C151.022 465.786 151.682 464.736 152.52 463.857C151.227 462.707 150.037 461.441 148.969 460.079C150.754 458.776 153.77 461.807 155.223 460.142C155.672 459.628 155.689 458.879 155.926 458.239C156.163 457.6 156.917 457.004 157.48 457.389C158.161 458.599 158.444 460.028 158.275 461.406C159.267 461.72 160.259 462.035 161.25 462.35C161.215 463.505 159.894 464.423 158.799 464.055C158.928 465.562 159.058 467.069 159.187 468.576Z" fill="#FFB61D"/>
<path fill-rule="evenodd" clip-rule="evenodd" d="M336.624 280.1C337.617 279.233 339.155 279.913 340.242 280.66C347.567 285.693 353.173 292.795 358.66 299.787C359.199 300.473 359.769 301.269 359.638 302.132C359.507 302.995 358.201 303.564 357.75 302.817C352.996 294.928 346.641 288.009 339.184 282.602C338.209 281.895 337.177 281.171 336.624 280.1Z" fill="#00160A"/>
<path fill-rule="evenodd" clip-rule="evenodd" d="M352.569 300.029C345.91 296.25 338.957 292.991 331.792 290.29C330.216 289.696 328.256 290.427 327.454 291.908C326.457 291.181 327.045 289.429 328.182 288.951C329.319 288.473 330.617 288.849 331.785 289.244C338.018 291.349 344.091 293.928 349.935 296.95C351.208 297.609 352.655 298.598 352.569 300.029Z" fill="#00160A"/>
<path fill-rule="evenodd" clip-rule="evenodd" d="M323.215 278.926C325.341 284.828 326.139 291.204 325.533 297.448C325.466 298.134 325.186 299.009 324.496 299.012C323.7 299.017 323.508 297.911 323.562 297.117C324.013 290.571 323.152 283.937 321.045 277.723C321.607 276.852 322.864 277.951 323.215 278.926Z" fill="#00160A"/>
<path fill-rule="evenodd" clip-rule="evenodd" d="M356.114 293.242C352.686 289.23 349.258 285.217 345.83 281.204C345.42 280.723 344.993 280.027 345.366 279.515C349.88 283.247 353.575 287.965 356.114 293.242Z" fill="#00160A"/>
<path fill-rule="evenodd" clip-rule="evenodd" d="M206.302 226.628C205.123 231.728 198.948 234.978 194.048 233.136C193.396 232.891 193.104 232.149 192.89 231.487C190.084 222.782 188.231 213.77 187.375 204.665C187.22 203.016 187.101 201.321 187.573 199.733C188.599 196.278 192.696 194.08 196.142 195.136C198.491 195.855 200.301 197.808 201.406 200.002C202.511 202.195 203.004 204.637 203.485 207.045C204.281 211.02 205.076 214.995 205.871 218.97C206.377 221.497 206.882 224.117 206.302 226.628ZM195.265 231.433C196.034 232.099 197.157 232.194 198.159 232.014C202.452 231.243 204.808 226.301 204.667 221.942C204.527 217.583 202.653 213.489 201.701 209.233C201.037 206.269 200.785 203.116 199.202 200.524C197.619 197.932 194.06 196.181 191.49 197.799C188.896 199.433 188.921 203.166 189.334 206.204C190.384 213.922 191.966 221.568 194.066 229.07C194.307 229.933 194.587 230.845 195.265 231.433Z" fill="#FFB61D"/>
<path fill-rule="evenodd" clip-rule="evenodd" d="M201.075 227.074C200.169 227.656 198.897 227.267 198.158 226.483C197.419 225.7 197.088 224.627 196.796 223.59C195.061 217.445 193.858 211.149 193.206 204.797C193.116 203.926 193.043 203.012 193.381 202.205C193.72 201.397 194.61 200.75 195.453 200.99C196.274 201.224 196.676 202.128 196.962 202.933C199.326 209.585 201.008 216.48 201.972 223.473C202.151 224.771 202.178 226.366 201.075 227.074ZM194.609 202.144C194.774 209.787 196.201 217.4 198.814 224.584C199.113 225.405 199.945 226.397 200.645 225.873C200.145 217.678 198.085 209.582 194.609 202.144Z" fill="#FFB61D"/>
<path fill-rule="evenodd" clip-rule="evenodd" d="M373.387 103.744L370.369 111.761C369.69 111.618 368.89 111.443 367.989 111.247C359.841 109.468 343.385 105.877 332.186 107.454C321.36 108.978 316.49 116.328 315.56 122.183C314.239 130.5 315.413 139.197 318.893 146.865C317.587 147.051 319.042 147.192 322.414 147.295C322.834 147.392 323.291 147.419 323.708 147.42L330.169 147.44C343.293 147.595 365.027 147.557 382.815 147.462C382.87 147.545 382.925 147.628 382.981 147.71C389.667 147.963 396.365 147.915 403.047 147.566C404.046 147.514 405.057 147.452 406.042 147.282C411.229 147.222 413.536 147.165 411.201 147.131C417 142.3 411.45 132.964 405.433 128.407C395.899 121.188 384.993 115.787 373.472 112.58L376.157 102.727C384.312 101.724 392.258 99.0447 399.355 94.9047C401.44 99.6607 405.426 92.7357 389.309 84.5967C390.259 88.4707 393.017 91.8617 396.617 93.5797C390.926 97.4377 384.106 99.6097 377.232 99.7537C375.609 93.8357 379.12 86.9677 384.868 84.8167C375.109 84.8167 353.975 90.6597 343.039 96.4597C337.146 99.5847 336.557 104.792 337.256 105.625C343.772 92.5147 365.544 91.3807 373.387 103.744ZM406.042 147.282C406.809 147.15 407.559 146.952 408.274 146.643C409.906 145.935 411.344 144.522 411.591 142.76C411.648 142.351 411.641 141.934 411.635 141.518C411.625 140.905 411.615 140.295 411.809 139.72C411.871 139.536 411.951 139.345 412.032 139.151C412.326 138.449 412.633 137.717 412.134 137.225C401.787 126.996 388.809 119.45 374.802 115.516C374.007 115.293 373.068 115.108 372.428 115.628C372.067 115.921 371.889 116.376 371.726 116.811L368.032 126.639C372.214 128.071 375.119 131.891 377.12 135.833C377.837 137.246 378.475 138.704 379.111 140.16C380.21 142.673 381.308 145.183 382.815 147.462C392.324 147.412 400.706 147.345 406.042 147.282ZM330.169 147.44L352.536 147.51C354.38 147.516 355.609 145.671 356.486 144.049L365.136 128.035C360.164 128.993 355.41 130.755 350.652 132.519C347.751 133.594 344.849 134.67 341.894 135.565C334.092 137.927 325.341 138.937 318.02 135.351C318.131 138.77 319.496 142.135 321.799 144.663C321.176 144.903 320.828 145.689 321.069 146.312C321.285 146.872 321.811 147.155 322.414 147.295C324.395 147.355 327.037 147.403 330.169 147.44ZM320.491 133.698C317.459 131.87 315.52 127.855 317.023 124.65C323.249 111.373 327.945 108.973 342.556 110.22C350.912 110.934 359.235 112.043 367.486 113.544C368.581 113.743 370.015 114.615 369.446 115.571C369.837 120.199 366.732 124.894 362.321 126.347L349.594 130.536C343.447 132.559 337.242 134.596 330.806 135.263C327.284 135.628 323.524 135.525 320.491 133.698ZM356.951 147.405C362.386 146.881 367.863 147.056 373.321 147.232L379.437 147.429C377.682 141.771 374.972 136.411 371.456 131.643C370.785 130.733 370.033 129.804 368.98 129.391C367.926 128.977 366.501 129.299 366.072 130.346C363.622 136.322 360.56 142.048 356.951 147.405ZM373.565 99.7047C373.053 99.8617 372.512 99.6237 372.033 99.3837C367.845 97.2807 363.971 94.5527 360.578 91.3197C364.138 89.5767 368.113 88.6897 372.075 88.7517C372.622 88.7597 373.112 88.4897 373.6 88.2207C373.768 88.1287 373.935 88.0367 374.104 87.9557C374.767 87.6397 375.705 87.5607 376.106 88.1767C376.36 88.5657 376.287 89.0757 376.205 89.5337L374.715 97.7857C374.575 98.5607 374.318 99.4747 373.565 99.7047Z" fill="white"/>
</svg>
