<svg width="654" height="582" viewBox="0 0 654 582" fill="none" xmlns="http://www.w3.org/2000/svg">
<path fill-rule="evenodd" clip-rule="evenodd" d="M149.421 30.657C149.435 29.58 150.222 28.669 151.285 28.499C156.701 26.866 161.798 24.389 167.156 22.582C170.043 21.629 172.847 20.443 175.541 19.036C177.495 17.996 179.723 17.69 181.764 16.802L182.316 16.544C184.67 15.367 187.314 14.871 189.768 13.851C191.838 12.991 194.169 12.898 196.32 12.083C199.463 10.935 202.661 9.946 205.904 9.12C207.917 8.339 210.056 7.932 212.216 7.919C212.796 7.975 213.143 7.631 213.598 7.509C215.539 6.925 217.515 6.46 219.513 6.117C223.762 5.509 227.95 4.494 232.201 3.951C235.288 3.56 238.334 2.985 241.401 2.502C244.352 2.039 247.312 1.634 250.282 1.287C257.23 0.450003 264.221 0.02 271.219 0C276.697 0.052 282.168 0.413 287.606 1.083C292.034 1.446 296.434 2.103 300.775 3.052C304.215 3.921 307.803 4.297 311.102 5.46C314.214 6.557 317.407 7.491 320.524 8.503C327.744 10.845 334.848 13.467 341.837 16.371C345.953 18.075 350.06 19.879 354.189 21.513C359.034 23.429 363.624 25.881 368.459 27.811C371.291 28.944 374.071 30.491 376.87 31.823C379.581 33.112 382.094 34.772 384.884 35.891C387.628 37.104 390.308 38.455 392.914 39.94C395.383 41.239 398.322 42.054 400.255 44.344C402.712 44.182 404.151 46.245 406.09 47.183C408.03 48.12 409.926 49.198 411.881 50C413.897 50.825 415.928 51.723 417.897 52.596C421.896 54.369 426.042 55.749 430.022 57.503C432.451 58.571 435.025 58.832 437.479 59.664C442.188 61.231 447.041 62.325 451.966 62.931C453.949 63.136 455.889 63.64 457.721 64.428C459.095 65.06 460.378 64.212 461.755 64.587C463.985 65.195 466.315 65.426 468.591 65.86C469.291 66.123 470.08 65.988 470.653 65.507L471.958 66.997C472.776 67.148 472.163 66.397 472.592 66.172C473.544 66.263 474.594 66.116 475.518 66.837C476.385 67.516 477.318 66.634 478.324 66.949C480.513 67.627 483.089 66.352 485.091 68.207C487.274 67.588 489.447 68.274 491.626 68.285C492.681 68.233 493.717 68.557 494.553 69.193L494.743 69.346C495.509 70.05 496.679 68.402 497.373 69.754C501.147 69.017 504.486 70.949 507.896 71.835C513.366 73.258 518.977 74.272 524.243 76.635C526.878 77.816 529.959 78.279 532.666 79.432C538.751 82.023 545.023 84.202 550.799 87.523C553.184 88.896 555.875 89.738 558.249 91.135L560.992 92.75C565.103 95.178 569.19 97.651 573.113 100.382C574.113 100.871 574.956 101.63 575.546 102.573C576.108 103.768 577.599 103.279 578.58 104.014C579.749 104.882 580.382 106.23 581.803 106.95C582.587 107.347 583.446 108.427 584.353 108.89C587.303 110.394 589.029 113.405 592.012 114.838C593.023 115.55 593.862 116.479 594.469 117.556C596.836 120.516 600.376 122.288 602.475 125.436L602.752 125.874C603.783 127.542 605.187 128.947 606.851 129.978L607.5 130.368C607.979 130.659 608.424 130.966 608.518 131.415C608.913 133.29 610.528 134.246 611.581 135.582C612.71 137.013 614.322 138.036 615.319 139.662C616.156 141.409 617.296 142.994 618.688 144.342C621.311 146.336 622.763 149.127 624.576 151.669C625.483 152.938 627.015 153.942 626.738 155.943C626.596 156.961 628.772 156.217 628.584 157.686L628.555 157.852C628.332 158.854 628.964 159.371 629.858 159.837C630.676 160.263 630.093 161.832 631.07 162.112C632.047 162.392 633.17 163.133 632.946 163.632C632.393 164.884 634.332 164.849 633.801 165.841C633.772 165.96 633.801 166.085 633.878 166.18C636.177 168.751 636.795 172.272 638.977 174.97C640.222 176.646 641.139 178.542 641.68 180.558C642.306 182.389 643.083 184.165 644.003 185.867C645.463 188.826 645.965 192.093 647.443 195.009C647.842 195.799 646.208 197.201 648.194 197.527C647.688 198.747 648.902 199.331 649.167 200.242C649.251 201.06 649.208 201.886 649.04 202.691C650.082 204.248 650.742 206.027 650.967 207.886C651.87 211.593 652.537 215.352 652.966 219.143L653.31 222.265C653.763 226.434 654.106 230.624 653.244 234.802C653.022 235.877 654.092 236.26 653.994 237.219C653.454 242.808 653.486 248.432 651.929 253.942C651.278 256.249 651.444 258.878 650.793 261.249C649.562 265.744 648.912 270.362 647.143 274.763L646.819 275.538C645.622 278.279 644.818 281.313 643.664 284.149C642.934 286.101 594.998 515.822 432.192 457.24C354.985 429.458 285.064 576.95 178.862 545.603C-121.802 456.856 21.1802 88.056 142.291 32.987C143.22 32.747 144.113 32.389 144.95 31.921C146.194 30.887 147.819 30.427 149.421 30.657Z" fill="url(#paint0_linear)"/>
<path fill-rule="evenodd" clip-rule="evenodd" d="M253.501 452.818C249.29 413.867 252.292 364.865 267.367 328.704C264.604 333.879 304.34 342.344 303.919 344.562C301.156 359.111 299.386 375.509 297.008 393.597C294.307 414.144 296.147 436.145 298.426 452.53C303.818 491.297 257.708 491.732 253.501 452.818Z" fill="white"/>
<path fill-rule="evenodd" clip-rule="evenodd" d="M258.1 330.371C267.506 301.876 289.886 277.949 317.69 266.663C331.823 260.926 348.249 258.3 339.922 260.174C338.263 270.397 348.736 279.425 359.082 279.912C369.428 280.399 379.046 274.855 387.475 268.835C381.942 258.959 387.516 263.822 395.56 275C395.837 275.617 356.037 284.649 331.175 302.752C309.443 318.576 301.582 343.746 309.597 344.562C305.739 346.313 301.279 346.702 297.176 345.647C297.176 345.647 269.146 337.621 258.1 330.371Z" fill="white"/>
<path fill-rule="evenodd" clip-rule="evenodd" d="M258.1 330.37C267.506 301.875 289.886 277.949 317.69 266.663C322.819 264.581 336.02 259.921 343.264 256.024C356 249.174 353 243.203 353 238.87C353 234.039 374.559 228.112 379.043 231.481C382.18 233.838 380.54 242.598 382.361 249.92C385.217 261.406 390.879 272.282 393.151 270.659C399.963 280.254 429.362 287.698 453.768 314.347C464.27 325.814 467.136 339.065 470.887 349.18C474.164 358.018 480.425 364.074 482.098 366.401C482.224 366.682 442.622 385.455 442.622 385.455C442.622 385.455 452.73 442.67 439.19 452.53C417.458 468.354 298.033 512.897 306.048 513.713C303.802 514.733 294.152 434.289 295.784 396.153C296.956 368.782 305.633 345.003 303.919 344.562C303.919 344.562 269.146 337.621 258.1 330.37Z" fill="white"/>
<path fill-rule="evenodd" clip-rule="evenodd" d="M452.708 434.072C472.479 426.953 474.45 374.755 474.937 374.306C477.946 387.952 480.13 401.78 481.474 415.688C482.065 421.805 482.491 428.002 481.534 434.072C480.528 440.449 478.018 446.509 474.9 452.161C467.988 464.691 457.962 475.489 445.978 483.309C444.038 484.574 441.989 485.786 439.709 486.19C434.666 487.084 429.848 483.892 426.014 480.496C406.642 463.337 396.929 437.995 388.866 413.405C386.182 405.218 369.683 360.718 372.564 359.366C367.829 357.782 362.502 358.046 357.947 360.091C355.194 361.327 352.979 356.705 354.713 354.235C356.447 351.765 359.746 351.131 362.613 350.188C365.481 349.245 368.604 347.122 368.395 344.112C363.383 344.877 358.439 346.089 353.641 347.727C351.365 348.504 349.033 346.296 348.457 343.961C346.915 337.7 353.231 332.347 359.18 329.86C365.369 327.273 372.037 325.835 378.743 325.643C380.106 325.604 401.354 328.55 397.053 345.475C397.001 345.678 396.419 347.512 396.373 347.727C391.873 368.859 429.438 442.451 452.708 434.072Z" fill="white"/>
<path fill-rule="evenodd" clip-rule="evenodd" d="M363.268 326.819C361.105 325.689 362.209 322.43 363.449 320.328C367.457 313.533 370.01 305.885 370.888 298.045C376.883 297.248 383.169 298.931 387.964 302.616C388.744 303.215 389.518 303.911 389.827 304.845C390.226 306.049 389.768 307.352 389.315 308.537C387.078 314.381 384.841 320.224 382.604 326.068C386.432 326.071 367.803 329.413 363.268 326.819Z" fill="white"/>
<path fill-rule="evenodd" clip-rule="evenodd" d="M301.646 182.262C294.379 116.941 286.611 120.589 278.037 106.958C265.366 86.811 268.683 60.352 277.276 38.157C282.66 24.253 290.003 10.963 300.109 0C301.937 0.569 302.563 2.983 301.989 4.809C301.414 6.635 300.03 8.068 298.917 9.626C295.6 14.266 294.634 20.502 296.391 25.929C298.899 33.673 306.403 38.959 314.274 41.038C322.144 43.118 330.442 42.525 338.56 41.917C346.535 41.32 354.51 40.723 362.485 40.125C370.456 39.529 378.814 38.995 386.103 42.275C393.392 45.555 399.02 54.011 396.317 61.533C395.484 63.851 396.811 66.467 398.705 68.041C400.598 69.615 402.979 70.449 405.173 71.568C414.417 76.283 420.17 86.14 422.43 96.268C424.69 106.396 423.939 116.923 423.175 127.273C422.643 134.49 422.111 141.707 421.578 148.925C421.21 153.915 420.958 159.354 423.83 163.451C427.289 168.385 423.492 175.189 419.01 179.218C414.528 183.246 408.875 187.005 407.85 192.943C406.504 200.742 382.361 236.041 359.041 238.871C336.462 241.61 304.907 211.572 301.646 182.262Z" fill="white"/>
<path fill-rule="evenodd" clip-rule="evenodd" d="M311.175 191.089C317.733 191.528 324.321 191.511 330.876 191.039C333.338 190.861 336.248 190.31 337.231 188.045C338.413 185.321 341.265 183.406 344.234 183.344C347.204 183.281 350.134 185.074 351.43 187.747C352.821 190.618 356.912 190.469 360.031 189.794C368.312 188.001 376.46 185.594 384.387 182.601C387.978 181.245 390.066 177.308 390.375 173.483C390.684 169.657 389.552 165.878 388.434 162.207C378.454 164.497 368.165 165.008 357.938 165.51C337.326 166.523 316.714 167.536 296.101 168.549C297.403 174.285 298.704 180.022 300.005 185.758C300.29 187.015 300.611 188.339 301.506 189.266C302.401 190.193 304.074 190.497 304.942 189.545C302.242 183.202 299.485 176.36 300.884 169.61C302.619 175.435 304.354 181.26 306.089 187.086C306.411 188.165 306.771 189.305 307.622 190.043C308.572 190.866 309.92 191.005 311.175 191.089ZM388.065 160.334C388.857 159.39 388.251 157.475 387.036 157.685C357.782 162.73 327.814 160.661 298.191 162.595C296.571 162.7 294.432 163.381 294.573 164.998C299.167 166.552 304.15 166.281 308.991 165.994C334.217 164.494 359.442 162.994 384.668 161.494C385.898 161.42 387.273 161.278 388.065 160.334Z" fill="#E7EAEE"/>
<path fill-rule="evenodd" clip-rule="evenodd" d="M369.636 355.713C369.636 361.777 381.517 395.121 379.043 386.868C379.323 390.095 381.347 395.907 378.562 397.562C376.786 398.617 374.545 398.282 372.517 397.892C356.335 394.782 340.421 390.275 325.012 384.437C322.302 383.41 319.336 382.085 318.245 379.4C316.533 375.187 320.428 370.945 323.937 368.053C331.636 361.707 339.334 355.362 347.033 349.017C347.602 348.547 348.251 348.051 348.987 348.104C349.722 348.157 350.347 349.128 349.827 349.651C341.565 356.419 369.636 349.649 369.636 355.713Z" fill="white"/>
<path fill-rule="evenodd" clip-rule="evenodd" d="M378.562 397.562C376.786 398.617 374.546 398.282 372.517 397.892C356.335 394.783 340.422 390.275 325.012 384.437C322.302 383.411 319.336 382.085 318.245 379.4C316.533 375.187 322.421 369.999 327 367.5C334.954 363.158 343.286 372.629 354.416 379.4C366.212 386.576 380.586 391.187 380.242 390.221" fill="#FFB61D"/>
<path fill-rule="evenodd" clip-rule="evenodd" d="M416.173 214.784C415.535 214.88 415.742 215.857 416.116 216.383C420.01 221.865 423.904 227.347 427.798 232.829C428.46 233.761 429.098 235.126 428.282 235.926C416.958 230.903 407.786 221.22 403.384 209.641C404.18 208.743 405.528 209.959 406.094 211.017C409.961 218.247 415.226 224.726 421.512 229.99C422.156 230.53 423.124 231.062 423.757 230.51C417.706 223.501 412.843 215.469 409.436 206.859C409.293 206.497 409.151 206.105 409.246 205.729C409.433 204.993 410.454 204.768 411.13 205.113C411.807 205.459 412.214 206.156 412.607 206.806C416.019 212.45 421.071 217.09 426.984 220.01C427.562 218.89 426.554 217.64 425.656 216.755C418.847 210.037 413.861 201.487 411.369 192.252C410.868 190.396 411.09 187.619 413.011 187.539C413.493 191.921 414.724 196.219 416.633 200.193C419.01 205.141 422.394 209.524 425.752 213.866C428.463 217.37 431.174 220.874 433.884 224.378C433.363 225.061 432.301 224.859 431.494 224.566C425.754 222.478 420.482 219.112 416.173 214.784Z" fill="#00160A"/>
<path fill-rule="evenodd" clip-rule="evenodd" d="M352.5 202C360.508 202 367 206.701 367 212.5C367 218.299 362.093 223.606 354.085 223.606C346.076 223.606 338 218.299 338 212.5C338 206.701 344.492 202 352.5 202ZM352.5 205C345.979 205 340.037 208.605 340.037 212.5C340.037 216.395 346.111 221.418 352.632 221.418C359.154 221.418 364 216.395 364 212.5C364 208.605 359.021 205 352.5 205Z" fill="#00160A"/>
<path fill-rule="evenodd" clip-rule="evenodd" d="M207.34 328.783C207.144 329.186 207.039 329.633 207.032 330.081C206.176 329.649 205.32 329.216 204.464 328.783C207.556 336.419 210.647 344.054 213.738 351.69C214.213 352.862 214.706 354.064 215.576 354.982C215.502 352.677 214.819 350.441 214.142 348.237C212.179 341.848 210.216 335.458 208.253 329.069C208.101 328.744 207.65 328.603 207.34 328.783Z" fill="#FFB61D"/>
<path fill-rule="evenodd" clip-rule="evenodd" d="M221.083 304.577C222.065 306.083 222.146 307.98 222.632 309.711C223.672 313.414 226.542 316.285 228.377 319.665C230.212 323.046 230.675 327.907 227.585 330.197C226.097 331.301 226.375 333.545 226.58 335.386C226.785 337.227 226.303 339.663 224.468 339.919C223.427 340.064 222.424 339.334 221.91 338.417C221.395 337.5 221.262 336.426 221.119 335.385C220.163 328.43 218.352 321.594 215.737 315.079C215.083 313.449 214.446 311.392 215.643 310.107C217.157 308.48 215.168 305.459 216.548 303.717C217.665 302.308 220.101 303.071 221.083 304.577Z" fill="#FFB61D"/>
<path fill-rule="evenodd" clip-rule="evenodd" d="M341.217 300.131C341.911 298.532 342.605 296.932 343.3 295.333C344.149 293.375 345.709 291.038 347.778 291.563C348.397 291.72 348.926 292.134 349.338 292.622C351.448 295.121 350.48 299.049 348.509 301.659C347.158 303.447 345.399 304.925 343.404 305.946C342.187 306.569 340.671 305.417 340.394 304.078C340.117 302.74 340.673 301.385 341.217 300.131ZM346.596 300.172C347.224 299.394 347.867 298.589 348.145 297.629C348.423 296.669 348.246 295.504 347.456 294.891C344.862 297.307 342.974 300.474 342.082 303.905C342.72 304.491 343.692 303.768 344.236 303.095C345.023 302.12 345.81 301.146 346.596 300.172Z" fill="#FFB61D"/>
<path fill-rule="evenodd" clip-rule="evenodd" d="M300.178 303.954C303.325 301.505 308.576 302.998 310.238 306.622C311.9 310.246 309.892 314.985 306.251 316.609C305.295 317.035 304.257 317.274 303.212 317.31C301.291 317.374 299.266 316.666 298.111 315.13C296.908 313.528 296.831 311.333 297.211 309.367C297.61 307.302 298.518 305.245 300.178 303.954Z" fill="#FFB61D"/>
<path fill-rule="evenodd" clip-rule="evenodd" d="M373.958 152.685C371.398 155.162 367.238 154.399 363.798 153.469C362.164 153.027 360.529 152.585 358.894 152.143C357.266 151.703 355.262 151.359 354.114 152.596C353.046 153.746 350.918 152.165 351.229 150.626C351.54 149.088 353.234 148.22 354.795 148.057C360.297 147.482 365.271 152.717 370.731 151.823C371.965 151.62 373.756 151.451 373.958 152.685Z" fill="#00160A"/>
<path fill-rule="evenodd" clip-rule="evenodd" d="M294.936 295.703C296.254 294.61 298.148 294.103 299.734 294.751C301.319 295.399 302.342 297.372 301.655 298.941C301.183 300.017 300.096 300.676 299.038 301.188C297.589 301.888 295.784 302.421 294.443 301.53C292.555 300.277 293.191 297.149 294.936 295.703ZM296.148 298.563C295.572 298.851 295.711 299.897 296.343 300.024C297.74 299.616 299.072 298.982 300.269 298.154C299.14 297.092 297.07 297.324 296.205 298.61L296.148 298.563Z" fill="#FFB61D"/>
<path fill-rule="evenodd" clip-rule="evenodd" d="M369.884 232.599C367.645 233.086 365.157 232.077 363.89 230.168C374.364 231.044 385.14 227.326 392.846 220.179C400.553 213.032 405.07 202.566 404.984 192.056C404.387 192.223 403.814 192.478 403.29 192.81C402.103 192.305 402.885 190.51 403.795 189.596L421.588 171.732C424.666 168.642 420.859 162.822 416.497 162.841C412.136 162.859 408.638 166.452 406.343 170.161C403.715 174.406 401.923 179.165 401.098 184.089L391.929 164.075C390.848 166.144 391.47 168.436 392.106 170.778C392.51 172.265 392.919 173.773 392.9 175.255C392.821 181.664 385.392 184.991 379.232 186.758L362.469 191.567C358.033 192.84 351.915 193.383 350.109 189.136C348.338 184.973 341.256 184.858 339.351 188.96C337.547 192.841 332.379 193.477 328.099 193.46C319.95 193.429 311.803 192.999 303.696 192.172C302.453 192.045 301.12 191.87 300.196 191.028C299.366 190.272 299.034 189.129 298.738 188.046L293.413 168.555C292.832 166.43 292.265 164.098 293.171 162.09C294.077 160.082 297.175 159.052 298.502 160.811C295.9 150.322 295.457 139.302 297.209 128.638L300.527 160.556L381.341 157.159C383.099 157.085 385.147 156.849 386.057 155.343C386.856 154.024 386.392 152.334 385.9 150.872C383.923 144.994 381.827 139.156 379.611 133.364C378.927 131.574 378.176 129.71 376.711 128.475C373.599 125.852 368.927 127.151 365.056 128.411C349.743 133.393 333.248 135.624 317.446 132.527C301.644 129.429 286.611 120.589 278.037 106.958C265.365 86.811 268.682 60.352 277.276 38.157C282.66 24.253 290.003 10.963 300.109 0C301.937 0.569 302.563 2.983 301.989 4.809C301.557 6.182 300.667 7.333 299.778 8.482C299.486 8.861 299.193 9.24 298.917 9.626C295.6 14.266 294.634 20.502 296.391 25.929C298.899 33.673 306.403 38.959 314.274 41.038C322.144 43.118 330.442 42.525 338.56 41.917L362.485 40.125C370.455 39.529 378.814 38.995 386.103 42.275C393.392 45.555 399.02 54.011 396.317 61.533C395.484 63.851 396.811 66.467 398.704 68.041C400.072 69.178 401.693 69.928 403.314 70.679C403.939 70.968 404.563 71.257 405.173 71.568C414.417 76.283 420.17 86.14 422.43 96.268C424.69 106.396 423.938 116.923 423.175 127.273L421.578 148.925C421.21 153.915 420.958 159.354 423.83 163.451C427.289 168.385 423.492 175.189 419.01 179.218C418.242 179.908 417.439 180.591 416.631 181.278C412.726 184.599 408.7 188.023 407.85 192.943C405.407 207.089 399.34 222.284 386.249 228.173C384.462 228.977 382.595 229.579 380.728 230.181C378.923 230.763 377.119 231.344 375.386 232.109C373.746 232.832 372.178 233.715 370.611 234.597C368.342 235.875 366.077 237.151 363.602 237.936C355.936 240.368 347.571 237.704 340.449 233.964C324.064 225.359 310.889 210.799 303.958 193.639C306.635 193.626 308.23 196.515 309.377 198.933C316.285 213.502 328.267 225.605 342.766 232.66C351.394 236.858 362.675 238.932 369.884 232.599ZM397.255 72.436C396.458 72.102 395.591 71.79 394.747 71.976C393.652 72.216 392.986 73.158 392.313 74.109L392.312 74.11C392 74.551 391.686 74.995 391.327 75.372C390.194 76.56 387.394 76.271 387.776 74.674C389.908 70.43 392.071 66.087 392.712 61.381C393.353 56.674 392.207 51.454 388.625 48.336C386.148 46.18 382.837 45.268 379.603 44.697C369.233 42.865 358.659 43.893 348.134 44.916C345.899 45.133 343.667 45.35 341.439 45.54C328.719 46.621 315.343 46.673 303.903 41.008C296.127 37.158 291.498 27.817 293.142 19.298C279.464 35.952 273.311 58.214 274.907 79.706C275.366 85.885 276.444 92.063 278.709 97.831C284.309 112.095 297.071 122.929 311.555 127.933C326.039 132.936 342.044 132.482 356.849 128.527C371.654 124.572 385.375 117.268 398.157 108.816C398.99 108.266 400.07 109.47 399.811 110.433C399.552 111.397 398.597 111.977 397.722 112.457L375.549 124.643C379.98 126.97 382.375 131.841 384.257 136.478C386.656 142.386 388.699 148.439 390.371 154.593L414.138 135.503C414.963 134.841 416.638 134.514 416.673 135.571L394.002 154.424C392.858 155.375 391.595 156.64 391.891 158.099L413.452 140.342C415.755 138.445 418.215 136.284 418.685 133.338C420.791 120.134 422.828 106.193 417.992 93.727C414.31 84.237 406.645 76.367 397.255 72.436ZM307.622 190.043C308.572 190.867 309.92 191.005 311.175 191.089C317.733 191.528 324.321 191.511 330.876 191.039C333.338 190.861 336.248 190.31 337.231 188.045C338.413 185.321 341.265 183.406 344.235 183.344C347.204 183.282 350.134 185.075 351.43 187.747C352.821 190.618 356.912 190.469 360.031 189.794C368.312 188.001 376.461 185.594 384.387 182.601C387.978 181.245 390.066 177.309 390.375 173.483C390.684 169.657 389.552 165.878 388.434 162.207C378.454 164.497 368.165 165.008 357.938 165.511L296.102 168.549L300.005 185.758C300.29 187.015 300.611 188.339 301.506 189.266C302.401 190.193 304.074 190.497 304.942 189.545C302.242 183.202 299.485 176.36 300.884 169.61L306.09 187.086C306.411 188.165 306.771 189.306 307.622 190.043ZM384.668 161.494C385.898 161.421 387.273 161.278 388.065 160.334C388.857 159.39 388.251 157.476 387.036 157.685C368.313 160.914 349.296 161.229 330.265 161.544C319.562 161.722 308.854 161.899 298.191 162.595C296.571 162.701 294.432 163.381 294.573 164.998C299.167 166.552 304.15 166.282 308.991 165.994L384.668 161.494ZM416.641 147.088C417.79 146.012 418.06 144.32 418.264 142.759L418.824 138.479L394.164 158.948C393.794 159.255 393.403 159.596 393.297 160.064C393.185 160.558 393.419 161.057 393.647 161.509L401.276 176.632C402.86 165.428 408.377 154.819 416.641 147.088ZM418.11 151.924C418.179 150.766 418.205 149.477 417.441 148.604C413.621 153.076 410.265 157.945 407.444 163.106C407.097 163.741 406.797 164.633 407.35 165.1C410.042 162.85 413.164 161.116 416.498 160.022C417.492 159.696 417.723 158.418 417.786 157.374L418.11 151.924ZM317.69 266.663C289.886 277.949 267.506 301.876 258.099 330.371C269.146 337.621 297.176 345.647 297.176 345.647C301.279 346.702 305.739 346.313 309.597 344.562C292.413 342.812 275.626 337.276 260.771 328.463C273.737 296.137 302.783 270.733 336.547 262.186C339.39 268.115 342.338 274.189 347.134 278.687C351.93 283.185 359.061 285.817 365.22 283.515C374.055 280.214 382.483 275.823 390.25 270.472C393.336 276.614 393.944 283.946 391.974 290.525L391.386 292.262C391.603 291.69 391.799 291.11 391.974 290.525L395.707 279.483L433.182 302.514C440.637 307.096 448.226 311.791 453.874 318.475C459.674 325.338 463.019 333.791 466.362 342.239C469.779 350.874 473.194 359.506 479.229 366.431C468.077 374.575 455.905 381.322 443.088 386.462L432.653 349.718L445.956 430.006C446.552 416.236 445.654 402.402 443.283 388.825C457.641 383.741 471.037 375.951 482.557 365.986C475.197 359.257 471.647 349.855 468.068 340.375C465.5 333.573 462.917 326.731 458.9 320.809C447.297 303.703 414.064 285.126 400.775 277.698C397.386 275.804 395.295 274.635 395.19 274.4C387.146 263.222 382.286 249.779 381.324 236.041C379.746 247.251 381.941 258.959 387.475 268.835C379.046 274.855 369.427 280.399 359.081 279.912C348.736 279.425 338.263 270.397 339.921 260.174C348.249 258.3 354.382 249.491 353.251 241.031C350.101 254.061 335.938 259.554 322.958 264.588L322.953 264.59L322.948 264.592C321.162 265.285 319.399 265.969 317.69 266.663ZM253.694 454.577C246.989 456.122 238.936 459.335 233.506 465.783C229.71 470.291 227.113 473.79 224.925 476.737C221.307 481.612 218.809 484.977 213.857 488.902C216.68 487.179 219.94 490.932 220.108 494.235C220.166 495.38 220.06 496.551 219.955 497.716C219.756 499.91 219.56 502.087 220.461 504.049C222.819 502.588 225.239 501.069 226.867 498.823C228.495 496.577 229.157 493.396 227.734 491.015C227.247 490.201 227.961 489.212 228.641 488.551C232.838 484.473 237.617 480.994 242.789 478.255C243.522 480.434 243.299 482.917 242.19 484.931L244.716 487.877L238.885 502.477L253.476 487.655C256.38 484.705 260.365 481.5 264.2 483.057C266.149 483.848 267.38 485.656 268.588 487.429C268.856 487.822 269.123 488.214 269.396 488.593C272.341 492.672 276.7 495.71 281.546 497.062C281.619 495.755 282.301 494.494 283.355 493.719C284.795 496.077 287.162 497.851 289.83 498.572L286.221 483.139C286.03 482.323 285.85 481.422 286.247 480.685C287.245 478.832 290.115 480.13 291.455 481.753C292.796 483.375 294.782 485.405 296.601 484.347L295.152 479.355C294.663 477.67 295.478 474.851 296.983 475.75C297.477 476.046 297.658 476.66 297.799 477.218L300.555 488.137C304.055 484.15 303.678 477.855 301.1 473.218C300.71 472.516 300.385 471.771 300.042 470.985C298.118 466.578 295.642 460.907 278.117 454.629C275.542 453.706 272.651 453.616 269.76 453.527C268.314 453.482 266.869 453.437 265.463 453.289C264.383 453.174 260.828 453.229 256.295 454.044C261.45 491.457 257.797 491.483 253.694 454.577ZM255.863 450.861C257.295 450.669 258.757 450.572 260.251 450.58C260.019 450.58 307.177 448.329 307.177 483.467C307.177 486.866 305.162 491.05 301.782 490.929C308.928 509.123 317.257 526.852 326.7 543.967C317.734 546.892 308.14 547.877 298.767 546.836C286.276 558.941 266.101 562.282 250.375 554.849C252.466 558.385 246.072 560.546 242.043 559.743L199.272 551.221C195.91 550.551 191.723 548.927 191.779 545.499C191.82 542.95 194.303 541.239 196.446 539.859C209.865 531.213 220.356 518.107 225.853 503.121C223.956 507.773 215.249 505.798 215.545 500.783C203.681 496.303 191.761 506.534 183.18 515.871L134.41 568.936L311.3 577.842C321.242 578.342 329.209 570.135 335.707 562.595L381.49 509.472L308.699 503.079C335.206 503.096 361.713 504.661 388.038 507.763C368.131 531.658 347.456 554.913 326.055 577.481C322.826 580.887 317.558 581.084 312.865 581.038C253.085 580.452 193.324 577.827 133.723 573.168C130.775 571.859 132.619 567.398 134.797 565.02L179.402 516.334C189.461 505.354 203.321 493.316 217.348 498.314C219.009 497.212 217.616 495.762 216.014 494.096C214.94 492.979 213.773 491.764 213.368 490.491C212.836 488.819 213.852 487.086 214.824 485.625C224.568 470.972 236.889 454.867 253.339 451.303C249.27 412.813 248.6 372.679 263.48 336.986C253.51 373.955 250.91 412.894 255.863 450.861ZM394.67 360.544C394.646 357.599 395.112 354.584 395.571 351.608C396.552 345.26 397.505 339.089 393.62 334.153C390.204 329.813 384.211 328.461 378.69 328.324C368.752 328.078 358.168 330.566 351.149 337.607C350.313 338.446 349.986 340.696 350.903 340.494C353.009 340.029 354.749 339.064 356.459 338.115C357.977 337.272 359.472 336.443 361.18 335.987C364.812 335.018 368.975 335.291 371.936 337.607C364.522 336.257 350.234 340.496 351.149 344.111C351.82 346.762 355.985 345.169 359.661 343.763C361.001 343.251 362.276 342.764 363.293 342.515C366.592 341.71 371.537 342.066 371.587 345.462C371.617 347.514 369.569 348.897 367.767 349.881C366.392 350.633 364.484 351.367 362.577 352.1C358.762 353.568 354.947 355.035 355.387 356.646C356.002 358.9 358.939 357.962 362.228 356.913C364.795 356.094 367.577 355.206 369.636 355.713C374.203 356.838 376.179 362.1 377.435 366.632L378.089 368.992C384.664 392.724 391.261 416.539 401.091 439.112C407.895 454.736 416.612 470.154 430.183 480.462C431.774 481.67 433.514 482.837 435.499 483.063C437.429 483.283 439.337 482.584 441.115 481.804C455.143 475.653 466.176 463.787 473.273 450.214C476.112 444.785 478.395 438.997 479.247 432.931C480.012 427.493 479.613 421.963 479.077 416.497C477.947 404.99 476.212 393.542 473.882 382.217C473.32 379.484 472.886 376.197 474.937 374.306C477.946 387.952 480.13 401.78 481.474 415.688C482.064 421.805 482.491 428.002 481.534 434.072C480.528 440.448 478.018 446.509 474.9 452.161C467.988 464.691 457.962 478.489 445.977 486.309C444.038 487.574 441.989 488.786 439.709 489.19C434.666 490.084 429.848 486.892 426.014 483.496C406.642 466.337 396.928 437.995 388.866 413.405C386.182 405.218 383.602 396.996 381.129 388.742C381.408 391.969 381.347 395.908 378.562 397.562C376.786 398.617 374.546 398.282 372.517 397.892C356.335 394.782 340.421 390.275 325.012 384.437C322.302 383.411 319.336 382.085 318.245 379.4C316.533 375.187 320.428 370.946 323.937 368.054L347.033 349.017C347.602 348.548 348.251 348.051 348.987 348.104C349.722 348.157 350.347 349.128 349.827 349.651L325.043 369.955C322.233 372.256 319.137 375.924 321 379.042C321.821 380.416 323.39 381.128 324.872 381.738C339.614 387.801 355.141 391.74 370.736 395.042C372.686 395.455 374.749 395.853 376.637 395.214C378.525 394.575 380.078 392.496 379.41 390.618L371.354 367.938C370.289 364.94 369.683 360.718 372.564 359.366C367.829 357.782 362.502 358.046 357.947 360.091C355.194 361.327 352.979 356.705 354.713 354.235C356.17 352.16 358.731 351.38 361.213 350.625C361.685 350.482 362.155 350.339 362.613 350.188C365.48 349.245 368.604 347.122 368.395 344.111C363.383 344.877 358.439 346.089 353.641 347.727C351.365 348.504 349.032 346.296 348.457 343.961C346.914 337.7 353.23 332.347 359.179 329.86C365.369 327.273 372.037 325.835 378.743 325.643C380.106 325.604 380.895 324.123 381.397 322.855L387.943 306.324L373.508 302.258L363.268 326.819C361.105 325.689 362.209 322.43 363.449 320.328C367.457 313.533 370.011 305.885 370.888 298.045C376.883 297.248 383.169 298.931 387.964 302.616C388.744 303.215 389.518 303.911 389.827 304.845C390.227 306.049 389.768 307.352 389.315 308.537L382.604 326.068C388.605 326.073 394.437 329.87 396.869 335.356C398.984 340.127 398.561 345.413 398.137 350.709V350.71C397.964 352.875 397.79 355.042 397.79 357.176C397.79 371.049 405.217 383.695 412.413 395.556L420.013 408.083C422.47 412.132 424.941 416.201 428.01 419.807C433.849 426.667 441.822 431.683 450.533 433.977C442.886 434.499 435.451 430.708 429.901 425.422C424.352 420.136 420.383 413.444 416.486 406.845L404.395 386.368C399.763 378.522 394.744 369.656 394.67 360.544ZM373.723 363.05C373.544 362.542 373.313 361.978 372.814 361.778C371.977 363.09 372.336 364.804 372.762 366.301C374.428 372.159 376.688 377.849 379.496 383.254C378.396 376.326 376.054 369.666 373.723 363.05ZM373.125 299.893C376.782 301.753 380.859 302.78 384.961 302.876C381.437 300.72 377.25 299.665 373.125 299.893ZM380.163 386.524C379.966 387.082 380.408 387.767 380.997 387.818C380.825 386.322 380.357 384.86 379.628 383.543C379.335 384.502 379.506 385.591 380.077 386.416L380.163 386.524ZM434.729 508.249C433.937 507.958 433.949 506.848 434.107 506.019L436.54 493.314C436.693 492.516 437.04 491.534 437.85 491.476C438.87 491.403 439.229 492.8 439.186 493.822C439.003 498.199 438.137 502.548 436.629 506.662C436.311 507.527 435.594 508.567 434.729 508.249ZM214.16 549.312C207.486 550.2 199.976 550.873 194.72 546.665C194.393 546.404 194.069 546.112 193.908 545.725C193.233 544.093 195.623 543.055 197.341 542.647C203.305 541.23 207.737 536.323 211.456 531.45C219.862 520.433 226.723 508.24 231.775 495.336C231.876 495.078 231.978 494.818 232.079 494.557C233.918 489.839 235.857 484.86 239.993 481.999C241.642 489.233 239.926 497.164 235.432 503.069C236.139 504.416 237.998 504.789 239.437 504.296C240.876 503.803 241.99 502.673 243.048 501.58L254.722 489.509C257.464 486.674 261.805 483.673 264.905 486.11C265.918 486.906 266.463 488.096 267.007 489.286C267.215 489.74 267.423 490.194 267.656 490.626C270.34 495.587 275.925 497.222 281.58 498.878C284.226 499.653 286.888 500.432 289.276 501.56C290.101 501.949 291.281 502.298 291.759 501.521C291.92 501.258 291.937 500.935 291.945 500.628C292.102 494.533 290.724 488.406 287.974 482.965C292.96 485.396 298.398 488.316 300.229 493.553C306.191 510.608 313.469 527.202 321.976 543.141C311.75 545.012 301.136 544.735 291.022 542.336C290.815 544.847 292.904 547.321 295.414 547.538C290.417 549.05 285.446 550.652 280.506 552.344L284.261 555.442C271.422 556.28 258.463 555.258 245.915 552.417C246.146 554.463 246.563 556.489 247.161 558.46C237.873 556.844 228.715 554.483 219.804 551.406L221.289 548.364L214.16 549.312Z" fill="#00160A"/>
<path fill-rule="evenodd" clip-rule="evenodd" d="M298.738 290.864C297.77 291.273 296.526 291.301 295.787 290.554C294.872 289.63 295.179 288.073 295.748 286.903C296.252 285.868 296.957 284.868 297.988 284.354C299.019 283.84 300.427 283.956 301.139 284.861C301.577 285.416 301.691 286.168 301.632 286.872C301.487 288.593 300.329 290.191 298.738 290.864Z" fill="#FFB61D"/>
<path fill-rule="evenodd" clip-rule="evenodd" d="M324.603 153.06C323.113 153.713 321.78 151.871 320.245 151.334C318.642 150.773 316.939 151.707 315.486 152.586C312.428 154.437 309.313 156.194 306.147 157.854C305.498 158.194 304.793 158.541 304.066 158.446C303.339 158.351 302.659 157.598 302.925 156.915C303.075 156.531 303.457 156.298 303.814 156.093C306.479 154.564 309.143 153.034 311.808 151.505C315.249 149.53 319.215 147.487 323.002 148.669C323.97 148.971 324.924 149.533 325.366 150.446C325.809 151.358 325.532 152.653 324.603 153.06Z" fill="#00160A"/>
<path fill-rule="evenodd" clip-rule="evenodd" d="M331.183 209.635C330.277 211.834 328.898 214.386 326.523 214.499C324.399 214.6 322.737 212.543 322.237 210.477C321.54 207.598 322.638 204.163 325.281 202.826C327.924 201.489 331.807 203.204 332.022 206.158C332.109 207.359 331.642 208.522 331.183 209.635Z" fill="#FFB61D"/>
<path fill-rule="evenodd" clip-rule="evenodd" d="M377.689 207.777L377.712 208.243C377.85 210.516 378.353 213.083 380.405 213.942C382.366 214.764 384.631 213.399 385.807 211.628C387.447 209.161 387.59 205.558 385.564 203.398C383.538 201.238 379.302 201.521 378.09 204.223C377.597 205.322 377.639 206.575 377.689 207.777Z" fill="#FFB61D"/>
<path fill-rule="evenodd" clip-rule="evenodd" d="M381.787 165.905C382.407 165.741 383.178 165.734 383.563 166.246C383.82 166.587 383.818 167.052 383.795 167.478C383.693 169.347 382.891 171.697 381.02 171.739C379.58 171.772 378.502 170.118 378.795 168.709C379.089 167.299 380.395 166.272 381.787 165.905Z" fill="#FFB61D"/>
<path fill-rule="evenodd" clip-rule="evenodd" d="M378.627 181.257C377.713 179.636 379.566 177.883 381.178 176.951C382.516 176.177 384.623 175.625 385.269 177.029C385.713 177.995 384.977 179.067 384.283 179.872C383.534 180.741 382.74 181.638 381.674 182.061C380.608 182.483 379.191 182.256 378.627 181.257Z" fill="#FFB61D"/>
<path fill-rule="evenodd" clip-rule="evenodd" d="M365.844 173.654C365.602 174.287 365.334 174.941 364.823 175.385C364.114 176 363.063 176.08 362.158 175.832C360.327 175.331 358.932 173.48 359.048 171.585C359.163 169.689 360.851 167.993 362.749 167.956C364.648 167.919 366.43 169.634 366.38 171.532C366.361 172.265 366.106 172.969 365.844 173.654Z" fill="#00160A"/>
<path fill-rule="evenodd" clip-rule="evenodd" d="M320.031 176.497C317.926 176.279 316.358 173.86 317.019 171.85C317.679 169.84 320.376 168.822 322.2 169.895C324.024 170.968 324.444 173.82 323.008 175.374C322.261 176.181 321.125 176.61 320.031 176.497Z" fill="#00160A"/>
<path fill-rule="evenodd" clip-rule="evenodd" d="M344.822 205.697L348.993 204.919L349.044 205.572C349.359 210.134 348.617 212.274 346.816 211.991C344.983 211.704 344.304 209.712 344.779 206.018L344.822 205.697ZM348.06 206.093L346.199 206.613C345.951 209.224 346.247 210.628 347.089 210.826C347.93 211.024 348.254 209.447 348.06 206.093Z" fill="#00160A"/>
<path fill-rule="evenodd" clip-rule="evenodd" d="M353.254 204.767L358.837 204L358.904 204.63C359.33 209.14 358.336 211.255 355.923 210.976C353.464 210.691 352.557 208.719 353.2 205.06L353.254 204.767ZM354.172 205.246C353.8 207.444 354.2 209.819 355.461 209.986C356.723 210.153 357.64 208.632 357.349 205.808L356.878 205.683C356.514 205.59 356.221 205.523 356 205.484L355.704 205.436C355.322 205.378 354.812 205.315 354.172 205.246Z" fill="#00160A"/>
<path fill-rule="evenodd" clip-rule="evenodd" d="M290.21 390.668C288.881 392.64 287.552 394.611 286.222 396.582C285.413 396.569 285.364 395.375 285.595 394.599C286.836 390.419 288.077 386.24 289.318 382.06C288.443 381.668 287.636 382.703 287.231 383.571C283.134 392.333 279.024 401.133 276.241 410.396C273.458 419.659 272.032 429.471 273.425 439.042C274.333 436.922 275.24 434.802 276.148 432.682C277.59 429.314 279.037 425.935 280.904 422.783C282.936 419.35 285.448 416.214 287.394 412.731C289.34 409.248 290.72 405.263 290.196 401.308C289.411 402.4 288.626 403.492 287.841 404.584C285.621 400.264 291.604 395.321 290.21 390.668Z" fill="#FFB61D"/>
<path fill-rule="evenodd" clip-rule="evenodd" d="M232.875 385.996C234.891 386.024 233.15 381.816 234.963 380.936C236.113 380.379 237.171 381.84 237.602 383.043C240.508 391.15 242.212 399.686 242.638 408.288C243.122 418.026 249.801 427.484 247.086 436.849C246.894 437.512 246.637 438.19 246.123 438.65C244.276 440.302 241.594 437.896 240.42 435.715C236.393 428.231 233.65 420.059 232.346 411.661C232.059 409.811 231.825 407.902 230.924 406.261C230.167 404.881 228.985 403.781 228.156 402.443C226.523 399.807 226.414 396.538 226.352 393.437C226.239 387.773 226.126 382.108 226.014 376.443C225.973 374.384 226.466 371.667 228.512 371.431C230.71 376.021 232.187 380.954 232.875 385.996Z" fill="#FFB61D"/>
<path fill-rule="evenodd" clip-rule="evenodd" d="M194.72 546.665C199.976 550.873 207.486 550.2 214.16 549.312C216.537 548.996 218.913 548.68 221.29 548.364C220.795 549.378 220.3 550.392 219.804 551.406C228.715 554.483 237.873 556.844 247.161 558.46C246.564 556.489 246.146 554.463 245.915 552.417C258.464 555.258 271.422 556.28 284.261 555.442C283.01 554.409 281.758 553.376 280.507 552.344C285.447 550.652 290.417 549.05 295.415 547.538C292.905 547.321 290.815 544.847 291.022 542.336C301.137 544.735 311.75 545.012 321.976 543.141C313.469 527.202 306.192 510.608 300.229 493.553C298.398 488.317 292.96 485.396 287.974 482.965C290.725 488.406 292.102 494.533 291.945 500.628C291.937 500.935 291.921 501.259 291.76 501.521C291.282 502.298 290.101 501.949 289.276 501.56C281.789 498.024 271.596 497.908 267.657 490.626C266.81 489.061 266.304 487.209 264.906 486.11C261.805 483.673 257.464 486.674 254.722 489.509C250.831 493.532 246.939 497.556 243.048 501.58C241.99 502.673 240.876 503.803 239.437 504.296C237.998 504.789 236.14 504.416 235.433 503.069C239.926 497.164 241.642 489.233 239.993 481.999C235.629 485.018 233.71 490.396 231.776 495.336C226.723 508.24 219.862 520.433 211.456 531.45C207.737 536.323 203.305 541.23 197.341 542.647C195.623 543.055 193.233 544.093 193.909 545.725C194.069 546.112 194.393 546.404 194.72 546.665Z" fill="white"/>
<path fill-rule="evenodd" clip-rule="evenodd" d="M297.501 451.818C293.29 412.867 292.405 372.147 307.479 335.986C297.298 373.74 294.802 413.55 300.189 452.281C305.582 491.048 301.708 490.732 297.501 451.818Z" fill="#00160A"/>
<path fill-rule="evenodd" clip-rule="evenodd" d="M251.299 348.449C251.54 345.847 251.883 343.254 252.326 340.679C252.561 339.315 254.572 338.973 255.673 339.811C256.775 340.65 257.162 342.108 257.462 343.459C262.078 364.251 262.311 386.006 258.14 406.892C257.746 408.865 256.72 411.316 254.711 411.2C252.956 411.099 252.078 409.076 251.599 407.385C247.783 393.919 244.378 380.336 241.391 366.663C240.62 363.131 239.872 359.53 240.184 355.928C240.497 352.327 242.025 348.663 244.986 346.589C246.128 345.789 247.54 345.239 248.909 345.506C250.277 345.772 251.491 347.068 251.299 348.449Z" fill="#FFB61D"/>
<path fill-rule="evenodd" clip-rule="evenodd" d="M291.227 482.433C292.71 484.992 297.659 485.893 296.977 484.3C296.295 482.707 296.081 481.37 295.399 479.777C294.709 478.165 295.174 475.267 296.777 475.977C297.304 476.209 297.558 476.797 297.766 477.334C299.122 480.834 299.2 484.636 300.555 488.137C305.602 483.755 302.457 473.119 299.333 468.83C296.209 464.542 295.125 458.194 273.727 453.367C269.725 452.464 265.1 452.49 260.858 452.561C258.068 452.607 239.489 455.759 230.638 467.42C221.786 479.08 220.976 481.683 213.857 488.902C216.516 488.137 219.408 490.49 219.977 493.748C220.546 497.006 218.241 501.478 219.977 504.293C229.748 502.007 228.159 493.805 228.754 493.067C232.423 488.507 235.47 481.316 241.541 481.123C242.535 483.197 242.131 485.555 241.761 487.823C242.717 488.695 239.829 497.99 238.493 503.057C242.718 497.56 249.069 494.647 253.295 489.151C255.818 485.869 259.382 482.202 263.378 483.28C265.86 483.949 267.322 487.266 269.069 489.151C272.49 492.841 276.571 496.311 281.546 497.062C281.459 495.756 282.711 495.256 283.663 494.357C285.38 496.522 287.537 498.56 290.272 498.951C288.451 493.991 288.629 488.714 286.808 483.755C286.52 482.969 286.231 482.096 286.535 481.316C287.3 479.355 289.745 479.874 291.227 482.433Z" fill="#FFB61D"/>
<path fill-rule="evenodd" clip-rule="evenodd" d="M489.076 185.908C491.586 185.848 493.499 186.341 497.117 187.787C497.117 187.787 503.709 190.904 503.472 191.698C503.235 192.491 499.489 191.993 498.141 191.445L496.442 190.749C493.287 189.471 491.6 188.966 489.796 188.909L489.566 188.904L489.553 189.005L489.543 189.124C489.503 189.736 489.637 190.545 489.834 191.01C490.202 191.874 490.639 192.725 491.135 193.555L491.458 194.081L491.834 194.125C496.67 194.734 501.347 196.608 504.391 199.303L504.663 199.551C508.058 202.716 509.534 204.993 508.766 206.768C507.917 208.728 505.522 208.572 502.453 207.297C498.011 205.453 493.34 201.796 490.038 197.315L489.773 196.948L489.689 196.943C489.118 196.913 488.548 196.904 487.982 196.916L487.559 196.929C481.486 197.181 477.205 199.822 476.018 204.562C475.619 206.153 475.862 207.804 476.612 209.414L476.759 209.717L476.814 209.719C482.39 209.944 487.654 211.579 490.569 214.227L490.795 214.438C492.366 215.959 493.357 217.238 493.785 218.33C494.363 219.807 493.937 221.206 492.557 221.817C490.916 222.545 488.01 221.927 484.774 220.424C480.681 218.522 477.232 215.869 475.106 212.834L475.012 212.697L474.711 212.703C474.437 212.71 474.162 212.721 473.887 212.736L473.475 212.761C466.874 213.214 462.044 215.78 460.808 219.829C460.347 221.34 460.72 223.412 461.703 225.575L461.755 225.688L462.032 225.682C465.241 225.642 468.485 226.696 471.364 228.996L471.837 229.379C472.191 229.658 472.844 230.158 472.782 230.109L473.195 230.44C475.047 231.961 475.8 233.208 474.933 234.933C472.733 239.315 467.731 237.817 463.294 233.144C462.121 231.91 461.084 230.565 460.228 229.18L460.053 228.893L459.815 228.941C457.521 229.432 455.315 230.625 453.423 232.436L453.188 232.665C449.325 236.521 448.363 241.488 450.928 245.392L451.106 245.654L451.263 245.725C452.155 246.137 453.129 246.652 454.287 247.305L455.475 247.984L456.879 248.794C457.027 248.878 457.152 248.96 457.267 249.052C457.629 249.342 457.86 249.631 457.889 250.227C457.939 251.282 457.249 251.725 456.535 251.82C456.35 251.844 456.188 251.839 456.007 251.817C455.621 251.771 455.047 251.623 454.387 251.41C452.804 250.9 451.355 250.248 450.621 249.586C450.113 249.128 449.654 248.651 449.243 248.157L449.197 248.1L449.184 248.095C448.432 247.791 447.736 247.574 447.003 247.408L446.781 247.359C444.381 246.854 441.819 247.006 438.004 247.698C431.986 248.79 429.123 254.51 430.163 259.253L430.188 259.363L430.28 259.397C431.293 259.772 432.327 260.357 433.738 261.269L434.98 262.078C436.349 262.958 437.273 263.829 437.804 265.006C438.46 266.463 437.318 268.899 435.367 268.349C431.6 267.285 429.155 264.94 427.915 262.117L427.808 261.864L427.754 261.856C421.734 261.001 413.697 264.058 408.776 268.843L408.49 269.127C406.523 271.116 405.347 273.075 405.028 274.929L405.015 275.013L405.333 274.989C406.707 274.9 407.945 274.929 408.952 275.088L409.247 275.14C413.833 276.028 416.662 277.026 418.027 278.246C419.784 279.817 419.341 281.763 417.536 283.091C415.378 284.678 410.263 286.054 408.912 285.355C405.334 283.506 403.181 281.158 402.341 278.581L402.282 278.391L402.223 278.402C400.301 278.752 398.252 279.29 396.337 279.989L395.929 280.142C390.53 282.2 387.625 285.195 386.856 288.371C385.929 292.199 394.679 299.966 394.003 300.444C393.326 300.922 390.48 298.375 389.084 297.052L388.845 296.825C384.899 293.1 383.571 291.223 383.869 288.087C384.314 283.411 388.507 279.761 394.86 277.339C397.101 276.484 399.53 275.833 401.825 275.426L401.956 275.402L401.967 275.261C402.195 272.615 403.62 269.86 406.138 267.242L406.356 267.018C411.498 261.816 419.786 258.375 426.666 258.74L427.022 258.763L427 258.55C426.443 252.704 430.072 246.29 437.096 244.819L437.469 244.746L438.485 244.569C441.787 244.022 444.276 243.891 446.68 244.288L447.094 244.363L447.035 244.188C445.597 239.728 447.038 234.713 450.829 230.786L451.069 230.542C453.248 228.367 455.824 226.874 458.536 226.161L458.668 226.127L458.593 225.942C457.659 223.559 457.343 221.209 457.863 219.222L457.939 218.954C459.587 213.556 465.355 210.41 472.859 209.799L473.27 209.768L473.472 209.755L473.412 209.592C472.794 207.826 472.633 205.984 473.039 204.126L473.107 203.833C474.663 197.623 480.158 194.233 487.435 193.932L487.899 193.918L487.844 193.814C487.635 193.411 487.437 193.005 487.253 192.594L487.073 192.183C486.69 191.282 486.479 190.005 486.549 188.93C486.658 187.258 487.424 185.948 489.076 185.908ZM408.677 278.085C407.9 277.935 406.875 277.899 405.698 277.968L405.334 277.992L405.377 278.099C406.037 279.662 407.45 281.099 409.668 282.355L410.067 282.573L410.232 282.561L410.46 282.534C410.938 282.47 411.553 282.342 412.194 282.169C413.675 281.771 415.024 281.214 415.759 280.674L415.852 280.603L416.011 280.469L415.939 280.408C415.057 279.701 412.786 278.906 409.079 278.165L408.677 278.085ZM463.566 228.772L463.606 228.829C464.165 229.605 464.79 230.363 465.469 231.079C468.621 234.398 471.279 235.247 472.193 233.696L472.21 233.665C472.202 233.665 472.193 233.661 472.183 233.651L472.13 233.586C471.947 233.331 471.631 233.029 471.132 232.63L470.846 232.405L470.056 231.797L469.728 231.533C467.935 230.036 465.965 229.152 463.963 228.828L463.566 228.772ZM479.096 212.914L479.191 213.014C480.957 214.816 483.318 216.44 486.038 217.703C487.995 218.613 489.79 219.1 490.753 219.141L490.858 219.143L490.803 219.044C490.479 218.488 489.86 217.734 488.944 216.824L488.708 216.594C486.882 214.826 483.479 213.527 479.587 212.979L479.096 212.914ZM494.126 197.586L494.413 197.901C497.134 200.846 500.457 203.22 503.603 204.527C504.33 204.829 504.979 205.034 505.501 205.138L505.659 205.166L505.558 205.004C505.016 204.167 504.033 203.065 502.617 201.745C500.637 199.899 497.641 198.45 494.344 197.637L494.126 197.586Z" fill="#FFB61D"/>
<path fill-rule="evenodd" clip-rule="evenodd" d="M394.747 71.9759C393.143 72.3269 392.46 74.1828 391.327 75.3718C390.194 76.5598 387.394 76.2709 387.776 74.6739C389.907 70.4299 392.07 66.0869 392.712 61.3809C393.353 56.6739 392.207 51.4539 388.625 48.3359C386.148 46.1789 382.836 45.2679 379.602 44.6969C367.031 42.4769 354.159 44.4588 341.439 45.5398C328.719 46.6208 315.342 46.6729 303.902 41.0079C296.127 37.1569 291.498 27.8169 293.142 19.2979C279.464 35.9519 273.311 58.2139 274.907 79.7049C275.366 85.8849 276.444 92.0629 278.709 97.8308C284.309 112.095 297.071 122.929 311.555 127.933C326.039 132.936 342.044 132.481 356.849 128.527C371.653 124.572 385.375 117.268 398.157 108.816C398.989 108.266 400.07 109.47 399.811 110.433C399.552 111.397 398.597 111.977 397.722 112.457C390.331 116.519 382.94 120.581 375.549 124.643C379.98 126.97 382.375 131.841 384.257 136.478C386.656 142.386 388.699 148.439 390.371 154.593C398.293 148.229 406.216 141.866 414.138 135.503C414.963 134.841 416.638 134.514 416.673 135.571C409.116 141.855 401.559 148.14 394.002 154.424C392.858 155.375 391.594 156.64 391.89 158.098C399.078 152.18 406.265 146.261 413.452 140.342C415.754 138.445 418.215 136.284 418.685 133.338C420.791 120.134 422.828 106.193 417.992 93.7269C414.31 84.2369 406.645 76.3669 397.255 72.4359C396.458 72.1019 395.591 71.7899 394.747 71.9759Z" fill="white"/>
<path fill-rule="evenodd" clip-rule="evenodd" d="M343.31 187.098C343.999 187.135 344.528 187.723 344.492 188.413L344.446 189.21C344.242 192.571 343.929 194.723 343.444 195.824C342.959 196.925 344.05 196.909 344.419 196.821C344.788 196.732 348.901 192.373 349.382 192.868C349.863 193.363 349.851 194.155 349.356 194.636L348.834 195.138C346.719 197.154 345.35 198.209 344.419 198.432C343.6 198.628 342.076 199.104 341.882 198.032C341.512 195.982 342.914 193.76 343.264 190.998C343.49 189.207 342.933 187.11 343.182 187.098H343.31Z" fill="#00160A"/>
<defs>
<linearGradient id="paint0_linear" x1="277.366" y1="275" x2="487.059" y2="358.38" gradientUnits="userSpaceOnUse">
<stop stop-color="#FFB606"/>
<stop offset="1" stop-color="#FFB606" stop-opacity="0.53"/>
</linearGradient>
</defs>
</svg>
