<svg width="683" height="522" viewBox="0 0 683 522" fill="none" xmlns="http://www.w3.org/2000/svg">
<path fill-rule="evenodd" clip-rule="evenodd" d="M493.662 513.834C361.856 551.827 -0.256191 453.969 0.0194444 229.789C0.708185 85.059 130.856 48.8166 265.066 123.04C304.559 138.87 335.739 133.964 369.591 118.235C403.445 102.506 446.984 32.2868 529.043 17.8413C775.984 -25.6303 987.274 371.555 493.662 513.834Z" fill="url(#paint0_linear)"/>
<path d="M177.202 318.515L176.796 319.261C175.036 322.583 175.989 313.406 179.916 308.808C183.363 304.774 187.024 300.854 191.02 297.365C194.688 294.163 198.786 291.375 202.954 288.819C207.46 286.058 212.16 283.552 216.969 281.348C222.304 278.903 227.756 276.61 233.343 274.818C241.245 272.284 249.277 270.105 257.344 268.136C259.46 267.62 259.695 266.871 259.763 265.276L259.783 264.713C259.928 259.79 260.317 254.849 261.015 249.972C261.953 243.409 264.855 237.693 269.914 233.238C274.294 229.381 279.033 226.027 284.311 223.397C293.699 218.719 303.558 215.302 313.812 213.283C323.432 211.388 333.195 210.161 342.926 208.872C345.882 208.481 348.945 208.794 351.956 208.908C353.914 208.982 354.755 208.311 355.155 206.316L355.64 203.898C356.131 201.48 356.649 199.067 357.317 196.697C360.413 185.712 362.852 174.645 361.989 163.136C361.44 155.812 360.999 148.47 360.094 141.187C359.467 136.135 358.315 131.146 357.3 126.142L357 124.64C356.773 123.482 356.262 123.443 355.408 124.131L355.289 124.229C352.236 126.823 348.031 125.614 346.92 121.699C346.251 119.342 345.921 116.714 347.806 114.713C348.713 113.752 350.232 112.868 351.507 112.818C356.587 112.62 361.701 112.484 366.762 112.851C373.577 113.343 380.365 114.248 387.148 115.111C393.492 115.92 399.832 116.799 406.139 117.854C409.763 118.46 413.309 119.501 416.901 120.306C420.001 121 423.105 121.696 426.236 122.223C426.641 122.291 427.545 121.423 427.667 120.872C428.46 117.257 429.138 113.616 429.887 109.991L430.464 107.277C430.652 106.425 430.607 104.887 432.332 105.313C433.869 105.694 434.251 106.541 433.842 108.147C432.971 111.571 432.264 115.035 431.521 118.49L431.068 120.562C430.545 122.918 431.362 123.84 434.462 124.409L434.733 124.457C436.309 124.726 437.884 125.024 439.441 125.387L440.604 125.673C441.728 125.962 442.178 125.791 442.384 124.669L442.412 124.503C442.877 121.417 443.513 118.356 444.108 115.291C444.486 113.349 444.96 111.426 445.303 109.479C445.57 107.959 444.172 106.811 441.799 106.419C440.037 106.128 438.21 105.987 436.547 105.405C431.424 103.612 426.024 103.286 420.756 103.093C408.721 102.652 401.046 102.784 388.997 102.876C384.86 102.907 380.731 103.585 376.59 103.824C374.549 103.943 369.41 102.87 370.341 101.143C371.088 99.7586 376.679 98.6202 377.634 97.3386C379.39 94.9804 381.373 92.7383 382.78 90.1882C384.338 87.3638 385.727 84.3421 386.532 81.2401C388.003 75.5696 389.007 69.7788 390.175 64.0325C390.893 60.5011 391.83 56.985 392.164 53.4158C392.534 49.4735 392.467 45.4717 392.285 41.51C392.23 40.3379 391.52 39.0293 389.869 38.5956C387.636 38.009 387.351 36.4792 387.378 33.027C387.388 31.6251 389.339 30.105 391.115 29.9576C399.525 29.2561 385.973 29.7646 394.313 30.8098C400.94 31.6414 425.073 32.782 431.674 33.8022C432.095 33.8673 432.488 34.0993 432.901 34.2305C434.626 34.7737 440.779 35.8124 442.196 36.1626L442.346 36.2027C445.611 37.1048 448.971 37.6653 452.264 38.473C458.031 39.8869 463.776 41.382 469.529 42.8468C469.739 42.8999 469.936 42.9942 470.142 43.0636C478.229 45.8219 486.363 48.4522 494.379 51.4013C497.463 52.5365 500.432 54.1704 503.142 56.0233C504.452 56.9178 505.063 58.8314 505.95 60.3071C508.129 63.9327 510.558 67.4423 512.387 71.2328C515.359 77.3933 516.47 83.8607 515.132 90.7563L514.625 93.3563C513.476 99.1276 512.165 104.844 509.685 110.205C507.623 114.658 505.319 119.064 502.566 123.12C500.515 126.141 497.175 127.641 493.21 125.871C488.234 123.649 483.192 121.57 478.141 119.517C470.549 116.431 462.938 113.389 455.305 110.402C453.944 109.87 452.496 109.526 451.051 109.234L450.433 109.11C449.529 108.934 448.778 108.834 448.521 110.394C447.694 115.438 446.567 120.438 445.41 125.422C445.11 126.718 445.626 127.105 446.639 127.352C447.714 127.614 448.839 127.723 449.876 128.085L461.16 132.025C486.014 140.748 533.679 157.898 541.357 165.134C552.396 175.539 562.404 242.351 535.456 274.818C519.027 294.611 518.048 286.92 517.229 287.089C558.06 266.698 480.024 206.419 484.747 207.219C493.217 208.652 496.971 214.608 499.13 221.626C501.823 230.383 503.959 239.339 505.769 248.321C507.66 257.71 512.731 287.96 513.628 293.634C514.289 297.813 514.394 302.074 514.926 306.277C515.625 311.813 516.787 317.305 517.223 322.858C517.703 328.996 517.983 335.181 517.835 341.334L517.79 342.871C517.65 346.768 516.415 357.342 510.55 373.691C505.035 389.051 483.759 415.774 478.571 424.848C478.238 425.431 474.786 427.609 473.899 425.973C473.314 424.892 224.33 469.708 177.202 318.515Z" fill="white"/>
<path fill-rule="evenodd" clip-rule="evenodd" d="M453.148 0.308024C451.141 -0.399972 448.934 0.633288 448.216 2.61633C448.132 2.8516 448.071 3.09447 448.033 3.34058L443.728 32.0507L443.716 32.1765C443.698 32.7186 444.095 33.2 444.651 33.2813C445.25 33.3691 449.206 2.48404 449.206 2.48404L449.237 2.32575C449.237 2.32575 450.983 0.90543 452.506 1.27081C453.826 1.5874 455.191 3.46201 454.917 4.80644C454.917 4.80644 449.322 32.1602 448.618 37.6551C448.446 37.6182 448.273 37.5824 448.101 37.5456C446.171 37.1368 444.243 36.727 442.346 36.2033L442.196 36.1643C441.656 36.0298 440.431 35.7967 439.024 35.5289C436.736 35.0941 433.97 34.5672 432.901 34.2311C432.743 34.1812 432.589 34.1162 432.434 34.0522C432.184 33.947 431.935 33.844 431.674 33.8028C429.836 33.5188 427.998 33.2249 426.16 32.9322V32.9311H426.159H426.158H426.157H426.156C421.397 32.1711 416.639 31.41 411.859 30.8115C403.52 29.7652 395.138 29.2567 386.728 29.9582C384.952 30.1067 383.001 31.6257 382.992 33.0287C382.964 36.4809 383.249 38.0096 385.482 38.5962C387.134 39.0299 387.843 40.3385 387.898 41.5106C388.08 45.4723 388.147 49.4741 387.777 53.4164C387.532 56.0358 386.962 58.6271 386.392 61.2163L386.391 61.2206C386.185 62.1585 385.979 63.0952 385.788 64.0331C385.485 65.526 385.193 67.0212 384.901 68.5163L384.899 68.5228C384.066 72.7838 383.234 77.0448 382.145 81.2407C381.34 84.3427 379.952 87.3644 378.393 90.1888C377.379 92.0276 376.065 93.706 374.753 95.3833C374.246 96.0328 373.738 96.6811 373.248 97.3392C372.905 97.7978 372.533 98.238 372.16 98.6772C371.49 99.4665 370.821 100.255 370.341 101.144C369.41 102.871 370.163 103.943 372.204 103.825C373.88 103.729 375.554 103.559 377.227 103.391C379.688 103.143 382.148 102.896 384.61 102.876L386.935 102.859C398.211 102.77 409.495 102.682 420.756 103.093C426.024 103.286 431.424 103.613 436.547 105.406C437.784 105.84 439.111 106.028 440.434 106.216C440.891 106.281 441.347 106.345 441.799 106.42C444.172 106.812 445.57 107.959 445.303 109.479C445.106 110.599 444.865 111.712 444.625 112.824L444.624 112.825C444.446 113.646 444.268 114.468 444.108 115.292C444.069 115.496 444.029 115.699 443.99 115.902C443.914 116.289 443.837 116.676 443.762 117.063C443.274 119.538 442.787 122.012 442.412 124.503L442.383 124.67C442.178 125.792 441.729 125.963 440.604 125.673L439.441 125.388C437.884 125.025 436.309 124.727 434.733 124.459L434.462 124.41C431.362 123.841 430.545 122.918 431.068 120.562L431.52 118.491C431.654 117.865 431.788 117.238 431.922 116.612C432.525 113.781 433.129 110.952 433.842 108.149C434.25 106.543 433.869 105.694 432.332 105.315C430.852 104.948 430.675 106.029 430.536 106.881C430.514 107.022 430.492 107.157 430.465 107.277L429.887 109.992C429.599 111.38 429.323 112.77 429.047 114.161C428.601 116.401 428.156 118.642 427.667 120.872C427.545 121.425 426.642 122.291 426.236 122.223C423.127 121.7 420.044 121.01 416.963 120.32L416.901 120.306C415.631 120.022 414.367 119.709 413.104 119.394C410.792 118.821 408.482 118.247 406.139 117.855C399.832 116.8 393.492 115.921 387.148 115.113C386.557 115.037 385.966 114.961 385.375 114.886C379.182 114.094 372.983 113.301 366.762 112.851C361.701 112.485 356.587 112.62 351.507 112.819C350.232 112.869 348.713 113.752 347.806 114.715C345.921 116.714 346.251 119.342 346.92 121.7C348.031 125.615 352.236 126.824 355.289 124.23L355.408 124.131C356.262 123.444 356.773 123.483 357 124.641L357.3 126.143C357.51 127.178 357.725 128.212 357.941 129.248C358.769 133.214 359.597 137.181 360.094 141.187C360.827 147.088 361.255 153.026 361.683 158.961L361.685 158.987C361.785 160.37 361.885 161.754 361.989 163.136C362.852 174.646 360.413 185.713 357.317 196.697C356.649 199.067 356.131 201.481 355.64 203.899L355.155 206.316C354.755 208.311 353.914 208.982 351.956 208.909C351.294 208.884 350.632 208.849 349.967 208.814H349.964C347.604 208.691 345.232 208.567 342.926 208.873C342.066 208.987 341.207 209.1 340.347 209.213C331.471 210.383 322.582 211.555 313.812 213.284C303.558 215.303 293.699 218.72 284.311 223.397C279.033 226.027 274.294 229.383 269.914 233.24C264.855 237.694 261.953 243.41 261.015 249.973C260.317 254.849 259.928 259.79 259.783 264.714L259.763 265.277C259.695 266.872 259.46 267.62 257.344 268.136C249.277 270.105 241.245 272.285 233.343 274.818C227.756 276.611 222.304 278.904 216.969 281.349C212.16 283.553 207.46 286.06 202.954 288.82C198.786 291.376 194.688 294.163 191.02 297.366C187.024 300.855 183.363 304.776 179.917 308.809C178.86 310.046 178.018 311.615 177.388 313.183C172.685 314.001 168.07 315.384 163.719 317.242C149.44 323.343 137.667 334.053 127.628 345.768C122.118 352.197 117.052 358.974 111.984 365.75C107.819 371.32 103.652 376.89 99.2394 382.27C89.4593 394.194 78.2205 405.349 64.3706 412.341C54.7013 417.223 44.0762 419.921 33.5518 422.582C54.631 424.824 75.3714 415.303 92.2054 402.609C101.772 395.395 110.439 387.143 119.11 378.886C125.698 372.614 132.287 366.341 139.275 360.517C142.082 358.179 145.557 355.767 149.121 356.657C147.27 366.107 146.911 375.957 149.241 385.304C151.571 394.65 156.736 403.473 164.525 409.286C157.372 400.799 152.617 390.375 150.924 379.474C149.911 372.956 150.005 366.138 152.324 359.954C154.645 353.768 159.404 348.282 165.699 346.039C164.386 356.847 163.965 367.889 166.209 378.548C168.454 389.207 173.549 399.523 181.884 406.673C170.242 392.28 165.145 372.936 168.213 354.783C168.713 351.823 169.458 348.808 171.246 346.379C173.036 343.949 176.085 342.218 179.087 342.73C170.448 361.224 176.94 385.336 193.749 397.185C183.332 386.969 177.265 372.392 178.142 357.939C178.425 353.263 179.503 348.427 182.534 344.817C185.566 341.207 190.95 339.216 195.273 341.17C189.201 348.862 188.86 359.517 190.201 369.171C191.382 377.673 194.923 387.386 203.304 389.736C192.643 381.088 189.09 364.984 195.146 352.759C197.326 348.357 201.387 344.12 206.352 344.397C209.869 344.595 212.863 347.046 214.972 349.825C215.962 351.131 216.819 352.53 217.674 353.929C218.639 355.505 219.604 357.082 220.762 358.525C225.719 347.87 226.071 334.368 218.675 325.187C216.043 321.919 212.582 319.36 208.846 317.396C203.918 314.805 198.553 313.268 193.04 312.645C193.303 312.45 193.567 312.256 193.83 312.063C202.211 305.925 211.455 301.213 220.768 296.694C226.235 294.042 231.987 291.926 237.716 289.853C242.849 287.996 248.081 286.358 253.352 284.921C262.803 282.347 272.464 280.903 282.244 280.185C284.31 280.034 286.37 279.795 288.428 279.558L288.431 279.557H288.432H288.433H288.434H288.435H288.436C290.634 279.302 292.833 279.047 295.038 278.898C298.033 278.697 301.035 278.562 304.035 278.427C308.652 278.22 313.268 278.013 317.861 277.562C322.986 277.057 328.078 276.216 333.167 275.374C334.914 275.085 336.661 274.796 338.408 274.52C342.261 273.914 346.098 273.218 350.044 272.502H350.045L350.051 272.5H350.052L351.302 272.274C351.774 272.195 352.224 272.143 352.661 272.093C353.276 272.021 353.862 271.953 354.432 271.821C355.905 271.476 357.378 271.134 358.85 270.792L358.871 270.787L358.873 270.786C364.753 269.421 370.632 268.055 376.483 266.578C383.125 264.901 389.737 263.097 396.322 261.207C398.972 260.447 401.604 259.618 404.235 258.788L404.236 258.787C407.404 257.79 410.57 256.791 413.77 255.913C419.815 254.254 424.957 250.997 430.038 247.574C430.389 247.338 430.762 246.645 430.649 246.334C430.461 245.818 429.933 245.143 429.464 245.072C428.73 244.96 427.733 245.052 427.182 245.479C421.155 250.15 414.131 252.822 406.945 254.92C394.717 258.489 382.422 261.874 370.045 264.89C362.269 266.784 354.398 268.302 346.529 269.82L346.522 269.822C344.351 270.241 342.182 270.659 340.014 271.086C336.174 271.841 332.29 272.391 328.411 272.941L327.855 273.02C326.568 273.202 325.279 273.394 323.99 273.586C319.831 274.206 315.67 274.825 311.486 275.139C307.359 275.45 303.221 275.632 299.085 275.814C293.934 276.04 288.784 276.267 283.656 276.74C273.125 277.712 262.556 278.854 252.372 281.846C244.239 284.236 236.092 286.737 228.265 289.94C221.815 292.579 215.6 295.792 209.394 298.998L209.393 298.999L209.392 299H209.391L209.39 299.001H209.389L209.388 299.002H209.386C208.092 299.671 206.799 300.339 205.504 301.002C199.323 304.166 193.456 307.863 188.151 312.328C185.807 312.286 183.45 312.399 181.104 312.656C183.267 309.848 185.68 307.228 188.137 304.657L189.306 303.44C196.463 296.012 205.241 290.841 214.376 286.275L216.041 285.451C219.195 283.904 222.472 282.604 225.75 281.303L225.751 281.302H225.752L225.753 281.301H225.754H225.755L225.757 281.3C227.377 280.657 228.999 280.014 230.606 279.34L231.773 278.861C240.738 275.241 250.097 273.02 259.543 270.961C270.946 268.476 282.462 266.749 294.002 265.145L301.422 264.125C304.991 263.635 308.577 263.238 312.16 262.84H312.162C320.815 261.881 329.468 260.922 337.928 258.672C341.445 257.738 344.969 256.827 348.491 255.917C352.78 254.808 357.069 253.7 361.346 252.548C365.472 251.436 369.593 250.268 373.627 248.874C376.799 247.778 379.921 246.542 383.043 245.306H383.044C384.383 244.776 385.722 244.246 387.066 243.726C389.371 242.835 391.687 241.967 394.002 241.098C399.221 239.139 404.441 237.181 409.548 234.968C416.191 232.088 422.755 229.026 429.319 225.965L429.324 225.961C432.709 224.382 436.095 222.802 439.491 221.248C441.555 220.304 443.653 219.401 445.806 218.683C450.28 217.19 454.772 215.748 459.264 214.306C461.243 213.671 463.222 213.035 465.2 212.395L466.4 212.009C470.608 210.662 474.868 209.444 479.33 209.617C483.926 209.793 488.434 210.319 491.713 214.346C494.445 217.703 495.874 221.582 497.03 225.553L497.339 226.638C498.786 231.813 499.904 237.085 500.989 242.353L502.166 248.073C503.536 254.747 504.874 261.429 505.997 268.146C506.513 271.233 506.812 274.353 507.112 277.475V277.476V277.478C507.378 280.23 507.642 282.982 508.054 285.712C508.329 287.53 508.845 289.311 509.363 291.094C509.809 292.634 510.257 294.176 510.548 295.743C510.872 297.485 510.995 299.262 511.119 301.04C511.202 302.24 511.284 303.44 511.429 304.629C511.684 306.726 511.979 308.819 512.274 310.91V310.911V310.912V310.913V310.914L512.276 310.915V310.917C512.741 314.214 513.204 317.511 513.514 320.822L513.599 321.745V321.746V321.747C514.268 328.89 514.931 335.97 513.918 343.274C513.188 348.548 511.995 353.677 510.802 358.809C510.379 360.625 509.957 362.441 509.555 364.263C509.497 364.528 509.309 364.764 509.122 365.002H509.12L509.105 365.022L509.058 365.082L509.021 365.131C508.968 365.198 508.918 365.266 508.873 365.335C508.868 365.279 508.863 365.223 508.856 365.167C508.852 365.126 508.846 365.086 508.841 365.046L508.829 364.961L508.82 364.892C508.774 364.574 508.729 364.255 508.782 363.952C510.111 356.215 509.046 348.602 506.878 341.225C505.635 336.995 503.992 332.88 502.348 328.765V328.764V328.763C501.586 326.856 500.825 324.949 500.104 323.031C499.403 321.167 498.697 319.306 497.99 317.445C496.057 312.349 494.122 307.253 492.301 302.118C489.725 294.861 488.507 287.343 488.821 279.648L488.829 279.439C488.974 275.586 489.016 266.681 488.213 266.697C487.607 266.709 486.585 267.58 486.495 268.179C486.051 271.145 485.747 274.143 485.591 277.14C485.174 285.133 485.994 292.938 488.443 300.66L488.727 301.555C491.296 309.664 493.86 317.756 497.583 325.597C497.66 325.799 497.735 325.997 497.807 326.191L498.83 328.955C499.3 330.212 499.787 331.463 500.274 332.713L500.275 332.715C502.25 337.784 504.222 342.842 505.002 348.335C505.972 355.148 506.607 361.85 504.801 368.618C504.573 369.474 504.682 370.417 504.793 371.362V371.363C504.848 371.833 504.903 372.304 504.916 372.765L504.927 372.99C504.929 373.024 504.931 373.059 504.933 373.092L504.94 373.187C504.972 373.661 505.005 374.148 504.836 374.542C503.129 378.509 478.782 416.078 474.672 421.713L474.29 422.229C473.845 422.854 473.596 423.384 473.49 423.861C466.187 427.37 458.231 429.386 450.348 431.375C466.856 433.127 483.096 425.688 496.278 415.769C503.77 410.132 510.556 403.685 517.347 397.235C522.504 392.334 527.665 387.431 533.137 382.882C535.334 381.055 538.055 379.17 540.846 379.865C539.397 387.249 539.117 394.946 540.94 402.248C542.765 409.55 546.81 416.445 552.909 420.985C547.308 414.355 543.585 406.211 542.259 397.693C541.466 392.601 541.539 387.274 543.355 382.441C545.172 377.609 548.899 373.322 553.829 371.569C552.801 380.015 552.471 388.641 554.229 396.969C555.986 405.298 559.976 413.359 566.502 418.944C557.385 407.698 553.394 392.585 555.796 378.402C556.189 376.089 556.772 373.733 558.173 371.836C559.573 369.937 561.962 368.584 564.313 368.984C557.547 383.435 562.631 402.274 575.794 411.531C567.636 403.549 562.885 392.16 563.572 380.867C563.794 377.213 564.638 373.435 567.012 370.615C569.386 367.795 573.602 366.238 576.987 367.764C572.232 373.775 571.964 382.1 573.015 389.643C573.94 396.286 576.713 403.874 583.276 405.711C574.928 398.954 572.145 386.372 576.887 376.82C578.595 373.381 581.775 370.071 585.663 370.287C588.417 370.441 590.761 372.356 592.412 374.528C593.188 375.548 593.859 376.641 594.529 377.734C595.284 378.965 596.04 380.197 596.947 381.325C600.828 373 601.103 362.451 595.313 355.277C593.251 352.724 590.541 350.725 587.615 349.19C576.864 343.549 563.459 344.304 552.278 349.07C541.096 353.835 531.878 362.205 524.017 371.358C519.702 376.381 515.734 381.675 511.767 386.97H511.766L511.765 386.971V386.972L511.763 386.973C508.502 391.324 505.241 395.675 501.787 399.878C496.192 406.685 489.987 413.169 482.821 418.301C484.213 416.276 485.804 414.01 487.509 411.583L487.514 411.577V411.576C495.819 399.755 506.81 384.11 510.551 373.692C516.414 357.343 517.65 346.768 517.79 342.872L517.835 341.334C517.983 335.181 517.703 328.997 517.223 322.858C516.956 319.468 516.42 316.1 515.883 312.73V312.729V312.728V312.727V312.725V312.724L515.881 312.723V312.721V312.72C515.539 310.574 515.197 308.429 514.926 306.277C514.696 304.456 514.546 302.623 514.395 300.791C514.198 298.396 514.002 296.002 513.628 293.635C513.146 290.589 512.531 287.562 511.917 284.536C511.387 281.927 510.858 279.316 510.412 276.692C509.805 273.112 509.262 269.519 508.72 265.926V265.925L508.719 265.924C507.831 260.037 506.942 254.152 505.769 248.322C503.959 239.34 501.823 230.384 499.13 221.627C496.971 214.608 493.218 208.653 484.747 207.22C480.025 206.42 475.434 206.348 470.89 207.475C459.534 210.294 448.37 213.846 437.665 218.488C432.08 220.91 426.548 223.455 421.018 225.999C409.831 231.147 398.642 236.295 387 240.424C384.839 241.189 382.702 242.015 380.564 242.84C378.562 243.614 376.561 244.385 374.542 245.11C373.354 245.536 371.94 245.989 370.783 245.739C368.708 245.29 366.657 244.739 364.604 244.188C362.196 243.543 359.79 242.898 357.35 242.415C354.363 241.826 351.324 241.491 348.285 241.156H348.283H348.282H348.281H348.28H348.278L348.276 241.155C347.13 241.029 345.983 240.902 344.839 240.762C344.444 240.714 344.04 240.748 343.635 240.782C343.448 240.797 343.26 240.813 343.074 240.821C343.145 240.619 343.2 240.404 343.255 240.191C343.374 239.729 343.493 239.268 343.767 238.929C347.932 233.762 350.719 227.836 353.373 221.871L354.063 220.315C355.238 217.659 356.074 214.857 356.908 212.055C357.227 210.988 357.545 209.92 357.882 208.861C358.408 207.208 358.869 205.528 359.27 203.84C359.624 202.349 359.972 200.857 360.317 199.364L362.38 190.408C362.639 189.289 362.936 188.174 363.233 187.061V187.06C363.858 184.71 364.483 182.361 364.765 179.971C365.854 170.73 365.747 161.43 364.84 152.188C363.892 142.511 362.876 132.803 360.106 123.428L360.052 123.235C359.65 121.682 360.339 121.493 361.434 121.375L361.989 121.319C366.3 120.625 389.08 119.415 458.27 137.936C512.015 153.331 528.416 160.682 536.473 168.918C554.738 192.089 558.06 266.699 517.229 287.09C517.348 287.065 517.469 287.206 517.642 287.404C518.657 288.573 521.409 291.742 535.456 274.818C562.404 242.353 552.396 175.54 541.357 165.134C533.679 157.898 486.015 140.748 461.161 132.026L449.876 128.086C449.23 127.86 448.55 127.733 447.869 127.606C447.456 127.529 447.044 127.452 446.639 127.353C445.626 127.105 445.11 126.718 445.41 125.424C446.567 120.439 447.694 115.439 448.521 110.394C448.778 108.834 449.529 108.935 450.433 109.112L451.051 109.234C452.496 109.527 453.944 109.871 455.305 110.403C462.938 113.39 470.549 116.431 478.14 119.518C483.192 121.57 488.234 123.65 493.21 125.872C497.175 127.642 500.515 126.142 502.566 123.122C505.319 119.065 507.623 114.659 509.685 110.206C512.165 104.845 513.476 99.1293 514.625 93.358L515.132 90.758C516.469 83.8624 515.359 77.3939 512.387 71.2345C511.096 68.5564 509.504 66.0183 507.913 63.4823L507.911 63.479L507.909 63.4758C507.248 62.423 506.588 61.3713 505.95 60.3088C505.691 59.8794 505.458 59.4132 505.222 58.947V58.9459V58.9448C504.648 57.8053 504.071 56.6582 503.142 56.0239C500.433 54.171 497.463 52.5371 494.379 51.4019C488.656 49.2974 482.874 47.3545 477.091 45.4116V45.4105C474.772 44.632 472.455 43.8536 470.142 43.0642C470.066 43.0382 469.99 43.0089 469.914 42.9797C469.787 42.9298 469.66 42.881 469.529 42.8474C467.961 42.4484 466.394 42.0472 464.827 41.6461C460.643 40.5738 456.459 39.5026 452.264 38.4736C451.455 38.2752 450.641 38.092 449.825 37.9142C449.843 37.8643 449.858 37.8134 449.868 37.7602L456.357 5.92211L456.398 5.69008C456.756 3.36985 455.404 1.10601 453.148 0.308024ZM176.554 319.667C176.283 320.053 176.102 320.053 176.013 319.77C163.6 322.194 152.246 328.886 142.785 337.203C132.402 346.33 124.021 357.388 115.707 368.361H115.706L115.628 368.464C107.288 379.469 98.8534 390.548 88.3856 399.646C88.7618 400.527 90.1217 400.078 90.8937 399.495C99.8075 392.759 107.745 384.93 115.689 377.096V377.095H115.69C120.996 371.859 126.307 366.623 131.912 361.708C145.905 349.438 162.696 338.866 181.438 337.579C187.252 337.18 193.093 337.69 198.875 338.418C202.361 338.857 205.878 339.386 209.124 340.707C214.142 342.749 218.316 346.706 220.56 351.549C221.874 348.182 222.617 344.496 221.903 340.96C221.282 337.881 219.592 335.095 217.579 332.652C210.312 323.836 198.737 319.228 187.094 318.85C186.96 319.102 186.835 319.362 186.718 319.628C186.533 320.049 185.978 320.31 185.423 320.573C185.166 320.693 184.911 320.813 184.69 320.95C184.6 320.607 184.458 320.243 184.315 319.878C184.179 319.53 184.042 319.18 183.951 318.851C182.561 318.896 181.176 319.004 179.801 319.171C178.711 319.303 177.629 319.469 176.554 319.667ZM350.793 123.836C352.988 124.627 354.742 122.217 355.541 120.047C356.339 117.877 354.894 115.216 352.698 114.427C350.504 113.636 348.58 115.275 347.782 117.446C346.982 119.616 348.599 123.047 350.793 123.836ZM375.514 99.6649C375.332 99.8633 375.208 100.115 375.085 100.365C375.027 100.48 374.97 100.595 374.908 100.706C375.025 100.71 375.144 100.72 375.262 100.73C375.521 100.751 375.781 100.773 376.033 100.742C376.439 100.691 376.844 100.619 377.247 100.549L377.248 100.547C377.839 100.443 378.431 100.34 379.026 100.299C391.32 99.4589 403.611 99.1119 415.941 99.7137C423.712 100.092 431.411 100.905 438.932 102.733C445.999 104.452 452.965 106.625 459.882 108.881C463.718 110.132 467.455 111.688 471.187 113.243L471.193 113.245C471.943 113.557 472.694 113.869 473.444 114.179C477.482 115.845 481.479 117.612 485.456 119.415C487.135 120.176 488.769 121.039 490.402 121.901V121.902H490.405L490.406 121.903L490.443 121.923C490.695 122.056 490.946 122.188 491.199 122.321C491.318 122.385 491.438 122.448 491.557 122.51C494.765 124.19 498.426 123.668 500.167 120.852C502.359 117.307 504.404 113.64 506.13 109.855C509.157 103.216 510.831 96.1542 512.015 88.9831C512.62 85.3076 512.652 81.5888 511.245 78.1214C509.585 74.0339 507.657 70.0386 505.586 66.1365C504.556 64.1968 503.226 62.2094 501.524 60.8791C500.037 59.7179 498.116 59.0337 496.242 58.4049L495.382 58.1165C485.217 54.6979 475.036 51.3249 464.828 48.0332C461.151 46.8482 457.418 45.791 453.649 44.9345C447.805 43.6063 441.925 42.4159 436.029 41.3262C430.66 40.3331 425.268 39.418 419.854 38.7133C413.218 37.8491 406.553 37.1791 399.888 36.5481C397.523 36.3247 395.134 36.3139 392.751 36.303C392.384 36.3009 392.016 36.2998 391.649 36.2976L391.495 36.2911C391.457 36.2889 391.417 36.2857 391.378 36.2835L391.284 36.2748C390.598 36.2185 389.743 36.148 390.118 37.3504L390.173 37.5109C392.425 43.6345 391.776 49.9252 390.938 56.1226C390.474 59.5541 389.741 62.9488 389.006 66.3446C388.654 67.9742 388.301 69.6038 387.978 71.2388L387.689 72.7524C386.501 79.2013 384.566 85.4074 381.718 91.3142C381.219 92.3507 380.572 93.3179 379.875 94.3598V94.3609C379.401 95.0699 378.903 95.8148 378.412 96.6399L376.47 98.6468C376.148 98.9829 375.829 99.3223 375.514 99.6649ZM352.626 214.342C353.374 212.46 352.832 211.669 350.793 211.682C350.243 211.685 349.692 211.687 349.14 211.687C346.744 211.687 344.341 211.688 341.977 211.973C339.334 212.292 336.706 212.728 334.078 213.164H334.076L334.075 213.165H334.074H334.073H334.072H334.071C331.855 213.534 329.638 213.902 327.413 214.2C317.156 215.57 307.097 217.716 297.419 221.413L295.952 221.98C286.924 225.51 278.338 229.69 271.292 236.688C267.439 240.515 265.297 245.064 264.327 250.012C263.722 253.098 263.575 256.269 263.429 259.444C263.335 261.471 263.241 263.498 263.028 265.507C262.865 267.045 263.471 266.92 264.239 266.762H264.241C264.314 266.746 264.388 266.731 264.464 266.717L264.561 266.699C267.113 266.263 269.664 265.817 272.215 265.372C277.499 264.449 282.782 263.525 288.079 262.685C291.626 262.122 295.195 261.684 298.765 261.262L303.049 260.759C303.14 260.749 303.229 260.74 303.312 260.731C303.935 260.672 304.308 260.636 303.936 259.816L303.873 259.683C301.667 255.261 302.297 250.672 303.542 246.227C304.645 242.285 306.17 238.44 307.778 234.662C309.101 231.552 310.921 228.542 314.001 226.905C318.306 224.617 322.739 222.481 327.304 220.772C333.475 218.463 340.04 217.836 346.564 217.213C346.911 217.18 347.257 217.147 347.604 217.113C348.152 217.061 348.751 217.507 349.349 217.952C349.626 218.159 349.904 218.365 350.176 218.523C349.975 218.681 349.779 218.845 349.581 219.008C349.103 219.406 348.624 219.805 348.093 220.116C347.859 220.254 347.541 220.248 347.219 220.24C347.047 220.237 346.874 220.232 346.711 220.251L345.053 220.444C336.215 221.504 327.51 223.104 319.539 227.339C317.577 228.384 315.449 229.607 314.168 231.312C312.056 234.123 310.413 237.321 308.881 240.5C308.329 241.645 308.013 242.897 307.696 244.152C307.528 244.818 307.359 245.485 307.155 246.137L306.969 246.697C305.836 249.901 305.659 253.16 306.187 256.463C306.608 259.102 308.172 260.431 310.15 260.098C311.756 259.828 313.364 259.57 314.971 259.313H314.972C317.153 258.963 319.334 258.614 321.51 258.233C323.165 257.944 324.822 257.665 326.48 257.387C331.145 256.604 335.812 255.82 340.422 254.789C346.509 253.426 352.554 251.875 358.599 250.325H358.6L358.601 250.324H358.603H358.604C360.952 249.721 363.3 249.119 365.65 248.528C365.853 248.476 366.037 248.353 366.221 248.229C366.307 248.172 366.393 248.113 366.481 248.063C366.417 247.978 366.358 247.876 366.3 247.774C366.173 247.551 366.045 247.329 365.867 247.277C364.979 247.02 364.067 246.834 363.158 246.648L362.869 246.589L362.632 246.54C361.632 246.332 360.634 246.106 359.636 245.88H359.635L359.633 245.878H359.631C357.33 245.357 355.028 244.835 352.698 244.542C347.211 243.852 341.692 243.359 336.172 242.984L334.023 242.843C326.859 242.398 319.711 242.276 312.74 244.742L311.973 245.035C311.074 245.359 309.964 245.589 309.55 244.275C309.105 242.857 310.483 242.16 311.664 241.647C311.898 241.545 312.15 241.477 312.401 241.413L312.652 241.348C320.037 239.424 327.495 238.993 335.051 239.961L335.891 240.075C337.453 240.296 339.074 240.189 340.084 238.471C341.334 236.343 342.604 234.226 343.896 232.073C345.402 229.562 346.937 227.003 348.505 224.321C348.912 223.341 349.321 222.361 349.73 221.382L349.733 221.377C350.711 219.038 351.69 216.698 352.626 214.342ZM452.694 40.924C448.551 39.9645 444.388 39.0862 440.222 38.2243L437.097 37.5803C436.109 37.3775 435.123 37.1693 434.136 36.9622C430.477 36.1935 426.816 35.4237 423.122 34.874C417.571 34.0468 411.981 33.3626 406.384 32.9723C402.388 32.6926 398.376 32.6557 394.365 32.6178H394.364H394.363H394.362C392.946 32.6048 391.529 32.5907 390.115 32.5668C389.881 32.5636 389.645 32.7132 389.409 32.8628C389.3 32.9322 389.19 33.0016 389.08 33.0558C389.194 33.1144 389.306 33.1881 389.419 33.2607C389.664 33.419 389.907 33.5773 390.156 33.586C391.057 33.6174 391.959 33.6163 392.861 33.6163C394.306 33.6153 395.75 33.6131 397.181 33.7464C403.777 34.359 410.365 35.0486 416.943 35.8227C421.198 36.3247 425.446 36.9254 429.665 37.667C432.874 38.2308 436.069 38.8759 439.26 39.5384L444.046 40.5358C448.309 41.4227 452.572 42.3107 456.808 43.3147C460.149 44.1062 463.466 45.0137 466.761 45.9754C472.065 47.5236 477.366 49.0871 482.623 50.7817C485.012 51.5515 487.37 52.4178 489.728 53.283C491.056 53.7709 492.385 54.2588 493.719 54.7294C493.895 54.7912 494.109 54.7489 494.323 54.7055C494.423 54.686 494.521 54.6665 494.618 54.6567C494.561 54.5841 494.51 54.4984 494.459 54.4139C494.349 54.2317 494.24 54.0507 494.079 53.9834C493.287 53.6506 492.497 53.3112 491.706 52.9708C489.428 51.9885 487.15 51.0072 484.805 50.219C483.043 49.627 481.233 49.1782 479.422 48.7293C478.035 48.3856 476.648 48.0419 475.281 47.6331C472.303 46.743 469.348 45.7715 466.227 44.7459C465.127 44.3837 464.006 44.0162 462.856 43.641C461.809 43.3592 460.764 43.0664 459.718 42.7748C457.386 42.1221 455.052 41.4704 452.694 40.924ZM469.298 271.75C468.088 274.14 466.864 276.554 465.624 279.029C465.399 279.472 465.175 279.878 464.963 280.266H464.962C464.642 280.846 464.345 281.386 464.101 281.947C463.122 284.185 462.159 286.429 461.193 288.674L461.191 288.679C460.05 291.334 458.908 293.991 457.744 296.637C456.173 300.211 454.569 303.774 452.892 307.301C450.396 312.548 447.851 317.775 445.272 322.985C443.072 327.427 440.822 331.846 438.542 336.248C436.018 341.12 433.473 345.981 430.867 350.81C427.624 356.821 424.369 362.827 421.01 368.774C418.762 372.755 416.447 376.699 414.133 380.644L414.132 380.647L414.13 380.649L414.128 380.653L414.126 380.655L414.125 380.658L414.124 380.66C413.073 382.45 412.023 384.24 410.979 386.035C410.058 387.618 409.14 389.203 408.222 390.788C406.213 394.256 404.205 397.726 402.157 401.172C401.88 401.639 401.604 402.106 401.329 402.573C401.158 402.865 400.986 403.158 400.815 403.449L400.809 403.457V403.458L400.808 403.459V403.46H400.807V403.461V403.462C398.925 406.664 397.042 409.87 394.904 412.896C393.556 414.803 392.005 416.568 390.453 418.335V418.336L390.451 418.337C389.454 419.472 388.457 420.607 387.513 421.78C387.105 422.287 386.943 423.731 387.16 423.848C387.221 423.881 387.285 423.917 387.349 423.954L387.448 424.014H387.45C388.115 424.408 388.857 424.848 389.734 423.799C390.619 422.742 391.595 421.751 392.571 420.761C393.987 419.324 395.4 417.891 396.526 416.258C399.285 412.26 401.771 408.075 404.254 403.892L404.264 403.875C404.78 403.006 405.298 402.135 405.817 401.267C407.46 398.519 409.062 395.748 410.664 392.977L410.666 392.973L410.668 392.968L410.672 392.965L410.674 392.961L410.676 392.956L410.679 392.952C411.995 390.675 413.311 388.398 414.65 386.135C415.709 384.344 416.799 382.572 417.889 380.799C418.995 378.999 420.102 377.2 421.177 375.382C423.528 371.402 425.851 367.403 428.087 363.359C428.998 361.71 429.852 360.03 430.704 358.349L430.705 358.347C431.438 356.902 432.171 355.456 432.942 354.032C433.908 352.245 434.903 350.474 435.897 348.703L435.901 348.698L435.902 348.696C437.211 346.365 438.521 344.034 439.763 341.669C440.837 339.627 441.838 337.548 442.839 335.469L442.841 335.467C443.67 333.747 444.498 332.027 445.366 330.328C446.421 328.267 447.508 326.222 448.595 324.179L448.596 324.177L448.597 324.174L448.598 324.172L448.599 324.17L448.6 324.168L448.601 324.166L448.603 324.165V324.162L448.604 324.161L448.605 324.159L448.606 324.158V324.156C450.125 321.3 451.644 318.443 453.073 315.544C455.257 311.107 457.285 306.595 459.312 302.083C459.539 301.577 459.767 301.071 459.995 300.563C460.985 298.361 461.944 296.146 462.903 293.93C463.892 291.643 464.882 289.357 465.906 287.085C468.109 282.201 470.334 277.326 472.67 272.504C473.909 269.944 475.213 267.415 476.517 264.887L476.518 264.885V264.884L476.52 264.883L476.521 264.881V264.879L476.522 264.878C477.456 263.066 478.39 261.253 479.302 259.429C480.368 257.294 481.411 255.147 482.455 253.001V253L482.456 252.999V252.997L482.457 252.996V252.995L482.458 252.994C484.402 248.991 486.348 244.989 488.441 241.065C488.882 240.237 489.301 239.396 489.72 238.552L489.721 238.551V238.55C491.286 235.408 492.858 232.25 495.59 229.803C496.136 229.315 496.244 228.159 496.209 227.325C496.196 227.007 495.169 226.429 494.686 226.502C494.039 226.601 493.276 227.087 492.906 227.633C491.785 229.29 490.713 230.978 489.64 232.666H489.639V232.667L489.638 232.668V232.669C488.904 233.823 488.171 234.977 487.423 236.122C482.915 243.009 479.453 250.419 476.15 257.917C475.212 260.046 474.159 262.128 473.108 264.207V264.208C472.88 264.659 472.652 265.11 472.424 265.561C471.39 267.62 470.35 269.675 469.298 271.75ZM453.434 252.825C452.442 257.507 451.423 262.059 450.312 266.59C449.889 268.322 449.359 270.027 448.829 271.733L448.825 271.747C448.714 272.107 448.602 272.466 448.493 272.825C448.43 273.027 448.368 273.23 448.305 273.434L448.187 273.825L448.082 274.168L447.904 274.756L447.903 274.757C447.221 277.006 446.537 279.255 445.761 281.472C441.893 292.501 437.979 303.515 434.064 314.527C433.302 316.669 432.509 318.802 431.717 320.935C431.353 321.914 430.989 322.894 430.628 323.874C430.018 325.532 429.427 327.198 428.836 328.865L428.835 328.866C427.494 332.649 426.151 336.433 424.582 340.121C422.776 344.366 420.738 348.514 418.701 352.661L418.699 352.663C417.984 354.119 417.268 355.574 416.563 357.035C414.792 360.703 412.982 364.354 411.144 367.991C410.053 370.147 408.949 372.298 407.843 374.448L407.84 374.453C406.178 377.687 404.515 380.92 402.903 384.18C402.137 385.726 401.437 387.304 400.736 388.883C399.909 390.744 399.082 392.606 398.15 394.416C396.373 397.861 394.424 401.222 392.477 404.58C392.271 404.936 392.064 405.291 391.858 405.647C389.787 409.223 387.685 412.783 385.485 416.282C384.461 417.912 383.234 419.431 381.971 420.891C381.676 421.232 381.195 421.416 380.715 421.6C380.496 421.685 380.275 421.769 380.073 421.868C380.034 421.624 379.959 421.363 379.885 421.103C379.722 420.536 379.56 419.967 379.755 419.573C380.897 417.263 382.235 415.045 383.574 412.836C384.4 411.474 385.253 410.125 386.106 408.777C387.566 406.47 389.025 404.162 390.351 401.781C393.123 396.802 395.703 391.715 398.261 386.622C399.101 384.949 399.871 383.241 400.64 381.533L400.642 381.532L400.643 381.531V381.529L400.644 381.527V381.526L400.645 381.525V381.524L400.646 381.523V381.522C401.363 379.933 402.079 378.344 402.851 376.782C404.025 374.414 405.246 372.069 406.468 369.724C407.407 367.924 408.345 366.124 409.26 364.313C409.593 363.656 409.927 362.999 410.26 362.343L410.262 362.342C411.808 359.302 413.355 356.261 414.736 353.148C418.069 345.637 421.296 338.078 424.466 330.498C425.229 328.672 425.894 326.805 426.559 324.939C427.065 323.518 427.57 322.099 428.12 320.696C428.568 319.552 429.074 318.429 429.578 317.307L429.58 317.306C430.092 316.169 430.604 315.03 431.057 313.87C432.402 310.421 433.679 306.944 434.893 303.447C435.255 302.404 435.551 301.339 435.846 300.273C436.117 299.296 436.388 298.32 436.71 297.361C437.131 296.107 437.597 294.869 438.065 293.63C438.49 292.499 438.917 291.368 439.308 290.225C439.581 289.427 439.855 288.63 440.131 287.833L440.136 287.816L440.142 287.8C441.431 284.056 442.721 280.312 443.869 276.527C445.401 271.475 446.932 266.405 448.077 261.259C448.876 257.674 449.538 254.059 450.2 250.443V250.442V250.441V250.439C450.811 247.108 451.421 243.777 452.137 240.469C453.211 235.51 454.004 230.605 453.191 225.518C453.13 225.137 453.666 224.662 454.202 224.188C454.451 223.967 454.699 223.746 454.889 223.536C455.067 223.769 455.282 223.997 455.497 224.223C455.962 224.717 456.428 225.209 456.531 225.767C457.291 229.873 456.953 233.994 456.197 238.075C455.854 239.925 455.501 241.774 455.145 243.628V243.631C454.564 246.666 453.981 249.718 453.434 252.825ZM597.484 367.115C598.04 369.88 597.461 372.762 596.438 375.394C594.69 371.607 591.438 368.514 587.531 366.917C585.003 365.884 582.263 365.47 579.548 365.126C575.045 364.557 570.495 364.159 565.967 364.47C551.37 365.477 538.292 373.744 527.392 383.338C523.026 387.181 518.891 391.277 514.756 395.37V395.371C508.57 401.496 502.388 407.617 495.445 412.884C494.843 413.341 493.785 413.691 493.491 413.002C501.644 405.889 508.214 397.225 514.71 388.62L514.771 388.54C521.246 379.961 527.774 371.314 535.861 364.177C543.974 357.019 553.871 351.398 564.692 350.076C575.512 348.756 587.269 352.281 594.116 360.618C595.685 362.529 597 364.707 597.484 367.115ZM347.755 383.425C346.965 396.418 352.433 409.521 361.822 418.705C346.672 408.054 340.821 386.378 348.607 369.753C345.902 369.293 343.154 370.85 341.542 373.034C339.929 375.217 339.257 377.927 338.806 380.589C336.043 396.907 340.636 414.295 351.129 427.234C343.616 420.808 339.025 411.533 337.001 401.951C334.979 392.37 335.358 382.444 336.542 372.728C330.869 374.743 326.578 379.676 324.487 385.236C322.397 390.796 322.314 396.924 323.225 402.784C324.751 412.584 329.037 421.955 335.482 429.583C328.464 424.357 323.808 416.426 321.708 408.025C319.609 399.622 319.932 390.767 321.601 382.272C318.387 381.473 315.256 383.641 312.726 385.743C306.429 390.978 300.49 396.617 294.553 402.254V402.256H294.552C286.799 409.619 279.05 416.979 270.508 423.427C271.762 423.212 273.028 423.194 274.27 423.506C275.527 423.822 276.585 424.448 277.624 425.062L277.78 425.154C295.561 435.651 318.621 441.172 341.376 440.379C347.434 440.168 353.579 439.501 359.023 437.53C360.404 437.029 362.678 436.74 362.944 437.859C362.985 438.027 362.756 438.225 362.294 438.44C375.691 435.729 388.584 431.665 400.469 426.365C403.402 425.058 406.808 423.621 410.051 424.435C411.308 424.751 412.366 425.378 413.405 425.991L413.56 426.083C429.298 435.374 449.169 440.766 469.306 441.333C469.317 441.331 469.326 441.329 469.336 441.327C469.352 441.323 469.367 441.321 469.383 441.319C469.414 441.315 469.447 441.311 469.48 441.31C477.633 440.974 485.745 440.14 493.714 438.833C493.934 438.761 494.152 438.688 494.369 438.613C494.514 438.562 494.659 438.511 494.803 438.459C495.73 438.123 497.056 437.883 497.911 438.098C512.389 435.401 526.329 431.134 539.106 425.436C542.038 424.129 545.445 422.692 548.687 423.506C549.944 423.822 551.003 424.448 552.041 425.062L552.197 425.154C569.978 435.651 593.038 441.172 615.793 440.379C621.851 440.168 627.996 439.501 633.44 437.53C634.822 437.029 637.095 436.74 637.362 437.859C637.772 439.582 610.143 444.218 593.849 442.075C583.392 440.7 575.956 439.146 568.624 437.613H568.623C564.53 436.758 560.469 435.909 555.931 435.102C552.909 434.564 549.846 434.068 546.737 434.03C542.637 433.981 538.606 434.729 534.631 435.473L512.242 439.662C503.371 441.322 494.316 442.991 485.238 443.53C475.392 444.8 465.106 444.313 455.212 443.004C447.101 441.93 439.149 440.327 431.196 438.723H431.195C426.572 437.791 421.95 436.86 417.295 436.031C414.272 435.492 411.209 434.997 408.1 434.959C404.001 434.909 399.969 435.658 395.995 436.402L373.605 440.591C360.102 443.118 346.178 445.663 332.385 444.218C331.62 444.138 330.783 444.014 330.302 443.569C330.023 443.311 329.99 442.917 330.16 442.625C326.343 442.658 322.664 442.5 319.431 442.075C308.975 440.7 301.539 439.146 294.207 437.613H294.206C290.113 436.758 286.052 435.909 281.514 435.102C278.491 434.564 275.428 434.068 272.319 434.03C268.22 433.981 264.189 434.729 260.214 435.473L240.801 439.105C236 440.546 231.084 441.474 226.113 441.746C221.042 442.564 215.936 443.226 210.821 443.53C200.975 444.8 190.689 444.313 180.795 443.004C172.684 441.93 164.732 440.328 156.779 438.723H156.777L156.774 438.722H156.772C152.152 437.791 147.531 436.858 142.877 436.031C139.855 435.492 136.792 434.997 133.683 434.959C129.583 434.909 125.552 435.658 121.578 436.402L99.1879 440.591C85.6845 443.118 71.7611 445.663 57.9681 444.218C57.2024 444.138 56.3659 444.014 55.8845 443.569C55.4032 443.122 55.6539 442.271 56.426 442.239C80.9249 441.229 105.058 435.727 126.052 426.365C128.985 425.058 132.391 423.621 135.634 424.435C136.891 424.751 137.949 425.378 138.987 425.991L139.143 426.083C154.88 435.374 174.752 440.766 194.888 441.333C194.898 441.331 194.907 441.329 194.917 441.327C194.927 441.326 194.937 441.323 194.946 441.322C194.964 441.319 194.982 441.317 194.999 441.315C195.02 441.312 195.041 441.311 195.063 441.31C203.215 440.974 211.328 440.14 219.297 438.833C219.663 438.714 220.026 438.589 220.386 438.459C221.313 438.123 222.639 437.883 223.494 438.098C230.093 436.869 236.58 435.313 242.897 433.445C243.676 433.088 244.45 432.717 245.218 432.33C257.701 426.044 267.829 416.017 276.645 405.297C280.621 400.461 284.376 395.453 288.13 390.446C292.698 384.354 297.264 378.264 302.23 372.484C311.277 361.953 321.888 352.324 334.756 346.841C347.626 341.357 363.054 340.49 375.429 346.979C378.796 348.745 381.915 351.045 384.287 353.983C390.952 362.236 390.635 374.374 386.168 383.952C385.125 382.655 384.255 381.238 383.385 379.82L383.384 379.819C382.613 378.562 381.841 377.304 380.948 376.131C379.049 373.633 376.35 371.429 373.181 371.252C368.706 371.003 365.046 374.812 363.08 378.768C357.623 389.758 360.826 404.235 370.434 412.009C362.881 409.896 359.688 401.165 358.624 393.522C357.415 384.844 357.723 375.265 363.195 368.35C359.299 366.593 354.447 368.385 351.714 371.63C348.982 374.875 348.012 379.221 347.755 383.425ZM385.583 377.128C386.76 374.099 387.427 370.783 386.786 367.603C386.229 364.832 384.716 362.326 382.909 360.128C375.03 350.535 361.498 346.48 349.045 348C336.591 349.519 325.199 355.986 315.862 364.222C306.554 372.433 299.041 382.382 291.588 392.253L291.518 392.345C284.042 402.246 276.48 412.213 267.097 420.398C267.434 421.19 268.653 420.787 269.345 420.261C277.335 414.202 284.452 407.158 291.571 400.111C296.33 395.401 301.091 390.689 306.116 386.268C318.659 375.229 333.711 365.717 350.511 364.56C355.724 364.202 360.96 364.66 366.142 365.315C369.268 365.71 372.421 366.186 375.331 367.374C379.829 369.212 383.569 372.771 385.583 377.128Z" fill="#00160A"/>
<path fill-rule="evenodd" clip-rule="evenodd" d="M394.638 302.374C392.841 306.703 390.046 310.069 386.594 312.831C381.418 316.974 375.538 318.553 369.041 316.432C365.01 315.114 361.041 313.738 357.803 310.665C353.834 306.897 352.443 302.372 352.674 297.189C352.763 295.183 352.746 292.994 353.551 291.236C355.483 287.021 357.549 282.828 361.689 280.078C366.63 276.794 371.873 274.575 377.936 274.738C385.911 274.95 391.816 278.625 395.604 285.477C397.619 289.124 397.009 293.081 396.157 296.944C395.769 298.707 395.2 300.431 394.638 302.374ZM356.276 296.109C356.504 298.746 356.112 301.631 357.076 303.972C359.797 310.582 365.812 313.186 372.391 314.044C379.455 314.964 384.599 311.177 388.725 305.875C391.265 302.61 392.501 298.776 393.213 294.819C393.9 290.993 393.601 287.254 390.919 284.034C388.755 281.436 386.118 279.599 382.773 278.94C380.374 278.468 377.811 277.57 375.524 277.979C366.41 279.606 358.132 284.136 356.276 296.109Z" fill="#FFB61D"/>
<path fill-rule="evenodd" clip-rule="evenodd" d="M474.473 341.611C474.858 333.487 478.248 327.045 484.453 322.153C488.302 319.118 492.776 320.484 495.3 325.034C498.485 330.774 498.819 336.743 496.196 342.625C494.163 347.184 491.007 350.946 486.193 353.183C482.608 354.849 478.061 353.202 476.578 349.823C475.477 347.314 475.099 344.494 474.473 341.611ZM478.222 337.704C478.156 338.303 478.065 338.898 478.027 339.498C477.828 342.712 477.925 345.857 479.682 348.755C480.775 350.556 483.458 351.394 485.147 350.249C489.392 347.368 492.733 343.723 493.991 338.68C494.955 334.812 494.959 330.889 492.929 327.244C491.431 324.556 488.647 323.498 486.557 324.848C485.613 325.459 484.818 326.305 483.987 327.078C480.98 329.873 479.615 333.556 478.222 337.704Z" fill="#FFB61D"/>
<path fill-rule="evenodd" clip-rule="evenodd" d="M370.331 284.605C372.817 282.523 378.044 282.434 380.819 284.17C389.84 289.816 386.232 301.346 379.921 305.504C373.76 309.563 365.573 305.425 363.6 300.146C362.596 297.459 362.997 294.962 364.066 292.304C365.362 289.078 367.229 286.493 370.331 284.605ZM369.558 297.69C369.224 296.924 368.599 296.148 368.623 295.393C368.662 294.184 369.168 292.995 369.407 291.784C369.534 291.137 369.516 290.462 369.564 289.799C369.09 290.363 368.416 290.858 368.183 291.506C367.623 293.067 367.223 294.689 366.843 296.306C365.98 299.978 369.873 304.454 373.764 304.095C378.333 303.674 380.997 300.952 382.415 296.735C383.86 292.442 382.553 288.728 378.6 286.552C377.242 285.803 374.765 286.209 374.29 287.478C373.41 289.833 372.834 292.299 372.028 294.684C371.592 295.978 372.42 298.244 369.558 297.69Z" fill="#FFB61D"/>
<path fill-rule="evenodd" clip-rule="evenodd" d="M485.853 344.905C481.086 344.065 479.066 340.565 480.631 336.177C481.487 333.775 482.211 331.326 484.406 329.649C486.272 328.223 488.166 328.146 490.293 329C492.127 329.736 492.721 331.245 492.863 332.9C493.303 337.998 490.966 343.451 486.791 344.798C486.545 344.877 486.259 344.829 485.853 344.905ZM488.35 339.065C488.77 337.923 489.282 336.805 489.576 335.633C489.757 334.913 489.603 334.111 489.598 333.345C489.238 333.846 488.883 334.352 488.515 334.846C488.236 335.218 488.011 335.737 487.633 335.903C487.129 336.126 486.378 336.291 485.958 336.068C485.6 335.876 485.408 335.098 485.425 334.588C485.439 334.18 485.935 333.811 486.113 333.381C486.267 333.01 486.273 332.58 486.346 332.174C485.965 332.387 485.353 332.518 485.245 332.824C484.721 334.308 484.336 335.841 483.895 337.355C483.43 338.951 483.255 340.82 484.846 341.562C486.376 342.277 487.319 340.585 488.35 339.065Z" fill="#FFB61D"/>
<path fill-rule="evenodd" clip-rule="evenodd" d="M696.874 99.2766C694.163 99.1996 693.89 98.9112 693.869 95.8375C693.809 95.5653 693.724 95.329 693.646 95.1154C693.538 94.814 693.446 94.5559 693.46 94.3044C693.559 92.5696 692.251 92.5772 691.332 92.9274C690.774 93.141 690.316 94.287 690.289 95.0297C690.269 95.6304 690.398 96.2343 690.53 96.8404C690.643 97.3662 690.755 97.8921 690.772 98.419C690.784 98.8375 690.223 99.4815 689.778 99.6496C689.328 99.8209 688.781 99.7732 688.251 99.7265C688.116 99.7146 687.982 99.7027 687.852 99.6951C686.652 99.6203 685.263 99.7179 685.328 101.11C685.354 101.68 687.022 102.673 687.882 102.614C690.387 102.436 691.821 103.164 692.444 105.697C692.564 106.185 693.191 106.551 693.817 106.915C694.105 107.083 694.392 107.251 694.63 107.43C694.732 107.177 694.877 106.915 695.022 106.651V106.65C695.337 106.076 695.652 105.501 695.527 105.044C694.926 102.845 695.909 102.355 697.826 102.226C698.326 102.192 698.807 101.883 699.289 101.574C699.508 101.433 699.727 101.292 699.949 101.177C699.776 101.009 699.606 100.835 699.437 100.661L699.435 100.659L699.43 100.656C699.006 100.22 698.581 99.7851 698.099 99.4252C697.88 99.2614 697.52 99.269 697.177 99.2755C697.072 99.2777 696.97 99.2788 696.874 99.2766ZM143.432 99.2083C143.424 99.1519 143.41 99.0749 143.335 98.9502C141.012 97.9669 140.044 98.4494 139.99 100.57C139.959 101.801 139.526 102.374 138.274 102.789C137.401 103.079 136.204 104.13 136.193 104.855C136.177 106.027 137.481 106.309 138.642 106.141C140.127 105.926 140.438 106.684 140.436 107.99C140.434 109.359 140.498 110.79 140.923 112.067C141.062 112.487 141.629 112.768 142.198 113.047C142.454 113.174 142.711 113.301 142.929 113.441C143.023 113.262 143.125 113.085 143.228 112.907C143.467 112.494 143.707 112.081 143.849 111.638C143.95 111.323 143.925 110.97 143.9 110.616C143.889 110.459 143.878 110.302 143.878 110.147C143.878 106.174 143.888 106.171 147.38 104.955L147.461 104.926C147.875 104.782 148.231 104.477 148.589 104.171C148.753 104.03 148.918 103.889 149.089 103.763C148.909 103.609 148.737 103.435 148.565 103.26C148.183 102.873 147.802 102.486 147.34 102.324C146.08 101.883 143.871 100.333 143.447 99.2701C143.439 99.2517 143.436 99.2321 143.432 99.2083ZM625.504 176.652C626.617 176.652 627.098 180.455 627.305 182.095L627.306 182.097C627.342 182.386 627.371 182.608 627.392 182.729C627.451 183.062 628.511 183.074 629.573 183.087C630.632 183.099 631.693 183.112 631.76 183.441C631.825 183.764 630.769 184.326 629.776 184.854C628.938 185.301 628.143 185.724 628.101 185.96C628.067 186.152 628.04 186.428 628.007 186.751V186.754C627.86 188.211 627.618 190.625 626.283 190.625C626.056 190.625 625.809 190.017 625.492 189.24C624.933 187.865 624.159 185.96 622.9 185.96C622.538 185.96 617.17 185.77 617.095 185.341C617.023 184.916 622.122 183.324 622.9 183.1C623.588 182.9 624.035 181.052 624.437 179.385C624.783 177.951 625.096 176.652 625.504 176.652ZM82.2608 195.203C82.5087 196.32 82.7631 197.47 84.815 197.164C85.2493 196.611 85.6594 196.056 85.6496 195.508C85.6386 194.958 85.5333 194.403 85.428 193.848C85.1681 192.475 84.9082 191.104 86.0893 189.818C86.1727 189.726 85.8974 189.18 85.6726 188.964C84.2743 187.622 83.8094 186.033 83.8401 184.107C83.8477 183.604 82.6008 182.909 81.8145 182.662C81.5524 182.58 80.7003 183.56 80.5303 184.167C80.3109 184.95 80.244 185.968 80.5763 186.669C81.2058 188.002 80.4305 188.229 79.6453 188.458C79.5301 188.492 79.415 188.525 79.3031 188.563C79.041 188.651 78.7559 188.692 78.4729 188.733C78.0704 188.792 77.6712 188.851 77.3477 189.041C76.5746 189.499 75.2706 190.494 75.3814 190.747C75.8124 191.72 76.6305 192.312 78.0167 191.744C78.928 191.371 80.1925 191.411 81.1335 191.735C81.355 191.81 81.4153 192.233 81.4833 192.708C81.5447 193.143 81.6138 193.621 81.8167 193.919C82.0536 194.266 82.1567 194.731 82.2608 195.203Z" fill="#00160A"/>
<path d="M470.084 295.174L699.392 295.188L470.084 295.174Z" fill="#242424"/>
<path fill-rule="evenodd" clip-rule="evenodd" d="M450.179 26.4212C450.179 26.4212 450.541 11.5728 453.71 8.8796C455.461 7.39096 455.775 15.5562 462.067 17.2444C466.396 18.4056 471.366 15.9888 476.09 17.1208C478.115 17.6065 482.933 21.4023 481.767 22.4822C480.529 23.6282 478.592 20.6976 471.282 21.5747C468.41 21.9195 463.775 25.9908 459.606 26.2466C453.733 26.6066 450.179 26.4212 450.179 26.4212Z" fill="#FFB61D"/>
<defs>
<linearGradient id="paint0_linear" x1="341.592" y1="268.183" x2="754.202" y2="456.396" gradientUnits="userSpaceOnUse">
<stop stop-color="#FFB606"/>
<stop offset="1" stop-color="#FFB606" stop-opacity="0.43"/>
</linearGradient>
</defs>
</svg>
